<svg width="89" height="67" viewBox="0 0 89 67" fill="none" xmlns="http://www.w3.org/2000/svg">
<g clip-path="url(#clip0_181_831)">
<path fill-rule="evenodd" clip-rule="evenodd" d="M2.24528 62.5092H10.5528C10.2795 62.2143 10.1315 61.8247 10.14 61.4227V27.3795C10.14 26.9664 10.304 26.5703 10.5961 26.2783C10.8881 25.9862 11.2842 25.8222 11.6972 25.8222H76.9552C77.3676 25.8241 77.7626 25.9888 78.0542 26.2804C78.3458 26.572 78.5105 26.967 78.5124 27.3795V61.4227C78.5093 61.828 78.3512 62.2168 78.0706 62.5092H86.762C87.3575 62.5092 87.9286 62.7458 88.3496 63.1669C88.7707 63.588 89.0072 64.1591 89.0072 64.7546C89.0072 65.3501 88.7707 65.9212 88.3496 66.3423C87.9286 66.7634 87.3575 67 86.762 67H2.24528C1.64979 67 1.0787 66.7634 0.657627 66.3423C0.236556 65.9212 0 65.3501 0 64.7546C0 64.1591 0.236556 63.588 0.657627 63.1669C1.0787 62.7458 1.64979 62.5092 2.24528 62.5092ZM63.8094 15.9351H59.3913V22.8597H56.2986V14.3851C56.2976 14.1813 56.3371 13.9793 56.4146 13.7908C56.4922 13.6023 56.6063 13.431 56.7504 13.2869C56.8945 13.1428 57.0658 13.0286 57.2543 12.9511C57.4428 12.8735 57.6447 12.8341 57.8486 12.835H63.8311C64.2098 11.8344 64.9291 10.9992 65.8625 10.4764C66.796 9.95352 67.8838 9.77647 68.9348 9.97633C69.9859 10.1762 70.9328 10.7402 71.6093 11.5691C72.2857 12.3981 72.6483 13.439 72.6333 14.5088C72.6183 15.5786 72.2267 16.6089 71.5273 17.4186C70.8279 18.2283 69.8655 18.7655 68.8093 18.9358C67.753 19.1061 66.6706 18.8986 65.7522 18.3498C64.8337 17.801 64.1382 16.946 63.7877 15.9351H63.8094ZM31.8685 17.0216V22.8597H28.7613V18.5717H25.2051C24.8398 19.577 24.1319 20.4214 23.2058 20.9565C22.2798 21.4917 21.1947 21.6833 20.1414 21.4978C19.088 21.3124 18.1337 20.7616 17.4461 19.9423C16.7585 19.123 16.3816 18.0876 16.3816 17.018C16.3816 15.9484 16.7585 14.913 17.4461 14.0937C18.1337 13.2744 19.088 12.7236 20.1414 12.5382C21.1947 12.3527 22.2798 12.5443 23.2058 13.0795C24.1319 13.6146 24.8398 14.459 25.2051 15.4643H30.3475C30.5509 15.4641 30.7524 15.5044 30.9401 15.5827C31.1279 15.6611 31.2982 15.7759 31.4412 15.9206C31.7226 16.2173 31.8761 16.6128 31.8685 17.0216ZM23.9448 0C23.1254 0.000283731 22.3214 0.221911 21.6175 0.641462C20.9137 1.06101 20.3363 1.66291 19.9462 2.38355C19.5562 3.10419 19.3681 3.9168 19.4017 4.73554C19.4354 5.55427 19.6895 6.34871 20.1374 7.03491C20.5852 7.72112 21.2101 8.2736 21.946 8.63398C22.6819 8.99436 23.5014 9.14926 24.3181 9.0823C25.1347 9.01535 25.9181 8.72903 26.5854 8.2536C27.2528 7.77817 27.7794 7.13128 28.1095 6.3813H37.2065V22.8597H40.3064V4.83849C40.3083 4.63406 40.2696 4.43128 40.1925 4.24195C40.1153 4.05261 40.0014 3.88049 39.8572 3.7356C39.7129 3.5907 39.5414 3.47591 39.3524 3.3979C39.1634 3.31989 38.9609 3.28022 38.7564 3.28119H28.3123C28.0398 2.33802 27.4692 1.50853 26.6857 0.916987C25.9022 0.325448 24.9482 0.00371726 23.9666 0L23.9448 0ZM49.1427 0.0724324C48.0707 0.0696478 47.0322 0.445588 46.2103 1.13392C45.3885 1.82226 44.8362 2.77876 44.6509 3.83465C44.4655 4.89055 44.659 5.97798 45.1973 6.90509C45.7355 7.83221 46.5839 8.53942 47.5927 8.90195V22.8597H50.6999V8.90195C51.7093 8.53922 52.5581 7.83141 53.0963 6.90354C53.6345 5.97566 53.8275 4.88743 53.6412 3.83106C53.4548 2.77469 52.9012 1.81815 52.0781 1.13039C51.255 0.442638 50.2153 0.0679218 49.1427 0.0724324ZM37.0254 34.7676C37.0217 33.3737 37.4135 32.0073 38.1553 30.8272H50.8447C51.5873 32.007 51.9791 33.3736 51.9746 34.7676C51.9746 36.7501 51.1871 38.6514 49.7854 40.0532C48.3836 41.455 46.4824 42.2426 44.5 42.2426C42.5176 42.2426 40.6164 41.455 39.2147 40.0532C37.8129 38.6514 37.0254 36.7501 37.0254 34.7676ZM66.0764 35.0501V36.6146C66.0745 37.3197 65.7941 37.9955 65.2962 38.4947C64.7983 38.994 64.1233 39.2763 63.4183 39.2801H60.6877C60.3471 40.799 59.7935 42.2621 59.0436 43.6261L60.8398 45.4079C61.3365 45.9073 61.6153 46.5831 61.6153 47.2875C61.6153 47.9919 61.3365 48.6677 60.8398 49.1671L58.667 51.3836C58.1663 51.8807 57.4894 52.1597 56.7839 52.1597C56.0783 52.1597 55.4014 51.8807 54.9007 51.3836L53.2421 49.7249C51.8489 50.5959 50.3327 51.2527 48.7443 51.6733V53.9332C48.7405 54.639 48.4585 55.3147 47.9594 55.8138C47.4604 56.3129 46.7847 56.5949 46.0789 56.5987H42.9355C42.2298 56.5949 41.5541 56.3129 41.0551 55.8138C40.556 55.3147 40.274 54.639 40.2702 53.9332V51.7023C38.6676 51.2901 37.1366 50.6381 35.7289 49.7683L34.1138 51.3836C33.6143 51.8803 32.9386 52.1591 32.2343 52.1591C31.5299 52.1591 30.8542 51.8803 30.3547 51.3836L28.1384 49.1671C27.6417 48.6677 27.3629 47.9919 27.3629 47.2875C27.3629 46.5831 27.6417 45.9073 28.1384 45.4079L29.8767 43.6623C29.1067 42.2807 28.5407 40.7949 28.1964 39.2511H25.5817C24.8767 39.2473 24.2017 38.965 23.7038 38.4658C23.2059 37.9665 22.9255 37.2907 22.9236 36.5856V33.4493C22.9265 32.7669 23.191 32.1116 23.6626 31.6184C24.1342 31.1252 24.777 30.8316 25.4586 30.7983H34.3745C33.9486 31.9733 33.7305 33.2135 33.7299 34.4634C33.7299 34.6517 33.7299 34.8328 33.7299 35.0211C33.7299 35.2094 33.7299 35.3905 33.7299 35.5716C33.7299 38.4128 34.8585 41.1376 36.8674 43.1466C38.8763 45.1557 41.601 46.2843 44.4421 46.2843C47.2831 46.2843 50.0078 45.1557 52.0167 43.1466C54.0256 41.1376 55.1542 38.4128 55.1542 35.5716C55.1542 35.3905 55.1542 35.2022 55.1542 35.0211C55.1542 34.84 55.1542 34.6517 55.1542 34.4634C55.1536 33.2135 54.9355 31.9733 54.5096 30.7983H63.5414C64.223 30.8316 64.8658 31.1252 65.3374 31.6184C65.809 32.1116 66.0735 32.7669 66.0764 33.4493V35.0211V35.0501ZM12.7764 28.2486H76.0498V60.9881H12.7764V28.2486ZM41.936 63.6174H47.0785C47.3022 63.6228 47.5153 63.7136 47.6742 63.8712C47.8332 64.0288 47.9258 64.2412 47.9331 64.4649C47.936 64.58 47.9162 64.6945 47.8748 64.802C47.8334 64.9094 47.7712 65.0076 47.6919 65.091C47.6125 65.1745 47.5175 65.2414 47.4122 65.2881C47.307 65.3347 47.1936 65.3602 47.0785 65.363H41.936C41.8197 65.3621 41.7047 65.338 41.5978 65.2922C41.4909 65.2464 41.3941 65.1797 41.3132 65.0961C41.2323 65.0125 41.1689 64.9136 41.1266 64.8053C41.0843 64.6969 41.064 64.5812 41.0669 64.4649C41.0669 64.2343 41.1585 64.0133 41.3215 63.8503C41.4845 63.6873 41.7055 63.5957 41.936 63.5957V63.6174Z" fill="#3D9865"/>
</g>
<defs>
<clipPath id="clip0_181_831">
<rect width="89" height="67" fill="white"/>
</clipPath>
</defs>
</svg>
