<svg width="61" height="63" viewBox="0 0 61 63" fill="none" xmlns="http://www.w3.org/2000/svg">
<g clip-path="url(#clip0_181_820)">
<path fill-rule="evenodd" clip-rule="evenodd" d="M24.3029 40.3133L22.4979 42.118V38.5035L24.2978 40.3133H24.3029ZM22.1809 24.0198L22.1502 24.148C22.9005 24.7292 23.559 25.4206 24.1035 26.1988C36.4415 26.1988 19.2408 26.1988 36.8864 26.1988C37.4395 25.4136 38.1045 24.714 38.86 24.1224C38.8221 24.0389 38.7946 23.9511 38.7782 23.8609C38.7271 23.6199 38.6555 23.3482 38.5788 23.1072C38.5021 22.8663 38.4203 22.6458 38.3436 22.451L38.3078 22.3792C38.0898 21.8661 37.8263 21.3736 37.5204 20.9078C37.2182 20.4604 36.8759 20.0417 36.4978 19.6568C36.1169 19.2763 35.7009 18.933 35.2553 18.6314C34.7907 18.3247 34.2995 18.0604 33.7878 17.8418C33.2753 17.6157 32.7406 17.4439 32.1925 17.3291C31.0678 17.1104 29.9118 17.1104 28.7871 17.3291C28.2626 17.4325 27.749 17.5853 27.2532 17.7854L27.1816 17.8213C26.6698 18.0399 26.1787 18.3042 25.7141 18.6109C25.2685 18.9125 24.8525 19.2558 24.4716 19.6363C24.0935 20.0212 23.7512 20.4399 23.449 20.8873C23.1431 21.3531 22.8796 21.8456 22.6615 22.3587C22.5454 22.6203 22.4463 22.8891 22.365 23.1636C22.2825 23.4385 22.2142 23.7174 22.1605 23.9993L22.1809 24.0198ZM19.8902 22.9483C19.9311 22.7894 19.9771 22.6304 20.0283 22.4664C20.1356 22.1075 20.2635 21.7588 20.4066 21.4102C20.6893 20.7578 21.0316 20.1331 21.4293 19.544C21.8147 18.9617 22.2566 18.419 22.7485 17.9239C23.2423 17.4307 23.7835 16.9876 24.3642 16.6011C24.9517 16.2024 25.5748 15.8592 26.2254 15.5757L26.3277 15.5347C26.9672 15.2671 27.6318 15.0645 28.3116 14.9297C29.7565 14.6424 31.2436 14.6424 32.6884 14.9297C33.4023 15.0709 34.0997 15.2857 34.7695 15.5706C35.4202 15.854 36.0432 16.1973 36.6307 16.596C37.2114 16.9825 37.7526 17.4255 38.2465 17.9187C38.7416 18.4118 39.1869 18.9528 39.5759 19.5337C39.9715 20.1241 40.3137 20.7486 40.5985 21.3999L40.6343 21.5025C40.7621 21.8101 40.8695 22.0972 40.9513 22.3638C41.0076 22.5381 41.0536 22.7176 41.1047 22.8765C45.3793 21.3897 50.3595 24.0198 53.6473 27.6138V23.8199C53.649 23.6765 53.6247 23.5341 53.5757 23.3995C53.5079 23.2552 53.4163 23.1235 53.3047 23.0098C53.203 22.8995 53.0784 22.8129 52.9397 22.7562C52.801 22.6995 52.6516 22.6741 52.5019 22.6817H48.8818C48.5903 22.6825 48.3079 22.5801 48.0843 22.3925C47.8607 22.2049 47.7104 21.9442 47.6598 21.6563C47.578 21.323 47.4808 20.9795 47.3734 20.6309C47.2661 20.2823 47.1382 19.908 46.9848 19.5132V19.4517C46.8468 19.0877 46.7036 18.7442 46.5605 18.4263C46.4173 18.1084 46.2332 17.7444 46.0491 17.4009C45.9232 17.1683 45.8751 16.9012 45.9119 16.6391C45.9487 16.3769 46.0685 16.1336 46.2537 15.9449L49.0864 13.0481C49.1919 12.9516 49.2771 12.8348 49.3369 12.7046C49.3909 12.573 49.417 12.4316 49.4136 12.2894C49.4169 12.1433 49.389 11.9982 49.3318 11.8638C49.2673 11.7134 49.1734 11.5774 49.0557 11.4639L45.589 7.99297C45.4767 7.87615 45.343 7.78215 45.1952 7.71611C45.0588 7.66127 44.9126 7.6351 44.7657 7.63921C44.6172 7.63568 44.4695 7.66182 44.3311 7.71611C44.1905 7.77957 44.0636 7.87016 43.9579 7.98271L41.3706 10.5462C41.1674 10.7511 40.8988 10.8778 40.6117 10.9041C40.3247 10.9303 40.0377 10.8545 39.8009 10.6897C39.5043 10.4949 39.1822 10.3103 38.8498 10.1309C38.5175 9.95146 38.1442 9.76176 37.8272 9.61821C37.5102 9.47466 37.1113 9.30547 36.7381 9.16191C36.3648 9.01836 36.0273 8.89531 35.6234 8.76201C35.3756 8.68021 35.1598 8.52229 35.0066 8.31065C34.8533 8.099 34.7704 7.84436 34.7695 7.58281V3.62993C34.7724 3.4727 34.7464 3.31629 34.6928 3.1685L34.6672 3.11211C34.6097 2.99932 34.5337 2.89706 34.4423 2.80962C34.3357 2.70155 34.208 2.61666 34.0673 2.56021C33.9265 2.50375 33.7757 2.47696 33.6242 2.48149H28.6337C28.4886 2.47891 28.3444 2.50505 28.2093 2.55839C28.0649 2.62318 27.9333 2.71348 27.8207 2.825C27.7184 2.92805 27.6368 3.0499 27.5804 3.18388V3.21977C27.5331 3.35118 27.5106 3.49026 27.5139 3.62993V7.25468C27.5135 7.54611 27.4108 7.8281 27.2239 8.05122C27.0369 8.27433 26.7775 8.42432 26.4913 8.4749C26.0976 8.57231 25.7346 8.66972 25.4073 8.76714C25.0801 8.86455 24.6659 9.01323 24.3131 9.15166H24.2466C23.9347 9.2747 23.5972 9.41826 23.224 9.58232C22.8507 9.74638 22.5235 9.9207 22.2014 10.095C21.9693 10.2213 21.703 10.2696 21.4416 10.2326C21.1801 10.1957 20.9374 10.0756 20.7492 9.88994L17.8961 7.05473C17.7976 6.94903 17.6795 6.86369 17.5484 6.80351C17.4193 6.74807 17.2797 6.72182 17.1393 6.72661C16.9937 6.72332 16.849 6.75129 16.7149 6.80864C16.5649 6.87328 16.4293 6.96741 16.3161 7.08549C15.1452 8.20317 13.9947 9.41826 12.8494 10.5667C12.7346 10.6776 12.6425 10.81 12.5784 10.9563C12.5237 11.0931 12.4976 11.2397 12.5017 11.387C12.4982 11.5343 12.5243 11.6807 12.5784 11.8177C12.6402 11.961 12.7307 12.0901 12.8443 12.1971L15.4009 14.7913C15.6044 14.9956 15.7301 15.2648 15.7562 15.5523C15.7824 15.8399 15.7073 16.1275 15.544 16.3653C15.3497 16.6626 15.1656 16.9856 14.9867 17.3189C14.8077 17.6521 14.6185 18.0315 14.4754 18.3443C14.3322 18.657 14.1635 19.0621 14.0152 19.4363C13.8669 19.8106 13.7544 20.149 13.6215 20.554C13.5399 20.8024 13.3824 21.0188 13.1713 21.1725C12.9603 21.3262 12.7063 21.4093 12.4454 21.4102H8.5032C8.3464 21.4073 8.19041 21.4334 8.04302 21.4871H7.98166C7.87232 21.5452 7.77235 21.6196 7.6851 21.7076C7.57939 21.81 7.49433 21.9318 7.43455 22.0665C7.38051 22.2141 7.3545 22.3706 7.35785 22.5279V27.4959C10.5485 24.0967 15.6207 21.5332 19.8902 22.9483ZM5.66028 29.7774C5.15213 29.1483 4.87744 28.3618 4.88308 27.5523V22.5843C4.87914 22.1085 4.96772 21.6366 5.14386 21.1949C5.49089 20.3418 6.15178 19.6553 6.98971 19.2774L7.11242 19.2159C7.55562 19.0438 8.02805 18.9603 8.5032 18.9698H11.5711L11.7143 18.5853C11.8728 18.1802 12.0466 17.7701 12.2256 17.3599C12.4045 16.9498 12.6142 16.5345 12.8136 16.1602L12.9772 15.868L11.1007 13.9812C10.7552 13.6465 10.4804 13.2455 10.2928 12.802C10.1072 12.3607 10.0115 11.8865 10.0115 11.4075C10.0115 10.9285 10.1072 10.4544 10.2928 10.013C10.4801 9.57341 10.7511 9.17463 11.0905 8.83891L14.5674 5.34233C14.906 4.99799 15.3069 4.72134 15.7485 4.52715C16.1887 4.34103 16.6616 4.24515 17.1393 4.24516C17.6136 4.2419 18.0833 4.33726 18.519 4.52522C18.9546 4.71318 19.3466 4.98966 19.6703 5.3372L21.8741 7.51103L22.2014 7.35722C22.5491 7.19316 22.9325 7.03422 23.3518 6.87016L23.4183 6.84453C23.8325 6.68047 24.2517 6.53178 24.6812 6.40361L25.0289 6.30107V3.62993C25.0262 3.17572 25.1095 2.72511 25.2744 2.30205V2.22514C25.4638 1.78999 25.7365 1.39632 26.0771 1.06645V1.04082C26.4232 0.707578 26.8316 0.446221 27.2787 0.271774C27.7074 0.0901287 28.1684 -0.00231656 28.6337 4.54812e-05H33.5935C34.069 -0.00829173 34.5411 0.0811181 34.9808 0.262762C35.4205 0.444406 35.8184 0.714435 36.1501 1.0562C36.4575 1.36235 36.707 1.72194 36.8864 2.11748L36.9426 2.24052C37.1187 2.68227 37.2073 3.1542 37.2034 3.62993V6.7061L37.5869 6.85478C37.9908 7.00859 38.3998 7.18291 38.814 7.36748C39.2282 7.55205 39.6321 7.75713 40.0054 7.95708L40.2968 8.12114L42.1836 6.23955C42.5185 5.89439 42.9182 5.61909 43.3596 5.42949C43.7998 5.24336 44.2727 5.14747 44.7504 5.14747C45.2281 5.14747 45.701 5.24336 46.1412 5.42949C46.5807 5.6152 46.9788 5.88712 47.3121 6.22929L50.8095 9.74126C51.1456 10.0767 51.4146 10.4734 51.602 10.9102C51.7876 11.3516 51.8833 11.8257 51.8833 12.3047C51.8901 12.7846 51.7967 13.2605 51.6091 13.702C51.4216 14.1435 51.144 14.5407 50.7941 14.8682L48.6211 17.0779L48.7847 17.4214C48.9636 17.8162 49.1273 18.2059 49.296 18.5955V18.6519C49.4494 19.0518 49.5926 19.4773 49.7306 19.9234L49.8278 20.2413H52.4968C52.973 20.2349 53.4454 20.3261 53.885 20.5095C54.3247 20.6929 54.7223 20.9645 55.0534 21.3077V21.3333C55.3805 21.668 55.6423 22.0609 55.8255 22.492C56.0028 22.9246 56.0931 23.3881 56.0914 23.8558V28.8289C56.0943 29.3045 56.0058 29.7763 55.8306 30.2183C55.7948 30.3003 55.7539 30.3875 55.713 30.4695L55.8306 30.6592C59.5683 37.1807 61.4244 46.8245 60.8875 53.7305C60.787 55.7959 60.3105 57.8254 59.4814 59.7188C58.6173 61.503 57.3748 62.6719 55.7079 62.9795C53.5808 63.3743 50.9271 62.2515 47.7314 58.9908C47.3223 58.5704 46.8928 58.1499 46.4582 57.7142C44.8543 56.2209 43.3862 54.5875 42.0711 52.8333H18.9187C17.6059 54.5957 16.1358 56.2346 14.5265 57.7295C14.097 58.1551 13.6675 58.5755 13.2636 58.9908C10.0678 62.2515 7.4141 63.3743 5.28702 62.9795C3.62013 62.6719 2.36741 61.503 1.5084 59.7188C0.671653 57.8077 0.191595 55.7589 0.0920532 53.6741C-0.465281 46.4964 1.57998 36.2835 5.66028 29.7774ZM19.4658 34.0584V37.3704H22.7689C26.5169 37.3704 26.5169 43.0459 22.7689 43.0459H19.4556V46.358C19.4556 50.116 13.7953 50.116 13.7953 46.358V43.0664H10.4871C6.74427 43.0664 6.74427 37.3909 10.4871 37.3909H13.8055V34.0584C13.8055 30.3003 19.4658 30.3003 19.4658 34.0584ZM45.318 31.1668C45.6838 31.533 45.9332 31.9998 46.0344 32.5081C46.1356 33.0165 46.0841 33.5435 45.8865 34.0225C45.6889 34.5015 45.354 34.9109 44.9242 35.199C44.4944 35.4871 43.9891 35.6409 43.4721 35.6409C42.9551 35.6409 42.4498 35.4871 42.02 35.199C41.5902 34.9109 41.2553 34.5015 41.0577 34.0225C40.8601 33.5435 40.8086 33.0165 40.9098 32.5081C41.011 31.9998 41.2604 31.533 41.6263 31.1668C41.8681 30.9228 42.1557 30.7292 42.4725 30.597C42.7893 30.4649 43.129 30.3969 43.4721 30.3969C43.8152 30.3969 44.1549 30.4649 44.4717 30.597C44.7885 30.7292 45.0761 30.9228 45.318 31.1668ZM45.318 42.5845C45.6838 42.9507 45.9332 43.4175 46.0344 43.9259C46.1356 44.4342 46.0841 44.9612 45.8865 45.4402C45.6889 45.9192 45.354 46.3287 44.9242 46.6168C44.4944 46.9048 43.9891 47.0586 43.4721 47.0586C42.9551 47.0586 42.4498 46.9048 42.02 46.6168C41.5902 46.3287 41.2553 45.9192 41.0577 45.4402C40.8601 44.9612 40.8086 44.4342 40.9098 43.9259C41.011 43.4175 41.2604 42.9507 41.6263 42.5845C41.8681 42.3405 42.1557 42.1469 42.4725 42.0148C42.7893 41.8826 43.129 41.8146 43.4721 41.8146C43.8152 41.8146 44.1549 41.8826 44.4717 42.0148C44.7885 42.1469 45.0761 42.3405 45.318 42.5845ZM51.5816 36.627C51.9475 36.9932 52.1968 37.46 52.298 37.9683C52.3992 38.4767 52.3477 39.0037 52.1501 39.4827C51.9525 39.9617 51.6176 40.3711 51.1878 40.6592C50.758 40.9473 50.2527 41.1011 49.7357 41.1011C49.2188 41.1011 48.7134 40.9473 48.2836 40.6592C47.8538 40.3711 47.5189 39.9617 47.3213 39.4827C47.1237 39.0037 47.0723 38.4767 47.1735 37.9683C47.2747 37.46 47.524 36.9932 47.8899 36.627C48.1318 36.383 48.4193 36.1894 48.7361 36.0572C49.0529 35.9251 49.3926 35.8571 49.7357 35.8571C50.0788 35.8571 50.4185 35.9251 50.7353 36.0572C51.0521 36.1894 51.3397 36.383 51.5816 36.627ZM39.0492 36.627C39.4151 36.9932 39.6644 37.46 39.7656 37.9683C39.8668 38.4767 39.8154 39.0037 39.6178 39.4827C39.4201 39.9617 39.0853 40.3711 38.6555 40.6592C38.2257 40.9473 37.7203 41.1011 37.2034 41.1011C36.6864 41.1011 36.181 40.9473 35.7513 40.6592C35.3215 40.3711 34.9866 39.9617 34.789 39.4827C34.5914 39.0037 34.5399 38.4767 34.6411 37.9683C34.7423 37.46 34.9916 36.9932 35.3575 36.627C35.5994 36.383 35.887 36.1894 36.2038 36.0572C36.5206 35.9251 36.8603 35.8571 37.2034 35.8571C37.5465 35.8571 37.8862 35.9251 38.203 36.0572C38.5197 36.1894 38.8073 36.383 39.0492 36.627ZM16.7149 32.7049L18.5199 34.5096H14.9407L16.7405 32.7049H16.7149ZM9.12701 40.3133L10.932 42.118V38.5035L9.12701 40.3133ZM16.7149 47.9165L18.5199 46.1119H14.9407L16.7405 47.9165H16.7149Z" fill="#3D9865"/>
</g>
<defs>
<clipPath id="clip0_181_820">
<rect width="61" height="63" fill="white"/>
</clipPath>
</defs>
</svg>
