<svg width="63" height="65" viewBox="0 0 63 65" fill="none" xmlns="http://www.w3.org/2000/svg">
<path fill-rule="evenodd" clip-rule="evenodd" d="M3.63725 21.1712H7.28507V20.3247C7.28507 19.1926 7.51207 18.1135 7.91855 17.1295C8.34615 16.1085 8.9638 15.1827 9.73982 14.4104C10.5106 13.638 11.4344 13.0138 12.4532 12.5853C13.4351 12.1726 14.5121 11.9451 15.6418 11.9451H30.1486V11.8711V8.02515C29.911 7.94051 29.6893 7.82941 29.4729 7.70774C29.1719 7.52787 28.8922 7.31098 28.6493 7.06763C28.2692 6.68674 27.963 6.23179 27.7519 5.72394C27.5513 5.23724 27.4404 4.69765 27.4404 4.14218C27.4404 3.58143 27.5513 3.04712 27.7519 2.56043C27.963 2.05258 28.2692 1.59233 28.6493 1.21144C29.0294 0.830553 29.4834 0.523724 29.9902 0.312119C30.4759 0.105803 31.0143 0 31.5686 0C32.1229 0 32.6614 0.111093 33.1471 0.312119C33.6538 0.523724 34.1131 0.830553 34.4932 1.21144C34.8733 1.59233 35.1795 2.04729 35.3907 2.56043C35.5913 3.04712 35.7021 3.58672 35.7021 4.14218C35.7021 4.70294 35.5913 5.23724 35.3907 5.72394C35.1795 6.23179 34.8733 6.69203 34.4932 7.06763L34.4721 7.08879C34.2293 7.32685 33.96 7.53846 33.6644 7.71303C33.448 7.83999 33.221 7.95109 32.9887 8.03044V11.8764V11.9504H47.4955C48.6252 11.9504 49.7021 12.1779 50.684 12.5905C51.7081 13.019 52.6267 13.638 53.3974 14.4156C54.1682 15.188 54.7911 16.1138 55.2187 17.1348C55.6305 18.124 55.8522 19.1979 55.8522 20.33V21.1764H59.368C59.8537 21.1764 60.3288 21.2717 60.7564 21.4515C61.2051 21.6367 61.6011 21.9065 61.9336 22.2451L61.9548 22.2662C62.2821 22.5995 62.546 22.991 62.7255 23.43C62.905 23.8638 63 24.3294 63 24.8214V34.5446C63 35.0313 62.905 35.5074 62.7255 35.9359C62.5407 36.3803 62.2715 36.7824 61.9336 37.1157C61.279 37.7716 60.3658 38.1843 59.3627 38.1843H55.8416C55.8258 39.2687 55.5988 40.3109 55.2029 41.2631C54.7753 42.2894 54.1576 43.2099 53.3816 43.9823C52.6109 44.7546 51.687 45.3789 50.6682 45.8074C49.681 46.22 48.6094 46.4422 47.4796 46.4422H41.8944V60.4822H50.6999C50.7474 60.4082 50.7949 60.3288 50.8477 60.2547C50.9532 60.1013 51.0694 59.9638 51.1961 59.8315C51.4706 59.5564 51.8032 59.329 52.178 59.1756C52.537 59.0274 52.9276 58.9481 53.3341 58.9481C53.7353 58.9481 54.1365 59.0274 54.4902 59.1756C54.865 59.329 55.1923 59.5564 55.4721 59.8315C55.7466 60.1066 55.9736 60.4399 56.1267 60.8155C56.2745 61.1752 56.3537 61.5667 56.3537 61.974C56.3537 62.3814 56.2692 62.7676 56.1267 63.1326C55.9736 63.5082 55.7466 63.8415 55.4721 64.1165C55.1976 64.3916 54.865 64.6191 54.4902 64.7725C54.1312 64.9206 53.7406 65 53.3341 65C52.9382 65 52.5581 64.9259 52.1991 64.7778L52.178 64.7725C51.8032 64.6191 51.4759 64.3916 51.1961 64.1165C51.0272 63.9473 50.8741 63.7462 50.7474 63.5399C50.6787 63.4235 50.6101 63.2966 50.5626 63.1696H40.5483C40.1735 63.1696 39.8409 63.0162 39.5928 62.7729C39.3394 62.5242 39.1916 62.1856 39.1916 61.81V46.4422H32.6403V59.2602C32.7406 59.3131 32.8409 59.366 32.9359 59.4295C33.1154 59.5406 33.2843 59.6834 33.4321 59.8262C33.7119 60.1066 33.9336 60.4346 34.0867 60.8102C34.2345 61.1699 34.3137 61.5614 34.3137 61.9687C34.3137 62.3655 34.2398 62.7464 34.092 63.1061L34.0867 63.1273C33.9336 63.5029 33.7066 63.8309 33.4321 64.1113C33.1576 64.3863 32.825 64.6138 32.4502 64.7672C32.0913 64.9154 31.7006 64.9947 31.2941 64.9947C30.8876 64.9947 30.497 64.9101 30.138 64.7672C29.7632 64.6138 29.4306 64.3863 29.1561 64.1113C28.8816 63.8362 28.6546 63.5029 28.5015 63.1273C28.359 62.7676 28.2745 62.3761 28.2745 61.9687C28.2745 61.572 28.3484 61.1911 28.4962 60.8314L28.5015 60.8102C28.6546 60.4346 28.8816 60.1066 29.1561 59.8262C29.2986 59.6781 29.4623 59.5512 29.6365 59.4401L29.6576 59.4242C29.7526 59.3713 29.8529 59.3184 29.9532 59.2655V46.4422H21.2112V53.5151C21.2112 53.8907 21.0581 54.224 20.8152 54.4673C20.5671 54.716 20.2345 54.8641 19.8597 54.8641H13.6621C13.6146 54.9593 13.5618 55.0439 13.5038 55.1392C13.3982 55.2979 13.2768 55.4513 13.1342 55.5888L13.1078 55.61C12.8333 55.8851 12.5008 56.1126 12.1259 56.266C11.767 56.4141 11.3763 56.4935 10.9698 56.4935C10.5739 56.4935 10.1938 56.4141 9.83484 56.2713L9.81373 56.266C9.43891 56.1126 9.11161 55.8851 8.83183 55.61C8.55732 55.3349 8.33032 55.0016 8.17723 54.626C8.02941 54.2663 7.95023 53.8748 7.95023 53.4675C7.95023 53.0654 8.03469 52.6687 8.17723 52.3037C8.33032 51.9281 8.55732 51.5948 8.83183 51.3197C9.11689 51.0499 9.46003 50.8224 9.83484 50.669C10.1938 50.5209 10.5845 50.4415 10.991 50.4415C11.4027 50.4415 11.7934 50.5262 12.1471 50.669C12.506 50.8224 12.8333 51.0393 13.1026 51.3144L13.1237 51.3303C13.2768 51.4837 13.4193 51.6583 13.5354 51.8434C13.5935 51.9439 13.6569 52.0497 13.7097 52.1661H18.5189V46.4422H15.6471C14.5173 46.4422 13.4404 46.2147 12.4585 45.8074C11.4344 45.3789 10.5158 44.7599 9.7451 43.9823C8.96908 43.2099 8.34615 42.2841 7.91855 41.2631C7.52262 40.3109 7.30091 39.2687 7.28507 38.1843H3.63725C3.15158 38.1843 2.67647 38.089 2.24887 37.9092C1.80015 37.724 1.40422 37.4542 1.07164 37.1157L1.05053 37.0945C0.723228 36.7612 0.459276 36.3697 0.279789 35.9307C0.0950226 35.5022 0 35.026 0 34.5394V24.8161C0 24.3294 0.0950226 23.8533 0.279789 23.4248C0.464555 22.9804 0.733786 22.5783 1.07164 22.2451C1.40422 21.9118 1.80543 21.6367 2.24887 21.4515C2.67647 21.2717 3.1463 21.1712 3.63725 21.1712ZM24.1041 36.8141C24.0302 36.7559 23.9721 36.6977 23.914 36.6237C23.7451 36.4174 23.6554 36.1793 23.6501 35.9412C23.6448 35.6979 23.724 35.4598 23.8824 35.2482C23.9404 35.1742 23.9985 35.1107 24.0777 35.0472C24.3469 34.825 24.7006 34.7086 25.049 34.7033C25.3974 34.6981 25.7459 34.7986 26.0256 35.0102C26.9811 35.7455 27.9208 36.2798 28.8552 36.6342C29.779 36.9834 30.6923 37.1474 31.595 37.1368C32.503 37.1262 33.4216 36.9358 34.3612 36.5813C35.3115 36.2216 36.2617 35.682 37.233 34.989C37.5181 34.7827 37.8718 34.6928 38.2202 34.7086C38.5686 34.7245 38.917 34.8462 39.181 35.0789C39.2496 35.1424 39.3077 35.2059 39.3658 35.2853C39.5189 35.5022 39.5928 35.7455 39.5769 35.9888C39.5611 36.2322 39.4661 36.465 39.2919 36.666C39.2285 36.7348 39.1599 36.7982 39.0754 36.8564C37.8612 37.7346 36.6418 38.4012 35.4012 38.8614C34.1606 39.3163 32.9042 39.5597 31.632 39.5756C30.3545 39.5914 29.0928 39.3745 27.8364 38.9196C26.5905 38.4699 25.3499 37.7716 24.1305 36.8353L24.1041 36.8141ZM20.9103 21.0971C21.2164 21.0971 21.5279 21.1288 21.8183 21.187C22.1139 21.2505 22.4095 21.3351 22.6893 21.4515C22.9744 21.5679 23.2489 21.716 23.497 21.8853C23.7451 22.0493 23.9721 22.2345 24.178 22.4408L24.2097 22.4672C24.4261 22.6841 24.6214 22.9169 24.7903 23.1761L24.8009 23.192C24.9646 23.4406 25.1071 23.7051 25.2232 23.9908C25.3394 24.2712 25.4291 24.5674 25.4872 24.8637C25.5452 25.1599 25.5822 25.4668 25.5822 25.7736C25.5822 26.0804 25.5505 26.3925 25.4872 26.6835C25.4291 26.9797 25.3394 27.2707 25.2232 27.5616C25.1071 27.8473 24.9593 28.1224 24.7903 28.371C24.2783 29.1434 23.5445 29.7412 22.6893 30.0903C22.4095 30.2067 22.1139 30.2967 21.813 30.3601C21.5173 30.4183 21.2112 30.4448 20.905 30.4448C20.5988 30.4448 20.2873 30.413 19.997 30.3601C19.7014 30.2967 19.4057 30.212 19.1207 30.0903C18.8356 29.974 18.5611 29.8258 18.3077 29.6565C18.0437 29.482 17.8115 29.2862 17.6003 29.0746C17.3839 28.8577 17.1885 28.625 17.0196 28.3658L17.0091 28.3499C16.8454 28.1012 16.7029 27.8367 16.5867 27.5511C16.4706 27.2707 16.3808 26.9744 16.3175 26.6782C16.2594 26.3819 16.233 26.0751 16.233 25.7683C16.233 25.4615 16.2647 25.1493 16.3175 24.8584C16.3808 24.5621 16.4653 24.2659 16.5867 23.9855C16.7029 23.6998 16.8507 23.4248 17.0196 23.1761C17.1938 22.9116 17.3891 22.6788 17.6003 22.4672C17.8167 22.2503 18.049 22.0546 18.3077 21.8853L18.3235 21.8747C18.5716 21.7108 18.8356 21.5679 19.1207 21.4515C19.4005 21.3351 19.6961 21.2452 19.9917 21.187C20.2926 21.1288 20.5988 21.0971 20.9103 21.0971ZM42.2323 21.0971C42.5385 21.0971 42.8499 21.1288 43.1403 21.187C43.4359 21.2505 43.7315 21.3351 44.0113 21.4515C44.2964 21.5679 44.5709 21.716 44.819 21.8853C45.0618 22.0493 45.2836 22.2292 45.4894 22.4355C45.5 22.4461 45.5158 22.4567 45.5264 22.4672C45.7428 22.6841 45.9382 22.9169 46.1071 23.1761L46.1176 23.192C46.2813 23.4406 46.4238 23.7051 46.54 23.9908C46.6561 24.2712 46.7459 24.5674 46.8092 24.8637C46.8673 25.1599 46.8937 25.4668 46.8937 25.7736C46.8937 26.0804 46.862 26.3925 46.8092 26.6835C46.7459 26.9797 46.6614 27.276 46.54 27.5616C46.4238 27.8473 46.276 28.1224 46.1071 28.371C45.9329 28.6356 45.7376 28.8683 45.5264 29.0799C45.31 29.2968 45.0777 29.4926 44.819 29.6618L44.8032 29.6724C44.5498 29.8364 44.2911 29.9792 44.006 30.0956C43.7262 30.212 43.4306 30.3019 43.1297 30.3654C42.8341 30.4236 42.5279 30.4501 42.2217 30.4501C41.9155 30.4501 41.6041 30.4183 41.3137 30.3654C41.0181 30.3019 40.7225 30.2173 40.4374 30.0956C40.1471 29.974 39.8726 29.8258 39.6297 29.6618L39.6033 29.6407C39.3552 29.4714 39.1282 29.2862 38.9223 29.0799C38.7059 28.863 38.5106 28.6303 38.3416 28.371L38.3311 28.3552C38.1674 28.1065 38.0249 27.842 37.9087 27.5564C37.7926 27.276 37.7029 26.9797 37.6395 26.6835C37.5815 26.3872 37.5498 26.0804 37.5498 25.7736C37.5498 25.4668 37.5815 25.1546 37.6395 24.8637C37.7029 24.5674 37.7873 24.2712 37.9087 23.9908C38.0249 23.7051 38.1727 23.43 38.3416 23.1814C38.5158 22.9169 38.7112 22.6841 38.9223 22.4725C39.1335 22.2609 39.371 22.0652 39.6297 21.8906C39.8831 21.7213 40.1523 21.5785 40.4374 21.4515C40.7172 21.3351 41.0128 21.2452 41.3084 21.187C41.6199 21.1288 41.9261 21.0971 42.2323 21.0971ZM9.32805 22.2027V38.0679C9.32805 38.9196 9.49698 39.7343 9.80317 40.4802C10.1252 41.2525 10.595 41.9508 11.1757 42.5381C11.7617 43.1253 12.4585 43.5961 13.2293 43.9135C13.9683 44.2203 14.7813 44.3896 15.6365 44.3896H47.5008C48.3507 44.3896 49.1637 44.2203 49.908 43.9135C50.6787 43.5908 51.3756 43.12 51.9615 42.5381C52.5475 41.9508 53.0173 41.2525 53.3341 40.4802C53.6403 39.7396 53.8092 38.9249 53.8092 38.0679V20.3247C53.8092 19.473 53.6403 18.653 53.3341 17.9124C53.0121 17.1401 52.5422 16.4418 51.9615 15.8546C51.3756 15.2674 50.6787 14.7965 49.908 14.4791C49.1689 14.1723 48.356 14.003 47.5008 14.003H15.6418C14.7919 14.003 13.9789 14.1723 13.2345 14.4791C12.4638 14.8018 11.767 15.2726 11.181 15.8546C10.595 16.4418 10.1252 17.1401 9.80845 17.9124C9.50226 18.653 9.33333 19.4677 9.33333 20.3247L9.32805 22.2027ZM7.27979 23.2237H3.63725C3.42081 23.2237 3.21493 23.2661 3.03017 23.3401C2.83484 23.4248 2.66063 23.5411 2.51282 23.6893L2.4917 23.7051C2.35445 23.848 2.23831 24.0173 2.1644 24.2024C2.08522 24.3876 2.04827 24.5939 2.04827 24.8108V34.5341C2.04827 34.751 2.0905 34.9573 2.1644 35.1424C2.24887 35.3382 2.36501 35.5127 2.51282 35.6609C2.79789 35.9465 3.19382 36.1264 3.63198 36.1264H7.27979V23.2237ZM59.3786 23.2237H55.8627V36.1264H59.3786C59.595 36.1264 59.8009 36.0841 59.9857 36.01C60.181 35.9254 60.3552 35.809 60.503 35.6609C60.6508 35.5127 60.7722 35.3382 60.8514 35.1424C60.9306 34.9573 60.9676 34.751 60.9676 34.5341V24.8161C60.9676 24.5992 60.9253 24.3929 60.8514 24.2077C60.767 24.012 60.6508 23.8374 60.503 23.6893C60.3552 23.5411 60.181 23.4195 59.9857 23.3401C59.8009 23.2713 59.595 23.2237 59.3786 23.2237Z" fill="#3D9865"/>
</svg>
