<svg width="74" height="65" viewBox="0 0 74 65" fill="none" xmlns="http://www.w3.org/2000/svg">
<g clip-path="url(#clip0_181_827)">
<path d="M14.1698 23.6448L35.3306 16.626V5.51409L32.6553 8.20929C32.0107 8.86293 30.9556 8.87157 30.2995 8.22945C29.6433 7.58732 29.6346 6.53487 30.2792 5.88123L35.624 0.496595C35.9983 0.117943 36.5085 -0.0447474 37.0014 0.00996275C37.4928 -0.0447474 38.003 0.117943 38.3759 0.496595L43.7221 5.88123C44.3667 6.53487 44.358 7.58732 43.7019 8.22945C43.0457 8.87157 41.9906 8.86293 41.346 8.20929L38.6722 5.51553V16.6649L60.0989 23.973C60.8288 24.2192 61.2769 24.9204 61.2292 25.6532L61.2306 25.7425V50.8832L70.1294 57.5593L69.5758 53.803C69.4429 52.8945 70.0745 52.0494 70.9865 51.917C71.8984 51.7845 72.7454 52.4137 72.8784 53.3221L73.9826 60.8146C74.0592 61.3429 73.8785 61.8512 73.5331 62.2082C73.2816 62.6257 72.848 62.9295 72.3263 62.9986L64.7918 64.0122C63.8813 64.1346 63.0416 63.4968 62.9202 62.5883C62.7973 61.6798 63.4376 60.8448 64.3496 60.7224L68.1233 60.2156L59.5627 53.7915L37.8931 64.7609C37.6338 64.9174 37.3364 65.0001 37.0332 64.9999C36.6979 64.9999 36.3871 64.902 36.1255 64.7335L14.6973 53.5971L5.87658 60.2156L9.65029 60.7224C10.5623 60.8448 11.2026 61.6798 11.0811 62.5883C10.9583 63.4968 10.1186 64.1346 9.20802 64.0122L1.67361 62.9986C1.15185 62.9295 0.719705 62.6257 0.466776 62.2082C0.290047 62.0255 0.157653 61.8049 0.0797404 61.5633C0.00182758 61.3218 -0.019537 61.0656 0.0172836 60.8146L1.1215 53.3221C1.25447 52.4137 2.10142 51.7845 3.01342 51.917C3.92541 52.0494 4.55701 52.8945 4.42404 53.803L3.87049 57.5593L12.7649 50.8861V25.2889C12.7649 24.4596 13.3749 23.7715 14.1698 23.6448ZM37.3078 19.7071C37.2081 19.7258 37.1054 19.7359 37.0014 19.7359C36.8713 19.7359 36.7427 19.7215 36.6213 19.6927L19.0896 25.5063L37.0419 33.6178L54.984 25.7396L37.3078 19.7071ZM18.9624 43.2425C18.9624 42.7645 19.3512 42.3772 19.8311 42.3772C20.3109 42.3772 20.6997 42.7645 20.6997 43.2425L20.6954 46.8606C20.6968 46.9786 20.7098 47.0751 20.7387 47.1471L20.7835 47.209L22.9529 48.2139C23.388 48.4126 23.5773 48.9266 23.3779 49.36C23.177 49.7933 22.661 49.9819 22.226 49.7833L19.8932 48.6948C19.5348 48.4731 19.2891 48.1707 19.1373 47.8022C19.0159 47.5085 18.9624 47.1831 18.9653 46.8332L18.9624 43.2425ZM35.361 60.5972V36.5074L16.1065 27.8085V50.591L35.361 60.5972ZM57.889 28.0979L38.704 36.5204V60.6259L57.889 50.9149V28.0979Z" fill="#3D9865"/>
</g>
<defs>
<clipPath id="clip0_181_827">
<rect width="74" height="65" fill="white"/>
</clipPath>
</defs>
</svg>
