<svg width="75" height="57" viewBox="0 0 75 57" fill="none" xmlns="http://www.w3.org/2000/svg">
<path fill-rule="evenodd" clip-rule="evenodd" d="M54.7559 13.1908H72.2625C72.9071 13.1908 73.5253 13.4469 73.9812 13.9029C74.437 14.3589 74.6931 14.9774 74.6931 15.6223V54.0396C74.6931 54.6845 74.437 55.303 73.9812 55.7589C73.5253 56.2149 72.9071 56.4711 72.2625 56.4711H54.7559C54.1112 56.4711 53.493 56.2149 53.0372 55.7589C52.5813 55.303 52.3253 54.6845 52.3253 54.0396V15.5919C52.3333 14.9523 52.5929 14.3416 53.0478 13.8922C53.5028 13.4427 54.1165 13.1907 54.7559 13.1908ZM7.2068 30.3935C6.93605 30.3935 6.67639 30.2859 6.48494 30.0944C6.29349 29.9029 6.18594 29.6431 6.18594 29.3723C6.18594 29.1014 6.29349 28.8417 6.48494 28.6502C6.67639 28.4586 6.93605 28.351 7.2068 28.351H17.3547C17.6254 28.351 17.8851 28.4586 18.0765 28.6502C18.268 28.8417 18.3755 29.1014 18.3755 29.3723C18.3755 29.6431 18.268 29.9029 18.0765 30.0944C17.8851 30.2859 17.6254 30.3935 17.3547 30.3935H7.2068ZM7.2068 24.5883C6.93605 24.5883 6.67639 24.4807 6.48494 24.2892C6.29349 24.0977 6.18594 23.838 6.18594 23.5671C6.18594 23.2963 6.29349 23.0365 6.48494 22.845C6.67639 22.6535 6.93605 22.5459 7.2068 22.5459H17.3547C17.6254 22.5459 17.8851 22.6535 18.0765 22.845C18.268 23.0365 18.3755 23.2963 18.3755 23.5671C18.3755 23.838 18.268 24.0977 18.0765 24.2892C17.8851 24.4807 17.6254 24.5883 17.3547 24.5883H7.2068ZM7.2068 36.2047C6.93605 36.2047 6.67639 36.0971 6.48494 35.9056C6.29349 35.7141 6.18594 35.4544 6.18594 35.1835C6.18594 34.9127 6.29349 34.6529 6.48494 34.4614C6.67639 34.2699 6.93605 34.1623 7.2068 34.1623H30.0061C30.2768 34.1623 30.5365 34.2699 30.7279 34.4614C30.9194 34.6529 31.0269 34.9127 31.0269 35.1835C31.0269 35.4544 30.9194 35.7141 30.7279 35.9056C30.5365 36.0971 30.2768 36.2047 30.0061 36.2047H7.2068ZM7.39517 2.63816V4.29156C7.39517 4.52428 7.48716 4.74755 7.65109 4.91267C7.81502 5.0778 8.03757 5.17137 8.2702 5.17297H9.63135C9.76847 5.77729 9.98721 6.36012 10.2815 6.9054L9.23029 7.95094C9.06664 8.117 8.9749 8.34082 8.9749 8.574C8.9749 8.80719 9.06664 9.03101 9.23029 9.19707L10.5307 10.4979C10.6121 10.5804 10.7091 10.646 10.816 10.6907C10.9229 10.7354 11.0376 10.7584 11.1535 10.7584C11.2694 10.7584 11.3842 10.7354 11.4911 10.6907C11.598 10.646 11.695 10.5804 11.7764 10.4979L12.7608 9.53748C13.2766 9.87434 13.8343 10.1421 14.4197 10.3338V11.8109C14.4197 12.0447 14.5125 12.2689 14.6777 12.4342C14.843 12.5995 15.0671 12.6923 15.3008 12.6923H17.1237C17.3569 12.6907 17.5801 12.5974 17.745 12.4324C17.9099 12.2675 18.0033 12.0442 18.0048 11.8109V10.431C18.6086 10.2928 19.1911 10.074 19.7367 9.78063L20.7818 10.8262C20.8632 10.9087 20.9602 10.9742 21.0671 11.0189C21.1741 11.0637 21.2888 11.0867 21.4047 11.0867C21.5206 11.0867 21.6353 11.0637 21.7422 11.0189C21.8492 10.9742 21.9461 10.9087 22.0275 10.8262L23.3279 9.52532C23.4839 9.36143 23.571 9.14378 23.571 8.91745C23.571 8.69112 23.4839 8.47347 23.3279 8.30958L22.386 7.29444C22.7169 6.77947 22.9746 6.22095 23.1517 5.63495H24.6344C24.7506 5.63576 24.8658 5.61355 24.9734 5.56961C25.081 5.52568 25.1789 5.46088 25.2613 5.37895C25.3438 5.29703 25.4092 5.19959 25.4539 5.09225C25.4986 4.98492 25.5216 4.8698 25.5216 4.75354V2.92993C25.5197 2.83526 25.5054 2.74124 25.479 2.65031H62.546C62.9733 2.65183 63.383 2.82063 63.6873 3.12057C63.9917 3.42051 64.1666 3.82775 64.1746 4.25509V6.60147H66.6052V1.82361C66.5974 1.3424 66.4028 0.883091 66.0626 0.54278C65.7224 0.202468 65.2632 0.00782609 64.7822 0L1.82297 0C1.34193 0.00782609 0.882781 0.202468 0.542589 0.54278C0.202397 0.883091 0.00782333 1.3424 0 1.82361L0 44.4474C0 44.9311 0.192062 45.3949 0.533935 45.7369C0.875808 46.0789 1.33949 46.2711 1.82297 46.2711H46.2426V39.2441H4.05307C3.62215 39.2393 3.21042 39.0651 2.90683 38.7591C2.60325 38.4532 2.43219 38.04 2.43062 37.6089V4.25509C2.43539 3.82668 2.60804 3.41725 2.91146 3.11487C3.21487 2.81249 3.62479 2.64131 4.05307 2.63816H7.39517ZM19.9372 2.63816C20.0856 3.17519 20.1079 3.73926 20.0025 4.28636C19.897 4.83346 19.6666 5.34879 19.3293 5.79215C18.992 6.23551 18.5568 6.59492 18.0578 6.84233C17.5587 7.08974 17.0093 7.21846 16.4523 7.21846C15.8953 7.21846 15.3459 7.08974 14.8468 6.84233C14.3478 6.59492 13.9126 6.23551 13.5753 5.79215C13.2379 5.34879 13.0076 4.83346 12.9021 4.28636C12.7967 3.73926 12.819 3.17519 12.9674 2.63816H19.9372ZM40.2329 8.92353L41.673 10.3642C41.7642 10.4551 41.8365 10.5631 41.8858 10.682C41.9352 10.8009 41.9605 10.9284 41.9605 11.0572C41.9605 11.1859 41.9352 11.3134 41.8858 11.4323C41.8365 11.5512 41.7642 11.6592 41.673 11.7501L40.5124 12.9112C40.8383 13.5162 41.0815 14.1623 41.2355 14.832H42.7364C42.9944 14.8336 43.2414 14.9364 43.4244 15.1183C43.6073 15.3002 43.7116 15.5466 43.7148 15.8046V17.8471C43.7164 17.9769 43.6923 18.1058 43.6439 18.2262C43.5956 18.3467 43.5238 18.4564 43.4329 18.5491C43.342 18.6418 43.2336 18.7155 43.1141 18.7661C42.9946 18.8167 42.8662 18.8432 42.7364 18.844H41.0958C40.8975 19.5015 40.6113 20.1292 40.2451 20.7101L41.3206 21.7617C41.4116 21.8521 41.4837 21.9596 41.533 22.078C41.5822 22.1964 41.6076 22.3234 41.6076 22.4517C41.6076 22.5799 41.5822 22.7069 41.533 22.8253C41.4837 22.9437 41.4116 23.0512 41.3206 23.1416L39.8805 24.5883C39.7901 24.6793 39.6826 24.7515 39.5643 24.8008C39.4459 24.85 39.319 24.8754 39.1908 24.8754C39.0626 24.8754 38.9356 24.85 38.8173 24.8008C38.6989 24.7515 38.5914 24.6793 38.5011 24.5883L37.3344 23.4273C36.7305 23.7539 36.0843 23.9953 35.4142 24.1446V25.6521C35.4142 25.9117 35.3111 26.1606 35.1276 26.3441C34.9442 26.5277 34.6953 26.6308 34.4359 26.6308H32.382C32.1236 26.6292 31.8763 26.5254 31.6941 26.342C31.512 26.1586 31.4097 25.9106 31.4097 25.6521V24.0109C30.7511 23.8111 30.1217 23.5249 29.5382 23.1598L28.4748 24.2236C28.2907 24.4044 28.043 24.5057 27.7851 24.5057C27.5271 24.5057 27.2794 24.4044 27.0954 24.2236L25.6492 22.783C25.468 22.5978 25.3666 22.349 25.3666 22.09C25.3666 21.8309 25.468 21.5822 25.6492 21.397L26.8098 20.236C26.4869 19.6303 26.2457 18.9843 26.0927 18.3151H24.5858C24.3268 18.3135 24.0789 18.2099 23.8957 18.0267C23.7126 17.8435 23.609 17.5955 23.6074 17.3364V15.294C23.609 15.0349 23.7126 14.7869 23.8957 14.6037C24.0789 14.4206 24.3268 14.3169 24.5858 14.3153H26.2264C26.4297 13.6586 26.7177 13.0313 27.0832 12.4492L26.0138 11.3854C25.8326 11.2002 25.7312 10.9515 25.7312 10.6924C25.7312 10.4334 25.8326 10.1846 26.0138 9.99946L27.46 8.55881C27.5503 8.46783 27.6578 8.39563 27.7762 8.34636C27.8945 8.29709 28.0215 8.27173 28.1497 8.27173C28.2779 8.27173 28.4048 8.29709 28.5232 8.34636C28.6415 8.39563 28.749 8.46783 28.8394 8.55881L30 9.72592C30.6074 9.40092 31.2551 9.15769 31.9262 9.00255V7.49504C31.9262 7.23653 32.0285 6.98851 32.2106 6.80515C32.3928 6.62179 32.6401 6.51797 32.8985 6.51637H34.9402C35.1992 6.51796 35.4471 6.62158 35.6302 6.80477C35.8134 6.98796 35.917 7.23597 35.9185 7.49504V9.11805C36.5753 9.31786 37.2026 9.60404 37.784 9.96907L38.8535 8.90529C38.9439 8.81432 39.0513 8.74212 39.1697 8.69285C39.2881 8.64358 39.415 8.61821 39.5432 8.61821C39.6714 8.61821 39.7984 8.64358 39.9167 8.69285C40.0351 8.74212 40.1425 8.81432 40.2329 8.90529V8.92353ZM33.6641 12.5707C34.4591 12.5695 35.2365 12.8043 35.8979 13.2454C36.5594 13.6864 37.0752 14.3139 37.3799 15.0483C37.6847 15.7828 37.7647 16.5912 37.6099 17.3712C37.4552 18.1511 37.0725 18.8676 36.5104 19.4299C35.9483 19.9922 35.232 20.375 34.4523 20.5299C33.6726 20.6847 32.8645 20.6046 32.1303 20.2998C31.3961 19.9949 30.7689 19.479 30.328 18.8173C29.8871 18.1556 29.6524 17.3779 29.6536 16.5827C29.6552 15.5192 30.0783 14.4996 30.83 13.7476C31.5818 12.9956 32.601 12.5724 33.6641 12.5707ZM24.9139 48.8484H41.6791C41.7217 51.748 42.8944 54.3192 46.1515 56.3921H20.4415C23.0484 54.5016 24.9139 52.2221 24.9139 48.8484ZM69.4125 23.1477H71.1565V24.1446H69.4125V23.1477ZM63.5061 46.4595C64.0241 46.4595 64.5305 46.6131 64.9612 46.901C65.3919 47.1889 65.7275 47.5981 65.9258 48.0768C66.124 48.5555 66.1759 49.0823 66.0748 49.5905C65.9737 50.0988 65.7243 50.5656 65.358 50.932C64.9918 51.2984 64.5251 51.5479 64.0171 51.649C63.509 51.7501 62.9824 51.6982 62.5039 51.4999C62.0253 51.3016 61.6163 50.9658 61.3285 50.535C61.0407 50.1041 60.8871 49.5976 60.8871 49.0794C60.8871 48.3846 61.1631 47.7182 61.6542 47.2268C62.1454 46.7355 62.8115 46.4595 63.5061 46.4595ZM55.6066 20.8682H71.4057C71.5378 20.8682 71.6646 20.9207 71.758 21.0142C71.8514 21.1076 71.9039 21.2344 71.9039 21.3666V24.0838C71.9039 24.2166 71.8516 24.344 71.7584 24.4384C71.6651 24.5329 71.5384 24.5867 71.4057 24.5883H55.6066C55.4744 24.5883 55.3477 24.5358 55.2543 24.4423C55.1608 24.3489 55.1083 24.2221 55.1083 24.0899V21.3666C55.1083 21.2344 55.1608 21.1076 55.2543 21.0142C55.3477 20.9207 55.4744 20.8682 55.6066 20.8682Z" fill="#3D9865"/>
</svg>
