<svg width="38" height="65" viewBox="0 0 38 65" fill="none" xmlns="http://www.w3.org/2000/svg">
<g clip-path="url(#clip0_181_833)">
<path fill-rule="evenodd" clip-rule="evenodd" d="M15.3822 11.0381C15.3822 10.3476 15.5826 9.70664 15.929 9.16109H22.071C22.4174 9.70282 22.6178 10.3476 22.6178 11.0381C22.6178 13.0028 20.9969 14.5962 19 14.5962C17.0031 14.5962 15.3822 13.0028 15.3822 11.0381ZM7.09204 28.7956C6.59571 28.7956 6.19245 28.4001 6.19245 27.9106C6.19245 27.4235 6.59571 27.0267 7.09204 27.0267H30.908C31.4043 27.0267 31.8076 27.4235 31.8076 27.9106C31.8076 28.4001 31.4043 28.7956 30.908 28.7956H7.09204ZM7.09204 34.0146C6.59571 34.0146 6.19245 33.6191 6.19245 33.1307C6.19245 32.6424 6.59571 32.2457 7.09204 32.2457H30.029C30.5254 32.2457 30.9286 32.6424 30.9286 33.1307C30.9286 33.6191 30.5254 34.0146 30.029 34.0146H7.09204ZM7.09204 39.2347C6.59571 39.2347 6.19245 38.838 6.19245 38.3497C6.19245 37.8613 6.59571 37.4659 7.09204 37.4659H26.6801C27.1765 37.4659 27.5797 37.8613 27.5797 38.3497C27.5797 38.838 27.1765 39.2347 26.6801 39.2347H7.09204ZM7.09204 49.6739C6.59571 49.6739 6.19245 49.2771 6.19245 48.7888C6.19245 48.3005 6.59571 47.9037 7.09204 47.9037H13.3491C13.8454 47.9037 14.2487 48.3005 14.2487 48.7888C14.2487 49.2771 13.8454 49.6739 13.3491 49.6739H7.09204ZM7.09204 44.4537C6.59571 44.4537 6.19245 44.0582 6.19245 43.5699C6.19245 43.0815 6.59571 42.6848 7.09204 42.6848H17.0444C17.5407 42.6848 17.944 43.0815 17.944 43.5699C17.944 44.0582 17.5407 44.4537 17.0444 44.4537H7.09204ZM7.13728 0H30.864C34.8049 0 38 3.14865 38 7.02342V57.9779C38 61.8552 34.8049 65 30.864 65H7.13728C3.19639 65 0 61.8552 0 57.9779V7.01452C0 3.1283 3.18993 0 7.13728 0ZM2.45837 55.245H35.5313V6.95602H2.45837V55.245ZM18.991 57.4425C20.6053 57.4425 21.925 58.7218 21.925 60.3292C21.925 61.92 20.626 63.2171 18.991 63.2171C17.3766 63.2171 16.0556 61.9391 16.0556 60.3292C16.0556 58.7421 17.3559 57.4425 18.991 57.4425ZM23.2666 49.6154C23.4182 49.7461 23.5108 49.9307 23.5242 50.1286C23.5375 50.3265 23.4704 50.5216 23.3377 50.6708C23.0624 50.9811 22.5816 51.0117 22.2662 50.7408L19.8712 48.6756C19.5558 48.4047 19.5248 47.9317 19.8001 47.6214L19.8776 47.5464L22.2662 45.4875C22.3412 45.4229 22.4284 45.3734 22.5229 45.3419C22.6173 45.3104 22.7172 45.2976 22.8167 45.3041C22.9162 45.3106 23.0134 45.3363 23.1028 45.3798C23.1922 45.4233 23.272 45.4836 23.3377 45.5575C23.4034 45.6313 23.4537 45.7171 23.4857 45.81C23.5176 45.903 23.5307 46.0012 23.5241 46.0991C23.5175 46.197 23.4914 46.2926 23.4472 46.3806C23.403 46.4685 23.3416 46.5471 23.2666 46.6117L21.5243 48.1135L23.2666 49.6154ZM29.0131 50.7408C28.8615 50.8711 28.6635 50.9368 28.4627 50.9237C28.2618 50.9106 28.0744 50.8197 27.9416 50.6708C27.6663 50.3593 27.6973 49.8875 28.0127 49.6154L29.755 48.1135L28.0127 46.6117C27.9377 46.5471 27.8763 46.4685 27.8322 46.3806C27.788 46.2926 27.7619 46.197 27.7553 46.0991C27.7419 45.9014 27.809 45.7066 27.9416 45.5575C28.0743 45.4084 28.2617 45.3173 28.4627 45.3042C28.6636 45.2911 28.8616 45.357 29.0131 45.4875L31.403 47.5464L31.4793 47.6214C31.545 47.6952 31.5953 47.781 31.6273 47.8739C31.6593 47.9669 31.6723 48.0651 31.6657 48.163C31.6591 48.2609 31.633 48.3566 31.5888 48.4445C31.5446 48.5325 31.4832 48.611 31.4082 48.6756L29.0131 50.7408ZM25.5014 45.0603C25.597 44.6584 26.0067 44.4079 26.4165 44.5007C26.8249 44.5948 27.0795 44.9979 26.9852 45.4011L25.6164 51.1668C25.5208 51.5686 25.111 51.8204 24.7026 51.7263C24.506 51.6811 24.3357 51.5612 24.2288 51.3926C24.122 51.2241 24.0874 51.0208 24.1326 50.8273L25.5014 45.0603ZM29.441 11.1729V11.9181C29.441 12.6149 28.8619 13.1859 28.1523 13.1859H26.8339C26.6659 13.9171 26.3958 14.6102 26.039 15.2498L26.9193 16.1158C27.4195 16.6092 27.4195 17.4155 26.9193 17.9089L25.8478 18.9631C25.3463 19.4565 24.5268 19.4565 24.0253 18.9631L23.2227 18.1747C22.5478 18.5877 21.8142 18.8997 21.0461 19.1004V20.1775C21.0461 20.8744 20.4657 21.4454 19.7574 21.4454H18.2426C17.533 21.4454 16.9539 20.8744 16.9539 20.1775V19.1157C16.1784 18.9188 15.4373 18.6084 14.7554 18.195L13.9747 18.9631C13.4732 19.4565 12.6524 19.4565 12.1522 18.9631L11.0807 17.9089C10.5793 17.4168 10.5793 16.6092 11.0807 16.1158L11.9248 15.2867C11.5519 14.6286 11.2772 13.9211 11.1092 13.1859H9.84639C9.1381 13.1859 8.55776 12.6149 8.55776 11.9181V10.4277C8.55776 9.74987 9.10449 9.19288 9.78565 9.16109H14.1001C13.8932 9.7211 13.7877 10.3125 13.7886 10.9084C13.7886 10.9961 13.7899 11.0851 13.795 11.1729C13.7899 11.2606 13.7886 11.3484 13.7886 11.4361C13.7886 14.2528 16.1086 16.5368 18.9716 16.5368C21.8345 16.5368 24.1546 14.2528 24.1546 11.4361C24.1546 11.3484 24.1533 11.2606 24.1481 11.1729C24.1533 11.0851 24.1546 10.9961 24.1546 10.9084C24.1546 10.2941 24.0447 9.70536 23.8431 9.16109H28.2144C28.8942 9.19288 29.441 9.74987 29.441 10.4277V11.1729Z" fill="#3D9865"/>
</g>
<defs>
<clipPath id="clip0_181_833">
<rect width="38" height="65" fill="white"/>
</clipPath>
</defs>
</svg>
