<svg width="64" height="63" viewBox="0 0 64 63" fill="none" xmlns="http://www.w3.org/2000/svg">
<path fill-rule="evenodd" clip-rule="evenodd" d="M32 0L31.5392 0.8L27.0765 8.51968H30.4V36.0269L6.57728 49.7805L4.9152 46.9018L0 55.4259H0.92224L9.84 55.431L8.17728 52.5523L32 38.7987L55.8227 52.5523L54.16 55.431L64 55.4259L63.5392 54.6259L59.0848 46.9018L57.4227 49.7811L33.6 36.0275V8.51904H36.9235L32 0Z" fill="#3D9865"/>
<path fill-rule="evenodd" clip-rule="evenodd" d="M31.3972 17.4533L12.6798 29.7278C12.2484 30.0395 12.1326 30.3941 12.1249 30.7166V49.059C12.1249 49.4622 12.3348 49.8373 12.6798 50.0478L31.3972 62.3218C31.8484 62.5682 32.3073 62.5266 32.6119 62.3153L51.3204 50.0478C51.4899 49.9444 51.6299 49.7991 51.7271 49.626C51.8243 49.4528 51.8753 49.2576 51.8753 49.059V30.7166C51.8714 30.2277 51.6641 29.9698 51.3025 29.7157L32.603 17.4533C32.1575 17.1992 31.8081 17.3202 31.3972 17.4533ZM32.0001 19.7957L48.3297 30.6155L31.9898 41.6274L15.5073 30.716L32.0001 19.7957ZM14.4385 32.7768L30.843 43.6414V59.2734L14.4398 48.4088L14.4385 32.7768ZM49.5617 32.7768V48.4082L33.1572 59.2728V43.6402L49.5617 32.7768Z" fill="#3D9865"/>
</svg>
