<svg width="74" height="74" viewBox="0 0 74 74" fill="none" xmlns="http://www.w3.org/2000/svg">
<g clip-path="url(#clip0_181_815)">
<path fill-rule="evenodd" clip-rule="evenodd" d="M37.8457 2.50999C37.5043 2.35474 37.1337 2.27441 36.7587 2.27441C36.3837 2.27441 36.013 2.35474 35.6717 2.50999L21.8977 8.77997L36.7482 15.5436L51.6092 8.77472L37.8457 2.50999ZM19.4296 29.4593V13.4221L34.1331 20.1174V37.8403L20.9577 31.8487C20.499 31.64 20.11 31.3038 19.8372 30.8802C19.5644 30.4565 19.4192 29.9633 19.4191 29.4593M39.3738 64.7056V47.1665L53.3001 53.51V71.2329L40.1405 65.2413C39.8531 65.1106 39.5968 64.9291 39.3738 64.7056ZM58.5461 71.2434V53.51L73.2653 46.8094V62.852C73.2651 63.3559 73.12 63.8491 72.8472 64.2728C72.5743 64.6964 72.1854 65.0326 71.7267 65.2413L58.5461 71.2434ZM34.1226 47.1665V64.7266C33.9041 64.9406 33.65 65.1148 33.3716 65.2413L20.191 71.2434V53.51L34.1226 47.1665ZM14.9398 53.51V71.2329L1.78544 65.2413C1.32674 65.0326 0.937759 64.6964 0.664935 64.2728C0.392111 63.8491 0.246966 63.3559 0.246826 62.852V46.8147L14.9398 53.51ZM39.3738 37.8508V20.1121L54.093 13.4116V29.4593C54.0929 29.9633 53.9477 30.4565 53.6749 30.8802C53.4021 31.3038 53.0131 31.64 52.5544 31.8487L39.3738 37.8508ZM54.8544 35.9079C55.1958 35.7526 55.5664 35.6723 55.9414 35.6723C56.3164 35.6723 56.6871 35.7526 57.0285 35.9079L70.7867 42.1673L55.9257 48.9362L41.0909 42.1673L54.8544 35.9079ZM16.4889 35.9079C16.8303 35.7526 17.2009 35.6723 17.5759 35.6723C17.9509 35.6723 18.3216 35.7526 18.6629 35.9079L32.4212 42.1673L17.5654 48.9414L2.72016 42.1673L16.4889 35.9079Z" fill="#3D9865"/>
</g>
<defs>
<clipPath id="clip0_181_815">
<rect width="73.5173" height="73.5173" fill="white"/>
</clipPath>
</defs>
</svg>
