<svg width="67" height="67" viewBox="0 0 67 67" fill="none" xmlns="http://www.w3.org/2000/svg">
<path d="M65.618 4.1875V18.1486H62.8263V23.732H60.0346V26.5236H57.243V23.732H54.4513V20.9403H51.6568V18.1486H48.8652V15.357H46.0735V12.5653H43.2818V9.77362H46.0735V6.98196H51.6568V4.1875H65.618ZM32.1096 37.6959V43.2792H29.3179V46.0709H26.5263V48.8625H23.7346V51.657H20.9429V54.4487H15.354V48.8653H18.1457V46.0737H20.9373V43.282H23.729V40.4903H26.5207V37.6959H32.1096Z" fill="white"/>
<path d="M54.4487 26.5264V23.7347H51.657V20.9431H48.8653V18.1458H46.0737V15.3542H43.282V12.5625H40.4875V15.3542H37.6959V18.1458H34.9042V20.9375H32.1125V23.7292H29.3181V26.5208H12.5653V29.3125H9.77362V32.107H6.98196V34.8986H4.1875V40.482H15.3542V37.6903H18.1486V34.8986H20.9403V32.107H23.732V29.3153H26.5236V32.107H23.732V34.8986H20.9403V40.482H23.732V37.6903H26.5236V34.8986H34.9042V43.2764H32.1125V46.0681H29.3181V48.8598H34.9014V46.0681H37.6931V43.2764H40.4875V46.0681H37.6959V48.8598H34.9042V51.6514H32.1125V54.4431H29.3181V65.6153H34.9014V62.8237H37.6931V60.032H40.4875V57.2403H43.2792V40.4848H46.0709V37.6931H48.8625V34.9014H51.6542V32.1098H54.4487V29.3153H57.2403V26.5236L54.4487 26.5264ZM48.8653 23.7347V29.3181H46.0737V32.1098H40.4875V29.3181H37.6959V23.7347H40.4875V20.9431H46.0709V23.7347H48.8653Z" fill="white"/>
</svg>
