<svg width="67" height="67" viewBox="0 0 67 67" fill="none" xmlns="http://www.w3.org/2000/svg">
<path d="M55.8332 41.875V20.9375L38.3853 11.1234M28.6144 11.1234L11.1665 20.9375V41.875M15.354 48.4187L33.4998 58.625L44.6665 52.3438L51.6457 48.4187" stroke="white" stroke-width="2" stroke-linecap="round" stroke-linejoin="round"/>
<path d="M29.3125 26.172L25.125 28.6147V38.3855L29.3125 40.8282L33.5 43.2709L37.6875 40.8282L41.875 38.3855V28.6147L37.6875 26.172L33.5 23.7292L29.3125 26.172Z" fill="white" stroke="white" stroke-width="2" stroke-linecap="round" stroke-linejoin="round"/>
<path d="M33.4998 23.7292V13.9584M41.8748 37.6875L51.6457 43.2709M25.1248 37.6875L15.354 43.2709" stroke="white" stroke-width="2" stroke-linecap="round" stroke-linejoin="round"/>
<path d="M33.5 13.9584C35.8127 13.9584 37.6875 12.0836 37.6875 9.77087C37.6875 7.45818 35.8127 5.58337 33.5 5.58337C31.1873 5.58337 29.3125 7.45818 29.3125 9.77087C29.3125 12.0836 31.1873 13.9584 33.5 13.9584Z" fill="white" stroke="white" stroke-width="2" stroke-linecap="round" stroke-linejoin="round"/>
<path d="M11.1665 50.25C13.4792 50.25 15.354 48.3752 15.354 46.0625C15.354 43.7498 13.4792 41.875 11.1665 41.875C8.85381 41.875 6.979 43.7498 6.979 46.0625C6.979 48.3752 8.85381 50.25 11.1665 50.25Z" fill="white" stroke="white" stroke-width="2" stroke-linecap="round" stroke-linejoin="round"/>
<path d="M55.833 50.25C58.1457 50.25 60.0205 48.3752 60.0205 46.0625C60.0205 43.7498 58.1457 41.875 55.833 41.875C53.5203 41.875 51.6455 43.7498 51.6455 46.0625C51.6455 48.3752 53.5203 50.25 55.833 50.25Z" fill="white" stroke="white" stroke-width="2" stroke-linecap="round" stroke-linejoin="round"/>
</svg>
