<svg width="67" height="67" viewBox="0 0 67 67" fill="none" xmlns="http://www.w3.org/2000/svg">
<path fill-rule="evenodd" clip-rule="evenodd" d="M40.1105 11.6887C36.3417 7.91992 30.5546 7.91434 26.7775 11.6663C22.5592 16.1246 23.246 23.1931 28.6758 26.5348C29.2951 26.9157 29.7414 27.5232 29.9197 28.228C30.098 28.9329 29.9942 29.6795 29.6305 30.3091L20.083 46.8274C20.541 47.9278 20.6258 49.1481 20.3243 50.3013C20.0228 51.4544 19.3517 52.4771 18.4138 53.2126C17.4758 53.9481 16.3226 54.356 15.1308 54.3738C13.939 54.3916 12.7742 54.0183 11.8147 53.3111C10.8552 52.6039 10.1539 51.6018 9.8181 50.4581C9.48233 49.3144 9.53061 48.0922 9.95554 46.9786C10.3805 45.8649 11.1586 44.9212 12.1709 44.2919C13.1832 43.6626 14.3738 43.3824 15.5605 43.4941L23.5531 29.6698C17.0206 23.9301 16.7973 14.0476 22.7575 7.79151L22.8049 7.74126C28.7623 1.78384 38.1032 1.78384 44.0579 7.74126C47.7652 11.4486 49.041 16.7528 48.0667 21.6186C47.9127 22.3358 47.4826 22.9635 46.8694 23.366C46.2563 23.7686 45.5093 23.9137 44.7901 23.7699C44.0708 23.6261 43.437 23.205 43.0257 22.5977C42.6145 21.9903 42.4588 21.2455 42.5923 20.5243C43.2399 17.2776 42.3522 13.9304 40.1105 11.6887ZM27.9807 17.8275C27.9804 16.9807 28.1773 16.1453 28.556 15.3878C28.9347 14.6303 29.4846 13.9714 30.1622 13.4634C30.8398 12.9554 31.6264 12.6122 32.4597 12.461C33.293 12.3099 34.15 12.3549 34.9628 12.5926C35.7757 12.8302 36.522 13.254 37.1426 13.8302C37.7632 14.4065 38.2411 15.1194 38.5382 15.9124C38.8354 16.7055 38.9437 17.5568 38.8547 18.399C38.7656 19.2412 38.4816 20.0511 38.0251 20.7644L46.5117 35.0577C51.7545 33.1957 57.9604 34.2844 62.24 38.564C68.1974 44.5215 68.1974 53.8596 62.24 59.817C56.2826 65.7744 46.9445 65.7744 40.9898 59.817C40.4813 59.2905 40.1999 58.5853 40.2063 57.8533C40.2126 57.1214 40.5062 56.4212 41.0238 55.9036C41.5414 55.386 42.2416 55.0924 42.9736 55.086C43.7056 55.0797 44.4107 55.3611 44.9373 55.8696C48.7144 59.6439 54.5155 59.6439 58.2926 55.8696C62.0697 52.0953 62.0697 46.2886 58.2926 42.5115C55.1771 39.396 50.3615 38.966 46.8105 41.0514C46.1743 41.4251 45.4162 41.5319 44.7016 41.3482C43.987 41.1646 43.3742 40.7056 42.997 40.0715L33.0168 23.2629C31.647 23.1581 30.3672 22.54 29.4335 21.5323C28.4998 20.5245 27.9809 19.2014 27.9807 17.8275ZM29.9516 51.7128H46.8635C47.4746 52.7373 48.4051 53.533 49.512 53.9777C50.619 54.4224 51.8413 54.4916 52.9913 54.1746C54.1414 53.8576 55.1556 53.172 55.8785 52.223C56.6013 51.274 56.9928 50.1141 56.9928 48.9211C56.9928 47.7282 56.6013 46.5682 55.8785 45.6192C55.1556 44.6702 54.1414 43.9846 52.9913 43.6677C51.8413 43.3507 50.619 43.4199 49.512 43.8646C48.4051 44.3093 47.4746 45.105 46.8635 46.1295H27.4167C26.6764 46.1295 25.9663 46.4236 25.4427 46.9471C24.9192 47.4707 24.6251 48.1807 24.6251 48.9211C24.6251 54.1388 20.4655 58.2955 15.2507 58.2955C10.0358 58.2955 5.87346 54.136 5.87346 48.9211C5.87346 44.7476 8.841 40.9928 12.4813 39.985C13.1951 39.787 13.8009 39.3135 14.1656 38.6687C14.5302 38.024 14.6238 37.2608 14.4257 36.5471C14.2277 35.8333 13.7542 35.2275 13.1095 34.8629C12.4647 34.4982 11.7015 34.4046 10.9878 34.6027C4.89637 36.2972 0.290124 42.277 0.290124 48.9211C0.283483 50.8875 0.665937 52.8358 1.41546 54.6537C2.16498 56.4716 3.26675 58.1233 4.65733 59.5137C6.0479 60.904 7.6998 62.0054 9.51788 62.7546C11.336 63.5038 13.2843 63.8859 15.2507 63.8789C18.737 63.89 22.1169 62.6789 24.8028 60.4562C27.4886 58.2334 29.3105 55.1397 29.9516 51.7128Z" fill="white"/>
</svg>
