<svg width="67" height="67" viewBox="0 0 67 67" fill="none" xmlns="http://www.w3.org/2000/svg">
<g clip-path="url(#clip0_327_43)">
<path d="M62.8125 0H4.1875C3.07691 0 2.0118 0.441182 1.22649 1.22649C0.441182 2.0118 0 3.07691 0 4.1875L0 48.8542C0 49.9648 0.441182 51.0299 1.22649 51.8152C2.0118 52.6005 3.07691 53.0417 4.1875 53.0417H62.8125C63.9231 53.0417 64.9882 52.6005 65.7735 51.8152C66.5588 51.0299 67 49.9648 67 48.8542V4.1875C67 3.07691 66.5588 2.0118 65.7735 1.22649C64.9882 0.441182 63.9231 0 62.8125 0ZM61.4167 40.4792C61.4167 40.8494 61.2696 41.2044 61.0078 41.4662C60.7461 41.7279 60.391 41.875 60.0208 41.875H6.97917C6.60897 41.875 6.25393 41.7279 5.99216 41.4662C5.73039 41.2044 5.58333 40.8494 5.58333 40.4792V6.97917C5.58333 6.60897 5.73039 6.25393 5.99216 5.99216C6.25393 5.73039 6.60897 5.58333 6.97917 5.58333H60.0208C60.391 5.58333 60.7461 5.73039 61.0078 5.99216C61.2696 6.25393 61.4167 6.60897 61.4167 6.97917V40.4792ZM40.0604 57.7317C39.94 57.5862 39.7913 57.4666 39.6234 57.3802C39.4555 57.2939 39.2717 57.2425 39.0833 57.2292H27.9167C27.7149 57.2361 27.5167 57.2843 27.3343 57.3707C27.1518 57.4571 26.989 57.58 26.8558 57.7317L20.9933 64.7946C20.8571 65.0122 20.7849 65.2637 20.7849 65.5204C20.7849 65.7771 20.8571 66.0287 20.9933 66.2463C21.1123 66.4942 21.3048 66.6996 21.5445 66.8344C21.7842 66.9693 22.0596 67.0271 22.3333 67H44.6667C44.9197 66.992 45.166 66.9167 45.3802 66.7819C45.5944 66.647 45.7688 66.4575 45.8854 66.2328C46.002 66.0081 46.0566 65.7564 46.0436 65.5036C46.0306 65.2508 45.9504 65.0061 45.8113 64.7946L40.0604 57.7317Z" fill="white"/>
<path d="M47.9328 14.3491C47.7134 13.4412 47.1948 12.6335 46.4605 12.0562C45.7262 11.4789 44.8189 11.1656 43.8849 11.1666H37.6874C37.3172 11.1666 36.9621 11.3137 36.7004 11.5755C36.4386 11.8372 36.2915 12.1923 36.2915 12.5625C36.2915 13.3029 35.9974 14.0129 35.4739 14.5365C34.9503 15.06 34.2403 15.3541 33.4999 15.3541C32.7595 15.3541 32.0494 15.06 31.5259 14.5365C31.0023 14.0129 30.7082 13.3029 30.7082 12.5625C30.7082 12.1923 30.5611 11.8372 30.2994 11.5755C30.0376 11.3137 29.6826 11.1666 29.3124 11.1666H23.1149C22.1808 11.1656 21.2736 11.4789 20.5393 12.0562C19.805 12.6335 19.2864 13.4412 19.0669 14.3491L16.7499 23.3941C16.7035 23.6024 16.7045 23.8183 16.7528 24.0261C16.8011 24.2339 16.8955 24.4282 17.029 24.5945C17.1605 24.7644 17.33 24.9009 17.524 24.9931C17.718 25.0852 17.931 25.1304 18.1457 25.125H21.6353C21.8204 25.125 21.9979 25.1985 22.1288 25.3294C22.2597 25.4603 22.3332 25.6378 22.3332 25.8229V34.8958C22.3332 35.266 22.4803 35.621 22.742 35.8828C23.0038 36.1446 23.3588 36.2916 23.729 36.2916H43.2707C43.6409 36.2916 43.9959 36.1446 44.2577 35.8828C44.5195 35.621 44.6665 35.266 44.6665 34.8958V25.8229C44.6665 25.6378 44.7401 25.4603 44.8709 25.3294C45.0018 25.1985 45.1793 25.125 45.3644 25.125H48.854C49.064 25.1261 49.2715 25.0788 49.4603 24.9868C49.6491 24.8948 49.8142 24.7606 49.9428 24.5945C50.0763 24.4282 50.1707 24.2339 50.219 24.0261C50.2673 23.8183 50.2683 23.6024 50.2219 23.3941L47.9328 14.3491Z" fill="white"/>
</g>
<defs>
<clipPath id="clip0_327_43">
<rect width="67" height="67" fill="white"/>
</clipPath>
</defs>
</svg>
