<svg width="67" height="67" viewBox="0 0 67 67" fill="none" xmlns="http://www.w3.org/2000/svg">
<path d="M20.9373 54.4375L32.104 47.4583L20.9373 40.4791V54.4375ZM36.2915 21.6354H47.4582V17.4479H36.2915V21.6354ZM8.37484 64.2083C6.83942 64.2083 5.52548 63.6621 4.433 62.5696C3.34053 61.4771 2.79337 60.1622 2.7915 58.625V36.2916C2.7915 34.7562 3.33867 33.4423 4.433 32.3498C5.52734 31.2573 6.84128 30.7102 8.37484 30.7083H41.8748C43.4103 30.7083 44.7251 31.2555 45.8195 32.3498C46.9138 33.4441 47.46 34.7581 47.4582 36.2916V58.625C47.4582 60.1604 46.9119 61.4752 45.8195 62.5696C44.727 63.6639 43.4121 64.2102 41.8748 64.2083H8.37484ZM51.6457 39.0833V36.2916C51.6457 34.5236 51.2158 32.8951 50.3559 31.4062C49.4961 29.9173 48.3441 28.7541 46.8998 27.9166H47.4582C49.7846 27.9166 51.762 27.1024 53.3905 25.4739C55.0189 23.8454 55.8332 21.868 55.8332 19.5416C55.8332 17.2152 55.0189 15.2378 53.3905 13.6093C51.762 11.9809 49.7846 11.1666 47.4582 11.1666H43.9686V15.3541H47.4582C48.6214 15.3541 49.6105 15.7617 50.4257 16.5769C51.2409 17.392 51.6475 18.3803 51.6457 19.5416C51.6438 20.703 51.2372 21.6921 50.4257 22.5092C49.6143 23.3262 48.6251 23.7328 47.4582 23.7291H43.9686V27.9166C43.5964 27.9166 43.2474 27.684 42.9217 27.2187C42.596 26.7534 42.2471 26.5208 41.8748 26.5208H39.7811V23.7291H36.2915C35.1283 23.7291 34.1401 23.3225 33.3268 22.5092C32.5134 21.6959 32.1059 20.7067 32.104 19.5416C32.1021 18.3766 32.5097 17.3883 33.3268 16.5769C34.1438 15.7654 35.132 15.3578 36.2915 15.3541H39.7811V11.1666H36.2915C33.9651 11.1666 31.9877 11.9809 30.3592 13.6093C28.7307 15.2378 27.9165 17.2152 27.9165 19.5416C27.9165 21.0305 28.2655 22.3687 28.9634 23.556C29.6613 24.7434 30.5686 25.7317 31.6853 26.5208H19.5415V8.37496C19.5415 6.83954 20.0887 5.5256 21.183 4.43313C22.2773 3.34065 23.5913 2.79349 25.1248 2.79163H58.6248C60.1603 2.79163 61.4751 3.33879 62.5695 4.43313C63.6638 5.52746 64.21 6.8414 64.2082 8.37496V33.5C64.2082 35.0354 63.6619 36.3503 62.5695 37.4446C61.477 38.5389 60.1621 39.0852 58.6248 39.0833H51.6457Z" fill="white"/>
</svg>
