<svg width="39" height="39" viewBox="0 0 39 39" fill="none" xmlns="http://www.w3.org/2000/svg">
<g clip-path="url(#clip0_340_160)">
<path d="M31.2789 31.453C30.7614 31.9704 30.1472 32.3808 29.4711 32.6609C28.7951 32.9409 28.0705 33.085 27.3388 33.085C25.861 33.085 24.4437 32.4979 23.3987 31.453M31.2789 31.453C31.7963 30.9355 32.2067 30.3213 32.4868 29.6452C32.7668 28.9692 32.9109 28.2446 32.9109 27.5129M31.2789 31.453L34.232 34.4061M32.9109 27.5129C32.9109 26.7811 32.7668 26.0566 32.4868 25.3805C32.2067 24.7045 31.7963 24.0902 31.2789 23.5728M32.9109 27.5129H37.0888M31.2789 23.5728C30.7614 23.0554 30.1472 22.6449 29.4711 22.3649C28.7951 22.0849 28.0705 21.9408 27.3388 21.9408M31.2789 23.5728L34.232 20.618M27.3388 21.9408C25.861 21.9408 24.4437 22.5278 23.3987 23.5728M27.3388 21.9408V17.7629M23.3987 23.5728C22.3537 24.6178 21.7667 26.0351 21.7667 27.5129M23.3987 23.5728L20.4439 20.618M21.7667 27.5129C21.7667 28.9907 22.3537 30.408 23.3987 31.453M21.7667 27.5129H17.5888M23.3987 31.453L20.4439 34.4061M26.4093 17.7629H28.2667M33.5755 19.9615L34.8885 21.2745M37.0888 26.5834V28.4408M34.8885 33.7496L33.5755 35.0626M28.2667 37.2629H26.4093M27.3388 37.2629V33.0834M21.1004 35.0626L19.7874 33.7496M17.5888 28.4408V26.5834M19.7874 21.2745L21.1004 19.9615M35.8262 15.6276C36.24 15.216 36.6338 14.8032 37.0075 14.3894C37.4532 13.8924 37.6998 13.2483 37.6998 12.5808C37.6998 11.9132 37.4532 11.2691 37.0075 10.7721C32.7647 6.08725 26.0209 1.5015 19.4982 1.61688C12.977 1.50313 6.23165 6.08725 1.99203 10.7738C1.54631 11.2707 1.2998 11.9148 1.2998 12.5824C1.2998 13.25 1.54631 13.894 1.99203 14.391C4.84667 17.5787 8.32345 20.1486 12.2084 21.9424" stroke="black" stroke-width="1.5" stroke-linecap="round" stroke-linejoin="round"/>
<path d="M15.0405 16.861C14.3414 16.1108 13.8428 15.1964 13.591 14.2023C13.3391 13.2083 13.3422 12.1668 13.5997 11.1742C13.8573 10.1816 14.3612 9.27007 15.0647 8.52395C15.7681 7.77782 16.6484 7.22123 17.6242 6.9057C18.5999 6.59018 19.6394 6.52591 20.6465 6.71885C21.6537 6.9118 22.5959 7.35571 23.3859 8.00951C24.1759 8.66331 24.7882 9.50585 25.1661 10.4591C25.544 11.4124 25.6752 12.4456 25.5478 13.4631" stroke="black" stroke-width="1.5" stroke-linecap="round" stroke-linejoin="round"/>
</g>
<defs>
<clipPath id="clip0_340_160">
<rect width="39" height="39" fill="white"/>
</clipPath>
</defs>
</svg>
