<svg width="45" height="45" viewBox="0 0 45 45" fill="none" xmlns="http://www.w3.org/2000/svg">
<path d="M16.5704 43.7496V39.0063H19.8575C20.0652 39.0063 20.2709 38.9653 20.4628 38.8858C20.6546 38.8063 20.829 38.6897 20.9757 38.5427C21.1225 38.3957 21.2389 38.2213 21.3182 38.0293C21.3975 37.8373 21.4382 37.6316 21.438 37.4239V34.0145H23.265C23.4691 34.016 23.6703 33.9658 23.8498 33.8688C24.0294 33.7717 24.1815 33.6308 24.2921 33.4593C24.4026 33.2877 24.4681 33.091 24.4823 32.8873C24.4965 32.6837 24.4591 32.4798 24.3734 32.2945C23.179 29.6343 21.4342 26.3701 21.4342 26.3701V23.7787C21.4342 23.4309 21.3615 23.0869 21.2182 22.7696C20.7356 21.4625 19.9452 20.2909 18.914 19.3538C17.8828 18.4167 16.641 17.7418 15.2938 17.3861C13.6364 16.9092 11.8924 16.8145 10.193 17.1092C8.49374 17.4039 6.88343 18.0803 5.48335 19.0874C4.08326 20.0945 2.9299 21.4061 2.11008 22.9234C1.29027 24.4408 0.825363 26.1244 0.750376 27.8474C0.737489 29.4022 1.05642 30.9418 1.68587 32.3635C2.31532 33.7852 3.24082 35.0563 4.40057 36.0919V43.7496M33.7168 16.5165C35.2373 16.5165 36.6956 15.9125 37.7708 14.8373M33.7168 16.5165C32.1962 16.5165 30.7379 15.9125 29.6627 14.8373M33.7168 16.5165V20.8165M37.7708 14.8373C38.846 13.7621 39.45 12.3038 39.45 10.7832M37.7708 14.8373L40.8107 17.8772M39.45 10.7832C39.45 9.26269 38.846 7.8044 37.7708 6.7292M39.45 10.7832H43.75M37.7708 6.7292C36.6956 5.654 35.2373 5.04996 33.7168 5.04996M37.7708 6.7292L40.8107 3.68926M33.7168 5.04996C32.1962 5.04996 30.7379 5.654 29.6627 6.7292M33.7168 5.04996V0.75M29.6627 6.7292C28.5875 7.8044 27.9835 9.26269 27.9835 10.7832M29.6627 6.7292L26.6228 3.68926M27.9835 10.7832C27.9835 12.3038 28.5875 13.7621 29.6627 14.8373M27.9835 10.7832H23.6835M29.6627 14.8373L26.6228 17.8772M32.7612 0.75H34.6723M40.1361 3.01274L41.4873 4.36388M43.75 9.8277V11.7388M41.4873 17.2026L40.1361 18.5538M34.6723 20.8165H32.7612M27.2974 18.5538L25.9462 17.2026M23.6835 11.7388V9.8277M25.9462 4.36388L27.2974 3.01274M40.891 26.5498V34.1942C40.891 35.7147 40.287 37.173 39.2118 38.2482C38.1366 39.3234 36.6783 39.9274 35.1577 39.9274H27.5133" stroke="black" stroke-width="1.5" stroke-linecap="round" stroke-linejoin="round"/>
<path d="M31.3359 43.7497L27.5137 39.9275L31.3359 36.1053" stroke="black" stroke-width="1.5" stroke-linecap="round" stroke-linejoin="round"/>
</svg>
