<svg width="172" height="172" viewBox="0 0 172 172" fill="none" xmlns="http://www.w3.org/2000/svg">
<path d="M80.0715 140.129C80.1004 134.783 72.6166 130.408 63.3559 130.358C54.0952 130.308 46.5645 134.602 46.5357 139.948C46.5068 145.294 53.9907 149.669 63.2513 149.719C72.512 149.769 80.0427 145.476 80.0715 140.129Z" fill="#F2F2F2"/>
<path d="M120.837 142.659L83.7057 121.229C82.9111 120.771 83.0105 119.969 83.9283 119.439L86.0363 118.222C86.9541 117.692 88.3422 117.635 89.1372 118.094L126.268 139.523C127.063 139.982 126.963 140.784 126.046 141.314L123.938 142.531C123.02 143.061 121.631 143.118 120.837 142.659Z" fill="#F2F2F2"/>
<path d="M124.489 37.3722L90.3216 17.6458C89.6801 17.2753 89.1008 17.2647 88.6498 17.5209L85.2793 19.4707L89.247 22.5561L90.2171 22.3101V103.277C90.2171 105.176 91.3715 107.382 92.7957 108.204L122.754 130.132V131.484L126.241 129.448L126.24 129.434C126.746 129.099 127.067 128.396 127.067 127.402V42.2993C127.068 40.4004 125.913 38.1943 124.489 37.3722Z" fill="#999999"/>
<path d="M119.264 44.6006V40.7795L115.904 43.3038L101.22 37.1496L90.2174 29.1416V22.3087L89.2425 22.5523L85.282 19.4711L88.6508 17.5213C89.1035 17.2688 89.678 17.2774 90.3219 17.6431L124.487 37.3759C125.427 37.9157 126.245 39.0557 126.689 40.3096L119.264 44.6006Z" fill="#E6E6E6"/>
<path d="M121.097 131.329L86.9302 111.603C85.506 110.781 84.3516 108.575 84.3516 106.676V21.5726C84.3516 19.6737 85.506 18.801 86.9302 19.6231L121.097 39.3495C122.521 40.172 123.676 42.3777 123.676 44.2766V129.379C123.676 131.278 122.521 132.151 121.097 131.329Z" fill="#CCCCCC"/>
<path d="M85.1052 107.178V21.9403C85.1052 20.5564 85.9466 19.92 86.9845 20.5196L121.043 40.183C122.081 40.7823 122.923 42.3901 122.923 43.774V129.012C122.923 130.396 122.081 131.032 121.043 130.433L86.9845 110.769C85.9466 110.17 85.1052 108.562 85.1052 107.178Z" fill="#333333"/>
<path d="M121.923 44.6788V127.244C121.923 128.473 121.056 128.958 119.993 128.345L88.0385 109.896C86.9686 109.278 86.1011 107.782 86.1011 106.554V23.9971C86.1011 22.7694 86.9683 22.2747 88.0385 22.8926L93.8762 26.2631C94.1197 26.4038 94.334 26.7123 94.4015 27.0202L94.6718 28.2538C94.8751 29.4354 95.8026 30.7492 96.8879 31.3759L111.135 39.6017C112.221 40.2284 113.156 39.9894 113.352 39.0385L113.622 38.1173C113.69 37.8875 113.904 37.8263 114.147 37.967L119.993 41.3416C121.056 41.9553 121.923 43.4507 121.923 44.6788Z" fill="#80C5FF"/>
<path d="M114.758 65.1739C115.317 65.4969 115.768 66.2778 115.766 66.9231L115.756 70.4182C115.755 71.0611 115.301 71.3222 114.741 70.9988L94.2542 59.1707C93.6945 58.8477 93.2439 58.0644 93.2456 57.4215L93.2556 53.9265C93.2573 53.2811 93.711 53.0224 94.2707 53.3454L114.758 65.1739Z" fill="#57B2FF"/>
<path d="M114.758 77.3994C115.317 77.7224 115.768 78.5053 115.766 79.1486L115.756 82.6461C115.754 83.2893 115.301 83.5477 114.741 83.2247L94.2542 71.3966C93.6945 71.0735 93.2439 70.2927 93.2456 69.6497L93.2556 66.1523C93.2573 65.509 93.711 65.2483 94.2707 65.5713L114.758 77.3994Z" fill="#57B2FF"/>
<path d="M86.1042 74.9566V80.8727L84.3501 79.8596V73.9435L86.1042 74.9566Z" fill="#B3B3B3"/>
<path d="M115.77 93.6399L115.762 96.4301C115.754 97.2873 115.146 97.6382 114.398 97.2096L86.1042 80.8727V74.9565L114.413 91.2938C115.162 91.7303 115.77 92.7747 115.77 93.6399Z" fill="#57B2FF"/>
<path d="M99.3093 98.2099C99.8487 98.5213 100.285 99.2777 100.284 99.8972L100.256 109.476C100.255 110.096 99.815 110.344 99.2756 110.033L90.9394 105.22C90.4 104.909 89.9656 104.156 89.9673 103.536L89.9945 93.9571C89.9962 93.3372 90.4338 93.0857 90.9732 93.397L99.3093 98.2099Z" fill="#57B2FF"/>
<path d="M114.794 107.134C115.334 107.445 115.768 108.2 115.766 108.82L115.739 118.399C115.737 119.019 115.3 119.268 114.761 118.957L106.425 114.144C105.885 113.832 105.449 113.078 105.45 112.458L105.478 102.879C105.479 102.259 105.919 102.009 106.458 102.32L114.794 107.134Z" fill="#57B2FF"/>
<path d="M114.196 46.0706C115.066 46.5728 115.769 47.7913 115.766 48.793L115.743 56.9926C115.74 57.9923 115.032 58.3958 114.162 57.8935L90.5018 44.2333C89.6318 43.7311 88.9283 42.5129 88.9314 41.5133L88.9548 33.3137C88.9575 32.3116 89.6655 31.9085 90.5355 32.4107L114.196 46.0706Z" fill="#57B2FF"/>
<path d="M86.1042 49.3599V65.424L84.3501 64.4109V48.3464L86.1042 49.3599Z" fill="#B3B3B3"/>
<path d="M88.7231 52.4387L88.6843 65.3542C88.6843 66.2114 88.0764 66.5544 87.3203 66.1258L86.1042 65.4243V49.3602L87.3671 50.093C88.1228 50.5291 88.7231 51.5811 88.7231 52.4387Z" fill="#57B2FF"/>
<path d="M98.1914 30.1794C98.1914 30.8365 97.7273 31.101 97.1549 30.7704C96.5825 30.4399 96.1184 29.6394 96.1184 28.9827C96.1184 28.3256 96.5825 28.0611 97.1549 28.3917C97.7273 28.7219 98.1914 29.5224 98.1914 30.1794Z" fill="#666666"/>
<path d="M97.7228 29.9091C97.7228 30.2689 97.4686 30.4141 97.1549 30.2331C96.8411 30.0518 96.5869 29.6132 96.5869 29.2534C96.5869 28.8932 96.8411 28.7484 97.1549 28.9297C97.4686 29.1103 97.7228 29.5489 97.7228 29.9091Z" fill="#333333"/>
<path d="M108.992 34.9556L98.8549 29.1028C98.6877 29.0064 98.5525 28.7478 98.5525 28.5252V28.1148C98.5525 27.8922 98.6877 27.7897 98.8549 27.8864L108.992 33.7392C109.159 33.8355 109.295 34.0942 109.295 34.3168V34.7268C109.295 34.9497 109.159 35.0519 108.992 34.9556Z" fill="black"/>
<path d="M126.121 55.4149C125.92 55.2979 125.641 55.3148 125.334 55.4923C124.722 55.8452 124.229 56.6994 124.231 57.4015L124.26 67.5168C124.261 67.8636 124.385 68.1092 124.584 68.2248L125.197 68.5812C124.998 68.4656 124.874 68.2196 124.873 67.8732L124.844 57.7579C124.842 57.0554 125.335 56.2016 125.947 55.8487C126.254 55.6712 126.533 55.6547 126.734 55.7713L126.121 55.4149Z" fill="#E6E6E6"/>
<path d="M125.947 55.849C126.558 55.496 127.055 55.7788 127.056 56.4812L127.085 66.5966C127.087 67.2928 126.594 68.1528 125.983 68.5058C125.371 68.8587 124.875 68.5694 124.873 67.8735L124.845 57.7582C124.843 57.0557 125.336 56.2019 125.947 55.849Z" fill="#BFBFBF"/>
<path d="M126.127 56.986C126.628 56.6964 127.035 56.9286 127.037 57.5048L127.06 65.8024C127.062 66.3734 126.658 67.079 126.156 67.3686C125.654 67.6583 125.248 67.4209 125.246 66.8499L125.222 58.5522C125.221 57.9764 125.626 57.2757 126.127 56.986Z" fill="#CCCCCC"/>
<path d="M83.2862 29.2097L74.95 24.3968C74.679 24.2403 74.434 24.2258 74.2569 24.329L72.6899 25.2396C72.8671 25.1367 73.1124 25.1512 73.3834 25.3074L81.7196 30.1203C82.259 30.4316 82.6955 31.188 82.6938 31.8076L82.6666 41.3866C82.6659 41.6938 82.5572 41.9098 82.3825 42.0113L83.9494 41.1007C84.1242 40.9989 84.2329 40.7832 84.2336 40.4757L84.2607 30.8967C84.2621 30.2775 83.8256 29.521 83.2862 29.2097Z" fill="#8482FF"/>
<path d="M81.7192 30.1202C82.2586 30.4315 82.6951 31.188 82.6934 31.8075L82.6662 41.3866C82.6645 42.0064 82.2249 42.2545 81.6858 41.9431L73.3493 37.1302C72.81 36.8189 72.3755 36.0663 72.3772 35.4464L72.4044 25.8673C72.4061 25.2475 72.8437 24.996 73.3831 25.3073L81.7192 30.1202Z" fill="#4D4BB7"/>
<path d="M76.9391 34.1233L76.1562 36.2255L72.8933 34.3417L74.9188 31.4844C75.2033 31.0833 75.9143 31.4941 76.1988 32.2234L76.9391 34.1233Z" fill="white"/>
<path d="M78.2247 37.4198L76.1562 36.2255L76.9392 34.1233L78.2247 37.4198Z" fill="#E6E6E6"/>
<path d="M81.4876 39.3036L78.2247 37.4199L76.9392 34.1233L77.9292 31.4687C78.2261 30.6737 79.417 31.3613 79.7139 32.4989L81.4876 39.3036Z" fill="white"/>
<path d="M76.9543 30.3872C76.9543 30.8488 76.6281 31.0346 76.2257 30.8024C75.8232 30.5702 75.4971 30.0074 75.4971 29.5458C75.4971 29.0841 75.8232 28.8984 76.2257 29.1306C76.6281 29.3631 76.9543 29.9255 76.9543 30.3872Z" fill="#E6E6E6"/>
<path d="M113.954 65.6596L93.4667 53.8316C93.1854 53.6692 92.9308 53.6537 92.7471 53.7607L91.1802 54.6713C91.3639 54.5643 91.6184 54.5798 91.8998 54.7421L112.387 66.5702C112.946 66.8932 113.397 67.6741 113.395 68.3195L113.385 71.8145C113.384 72.1348 113.272 72.3601 113.09 72.466L114.656 71.5555C114.838 71.4495 114.951 71.2242 114.952 70.9043L114.962 67.4092C114.964 66.7635 114.513 65.983 113.954 65.6596Z" fill="#8482FF"/>
<path d="M112.387 66.5703C112.946 66.8933 113.397 67.6742 113.395 68.3195L113.385 71.8146C113.384 72.4578 112.93 72.7186 112.37 72.3956L91.8834 60.5675C91.3237 60.2445 90.873 59.4615 90.8748 58.8182L90.8847 55.3232C90.8865 54.6778 91.3402 54.4192 91.8999 54.7425L112.387 66.5703Z" fill="#4D4BB7"/>
<path d="M111.707 68.7102L92.9178 57.8092C92.7025 57.685 92.5281 57.8168 92.5281 58.1037C92.5281 58.3906 92.7025 58.7239 92.9178 58.8481L111.707 69.7491C111.922 69.8733 112.096 69.7415 112.096 69.4546C112.096 69.1677 111.922 68.8344 111.707 68.7102Z" fill="white"/>
<path d="M113.954 77.8854L93.4669 66.0573C93.1858 65.8949 92.9313 65.8801 92.7476 65.9867L91.1807 66.8973C91.3644 66.7903 91.6189 66.8055 91.9 66.9678L112.387 78.7959C112.947 79.1189 113.397 79.9022 113.395 80.5452L113.386 84.0426C113.384 84.3622 113.272 84.5865 113.091 84.6921L114.658 83.7815C114.839 83.6759 114.952 83.4516 114.952 83.132L114.962 79.6346C114.964 78.9913 114.513 78.2084 113.954 77.8854Z" fill="#8482FF"/>
<path d="M112.387 78.7959C112.946 79.1189 113.397 79.9022 113.395 80.5451L113.385 84.0426C113.384 84.6855 112.93 84.9442 112.37 84.6212L91.8834 72.7931C91.3237 72.4701 90.873 71.6892 90.8748 71.0463L90.8847 67.5488C90.8865 66.9059 91.3402 66.6448 91.8999 66.9682L112.387 78.7959Z" fill="#4D4BB7"/>
<path d="M111.707 80.7395L92.9178 69.8385C92.7025 69.7143 92.5281 69.8461 92.5281 70.133C92.5281 70.4199 92.7025 70.7532 92.9178 70.8774L111.707 81.7784C111.922 81.9026 112.096 81.7708 112.096 81.4839C112.096 81.197 111.922 80.8637 111.707 80.7395Z" fill="white"/>
<path d="M83.2862 89.9254L74.95 85.1125C74.679 84.956 74.434 84.9415 74.2569 85.0447L72.6899 85.9553C72.8671 85.8524 73.1124 85.8665 73.3834 86.0231L81.7196 90.836C82.259 91.1476 82.6955 91.9037 82.6938 92.5233L82.6666 102.102C82.6659 102.409 82.5572 102.626 82.3825 102.727L83.9494 101.816C84.1242 101.715 84.2329 101.499 84.2336 101.191L84.2607 91.6124C84.2621 90.9928 83.8256 90.2367 83.2862 89.9254Z" fill="#8482FF"/>
<path d="M81.7192 90.8359C82.2586 91.1476 82.6951 91.9037 82.6934 92.5232L82.6662 102.102C82.6645 102.722 82.2249 102.97 81.6858 102.659L73.3493 97.8459C72.81 97.5346 72.3755 96.7819 72.3772 96.1621L72.4044 86.583C72.4061 85.9632 72.8437 85.7117 73.3831 86.023L81.7192 90.8359Z" fill="#4D4BB7"/>
<path d="M81.446 94.0902V94.1039L77.4745 94.4373L73.4438 89.4702C73.4438 89.3144 73.5539 89.2515 73.6898 89.3299L81.2 93.666C81.3356 93.7444 81.446 93.9343 81.446 94.0902Z" fill="white"/>
<path d="M77.4745 94.7523L81.446 94.4176V99.2529C81.446 99.4087 81.3359 99.4717 81.2 99.3932L73.6898 95.0571C73.5539 94.9787 73.4438 94.7888 73.4438 94.6326V89.7822L77.4153 94.6784L77.4745 94.7523Z" fill="white"/>
<path d="M113.61 91.7816L76.5196 70.3672C76.1429 70.1498 75.801 70.1292 75.554 70.2726L73.9871 71.1832C74.2337 71.0398 74.5756 71.0601 74.9527 71.2778L112.043 92.6922C112.793 93.1252 113.398 94.172 113.395 95.0341L113.387 97.8257C113.386 98.2546 113.235 98.5563 112.991 98.6984L114.558 97.7878C114.802 97.6461 114.953 97.3441 114.954 96.9154L114.962 94.1239C114.965 93.2615 114.361 92.215 113.61 91.7816Z" fill="#8482FF"/>
<path d="M112.043 92.6921C112.793 93.1252 113.398 94.172 113.395 95.0341L113.387 97.8257C113.385 98.6877 112.777 99.0369 112.026 98.6034L74.9358 77.1891C74.1876 76.757 73.5811 75.7068 73.5835 74.8447L73.5914 72.0532C73.5938 71.1911 74.2041 70.8457 74.9523 71.2774L112.043 92.6921Z" fill="#4D4BB7"/>
<path d="M111.065 94.797L75.3634 74.0597C75.148 73.9355 74.9736 74.0673 74.9736 74.3545C74.9736 74.6414 75.148 74.9747 75.3634 75.0989L111.065 95.8359C111.28 95.9601 111.455 95.8283 111.455 95.5411C111.455 95.2546 111.281 94.9212 111.065 94.797Z" fill="white"/>
<path d="M98.5053 98.6956L90.1691 93.8827C89.898 93.7262 89.6531 93.7121 89.4756 93.815L87.9087 94.7255C88.0859 94.6227 88.3311 94.6371 88.6019 94.7933L96.9384 99.6062C97.4777 99.9175 97.9143 100.674 97.9126 101.294L97.8854 110.873C97.8843 111.18 97.776 111.396 97.6012 111.498L99.1682 110.587C99.3429 110.486 99.4516 110.27 99.4523 109.962L99.4795 100.383C99.4812 99.7634 99.0447 99.0073 98.5053 98.6956Z" fill="#8482FF"/>
<path d="M96.9384 99.6065C97.4778 99.9179 97.9144 100.674 97.9127 101.294L97.8855 110.873C97.8838 111.493 97.4441 111.741 96.9047 111.429L88.5686 106.617C88.0292 106.305 87.5947 105.553 87.5964 104.933L87.6236 95.3537C87.6253 94.7338 88.0629 94.4823 88.6019 94.7936L96.9384 99.6065Z" fill="#4D4BB7"/>
<path d="M96.1905 108.216L89.3054 104.241C88.8898 104.001 88.552 103.418 88.552 102.942V99.1473C88.552 98.6705 88.8902 98.4779 89.3054 98.7176L96.1905 102.693C96.6061 102.933 96.9439 103.516 96.9439 103.992V107.786C96.9439 108.264 96.6061 108.457 96.1905 108.216ZM89.3054 99.0785C89.0632 98.9385 88.8661 99.051 88.8661 99.3293V103.123C88.8661 103.402 89.0632 103.741 89.3054 103.881L96.1905 107.857C96.4327 107.996 96.6302 107.884 96.6302 107.606V103.812C96.6302 103.534 96.433 103.193 96.1905 103.054L89.3054 99.0785Z" fill="white"/>
<path d="M92.7481 105.611C91.7385 105.028 90.917 103.611 90.917 102.452C90.917 101.293 91.7385 100.825 92.7481 101.408C93.7577 101.991 94.5792 103.408 94.5792 104.567C94.5792 105.725 93.7577 106.194 92.7481 105.611ZM92.7481 101.769C91.9115 101.286 91.2307 101.674 91.2307 102.633C91.2307 103.593 91.9115 104.768 92.7481 105.25C93.5847 105.733 94.2651 105.345 94.2651 104.385C94.2651 103.426 93.5847 102.252 92.7481 101.769Z" fill="white"/>
<path d="M94.9218 102.255L90.574 99.7451V98.8356C90.574 98.5229 90.7959 98.3963 91.0683 98.5535L94.4271 100.493C94.6996 100.65 94.9214 101.033 94.9214 101.345V102.255H94.9218ZM90.888 99.5659L94.6077 101.713V101.164C94.6077 101.05 94.5269 100.91 94.4271 100.853L91.0683 98.9137C90.9689 98.8562 90.8877 98.9023 90.8877 99.0165L90.888 99.5659Z" fill="white"/>
<path d="M113.99 107.62L105.653 102.807C105.382 102.65 105.136 102.636 104.958 102.739L103.391 103.65C103.569 103.546 103.815 103.561 104.087 103.717L112.423 108.53C112.962 108.842 113.397 109.597 113.395 110.217L113.368 119.796C113.367 120.103 113.258 120.32 113.084 120.422L114.65 119.511C114.826 119.409 114.934 119.193 114.935 118.885L114.962 109.306C114.964 108.686 114.529 107.931 113.99 107.62Z" fill="#8482FF"/>
<path d="M112.423 108.53C112.963 108.842 113.397 109.597 113.395 110.217L113.368 119.796C113.366 120.416 112.929 120.665 112.389 120.353L104.053 115.54C103.514 115.229 103.077 114.475 103.079 113.855L103.106 104.276C103.108 103.657 103.548 103.406 104.087 103.718L112.423 108.53Z" fill="#4D4BB7"/>
<path d="M108.274 108.321C106.369 107.221 104.824 107.796 104.824 109.605C104.824 110.776 105.474 112.176 106.448 113.318C106.403 113.623 106.204 114.264 105.333 113.772C105.333 113.772 106.536 115.099 107.676 114.475C107.871 114.619 108.07 114.754 108.274 114.872C110.179 115.972 111.724 115.397 111.724 113.588C111.724 111.78 110.179 109.422 108.274 108.321Z" fill="white"/>
<path d="M113.392 46.5567L89.7315 32.8964C89.2939 32.6439 88.8973 32.6202 88.6111 32.7867L87.0442 33.6972C87.3307 33.5308 87.7274 33.5545 88.1646 33.807L111.825 47.4676C112.695 47.9698 113.398 49.1879 113.395 50.19L113.372 58.3896C113.371 58.8863 113.195 59.2358 112.912 59.3999L114.479 58.4893C114.762 58.3249 114.937 57.9757 114.939 57.479L114.962 49.2794C114.965 48.2773 114.262 47.0589 113.392 46.5567Z" fill="#8482FF"/>
<path d="M111.825 47.4672C112.695 47.9694 113.398 49.1879 113.395 50.1896L113.372 58.3892C113.369 59.3888 112.661 59.7924 111.791 59.2901L88.1309 45.6299C87.2609 45.1276 86.5578 43.9092 86.5606 42.9095L86.5839 34.7099C86.5867 33.7079 87.2946 33.3047 88.1646 33.8069L111.825 47.4672Z" fill="#4D4BB7"/>
<path d="M111.23 49.4356L88.9215 36.5033C88.7065 36.3791 88.5317 36.5109 88.5317 36.7978C88.5317 37.0846 88.7062 37.418 88.9215 37.5422L111.23 50.4745C111.446 50.5987 111.62 50.4669 111.62 50.18C111.62 49.8931 111.446 49.5598 111.23 49.4356Z" fill="white"/>
<path d="M111.23 52.5323L88.9215 39.6C88.7065 39.4758 88.5317 39.6075 88.5317 39.8944C88.5317 40.1813 88.7062 40.5147 88.9215 40.6388L111.23 53.5712C111.446 53.6954 111.62 53.5636 111.62 53.2767C111.62 52.9898 111.446 52.6565 111.23 52.5323Z" fill="white"/>
<path d="M111.23 55.629L88.9215 42.6966C88.7065 42.5725 88.5317 42.7042 88.5317 42.9911C88.5317 43.278 88.7062 43.6113 88.9215 43.7355L111.23 56.6679C111.446 56.792 111.62 56.6603 111.62 56.3734C111.62 56.0865 111.446 55.7532 111.23 55.629Z" fill="white"/>
<path d="M75.1269 49.7313C75.1042 49.6574 75.067 49.5876 75.0567 49.5108C75.0461 49.431 75.065 49.3502 75.067 49.2697C75.0712 49.0908 74.9848 48.9123 74.8417 48.8046C74.785 48.762 74.7196 48.7296 74.6725 48.6766C74.6278 48.6268 74.6026 48.5628 74.5669 48.506C74.3914 48.227 74.0065 48.1765 73.6783 48.205C72.9975 48.2642 72.3519 48.5373 71.7574 48.8741C70.948 49.3327 70.1981 49.9281 69.6855 50.7042C69.485 51.0079 69.3229 51.3361 69.1891 51.6743C69.0715 51.9715 68.9751 52.2766 68.8902 52.5848C68.8338 52.7895 68.7595 52.9897 68.7158 53.1982C68.6958 53.2938 68.681 53.3943 68.6752 53.4913C68.6697 53.5838 68.6831 53.6736 68.6274 53.7551C68.5599 53.8535 62.2228 61.7765 61.7732 62.3355C61.3769 62.8285 61.0563 63.4377 60.5939 63.8618C59.6307 64.7456 58.3803 65.3816 57.2138 65.9482C56.2654 66.4088 54.5846 66.8257 55.0032 68.2774C55.1267 68.7057 55.4807 69.0198 55.7869 69.3442C56.3056 69.8939 56.7246 70.5372 57.0177 71.2338C57.0353 71.2754 57.0552 71.3204 57.0948 71.3414C57.1512 71.3714 57.2193 71.3411 57.2757 71.3112C58.9286 70.4295 63.4512 67.2375 64.2173 66.7724C64.218 66.7483 64.2135 66.7246 64.2135 66.7005C64.445 66.5856 64.6239 66.3723 64.7811 66.1604C65.3387 65.4109 65.8619 64.6362 66.357 63.8439C66.852 63.0514 67.3191 62.2416 67.7653 61.4208C68.2125 60.5983 68.6394 59.7645 69.0539 58.9251C69.4688 58.0847 70.4299 56.0513 70.5094 55.8817C70.5689 55.7548 70.6033 55.5635 70.7426 55.4968C70.8317 55.4541 70.9342 55.4555 71.025 55.4073C71.1276 55.3533 71.2177 55.2777 71.3023 55.1992C72.2246 54.3454 72.7423 53.1524 73.4681 52.1259C73.5975 51.9429 73.7358 51.763 73.9091 51.6213C74.238 51.3519 74.6928 51.2181 74.9153 50.8562C75.0055 50.7097 75.0474 50.5397 75.088 50.3729C75.1396 50.1617 75.1905 49.9384 75.1269 49.7313Z" fill="#FFB78C"/>
<path d="M50.7459 142.321C50.7941 142.894 50.9706 143.424 51.4071 143.727C51.6592 143.901 51.9744 143.959 52.2809 143.972C53.1202 144.004 53.9678 143.709 54.6056 143.163C55.3253 142.546 55.769 141.642 56.5361 141.086C56.9448 140.789 57.423 140.609 57.8836 140.402C59.0233 139.891 60.0838 139.203 61.016 138.372C61.2176 138.192 61.4577 137.97 61.5561 137.711C61.7144 137.294 61.5479 136.823 61.1805 136.596C60.9541 136.456 60.6906 136.39 60.4292 136.343C59.4969 136.177 58.5399 136.236 57.5967 136.322C56.3968 136.431 55.1873 136.585 54.06 137.01C53.5702 137.194 53.0985 137.431 52.6672 137.729C52.5041 137.841 52.2681 138.126 52.0741 138.16C52.0046 138.172 51.5437 138.01 51.5523 137.983C51.2877 138.82 51.0225 139.662 50.8763 140.528C50.7937 141.016 50.693 141.694 50.7459 142.321Z" fill="#4D4BB7"/>
<path d="M59.4443 97.8394C59.3982 97.5126 59.2297 97.2185 59.0763 96.9264C58.0377 94.9498 57.5661 92.7478 56.8138 90.6597C56.4505 89.6522 56.0229 88.6601 55.4312 87.7636C55.0817 87.2335 54.1134 85.8162 53.2829 86.1124C53.1643 86.1547 53.0693 86.2438 52.9785 86.3312C51.457 87.8011 50.1956 89.5376 49.2575 91.4331C48.2994 93.3688 47.8636 95.2181 47.8577 97.3774C47.8533 98.9818 48.0954 100.588 48.5984 102.113C48.7759 102.651 48.984 103.182 49.0947 103.738C49.2121 104.325 49.2189 104.927 49.2251 105.526C49.2495 107.858 49.274 110.189 49.2984 112.521C49.3098 113.593 49.3118 114.668 49.3872 115.73C49.4625 116.793 49.4807 117.945 49.1787 118.975C48.8612 120.06 48.6541 121.178 48.5175 122.298C48.1591 125.247 48.781 128.217 49.3992 131.122C49.9565 133.741 50.5141 136.359 51.0714 138.978C51.1041 139.131 51.1409 139.292 51.2499 139.404C51.3363 139.493 51.4573 139.538 51.5764 139.572C52.2943 139.777 53.0772 139.652 53.7601 139.35C54.4433 139.048 55.0394 138.581 55.5998 138.088C55.7477 137.958 55.8967 137.821 55.9861 137.646C56.2083 137.208 56.0012 136.687 55.8155 136.233C54.1502 132.17 54.2788 127.557 55.2895 123.284C55.6352 121.823 56.0804 120.381 56.2809 118.893C56.296 118.781 56.3036 118.668 56.3019 118.556C56.3036 118.549 56.3067 118.541 56.3084 118.534C57.9053 111.951 58.7126 105.205 59.4295 98.4699C59.4519 98.2604 59.4739 98.0482 59.4443 97.8394Z" fill="#333333"/>
<path d="M71.5272 135.619C70.5739 135.577 69.6138 135.57 68.6665 135.7C67.9489 135.799 67.1484 136.039 66.5987 136.53C66.2282 136.861 65.943 137.276 65.6809 137.698C64.9657 138.849 63.6475 141.538 65.5515 142.316C65.8797 142.449 66.2481 142.452 66.5983 142.399C67.8058 142.214 68.8433 141.403 70.0459 141.191C70.4928 141.112 70.9493 141.118 71.403 141.105C73.0263 141.061 74.6878 140.754 76.0552 139.879C76.7133 139.457 77.1395 138.844 77.3239 138.079C77.5747 137.039 76.94 136.394 75.9799 136.175C74.5196 135.841 73.0232 135.686 71.5272 135.619Z" fill="#8482FF"/>
<path d="M69.9549 134.891C68.9858 131.681 68.4994 128.326 68.5166 124.973C68.5304 122.29 68.1654 119.469 68.5025 116.815C68.842 114.141 68.6332 111.223 68.1554 108.574C67.3817 104.285 65.4904 100.219 65.1127 95.8766C64.9703 94.2402 65.0456 92.5828 64.7615 90.965C62.8213 91.9677 60.52 92.2525 58.3937 91.7531C57.2853 91.4933 56.2416 91.0317 55.1787 90.6357C54.7353 90.451 54.2592 90.4115 53.8106 90.2481C53.4112 90.1025 53.1467 89.8604 52.814 89.5828C51.1332 91.6103 50.1339 94.1924 50.0118 96.8233C49.9193 98.8185 50.3314 100.833 51.1842 102.638C52.0779 104.53 53.5216 105.863 55.0745 107.224C56.5726 108.538 58.1488 109.818 59.23 111.492C60.1646 112.938 60.6634 114.782 61.123 116.427C61.6428 118.287 62.0473 120.191 62.1347 122.125C62.2152 123.909 61.973 125.559 62.2847 127.348C62.4261 128.16 62.6222 128.963 62.8719 129.748C63.7835 132.612 65.4213 135.36 65.3177 138.364C65.3133 138.491 65.3095 138.63 65.3872 138.731C65.4467 138.808 65.5424 138.846 65.6349 138.876C66.8685 139.273 68.2242 138.734 69.2541 137.948C69.6081 137.678 69.9504 137.363 70.1179 136.95C70.3807 136.298 70.1578 135.564 69.9549 134.891Z" fill="#424242"/>
<path d="M47.8851 67.8216C47.5208 69.7906 47.7221 71.9568 48.1008 73.8103C48.6516 76.5052 49.4228 79.155 50.4035 81.725C50.8033 82.7725 51.2429 83.8269 51.3327 84.9445C51.4902 86.9074 50.5583 88.776 49.6282 90.5115C49.5415 90.6732 49.452 90.8472 49.4703 91.0299C49.4854 91.1785 49.57 91.3099 49.656 91.4324C50.785 93.0409 52.4957 94.1868 54.3458 94.8493C56.1958 95.5119 58.1838 95.7162 60.1487 95.6914C61.8171 95.6705 63.524 95.4768 65.0187 94.7351C65.1027 92.2848 65.1869 89.8338 65.1649 87.3818C65.1443 85.0766 64.5891 82.6542 65.1384 80.3783C65.3369 79.5551 65.6778 78.7725 65.8928 77.9534C66.1219 77.0807 66.2052 76.1698 66.1391 75.2699C66.0851 74.5368 65.8729 73.7243 65.2372 73.3552C65.039 73.2403 64.8144 73.1787 64.6118 73.0721C63.6489 72.566 63.4157 71.2114 62.4872 70.6448C62.1511 70.4398 61.7562 70.36 61.3771 70.254C57.3162 69.1178 54.2495 64.1301 49.73 64.8481C49.4885 64.8862 49.2388 64.9306 49.0365 65.0682C48.818 65.2165 48.6804 65.4559 48.5649 65.6933C48.2429 66.3561 48.0234 67.0748 47.8851 67.8216Z" fill="#D9D9D9"/>
<path d="M49.8735 66.256C49.816 66.3682 49.7637 66.4824 49.7245 66.6018C49.4383 67.4748 50.2512 68.0534 50.9234 68.4256C52.0056 69.0256 53.254 69.2925 54.4913 69.2977C55.2392 69.3008 55.985 69.2106 56.7156 69.0555C56.9974 68.9956 57.1914 68.9891 57.3331 68.7352C57.4986 68.4387 57.5185 68.0696 57.5364 67.739C57.577 66.9915 57.5973 66.2426 57.6176 65.4944C57.6489 64.3348 57.6805 63.1755 57.7119 62.0159C57.7249 61.5264 57.0428 61.6664 56.6788 61.6193C56.1515 61.5508 55.6248 61.4751 55.1023 61.3764C54.0665 61.181 53.04 60.8955 52.0971 60.4163C51.8477 60.2894 51.4507 59.9846 51.1676 59.9698C50.8133 59.9512 50.8181 60.4197 50.7792 60.7049C50.6715 61.494 50.6918 62.2928 50.665 63.0871C50.6337 64.0176 50.5329 64.9708 50.115 65.8026C50.0389 65.9554 49.9516 66.104 49.8735 66.256Z" fill="#FFB78C"/>
<path d="M59.695 54.7383C59.8006 54.9068 59.9065 55.084 59.9279 55.2818C59.9482 55.4693 59.89 55.6564 59.8893 55.8452C59.8866 56.5026 60.5278 56.9447 61.049 57.3451C61.2554 57.5037 61.4728 57.7204 61.4401 57.9787C61.427 58.0823 61.374 58.1755 61.3269 58.2687C60.9599 58.998 60.9378 59.8277 60.9843 60.6262C61.0139 61.1336 61.4043 62.492 60.8911 62.8174C60.2818 63.2031 59.621 63.5068 58.9316 63.718C58.5268 63.8419 58.0383 63.9378 57.6492 63.7146C57.3145 63.5226 57.0885 63.1329 56.7858 62.8811C56.4256 62.5815 55.9416 63.0135 55.5532 63.1415C55.0465 63.3087 54.5191 63.4126 53.9877 63.4549C52.9546 63.5371 51.902 63.3888 50.9343 63.0176C50.3148 62.7799 49.7224 62.4535 49.2343 62.0039C48.689 61.502 48.2903 60.8635 47.923 60.2199C47.4314 59.3592 46.9749 58.4483 46.8693 57.4627C46.7571 56.4139 47.064 55.3726 47.5628 54.4575C48.0564 53.5521 48.6742 52.8844 49.4847 52.2666C50.9808 51.1256 52.9725 50.8923 54.8542 50.8903C55.5391 50.8896 56.1081 50.946 56.7328 51.2116C57.3891 51.4905 57.9234 51.9408 58.2072 52.5848C58.5484 53.3574 59.2464 54.0203 59.695 54.7383Z" fill="#FFE5CC"/>
<path d="M55.6038 59.6035C55.8278 59.2251 56.1872 58.9444 56.6534 58.6909C57.6358 58.1573 57.8133 56.9403 57.9389 55.9509C58.1006 54.6781 58.0706 53.2505 57.6241 52.039C57.2148 50.9285 55.8384 50.4803 54.7786 50.3496C53.4707 50.1886 52.1188 50.3341 50.8965 50.8267C49.0795 51.5591 47.5632 53.2715 46.7355 55.0104C45.7276 57.1281 45.71 59.3242 45.8641 61.6053C45.9164 62.3762 45.9433 62.9162 46.4816 63.5224C46.8112 63.8932 47.2288 64.1749 47.6609 64.4185C50.0149 65.7449 52.9499 65.9912 55.492 65.0759C55.8725 64.9389 56.2502 64.7735 56.5567 64.51C57.3135 63.8588 57.1965 62.9499 56.5753 62.2434C56.2571 61.8815 55.7142 61.8316 55.471 61.3751C55.3572 61.1611 55.3386 60.9097 55.3393 60.6672C55.341 60.2354 55.4332 59.8914 55.6038 59.6035Z" fill="#733118"/>
<path d="M86.5649 50.5821L74.5988 43.6735C74.2211 43.4554 73.8789 43.4351 73.6319 43.5789L72.0649 44.4895C72.3119 44.346 72.6542 44.366 73.0323 44.5841L84.9983 51.4926C85.7486 51.9257 86.355 52.976 86.3526 53.836L86.3162 66.747C86.3151 67.1739 86.1641 67.4745 85.9202 67.6159L87.4871 66.7053C87.7307 66.564 87.8817 66.2633 87.8831 65.8364L87.9199 52.9254C87.9216 52.0654 87.3151 51.0152 86.5649 50.5821Z" fill="#8482FF"/>
<path d="M84.998 51.4926C85.7483 51.9257 86.3547 52.9759 86.3523 53.8359L86.3159 66.7469C86.3135 67.6066 85.7032 67.9544 84.9529 67.5213L72.9866 60.6127C72.2363 60.1796 71.6298 59.1294 71.6326 58.2694L71.669 45.3584C71.6715 44.4987 72.2817 44.151 73.032 44.5841L84.998 51.4926Z" fill="#4D4BB7"/>
<path d="M78.5852 51.7214C76.4792 50.5053 74.7737 51.4778 74.7737 53.8944C74.7737 56.3089 76.4792 59.2526 78.5852 60.4686C80.6895 61.6836 82.3967 60.7101 82.3967 58.2956C82.3967 55.8786 80.6895 52.936 78.5852 51.7214ZM77.6547 57.5735V53.6412L80.6224 57.3217L77.6547 57.5735Z" fill="white"/>
<path d="M66.4931 79.0753C70.273 79.4007 74.0769 79.121 77.8568 78.7956C77.875 78.7942 77.8933 78.7898 77.9118 78.788C78.8651 78.6958 79.0845 77.8943 79.4588 77.1461C79.7935 76.4767 80.0931 75.7904 80.3862 75.1017C81.9607 71.4017 83.3439 67.6215 84.5493 63.7852C84.7684 63.4456 85.1286 63.2066 85.4492 62.9496C86.7564 61.9018 87.8228 60.5557 88.5438 59.0435C88.7743 58.5598 88.9677 57.9781 88.7141 57.5061C88.6354 57.3592 88.5167 57.2333 88.4582 57.0772C88.3887 56.8914 88.4117 56.6823 88.3529 56.4927C88.2201 56.0644 87.7224 55.8553 87.5118 55.4597C87.4279 55.3021 87.3739 55.1005 87.2071 55.0372C87.0695 54.985 86.9105 55.06 86.8159 55.1728C86.7213 55.2856 86.6749 55.4297 86.6216 55.567C86.3154 56.3517 85.7021 57.0118 84.9418 57.3747C84.7953 57.4449 84.613 57.5013 84.4791 57.4095C84.7127 57.0359 84.8854 56.6241 84.9883 56.1958C85.0478 55.9478 85.0822 55.6774 84.9779 55.4445C84.8737 55.2117 84.5847 55.0462 84.355 55.157C84.1296 55.2653 84.0753 55.5532 84.0202 55.7968C83.928 56.2037 83.7585 56.5932 83.5228 56.9375C83.2782 57.2949 82.9655 57.6021 82.7265 57.9633C82.5245 58.2684 82.3794 58.6073 82.2769 58.9578C82.0911 59.5915 82.0264 60.2691 82.0092 60.9272C82.0003 61.2777 81.9566 61.642 81.8854 62.0015C81.8706 62.0387 81.8554 62.0762 81.842 62.113C81.4468 63.1986 76.1509 73.1943 75.3831 74.3539C75.1581 74.3515 74.9359 74.347 74.7254 74.3222C72.2245 74.0312 69.7009 73.6246 67.4023 72.5967C66.2389 72.0763 65.1384 71.3993 63.9169 71.035C62.6953 70.6707 61.2767 70.6665 60.2495 71.4213C59.4301 72.0233 59.0118 72.9968 58.8126 73.9665C58.0448 77.7068 62.7954 78.6467 65.4931 78.9724C65.8261 79.0127 66.1594 79.0464 66.4931 79.0753Z" fill="#FFE5CC"/>
<path d="M70.5278 76.0662C70.5402 77.3638 70.221 78.5963 69.6076 79.7384C69.3878 80.1478 69.1663 80.2981 68.6795 80.2892C68.3328 80.283 67.9881 80.2407 67.6444 80.1935C65.7081 79.9273 63.7937 79.5024 61.9265 78.9249C61.0358 78.6493 60.2739 78.4501 59.4847 77.9224C59.0537 77.6342 58.6736 77.2647 58.4032 76.8203C57.9619 76.0937 57.8047 75.2258 57.9646 74.3906C58.2536 72.8842 59.2811 71.4938 60.7166 70.9059C60.9051 70.8285 61.0998 70.7645 61.3 70.726C61.7146 70.6462 62.1421 70.6785 62.5598 70.7397C63.7459 70.9141 64.8838 71.3197 66.0121 71.7246C67.2082 72.1539 68.4036 72.5853 69.598 73.0191C70.1199 73.2086 70.1498 73.662 70.2812 74.1426C70.4542 74.7728 70.5216 75.4133 70.5278 76.0662Z" fill="#F2F2F2"/>
<path d="M70.6102 49.8489C70.2823 50.0571 69.9266 50.2401 69.6765 50.5369C69.3102 50.9718 69.2307 51.5868 69.3016 52.151C69.3325 52.3976 69.3924 52.6481 69.5355 52.8514C69.6786 53.0547 69.9194 53.2029 70.1671 53.1796C70.3976 53.1579 70.5919 52.9959 70.7361 52.8146C70.8888 52.6223 71.0034 52.3997 71.0711 52.1634C71.2073 51.6893 71.1633 51.1489 71.4444 50.7437C71.5727 50.5583 71.7577 50.421 71.9287 50.2738C72.1444 50.0884 72.3436 49.8813 72.5018 49.645C72.6157 49.4747 72.7092 49.2872 72.745 49.0853C72.7808 48.8833 72.755 48.6663 72.6459 48.4926C72.3439 48.0123 71.9524 48.6993 71.7515 48.9105C71.411 49.2686 71.0267 49.5844 70.6102 49.8489Z" fill="#FFE5CC"/>
<path d="M121.05 92.7696C123.272 93.2914 125.494 93.8133 127.716 94.3351C129.048 94.6478 130.388 94.9633 131.645 95.5027C132.903 96.042 134.086 96.8229 134.905 97.9189C134.952 97.9812 134.998 98.0668 134.955 98.1312C134.927 98.1721 134.873 98.1852 134.825 98.1951C133.106 98.5453 131.358 98.8973 129.612 98.7397C128.267 98.6183 126.965 98.1972 125.715 97.6847C124.323 97.114 122.978 96.4266 121.699 95.6324C120.682 95.0008 119.673 94.2639 119.105 93.2106C119.037 93.0843 118.974 92.9378 119.017 92.8009C119.054 92.6867 119.155 92.6076 119.255 92.5419C119.542 92.3533 119.795 92.1662 120.099 92.3791C120.392 92.5849 120.704 92.6884 121.05 92.7696Z" fill="#FFB78C"/>
<path d="M148.834 107.065C148.834 110.121 146.679 113.848 144.009 115.38C142.66 116.159 141.441 116.227 140.567 115.705C140.546 115.698 140.532 115.691 140.512 115.678C138.92 114.729 137.083 114.201 135.274 113.896C132.746 113.476 130.164 113.482 127.603 113.293C126.505 113.211 125.393 113.089 124.363 112.69C123.191 112.242 122.181 111.463 121.233 110.636C120.413 109.925 119.62 109.166 118.834 108.414C116.489 106.164 114.144 103.914 111.793 101.671C111.528 101.407 111.223 101.136 111.02 100.824C110.824 100.526 110.939 100.085 111.094 99.7941C111.264 99.4824 111.528 99.2317 111.799 99.0081C111.813 99.0015 111.826 98.9878 111.84 98.9743C111.874 98.9338 111.901 98.8863 111.887 98.8388C111.874 98.8185 111.853 98.7982 111.833 98.7845C111.819 98.771 111.806 98.7642 111.792 98.7504C111.792 98.7504 111.792 98.7435 111.785 98.7435C111.237 98.2963 110.695 97.8557 110.146 97.4153C109.807 97.1443 109.448 96.8395 109.353 96.4126C109.265 96.0263 109.434 95.6062 109.726 95.3352C109.868 95.2065 110.037 95.1047 110.22 95.0438C110.295 95.0166 110.363 95.0101 110.43 95.0101C110.559 95.0101 110.681 95.0304 110.81 94.9967C110.539 94.8003 110.268 94.6035 109.997 94.4139C109.997 94.4005 109.99 94.4005 109.983 94.4071C109.732 94.2172 109.482 94.041 109.231 93.858C108.947 93.6478 108.696 93.3565 108.669 92.9905C108.628 92.4552 109.001 91.9265 109.469 91.7029C110.106 91.3912 110.966 91.6623 111.563 92.0348C111.63 92.0754 111.691 92.1229 111.752 92.1635C111.692 92.116 111.637 91.9533 111.59 91.8855C111.522 91.7772 111.441 91.6754 111.366 91.5739C111.326 91.5195 111.285 91.4724 111.244 91.418C111.122 91.2687 111.007 91.1129 110.905 90.9505C110.654 90.5305 110.458 90.0152 110.749 89.5615C110.973 89.2158 111.407 89.0599 111.813 89.053C112.288 89.0396 112.742 89.1752 113.189 89.3241C114.788 89.846 116.353 90.4559 117.878 91.147C118.583 91.4655 119.274 91.7906 119.918 92.211C120.589 92.6513 121.171 93.18 121.788 93.6816C123.781 95.2946 126.281 96.2633 128.836 96.4057C130.069 96.4735 131.316 96.3582 132.529 96.5749C133.769 96.7985 134.921 97.3541 136.053 97.9165C137.909 98.8519 143.473 101.881 147.078 103.805C147.255 103.9 147.431 103.988 147.593 104.077C148.366 104.611 148.834 105.642 148.834 107.065Z" fill="#FFE5CC"/>
<path d="M148.834 107.065C148.834 110.121 146.679 113.848 144.009 115.38C142.661 116.159 141.441 116.227 140.567 115.705C140.546 115.698 140.533 115.691 140.512 115.678C139.692 115.163 139.191 114.112 139.191 112.635C139.191 109.579 141.346 105.852 144.009 104.314C145.174 103.643 146.245 103.5 147.079 103.806C147.262 103.873 147.431 103.961 147.594 104.077C148.366 104.612 148.834 105.642 148.834 107.065Z" fill="#FFB78C"/>
<path d="M110.928 89.579C110.764 89.7864 110.701 90.0578 110.69 90.322C110.686 90.4211 110.689 90.5219 110.718 90.6165C110.751 90.7221 110.815 90.8153 110.883 90.9027C111.223 91.3434 111.67 91.6898 112.127 92.0083C112.449 91.5625 112.498 90.9815 112.536 90.4325C112.538 90.395 112.541 90.3561 112.529 90.32C112.519 90.2866 112.497 90.2577 112.476 90.2298C112.308 90.008 112.139 89.7861 111.97 89.5642C111.831 89.3805 111.738 89.2656 111.504 89.2893C111.274 89.3127 111.076 89.3925 110.928 89.579Z" fill="#FFB78C"/>
<path d="M108.722 92.7644C108.674 92.9605 108.689 93.1669 108.718 93.3668C108.735 93.4803 108.758 93.5983 108.831 93.687C108.881 93.7483 108.951 93.7899 109.019 93.8288C109.52 94.1129 110.06 94.3279 110.62 94.4655C110.764 94.0465 110.779 93.5959 110.792 93.1531C110.794 93.0929 110.796 93.031 110.773 92.9753C110.757 92.9351 110.729 92.901 110.701 92.8683C110.413 92.5367 110.021 92.2973 109.596 92.1882C109.377 92.1318 109.255 92.0909 109.066 92.2388C108.898 92.3699 108.772 92.557 108.722 92.7644Z" fill="#FFB78C"/>
<path d="M109.478 96.277C109.428 96.4442 109.382 96.6269 109.443 96.7903C109.482 96.8945 109.561 96.9781 109.64 97.0569C110.101 97.5192 110.627 97.9272 111.226 98.1866C111.263 97.9035 111.299 97.618 111.28 97.3331C111.261 97.0479 111.184 96.7604 111.015 96.5306C110.805 96.2457 110.481 96.0823 110.157 95.9637C110.049 95.9244 109.837 95.8068 109.723 95.8474C109.583 95.8969 109.515 96.1539 109.478 96.277Z" fill="#FFB78C"/>
<path d="M111.315 100.888C111.682 101.137 112.048 101.387 112.415 101.637C112.433 101.649 112.455 101.662 112.475 101.653C112.498 101.644 112.503 101.615 112.504 101.59C112.523 101.305 112.539 101.007 112.429 100.743C112.336 100.522 112.164 100.349 111.989 100.19C111.825 100.04 111.64 99.8433 111.42 99.7817C111.047 99.6778 110.739 100.032 110.853 100.393C110.922 100.615 111.133 100.764 111.315 100.888Z" fill="#FFB78C"/>
<path d="M122.423 109.559C121.19 109.037 120.221 108.054 119.286 107.092C117.815 105.594 116.351 104.09 114.888 102.586C114.339 102.023 113.783 101.461 113.309 100.831C112.807 100.173 112.401 99.5227 111.838 98.9741C111.872 98.9335 111.899 98.886 111.886 98.8385C111.872 98.8182 111.852 98.7979 111.832 98.7842C111.818 98.7708 111.804 98.7639 111.791 98.7501C112.496 99.1636 113.065 99.8141 113.594 100.417C114.922 101.956 116.202 103.534 117.653 104.951C119.232 106.503 121.007 107.864 122.423 109.559Z" fill="#FFB78C"/>
<path d="M121.549 105.425C120.153 104.401 118.988 103.114 117.829 101.833C116.846 100.742 115.87 99.6575 114.888 98.5735C114.468 98.106 114.047 97.6386 113.573 97.2251C113.133 96.8388 112.651 96.5068 112.17 96.1748C111.635 95.8088 111.106 95.3957 110.544 95.0771C110.503 95.0568 110.462 95.0365 110.428 95.0094C110.557 95.0094 110.679 95.0297 110.808 94.9959C110.537 94.7995 110.266 94.6028 109.995 94.4132C111.289 95.0162 112.509 95.9922 113.532 96.9681C114.067 97.4762 114.569 98.0183 115.07 98.5673C117.206 100.871 119.367 103.161 121.549 105.425Z" fill="#FFB78C"/>
<path d="M122.125 100.607C121.346 100.207 120.716 99.5833 120.079 98.9871C118.08 97.0896 115.938 95.3345 113.688 93.7353C112.99 93.2406 112.245 92.7524 111.642 92.136C111.615 92.1019 111.581 92.0682 111.561 92.0345C111.628 92.0751 111.689 92.1226 111.751 92.1632C111.69 92.1157 111.635 91.953 111.588 91.8852C111.52 91.7769 111.439 91.675 111.364 91.5736C111.324 91.5192 111.283 91.4721 111.242 91.4177C111.445 91.5533 111.649 91.6888 111.845 91.8312C113.722 93.146 115.437 94.6572 117.145 96.1749C117.768 96.7305 118.392 97.2864 119.008 97.835C120.051 98.7635 121.088 99.6851 122.125 100.607Z" fill="#FFB78C"/>
<path d="M125.404 101.054C125.595 101.074 125.788 101.075 125.98 101.056C126.076 101.047 126.177 101.031 126.253 100.972C126.319 100.922 126.359 100.846 126.387 100.769C126.48 100.513 126.449 100.223 126.344 99.9716C126.067 99.3128 125.049 98.3716 124.433 99.1969C123.874 99.9465 124.587 100.968 125.404 101.054Z" fill="#FFB78C"/>
<path d="M123.974 106.527C124.089 106.538 124.208 106.539 124.317 106.501C124.564 106.416 124.71 106.135 124.685 105.876C124.604 105.051 123.155 104.629 122.582 105.18C121.84 105.896 123.452 106.48 123.974 106.527Z" fill="#FFB78C"/>
<path d="M124 110.015C124.375 109.847 123.637 107.99 122.782 108.691C122.559 108.873 122.395 109.178 122.555 109.448C122.727 109.737 123.678 110.159 124 110.015Z" fill="#FFB78C"/>
<path d="M123.879 111.771C123.904 111.743 123.912 111.704 123.913 111.667C123.931 111.233 122.901 110.474 122.724 111.093C122.673 111.273 122.764 111.538 122.901 111.658C123.048 111.788 123.736 111.931 123.879 111.771Z" fill="#FFB78C"/>
<path d="M143.165 30.0697C141.207 28.9393 139.431 28.834 138.148 29.5798L136.123 30.7566C137.406 30.0112 139.182 30.1161 141.14 31.2465C145.035 33.4956 148.18 38.9432 148.168 43.4193C148.161 45.6384 147.377 47.2009 146.113 47.9357L148.138 46.7588C149.403 46.024 150.187 44.4619 150.193 42.2425C150.205 37.7663 147.06 32.3187 143.165 30.0697Z" fill="#4D4D4D"/>
<path d="M141.14 31.2465C145.035 33.4956 148.18 38.9431 148.168 43.4193C148.155 47.8885 144.989 49.6925 141.094 47.4434C137.204 45.1977 134.053 39.7467 134.066 35.2775C134.078 30.8013 137.25 29.0008 141.14 31.2465Z" fill="black"/>
<path d="M141.328 34.5196C138.879 33.1058 136.896 34.2362 136.896 37.0467C136.896 39.8547 138.879 43.2779 141.328 44.6917C143.775 46.1045 145.76 44.9724 145.76 42.1647C145.76 39.3546 143.775 35.9325 141.328 34.5196ZM140.246 41.3253V36.7526L143.697 41.0326L140.246 41.3253Z" fill="white"/>
<path d="M146.538 53.7609L139.915 49.9374C138.874 49.3364 137.931 49.281 137.25 49.6766L135.225 50.8534C135.906 50.4578 136.849 50.5132 137.89 51.1142L144.513 54.9378C146.574 56.1276 148.244 59.0203 148.237 61.3884L148.215 69.0056C148.212 70.1821 147.795 71.0105 147.124 71.4002L149.149 70.2234C149.821 69.8333 150.237 69.0049 150.24 67.8285L150.262 60.2113C150.269 57.8435 148.599 54.9508 146.538 53.7609Z" fill="#FFD166"/>
<path d="M144.513 54.9378C146.574 56.1277 148.244 59.0204 148.237 61.3884L148.215 69.0056C148.208 71.3737 146.528 72.3318 144.467 71.1419L137.844 67.318C135.777 66.1246 134.106 63.2319 134.113 60.8638L134.135 53.2467C134.142 50.8786 135.823 49.9205 137.89 51.1139L144.513 54.9378Z" fill="#FFAD66"/>
<path d="M141.328 56.1597C138.879 54.7458 136.896 55.8762 136.896 58.6867C136.896 61.4948 138.879 64.9179 141.328 66.3317C143.775 67.7445 145.76 66.6124 145.76 63.8047C145.76 60.9942 143.775 57.5721 141.328 56.1597ZM140.246 62.965V58.3922L143.697 62.6723L140.246 62.965Z" fill="white"/>
<path d="M149.483 78.8431L137.081 71.683C136.846 71.5475 136.632 71.5348 136.476 71.6249L134.451 72.8017C134.606 72.7116 134.821 72.7243 135.056 72.8599L147.458 80.0199C147.929 80.2916 148.306 80.9463 148.305 81.4874L148.265 95.7379C148.264 96.0025 148.17 96.1889 148.019 96.277L150.044 95.1002C150.195 95.0121 150.289 94.8253 150.29 94.5611L150.33 80.3106C150.332 79.7698 149.954 79.1152 149.483 78.8431Z" fill="#8482FF"/>
<path d="M147.458 80.0202C147.928 80.2919 148.307 80.9466 148.305 81.4877L148.265 95.7382C148.263 96.2721 147.883 96.4888 147.412 96.2171L135.01 89.0571C134.545 88.7887 134.161 88.1307 134.163 87.5964L134.203 73.3459C134.204 72.8048 134.591 72.5915 135.056 72.8598L147.458 80.0202Z" fill="#4D4BB7"/>
<path d="M141.328 79.4303C138.878 78.0161 136.895 79.1469 136.895 81.9573C136.895 84.7654 138.878 88.1886 141.328 89.6024C143.775 91.0152 145.76 89.8831 145.76 87.0754C145.76 84.2649 143.775 80.8431 141.328 79.4303ZM140.245 86.236V81.6632L143.696 85.9433L140.245 86.236Z" fill="white"/>
<path fill-rule="evenodd" clip-rule="evenodd" d="M146.047 97.3899V96.4497L144.74 95.6953V96.6355L146.047 97.3899Z" fill="#231F20"/>
<path fill-rule="evenodd" clip-rule="evenodd" d="M148.391 98.7431V97.803L147.084 97.0486V97.9887L148.391 98.7431Z" fill="#231F20"/>
<path fill-rule="evenodd" clip-rule="evenodd" d="M150.863 100.156L150.466 99.0012L149.328 98.3441L149.47 99.3658C149.936 99.6351 150.405 99.9086 150.863 100.156Z" fill="#231F20"/>
<path fill-rule="evenodd" clip-rule="evenodd" d="M139.007 93.3252V92.385L137.7 91.6306V92.5708L139.007 93.3252Z" fill="#231F20"/>
<path fill-rule="evenodd" clip-rule="evenodd" d="M141.351 94.6784V93.7383L140.044 92.9839V93.924L141.351 94.6784Z" fill="#231F20"/>
<path fill-rule="evenodd" clip-rule="evenodd" d="M143.686 96.0273V95.0872L142.38 94.3328V95.2726L143.686 96.0273Z" fill="#231F20"/>
<path fill-rule="evenodd" clip-rule="evenodd" d="M132.532 87.7413L133.315 87.6195L133.311 86.3123L132.492 86.1396C132.495 86.6759 132.506 87.2095 132.532 87.7413Z" fill="#231F20"/>
<path fill-rule="evenodd" clip-rule="evenodd" d="M134.15 90.4809L134.642 89.8645C134.262 89.6419 133.889 89.2257 133.641 88.7523L132.951 89.1121C133.253 89.6852 133.699 90.194 134.15 90.4809Z" fill="#231F20"/>
<path fill-rule="evenodd" clip-rule="evenodd" d="M136.63 91.9529L136.676 91.0396L135.539 90.3826L135.231 91.1435L136.63 91.9529Z" fill="#231F20"/>
<path fill-rule="evenodd" clip-rule="evenodd" d="M132.492 79.4541L133.311 79.9271V78.4276L132.492 77.9546V79.4541Z" fill="#231F20"/>
<path fill-rule="evenodd" clip-rule="evenodd" d="M132.492 82.1438L133.311 82.6168V81.1169L132.492 80.6439V82.1438Z" fill="#231F20"/>
<path fill-rule="evenodd" clip-rule="evenodd" d="M132.492 84.845L133.311 85.2595V83.7978L132.492 83.3248V84.845Z" fill="#231F20"/>
<path fill-rule="evenodd" clip-rule="evenodd" d="M132.492 71.3755L133.311 71.8485V70.488L132.492 69.7997V71.3755Z" fill="#231F20"/>
<path fill-rule="evenodd" clip-rule="evenodd" d="M132.492 74.0649L133.311 74.5379V73.0384L132.492 72.5654V74.0649Z" fill="#231F20"/>
<path fill-rule="evenodd" clip-rule="evenodd" d="M132.492 76.7457L133.311 77.2187V75.7189L132.492 75.2462V76.7457Z" fill="#231F20"/>
<path fill-rule="evenodd" clip-rule="evenodd" d="M135.962 67.9236L136.133 68.9621L137.33 69.6529V68.7131L135.962 67.9236Z" fill="#231F20"/>
<path fill-rule="evenodd" clip-rule="evenodd" d="M133.515 66.7371L134.109 67.929C134.459 67.9356 134.856 68.2397 135.23 68.4409L134.856 67.295C134.401 67.0625 133.934 66.7347 133.515 66.7371Z" fill="#231F20"/>
<path fill-rule="evenodd" clip-rule="evenodd" d="M132.505 68.5193L133.312 69.4354C133.313 69.219 133.308 68.9975 133.316 68.7852C133.327 68.5747 133.379 68.3907 133.467 68.2489L132.737 67.1282C132.627 67.295 132.558 67.5107 132.535 67.7553C132.516 68.0019 132.513 68.2603 132.505 68.5193Z" fill="#231F20"/>
<path fill-rule="evenodd" clip-rule="evenodd" d="M143.063 72.0229V72.9631L144.37 73.7175V72.7773L143.063 72.0229Z" fill="#231F20"/>
<path fill-rule="evenodd" clip-rule="evenodd" d="M140.719 70.67V71.6099L142.026 72.3642V71.4244L140.719 70.67Z" fill="#231F20"/>
<path fill-rule="evenodd" clip-rule="evenodd" d="M138.383 69.3212V70.2613L139.69 71.0157V70.0756L138.383 69.3212Z" fill="#231F20"/>
<path fill-rule="evenodd" clip-rule="evenodd" d="M150.202 76.1451L149.924 76.924C150.303 77.1462 150.682 77.3543 151.061 77.5882L151.575 76.9917C151.125 76.6921 150.667 76.4207 150.202 76.1451Z" fill="#231F20"/>
<path fill-rule="evenodd" clip-rule="evenodd" d="M147.76 74.7344V75.6745L149.021 76.4024L149.091 75.5036L147.76 74.7344Z" fill="#231F20"/>
<path fill-rule="evenodd" clip-rule="evenodd" d="M145.423 73.3859V74.3257L146.73 75.0804V74.1403L145.423 73.3859Z" fill="#231F20"/>
<path fill-rule="evenodd" clip-rule="evenodd" d="M153.097 83.8873L152.278 83.4143V84.9138L153.097 85.3868V83.8873Z" fill="#231F20"/>
<path fill-rule="evenodd" clip-rule="evenodd" d="M153.096 81.0805L152.278 80.9381V82.2439L153.097 82.6863L153.096 81.0805Z" fill="#231F20"/>
<path fill-rule="evenodd" clip-rule="evenodd" d="M152.55 78.1084L151.876 78.4961C152.15 78.9588 152.293 79.4827 152.278 79.9096L153.068 79.8195C153.065 79.301 152.882 78.6698 152.55 78.1084Z" fill="#231F20"/>
<path fill-rule="evenodd" clip-rule="evenodd" d="M153.097 91.9658L152.278 91.4928V92.9923L153.097 93.4653V91.9658Z" fill="#231F20"/>
<path fill-rule="evenodd" clip-rule="evenodd" d="M153.097 89.2763L152.278 88.8033V90.3028L153.097 90.7758V89.2763Z" fill="#231F20"/>
<path fill-rule="evenodd" clip-rule="evenodd" d="M153.097 86.5956L152.278 86.1226V87.6224L153.097 88.0951V86.5956Z" fill="#231F20"/>
<path fill-rule="evenodd" clip-rule="evenodd" d="M152.921 100.133L152.177 99.0304C152.034 99.3524 151.733 99.5024 151.375 99.4384L151.948 100.632C152.376 100.693 152.739 100.512 152.921 100.133Z" fill="#231F20"/>
<path fill-rule="evenodd" clip-rule="evenodd" d="M153.097 97.4205L152.278 96.7621V98.0679L153.081 99.0074C153.098 98.4931 153.098 97.9561 153.097 97.4205Z" fill="#231F20"/>
<path fill-rule="evenodd" clip-rule="evenodd" d="M153.097 94.6743L152.278 94.2013V95.7008L153.097 96.1738V94.6743Z" fill="#231F20"/>
<path d="M37.9106 67.9613L39.2137 68.7184C37.7723 69.498 36.8167 69.5272 36.1886 69.1622L34.8855 68.4047C35.514 68.77 36.4693 68.7408 37.9106 67.9613Z" fill="#FFD166"/>
<path d="M32.0867 70.639L30.7837 69.8819C29.9584 69.4023 29.1386 68.5915 28.3726 67.3204L29.6756 68.0776C30.4417 69.3487 31.2615 70.1595 32.0867 70.639Z" fill="#FFD166"/>
<path d="M24.1927 54.7607L37.1546 47.2773C37.704 46.9601 38.2004 46.9299 38.5585 47.138L39.8616 47.8955C39.5035 47.6873 39.0071 47.7176 38.4577 48.0348L25.4958 55.5182C24.4098 56.1453 23.5271 57.6671 23.5309 58.9217L23.5604 69.3463C23.5622 69.9648 23.7813 70.3993 24.1336 70.6039L22.8305 69.8464C22.4779 69.6418 22.2591 69.207 22.2574 68.5888L22.2278 58.1642C22.2244 56.9093 23.1067 55.3874 24.1927 54.7607Z" fill="#FFD166"/>
<path d="M25.4957 55.5179C24.4097 56.145 23.5273 57.6665 23.5308 58.9214L23.5604 69.346C23.5638 70.594 24.452 71.0935 25.538 70.4664L29.6756 68.0776C32.139 72.1654 35.1569 71.4925 37.1298 70.3535C38.3826 69.6305 39.1721 68.7646 39.2137 68.7192C34.7569 71.1293 34.9443 66.3676 35.094 64.9493L38.4996 62.983C39.5914 62.3524 40.4683 60.834 40.4649 59.5863L40.4353 49.1618C40.4318 47.9068 39.5495 47.4043 38.4573 48.0345L25.4957 55.5179Z" fill="#FFAD66"/>
<path d="M25.7646 63.7353C25.748 63.5943 25.7391 63.4457 25.7388 63.2891C25.7384 63.1354 25.7463 62.9765 25.7618 62.8172L25.197 62.9331C25.113 62.95 25.0669 62.8736 25.0934 62.7618L25.393 61.5189C25.414 61.4291 25.4763 61.3442 25.543 61.3056C25.5595 61.2964 25.576 61.2895 25.5926 61.2864L26.156 61.1711C26.2871 60.8265 26.4446 60.4862 26.6256 60.1567L26.2744 59.8079C26.2221 59.7549 26.2386 59.6317 26.3088 59.5313L27.0982 58.4154C27.1261 58.3751 27.1591 58.3445 27.1918 58.3259C27.2407 58.2977 27.2892 58.2956 27.3205 58.3276L27.6693 58.6775C27.9091 58.4119 28.1626 58.1691 28.4292 57.9551L28.4271 57.274C28.4268 57.1725 28.4976 57.0497 28.586 56.9988L29.5623 56.4353C29.6504 56.3844 29.7219 56.425 29.7223 56.5265L29.7243 57.2076C29.9913 57.1133 30.2452 57.0634 30.4846 57.0521L30.8313 56.3004C30.8623 56.2327 30.9105 56.1787 30.959 56.1508C30.9916 56.1319 31.0243 56.1247 31.0529 56.1322L31.8451 56.3352C31.9167 56.3538 31.9339 56.4577 31.8819 56.5708L31.5341 57.3232C31.7164 57.4429 31.8754 57.6004 32.0068 57.7938L32.5692 57.2588C32.5857 57.243 32.6026 57.2303 32.6191 57.2206C32.6862 57.1818 32.7488 57.1948 32.7701 57.2602L33.0759 58.1536C33.1028 58.2348 33.0574 58.3638 32.9734 58.4439L32.4099 58.9795C32.4251 59.1209 32.4354 59.2695 32.4357 59.4233C32.4361 59.5795 32.4271 59.7387 32.4127 59.8977L32.9775 59.7821C33.0615 59.7652 33.1076 59.8416 33.0811 59.9534L32.7815 61.1963C32.7601 61.285 32.6979 61.371 32.6305 61.4099C32.6139 61.4192 32.5974 61.426 32.5809 61.4291L32.0174 61.5444C31.8874 61.8884 31.7299 62.2276 31.5489 62.5581L31.9001 62.907C31.9524 62.9599 31.9359 63.0831 31.8647 63.1842L31.0763 64.2998C31.0481 64.3401 31.0154 64.3703 30.983 64.3889C30.9338 64.4171 30.8857 64.4188 30.854 64.3879L30.5042 64.0373C30.2655 64.3036 30.0119 64.5465 29.7453 64.7601L29.7474 65.4402C29.7477 65.5427 29.6769 65.6645 29.5885 65.7154L28.6122 66.2792C28.5241 66.3301 28.4526 66.2905 28.4522 66.188L28.4502 65.5083C28.1832 65.6025 27.9293 65.6524 27.6889 65.6631L27.3432 66.4154C27.3119 66.4828 27.2634 66.5372 27.2142 66.5654C27.1818 66.5843 27.1492 66.5915 27.1213 66.584L26.328 66.3817C26.2579 66.3624 26.2403 66.2586 26.2923 66.1457L26.64 65.3934C26.4577 65.2723 26.2988 65.1161 26.1664 64.9235L25.6039 65.4584C25.5877 65.4739 25.5712 65.4863 25.5551 65.4959C25.4883 65.5344 25.4254 65.521 25.404 65.4567L25.0982 64.5633C25.0714 64.4821 25.1168 64.3535 25.2007 64.273L25.7646 63.7353ZM29.0948 64.0525C30.3907 63.3043 31.4381 61.4904 31.4337 60.0012C31.4295 58.5131 30.3755 57.9138 29.0793 58.662C27.7845 59.4095 26.737 61.2221 26.7415 62.7102C26.746 64.1994 27.8 64.8 29.0948 64.0525Z" fill="white"/>
<path d="M33.7416 58.4349C33.7781 58.1938 33.8372 57.9506 33.9163 57.7081L33.5723 57.6193C33.5211 57.6059 33.5094 57.5309 33.5462 57.4511L33.9556 56.5643C33.9779 56.5158 34.0127 56.4769 34.0481 56.4566C34.0711 56.4432 34.0945 56.4377 34.1148 56.4432L34.4588 56.5319C34.5985 56.3021 34.7533 56.082 34.9198 55.8783L34.7877 55.491C34.7684 55.4325 34.8011 55.3403 34.8606 55.2829L35.5249 54.6513C35.5369 54.6396 35.549 54.6306 35.5607 54.6238C35.6085 54.5962 35.6532 54.6059 35.6683 54.6527L35.8004 55.041C35.895 54.9743 35.9893 54.911 36.0859 54.8553C36.1836 54.7989 36.2782 54.7528 36.3728 54.7105L36.5022 54.1711C36.5173 54.1064 36.5617 54.0455 36.6095 54.018C36.6216 54.0111 36.6336 54.0063 36.6453 54.0042L37.3109 53.868C37.3704 53.857 37.4038 53.911 37.3845 53.9915L37.2552 54.5295C37.4224 54.5405 37.5779 54.5818 37.7182 54.6496L38.0605 54.1645C38.0805 54.136 38.1039 54.1143 38.1272 54.1009C38.1627 54.0806 38.1974 54.0792 38.2201 54.1016L38.6329 54.5137C38.6704 54.5508 38.6587 54.6392 38.6082 54.7115L38.2659 55.1965C38.346 55.3472 38.4062 55.5216 38.4441 55.7197L38.8679 55.4752C38.9315 55.4384 38.9828 55.4662 38.9831 55.5395L38.9855 56.3427C38.9855 56.4146 38.935 56.5027 38.871 56.5395L38.4472 56.7841C38.4107 57.0252 38.3519 57.2684 38.2728 57.511L38.6168 57.5997C38.6677 57.6131 38.6797 57.6881 38.6429 57.7669L38.2335 58.6548C38.2112 58.7033 38.1764 58.7421 38.141 58.7624C38.118 58.7758 38.0946 58.7814 38.0743 58.7758L37.7303 58.6871C37.5903 58.9169 37.4358 59.137 37.2693 59.3407L37.4014 59.728C37.4207 59.7865 37.388 59.8787 37.3285 59.9351L36.6642 60.5681C36.6529 60.5791 36.6412 60.5877 36.6295 60.5942C36.5813 60.6221 36.5359 60.6128 36.5204 60.5667L36.3883 60.1783C36.2937 60.2451 36.1991 60.307 36.1014 60.3634C36.0048 60.4191 35.9102 60.4666 35.8156 60.5089L35.6862 61.0483C35.6707 61.1123 35.6257 61.1739 35.5779 61.2014C35.5662 61.2079 35.5548 61.2127 35.5431 61.2152L34.8775 61.35C34.818 61.3624 34.7846 61.308 34.8039 61.2275L34.9332 60.6895C34.766 60.6785 34.6105 60.6372 34.4698 60.5695L34.1276 61.0545C34.1076 61.0831 34.0842 61.1047 34.0608 61.1181C34.0254 61.1384 33.9906 61.1398 33.9679 61.1175L33.5551 60.7043C33.5176 60.6685 33.5293 60.5798 33.5803 60.5075L33.9225 60.0225C33.8424 59.8718 33.7822 59.6978 33.7443 59.4993L33.3205 59.7439C33.2569 59.7807 33.2056 59.7514 33.2053 59.6795L33.2029 58.8763C33.2025 58.803 33.2535 58.7163 33.3171 58.6795L33.7416 58.4349ZM36.0994 59.5395C37.0268 59.0043 37.7764 57.7057 37.7733 56.64C37.7702 55.5742 37.0158 55.1442 36.0884 55.6798C35.162 56.2148 34.4124 57.513 34.4155 58.5787C34.4186 59.6444 35.1733 60.0744 36.0994 59.5395Z" fill="white"/>
<path d="M28.4948 109.887L14.3007 101.692C14.0282 101.535 14.0623 101.26 14.377 101.078L28.3238 93.0258C28.6386 92.8442 29.1143 92.8246 29.3868 92.9818L43.5809 101.177C43.8534 101.334 43.819 101.609 43.5045 101.791L29.5578 109.843C29.243 110.025 28.7669 110.044 28.4948 109.887Z" fill="#F2F2F2"/>
<path d="M29.0251 102.045L15.4578 94.2123L28.9405 86.428L42.5075 94.2612L29.0251 102.045Z" fill="#F2F2F2"/>
<path d="M29.0203 101.191L16.938 94.2148L28.945 87.2828L41.0273 94.2585L29.0203 101.191Z" fill="#E6E6E6"/>
<path d="M29.0251 108.929V102.045L42.5075 94.2612V101.145L29.0251 108.929Z" fill="#BFBFBF"/>
<path d="M15.4578 94.2124V101.096L29.0251 108.929V102.045L15.4578 94.2124Z" fill="#E6E6E6"/>
<path d="M19.8828 95.9151L18.9278 95.3664L18.7651 93.1576L18.4263 88.4427L19.3747 88.9034L19.6458 92.6495L19.8828 95.9151Z" fill="#4D4D4D"/>
<path d="M19.3743 88.9027L18.4231 88.4424L30.257 81.6099L31.2082 82.0705L19.3743 88.9027Z" fill="#737373"/>
<path d="M32.2329 96.1927L27.1045 99.1532L26.2982 99.6207L26.2304 99.6613L26.2236 99.5732L25.7155 99.2822L24.7605 98.7332L24.259 98.4418L23.304 97.8931L22.7959 97.6018L21.8406 97.0465L21.346 96.7617L20.3842 96.2062L19.8826 95.9151L19.6456 92.6495L19.3745 88.9034L31.2098 82.0677L31.2573 82.7454L31.3316 83.7073L31.3791 84.3849V84.3915L31.4468 85.3536L31.4943 86.031L31.569 86.9997L31.6161 87.6705L31.6839 88.6392L31.7045 88.8762L31.7313 89.3165L31.806 90.2852L32.2329 96.1927Z" fill="#1F2125"/>
<path d="M21.3459 96.7617L20.3841 96.2061L20.1062 92.3853L19.8826 89.3099L20.8379 89.7705L20.9868 91.8772L21.3459 96.7617Z" fill="#4D4D4D"/>
<path d="M20.8348 89.7706L19.8833 89.3103L31.7176 82.4781L32.6687 82.9384L20.8348 89.7706Z" fill="#737373"/>
<path d="M33.6959 97.0599L27.7819 100.474L27.1788 100.129L26.2982 99.6207L26.2304 99.6613L26.2236 99.5732L25.7155 99.2822L24.7605 98.7331L24.259 98.4418L23.304 97.8931L22.7959 97.6017L21.8407 97.0465L21.346 96.7617L20.9868 91.8772L20.8379 89.7706L31.3316 83.7072L32.6663 82.9349L32.7138 83.6192L32.7881 84.5813L32.8356 85.2518L32.9033 86.2274L32.9577 86.8982L33.0255 87.8669L33.0726 88.5373V88.5442L33.1472 89.5064V89.5129L33.161 89.7162L33.6959 97.0599Z" fill="#1F2125"/>
<path d="M22.7959 97.6018L21.8406 97.0466L21.4478 91.6131L21.3459 90.1769L22.2944 90.6378L22.3284 91.105L22.7959 97.6018Z" fill="#4D4D4D"/>
<path d="M22.2957 90.6385L21.3442 90.1783L33.1785 83.3461L34.1297 83.8063L22.2957 90.6385Z" fill="#737373"/>
<path d="M35.1325 97.663L29.0217 101.192L27.7819 100.474L27.1789 100.129L26.2982 99.6207L26.2305 99.6613L26.2236 99.5732L25.7155 99.2822L24.7606 98.7332L24.259 98.4418L23.3041 97.8931L22.796 97.6017L22.3285 91.105L22.2944 90.6378L31.4469 85.3536L34.1298 83.8087L34.1772 84.4795L34.2515 85.4482L34.299 86.119V86.1259L34.3668 87.0877L34.4142 87.7654L34.4889 88.7341L34.6175 90.5563L35.1325 97.663Z" fill="#1F2125"/>
<path d="M24.259 98.4418L23.304 97.8931L22.8025 91.0441L23.7578 91.5047L24.259 98.4418Z" fill="#4D4D4D"/>
<path d="M23.7563 91.5068L22.8052 91.0462L34.6391 84.214L35.5906 84.6743L23.7563 91.5068Z" fill="#737373"/>
<path d="M36.4803 96.8839L35.1325 97.6631L29.0217 101.192L27.7819 100.474L27.1789 100.129L26.2983 99.6208L26.2305 99.6614L26.2236 99.5733L25.7155 99.2823L24.7606 98.7332L24.259 98.4419L23.7578 91.5048L30.0107 87.9007L31.569 86.9997L32.9034 86.2275L34.2515 85.4483L35.5928 84.676L35.6403 85.3468L35.7149 86.3155L35.7624 86.9863L35.8301 87.9619L36.0806 91.4033L36.4803 96.8839Z" fill="#1F2125"/>
<path d="M25.7155 99.2823L24.7605 98.7332L24.2659 91.9114L25.2143 92.372L25.7155 99.2823Z" fill="#4D4D4D"/>
<path d="M25.2174 92.3747L24.2659 91.9144L36.1002 85.0819L37.0513 85.5422L25.2174 92.3747Z" fill="#737373"/>
<path d="M37.822 96.1116L36.4804 96.8839L35.1326 97.663L29.0217 101.192L27.782 100.474L27.1789 100.129L26.2983 99.6207L26.2305 99.6613L26.2237 99.5733L25.7156 99.2822L25.2144 92.372L31.4875 88.7544L31.684 88.6392L33.0256 87.8669L34.3668 87.0878L35.715 86.3155L37.0497 85.5432L37.0968 86.214L37.1715 87.1827V87.1896L37.5371 92.2433L37.822 96.1116Z" fill="#1F2125"/>
<path d="M27.1789 100.129L26.2982 99.6207L26.2305 99.6613L26.2236 99.5732L25.7292 92.785L26.6777 93.246L27.1046 99.1532L27.1789 100.129Z" fill="#4D4D4D"/>
<path d="M26.678 93.2425L25.7268 92.7823L37.5608 85.9501L38.5123 86.4103L26.678 93.2425Z" fill="#737373"/>
<path d="M39.1563 95.3324L37.822 96.1116L36.4804 96.8838L35.1326 97.663L29.0217 101.192L27.782 100.474L27.1789 100.129L27.1046 99.1532L26.6777 93.246L31.8061 90.2852L32.9781 89.6079L33.1473 89.5129L34.3396 88.8222L34.4889 88.7341L35.8302 87.9618L37.1715 87.1896L38.5127 86.4104L38.994 93.0833L39.1563 95.3324Z" fill="#1F2125"/>
<path d="M30.0152 97.5171L31.7259 97.6791V98.4404L28.8511 98.1893L31.7259 94.6261V95.3877L30.0152 97.5171Z" fill="#F2F2F2"/>
<path d="M33.0203 98.7338L32.4675 99.0527C33.0138 97.0455 33.4214 95.5415 33.6904 94.5401L34.3017 92.2838L34.8549 91.9646L33.0203 98.7338Z" fill="#F2F2F2"/>
<path d="M37.1836 93.3785L35.4663 93.2203V92.4666L38.3477 92.7063L35.4663 96.2808V95.512L37.1836 93.3785Z" fill="#F2F2F2"/>
<path d="M96.6187 157.951C93.3294 159.85 87.9795 159.84 84.6696 157.929C81.3596 156.018 81.3427 152.93 84.6321 151.03C87.9214 149.131 93.2709 149.141 96.5809 151.052C99.8912 152.963 99.9081 156.052 96.6187 157.951Z" fill="#F2F2F2"/>
<path d="M97.8274 153.988C97.8398 151.691 94.6257 149.813 90.6485 149.791C86.6714 149.77 83.4372 151.614 83.4248 153.91C83.4124 156.206 86.6265 158.085 90.6036 158.106C94.5808 158.128 97.815 156.284 97.8274 153.988Z" fill="#C4C4C4"/>
<path d="M97.5834 140.384H83.6717V153.42C83.6335 154.48 84.316 155.549 85.7212 156.36C88.4468 157.934 92.852 157.942 95.5603 156.378C96.9649 155.567 97.6353 154.493 97.5772 153.427L97.5834 140.384Z" fill="#D9D9D9"/>
<path d="M97.8269 140.651C97.8393 138.355 94.6252 136.476 90.648 136.454C86.6709 136.433 83.4367 138.277 83.4243 140.573C83.4119 142.869 86.626 144.748 90.6031 144.77C94.5803 144.791 97.8145 142.947 97.8269 140.651Z" fill="#F2F2F2"/>
<path d="M92.1338 144.686C92.1338 144.686 92.1328 144.687 92.1318 144.686C89.8339 144.961 87.3412 144.581 85.549 143.547C85.2301 143.363 84.9463 143.165 84.699 142.958L85.9219 142.279L91.8728 143.801L92.1338 144.686Z" fill="#FFD166"/>
<path d="M96.2987 141.889C96.006 142.331 95.5505 142.746 94.9327 143.103C92.5684 144.468 88.7239 144.461 86.3441 143.087C85.7132 142.724 85.2495 142.301 84.9519 141.849C84.1256 140.598 84.5804 139.132 86.3179 138.129C88.6822 136.764 92.5268 136.77 94.9066 138.144C96.6641 139.16 97.1299 140.636 96.2987 141.889Z" fill="#999999"/>
<path d="M96.2987 141.889C96.006 142.331 95.5505 142.746 94.9327 143.103C92.5684 144.468 88.7239 144.461 86.3441 143.087C85.7132 142.724 85.2495 142.301 84.9519 141.849C85.2446 141.407 85.7001 140.991 86.3179 140.635C88.6822 139.27 92.5268 139.276 94.9066 140.65C95.5371 141.014 96.0008 141.437 96.2987 141.889Z" fill="#FFAD66"/>
<path d="M86.3177 138.77C88.682 137.405 92.5273 137.412 94.9064 138.785C95.9604 139.394 96.5486 140.169 96.6728 140.961C96.8334 139.956 96.2442 138.916 94.9064 138.144C92.5273 136.771 88.6817 136.764 86.3177 138.129C85.0009 138.889 84.4219 139.915 84.5781 140.912C84.703 140.129 85.2826 139.367 86.3177 138.77Z" fill="#D9D9D9"/>
<path d="M91.9606 157.003C91.9441 157.006 91.9272 157.008 91.9107 157.008C91.7786 157.012 91.6503 156.936 91.5547 156.841C91.2633 156.555 91.1752 156.112 90.8952 155.813C90.6682 155.57 90.3355 155.447 90.1047 155.206C89.9334 155.026 89.8298 154.792 89.6606 154.61C89.4913 154.429 89.2075 154.308 88.9963 154.437C88.8477 154.527 88.7363 154.729 88.566 154.697C88.5151 154.688 88.471 154.656 88.4318 154.623C88.1628 154.394 88.0493 154.026 88.0259 153.673C88.0025 153.32 88.0541 152.967 88.0503 152.613C88.0472 152.443 88.0317 152.268 87.9681 152.111C87.8136 151.728 87.4067 151.496 87.2381 151.119C87.1463 150.913 87.1219 150.663 86.9485 150.52C86.792 150.393 86.5697 150.399 86.3692 150.411C86.3155 150.414 86.2588 150.418 86.2147 150.45C86.158 150.491 86.1394 150.564 86.1246 150.632C85.8467 151.97 86.1208 153.424 85.5708 154.676C85.4779 154.888 85.341 155.108 85.1177 155.174C85.0286 155.2 84.9278 155.183 84.8477 155.139C84.567 154.987 84.698 154.498 84.698 154.228V142.958C84.9454 143.166 85.2292 143.363 85.5481 143.547C87.3403 144.582 89.834 144.963 92.1329 144.687V155.346C92.1339 155.654 92.3049 156.939 91.9606 157.003Z" fill="#FFAD66"/>
<path d="M117.677 146.053C117.692 143.359 113.92 141.154 109.254 141.129C104.588 141.104 100.793 143.267 100.778 145.961C100.764 148.655 104.535 150.86 109.201 150.885C113.868 150.91 117.662 148.747 117.677 146.053Z" fill="#F2F2F2"/>
<path d="M116.429 145.508C116.441 143.212 113.227 141.333 109.25 141.311C105.273 141.29 102.039 143.134 102.026 145.43C102.014 147.726 105.228 149.605 109.205 149.626C113.182 149.648 116.417 147.804 116.429 145.508Z" fill="#C4C4C4"/>
<path d="M116.186 131.904H102.274V144.941C102.236 146.001 102.919 147.07 104.324 147.881C107.049 149.455 111.455 149.463 114.163 147.899C115.567 147.088 116.238 146.014 116.18 144.948L116.186 131.904Z" fill="#D9D9D9"/>
<path d="M116.428 132.171C116.441 129.875 113.227 127.996 109.25 127.975C105.272 127.953 102.038 129.797 102.026 132.093C102.013 134.389 105.228 136.268 109.205 136.29C113.182 136.311 116.416 134.467 116.428 132.171Z" fill="#F2F2F2"/>
<path d="M110.736 136.207C110.736 136.207 110.735 136.208 110.734 136.207C108.436 136.482 105.944 136.101 104.151 135.067C103.832 134.883 103.549 134.686 103.301 134.478L104.524 133.799L110.475 135.322L110.736 136.207Z" fill="#8482FF"/>
<path d="M114.901 133.409C114.608 133.852 114.153 134.267 113.535 134.623C111.171 135.988 107.326 135.982 104.946 134.608C104.315 134.245 103.852 133.821 103.554 133.37C102.728 132.118 103.183 130.653 104.92 129.65C107.285 128.285 111.129 128.291 113.509 129.665C115.267 130.681 115.732 132.157 114.901 133.409Z" fill="#999999"/>
<path d="M114.901 133.409C114.608 133.852 114.153 134.267 113.535 134.623C111.171 135.988 107.326 135.982 104.946 134.608C104.315 134.245 103.852 133.821 103.554 133.37C103.847 132.927 104.302 132.512 104.92 132.156C107.285 130.791 111.129 130.797 113.509 132.171C114.14 132.535 114.603 132.958 114.901 133.409Z" fill="#4D4BB7"/>
<path d="M104.92 130.291C107.284 128.926 111.129 128.933 113.508 130.306C114.562 130.915 115.151 131.69 115.275 132.482C115.435 131.477 114.846 130.437 113.508 129.665C111.129 128.292 107.284 128.285 104.92 129.65C103.603 130.41 103.024 131.436 103.18 132.433C103.305 131.65 103.885 130.888 104.92 130.291Z" fill="#D9D9D9"/>
<path d="M110.563 148.524C110.547 148.527 110.53 148.528 110.513 148.528C110.381 148.532 110.253 148.456 110.157 148.361C109.866 148.076 109.778 147.632 109.498 147.334C109.271 147.091 108.938 146.967 108.707 146.727C108.536 146.547 108.433 146.313 108.263 146.131C108.094 145.95 107.81 145.828 107.599 145.958C107.45 146.048 107.339 146.25 107.169 146.218C107.118 146.209 107.074 146.177 107.035 146.144C106.765 145.915 106.652 145.547 106.629 145.194C106.605 144.841 106.657 144.488 106.653 144.134C106.65 143.963 106.634 143.789 106.571 143.632C106.416 143.249 106.009 143.016 105.841 142.64C105.749 142.434 105.725 142.184 105.552 142.041C105.395 141.914 105.173 141.92 104.972 141.931C104.919 141.935 104.862 141.939 104.818 141.97C104.761 142.012 104.742 142.085 104.728 142.152C104.45 143.491 104.724 144.944 104.174 146.196C104.081 146.409 103.944 146.629 103.721 146.695C103.632 146.721 103.531 146.705 103.451 146.661C103.17 146.509 103.301 146.02 103.301 145.749V134.479C103.549 134.687 103.832 134.884 104.151 135.068C105.943 136.104 108.437 136.484 110.736 136.208V146.867C110.736 147.174 110.908 148.46 110.563 148.524Z" fill="#4D4BB7"/>
<path d="M148.446 145.146C145.157 147.045 139.807 147.035 136.497 145.124C133.187 143.213 133.17 140.124 136.459 138.225C139.749 136.326 145.098 136.336 148.408 138.247C151.718 140.158 151.735 143.247 148.446 145.146Z" fill="#F2F2F2"/>
<path d="M147.561 144.097C144.757 145.715 140.198 145.707 137.376 144.078C134.555 142.449 134.541 139.817 137.344 138.199C140.148 136.58 144.707 136.588 147.529 138.217C150.35 139.845 150.364 142.478 147.561 144.097Z" fill="#C4C4C4"/>
<path d="M149.411 127.578H135.499V140.614C135.461 141.674 136.143 142.743 137.548 143.555C140.274 145.128 144.679 145.137 147.387 143.573C148.792 142.762 149.462 141.688 149.404 140.622L149.411 127.578Z" fill="#D9D9D9"/>
<path d="M149.652 127.845C149.665 125.549 146.451 123.67 142.473 123.648C138.496 123.627 135.262 125.471 135.25 127.767C135.237 130.063 138.451 131.942 142.429 131.963C146.406 131.985 149.64 130.141 149.652 127.845Z" fill="#F2F2F2"/>
<path d="M143.961 131.881C143.961 131.881 143.96 131.882 143.959 131.881C141.661 132.156 139.168 131.775 137.376 130.741C137.057 130.557 136.773 130.36 136.526 130.152L137.749 129.473L143.7 130.996L143.961 131.881Z" fill="#737373"/>
<path d="M148.126 129.083C147.833 129.526 147.378 129.941 146.76 130.297C144.396 131.662 140.551 131.656 138.171 130.282C137.54 129.919 137.077 129.495 136.779 129.044C135.953 127.792 136.408 126.327 138.145 125.324C140.509 123.959 144.354 123.965 146.734 125.339C148.491 126.355 148.957 127.831 148.126 129.083Z" fill="#999999"/>
<path d="M148.126 129.083C147.833 129.526 147.378 129.941 146.76 130.297C144.396 131.662 140.551 131.656 138.171 130.282C137.54 129.918 137.077 129.495 136.779 129.044C137.072 128.601 137.527 128.186 138.145 127.83C140.509 126.465 144.354 126.471 146.734 127.845C147.364 128.208 147.828 128.632 148.126 129.083Z" fill="#1F2125"/>
<path d="M138.144 125.965C140.509 124.6 144.354 124.607 146.733 125.98C147.787 126.589 148.375 127.364 148.499 128.156C148.66 127.151 148.07 126.111 146.733 125.339C144.354 123.966 140.508 123.959 138.144 125.324C136.828 126.084 136.249 127.11 136.405 128.107C136.53 127.324 137.11 126.562 138.144 125.965Z" fill="#D9D9D9"/>
<path d="M143.788 144.198C143.771 144.2 143.754 144.202 143.738 144.202C143.606 144.206 143.477 144.13 143.382 144.035C143.09 143.75 143.002 143.306 142.722 143.008C142.495 142.765 142.163 142.641 141.932 142.401C141.761 142.221 141.657 141.987 141.488 141.805C141.319 141.624 141.035 141.502 140.824 141.632C140.675 141.722 140.563 141.924 140.393 141.892C140.342 141.882 140.298 141.851 140.259 141.818C139.99 141.589 139.876 141.221 139.853 140.868C139.83 140.514 139.881 140.162 139.878 139.807C139.874 139.637 139.859 139.463 139.795 139.305C139.641 138.923 139.234 138.69 139.066 138.313C138.974 138.108 138.949 137.857 138.776 137.715C138.62 137.587 138.398 137.593 138.197 137.605C138.143 137.609 138.087 137.613 138.043 137.644C137.986 137.685 137.967 137.759 137.952 137.826C137.675 139.164 137.949 140.618 137.399 141.87C137.306 142.082 137.169 142.303 136.946 142.368C136.857 142.395 136.756 142.378 136.676 142.334C136.395 142.182 136.526 141.693 136.526 141.422V130.153C136.773 130.36 137.057 130.558 137.376 130.742C139.168 131.777 141.662 132.157 143.961 131.881V142.541C143.961 142.848 144.132 144.134 143.788 144.198Z" fill="#1F2125"/>
<path d="M31.6017 137.396C31.1497 137.657 30.4238 137.657 29.9746 137.396L18.1437 130.521C17.7003 130.263 17.7027 129.842 18.1551 129.581L30.0633 122.706C30.5095 122.449 31.2412 122.445 31.6846 122.703L43.5155 129.578C43.9647 129.839 43.9565 130.263 43.5103 130.521L31.6017 137.396Z" fill="#F2F2F2"/>
<path d="M31.536 136.342L42.3386 130.105C42.543 129.987 42.6462 129.831 42.6458 129.674L42.64 128.584C42.6403 128.741 42.5371 128.897 42.3328 129.015L31.5302 135.252C31.1201 135.489 30.4617 135.489 30.0541 135.252L19.3216 129.015C19.1224 128.899 19.0223 128.747 19.022 128.594L19.0278 129.685C19.0282 129.837 19.1283 129.989 19.3274 130.105L30.0599 136.342C30.4675 136.579 31.126 136.579 31.536 136.342Z" fill="#FFAD66"/>
<path d="M31.5301 135.252C31.1201 135.489 30.4617 135.489 30.054 135.252L19.3216 129.015C18.9194 128.781 18.9215 128.4 19.3315 128.163L30.1342 121.926C30.5391 121.692 31.2026 121.689 31.6048 121.923L42.3372 128.16C42.7449 128.397 42.7373 128.782 42.3324 129.015L31.5301 135.252Z" fill="#FFD166"/>
<path d="M32.8724 126.48C34.0605 126.186 35.1572 126.032 36.1617 126.018L36.5005 126.707C35.5449 126.75 34.5549 126.905 33.5304 127.173C32.5057 127.441 31.538 127.838 30.6264 128.365C29.7151 128.891 29.0254 129.451 28.5579 130.044C28.0901 130.637 27.8228 131.208 27.7557 131.756L26.551 131.566C26.5827 130.983 26.8531 130.347 27.3622 129.661C27.8713 128.975 28.6202 128.347 29.6075 127.777C30.5958 127.206 31.6838 126.774 32.8724 126.48Z" fill="white"/>
<path d="M52.1483 43.0839L49.6467 44.5376C49.6553 44.5328 49.6632 44.5266 49.6708 44.5191L52.1724 43.0653C52.1648 43.0729 52.1569 43.0787 52.1483 43.0839Z" fill="black"/>
<path d="M46.3367 37.5142L48.8382 36.0605C48.8647 36.045 48.8981 36.0398 48.9363 36.0477L46.4347 37.5015C46.3965 37.4939 46.3632 37.4991 46.3367 37.5142Z" fill="black"/>
<path d="M50.2039 43.9852L52.7054 42.5311L52.1722 43.0654L49.6707 44.5191L50.2039 43.9852Z" fill="black"/>
<path d="M46.4346 37.5015L48.9361 36.0477L49.7968 36.2239L47.2949 37.6779L46.4346 37.5015Z" fill="black"/>
<path d="M55.7616 45.9645L53.26 47.4182C53.3034 47.3931 53.3302 47.3391 53.3302 47.2617L55.8318 45.808C55.8318 45.8854 55.8049 45.939 55.7616 45.9645Z" fill="black"/>
<path d="M53.3332 46.2256L55.8347 44.7719L55.8316 45.808L53.3301 47.2617L53.3332 46.2256Z" fill="black"/>
<path d="M46.8086 33.5826L49.3102 32.1288C49.3552 32.1027 49.4171 32.1082 49.4822 32.1457C49.5073 32.1601 49.5331 32.1798 49.5582 32.2038L47.0566 33.6576C47.0312 33.6335 47.0057 33.6139 46.9806 33.5994C46.9159 33.5619 46.8537 33.5564 46.8086 33.5826Z" fill="black"/>
<path d="M47.0569 33.6576L49.5584 32.2039L50.4154 33.0191L47.9138 34.4729L47.0569 33.6576Z" fill="black"/>
<path d="M49.8301 35.5472L52.3316 34.0935C51.6904 34.4661 51.2928 35.2579 51.2897 36.3839C51.2831 38.6532 52.879 41.4169 54.8539 42.5569L52.3523 44.0107C50.3774 42.8707 48.7819 40.1066 48.7881 37.8376C48.7912 36.7117 49.1889 35.9198 49.8301 35.5472Z" fill="black"/>
<path d="M57.3961 42.8053L54.8946 44.259C54.2447 44.6367 53.3448 44.5837 52.3521 44.0106L54.8536 42.5569C55.8464 43.13 56.746 43.183 57.3961 42.8053Z" fill="black"/>
<path d="M59.0973 46.0908L56.5957 47.5446C56.6783 47.4968 56.6931 47.3526 56.6215 47.1968L59.1231 45.743C59.1946 45.8985 59.1798 46.0427 59.0973 46.0908Z" fill="black"/>
<path d="M56.0916 46.0502L58.5935 44.5964L59.1236 45.7426L56.622 47.1967L56.0916 46.0502Z" fill="black"/>
<path d="M56.8136 45.3344L59.3152 43.8806C59.1132 44.174 58.8711 44.4121 58.5931 44.5965L56.0916 46.0502C56.3695 45.8662 56.6117 45.6278 56.8136 45.3344Z" fill="black"/>
<path d="M49.7053 32.1984L52.2069 30.7446L52.7356 31.8901L50.2337 33.3439L49.7053 32.1984Z" fill="black"/>
<path d="M52.0123 30.5165C51.9627 30.488 51.9125 30.4766 51.8688 30.488L50.6617 30.7972C50.6507 30.8 50.6407 30.8045 50.6315 30.8096L48.1299 32.2634C48.1392 32.2579 48.1492 32.2537 48.1602 32.251L49.3673 31.9417C49.4109 31.9304 49.4612 31.9414 49.5107 31.9703C49.585 32.0133 49.6583 32.0952 49.7054 32.1984L52.207 30.7446C52.1598 30.6414 52.0866 30.5595 52.0123 30.5165Z" fill="#666666"/>
<path d="M60.4186 44.7691L57.917 46.2229C57.9428 46.2077 57.9634 46.1823 57.9751 46.1469L60.4767 44.6931C60.465 44.7285 60.4447 44.754 60.4186 44.7691Z" fill="black"/>
<path d="M50.2339 33.3439L52.7355 31.8901C53.1001 31.907 53.4874 31.9834 53.894 32.1268L51.3925 33.5806C50.9862 33.4371 50.5989 33.3607 50.2339 33.3439Z" fill="black"/>
<path d="M58.4412 44.7857L60.9428 43.3319L60.477 44.6928L57.9751 46.1469L58.4412 44.7857Z" fill="black"/>
<path d="M60.7867 42.8896L59.9281 42.0732L57.4265 43.527L58.2851 44.3433C58.4128 44.4654 58.4819 44.6618 58.4413 44.7857L60.9429 43.3319C60.9838 43.2081 60.9147 43.0117 60.7867 42.8896Z" fill="#666666"/>
<path d="M57.4305 42.1286L59.9321 40.6748C59.9558 40.9177 59.9679 41.1595 59.9675 41.3938C59.9669 41.6318 59.9531 41.8589 59.9283 42.0735L57.4268 43.5273C57.4515 43.3126 57.4653 43.0856 57.466 42.8475C57.4663 42.6132 57.4543 42.3714 57.4305 42.1286Z" fill="black"/>
<path d="M53.3655 34.7199L55.867 33.2661C56.273 33.5919 56.6596 33.962 57.025 34.3669L54.5234 35.8207C54.1581 35.4158 53.7717 35.0456 53.3655 34.7199Z" fill="black"/>
<path d="M53.3686 33.682L55.8701 32.2279L55.8674 33.2661L53.3655 34.7198L53.3686 33.682Z" fill="black"/>
<path d="M55.6285 31.8089L54.141 30.95C54.0733 30.9108 54.0124 30.9073 53.9684 30.9328L51.4668 32.3865C51.5108 32.3611 51.5721 32.3645 51.6398 32.4037L53.1273 33.2627C53.2614 33.3404 53.3698 33.5276 53.3695 33.682L55.871 32.2283C55.871 32.0738 55.7627 31.8863 55.6285 31.8089Z" fill="#666666"/>
<path d="M56.1143 38.0746L58.6158 36.6208C58.8917 37.1227 59.1318 37.6415 59.3313 38.1668L56.8298 39.6205C56.6303 39.0952 56.3901 38.5768 56.1143 38.0746Z" fill="black"/>
<path d="M60.8905 40.8382L58.3889 42.292C58.4512 42.2559 58.477 42.1633 58.4488 42.044L60.9503 40.5902C60.9786 40.7092 60.9527 40.8021 60.8905 40.8382Z" fill="black"/>
<path d="M57.9924 40.1499L60.494 38.6962L60.9508 40.5902L58.4493 42.044L57.9924 40.1499Z" fill="black"/>
<path d="M60.2656 38.3714C60.2405 38.357 60.215 38.3466 60.1903 38.3418L59.3316 38.1664L56.8301 39.6201L57.689 39.7956C57.7142 39.8004 57.7396 39.8107 57.7644 39.8248C57.8659 39.8833 57.9608 40.013 57.9928 40.1495L60.4944 38.6958C60.462 38.5596 60.3671 38.4299 60.2656 38.3714Z" fill="#666666"/>
<path d="M56.6492 37.5431L59.1507 36.0894L58.6158 36.6208L56.1143 38.0746L56.6492 37.5431Z" fill="black"/>
<path d="M58.2851 44.3432C58.4128 44.4653 58.4819 44.6618 58.4413 44.7853L57.9752 46.1465C57.9422 46.2445 57.8465 46.2651 57.7447 46.2063C57.7199 46.1922 57.6948 46.173 57.6704 46.1492L56.8135 45.3339C56.6116 45.6274 56.3694 45.8658 56.0914 46.0498L56.6216 47.196C56.7007 47.3684 56.6742 47.5263 56.5672 47.5558L55.3584 47.8641C55.3157 47.8758 55.2662 47.8644 55.2167 47.8359C55.142 47.7929 55.0677 47.7099 55.0202 47.6074L54.4932 46.4612C54.1269 46.4454 53.7395 46.3687 53.3329 46.2256L53.3298 47.2617C53.3295 47.4179 53.2208 47.4781 53.0863 47.4007L51.5988 46.5417C51.4643 46.4643 51.3563 46.2789 51.3566 46.1227L51.3594 45.0866C50.9535 44.7608 50.5668 44.3907 50.2032 43.9851L49.67 44.5193C49.6218 44.5668 49.5482 44.5644 49.4736 44.5211C49.4244 44.4925 49.3745 44.4464 49.3315 44.3852L48.1299 42.6855C48.0219 42.5317 47.9964 42.3439 48.0759 42.2631L48.6108 41.7316C48.3349 41.2276 48.0948 40.7109 47.897 40.1867L47.0381 40.0112C47.0129 40.0061 46.9875 39.9961 46.9627 39.9816C46.8602 39.9225 46.7649 39.7914 46.7326 39.6559L46.2757 37.7622C46.2355 37.5919 46.3057 37.4759 46.4336 37.5014L47.294 37.6779C47.272 37.436 47.2582 37.1932 47.2586 36.9551C47.2592 36.7209 47.2744 36.4949 47.2978 36.2792L46.4392 35.4629C46.3115 35.3407 46.2424 35.1443 46.2833 35.0208L46.7491 33.6596C46.7818 33.5605 46.8771 33.5406 46.9796 33.5998C47.0047 33.6142 47.0305 33.6338 47.0556 33.6579L47.9125 34.4732C48.1127 34.1791 48.3549 33.9386 48.6328 33.7563L48.1027 32.6101C48.024 32.4377 48.0501 32.2798 48.1588 32.2513L49.3659 31.942C49.4096 31.9307 49.4598 31.9417 49.5094 31.9706C49.5837 32.0136 49.6569 32.0954 49.7041 32.1986L50.2324 33.3442C50.5974 33.361 50.9844 33.4374 51.391 33.5808L51.3941 32.543C51.3945 32.3885 51.5035 32.3266 51.6377 32.4044L53.1251 33.2633C53.2593 33.3411 53.3677 33.5282 53.367 33.6827L53.3639 34.7205C53.7698 35.0463 54.1564 35.4164 54.5218 35.8213L55.0536 35.2881C55.1014 35.2396 55.1754 35.2427 55.2497 35.2857C55.2996 35.3143 55.3494 35.361 55.3921 35.4223L56.5951 37.123C56.7017 37.2757 56.7272 37.4639 56.6474 37.5444L56.1124 38.0759C56.3883 38.5781 56.6284 39.0965 56.8279 39.6218L57.6869 39.7973C57.712 39.8021 57.7371 39.8124 57.7623 39.8265C57.8637 39.885 57.9587 40.0147 57.9907 40.1512L58.4475 42.045C58.4874 42.2152 58.4176 42.3312 58.2896 42.3057L57.4293 42.1292C57.453 42.3721 57.4654 42.6139 57.4647 42.8482C57.464 43.0862 57.4502 43.3133 57.4255 43.5279L58.2851 44.3432ZM52.3522 44.0106C54.3253 45.1499 55.9315 44.2345 55.938 41.9651C55.9446 39.6978 54.3487 36.9359 52.3756 35.7965C50.4007 34.6565 48.7945 35.5698 48.7883 37.8371C48.7814 40.1065 50.3773 42.8702 52.3522 44.0106Z" fill="#333333"/>
<path d="M59.0983 35.668L57.8954 33.9672C57.8527 33.906 57.8028 33.8596 57.753 33.8307C57.6903 33.7946 57.6284 33.7866 57.5816 33.8138L55.0801 35.2676C55.1265 35.2404 55.1888 35.2483 55.2514 35.2844C55.3013 35.313 55.3512 35.3598 55.3938 35.421L56.5968 37.1217C56.7034 37.2745 56.7289 37.4626 56.6491 37.5431L59.1506 36.0894C59.2304 36.0089 59.205 35.8207 59.0983 35.668Z" fill="#666666"/>
<path d="M47.7512 25.4856L50.7296 23.7546C50.7375 23.7501 50.7461 23.7463 50.7554 23.7439L47.777 25.4749C47.7674 25.4777 47.7591 25.4811 47.7512 25.4856Z" fill="#4D4BB7"/>
<path d="M54.5086 29.1922L51.5303 30.9232C51.5523 30.9105 51.5695 30.8888 51.5798 30.8586L54.5582 29.1276C54.5478 29.1578 54.5306 29.1795 54.5086 29.1922Z" fill="#4D4BB7"/>
<path d="M47.7766 25.4753L50.7553 23.7442L51.3793 23.5833L48.4006 25.3143L47.7766 25.4753Z" fill="#4D4BB7"/>
<path d="M51.8193 30.1536L54.7976 28.423L54.5582 29.1275L51.5798 30.8582L51.8193 30.1536Z" fill="#4D4BB7"/>
<path d="M47.1711 21.6049L50.1495 19.8739C50.1873 19.8519 50.2403 19.8557 50.2988 19.8894L47.3204 21.6204C47.262 21.5867 47.209 21.5829 47.1711 21.6049Z" fill="#4D4BB7"/>
<path d="M47.3206 21.6204L50.2993 19.8898L51.0681 20.3335L48.0897 22.0645L47.3206 21.6204Z" fill="#4D4BB7"/>
<path d="M57.6219 30.5382L54.6436 32.2692C54.6962 32.2386 54.7182 32.1598 54.6941 32.0577L57.6725 30.3267C57.6966 30.4288 57.6742 30.5076 57.6219 30.5382Z" fill="#4D4BB7"/>
<path d="M54.4592 31.0815L57.4379 29.3505L57.6725 30.3267L54.6942 32.0574L54.4592 31.0815Z" fill="#4D4BB7"/>
<path d="M57.4882 27.4753L54.5098 29.2063C53.956 29.5282 53.1895 29.4828 52.344 28.9947L55.3223 27.264C56.1679 27.7518 56.9343 27.7972 57.4882 27.4753Z" fill="#4D4BB7"/>
<path d="M50.1957 21.7803L53.174 20.0493C52.627 20.3672 52.2879 21.0431 52.2851 22.0036C52.2796 23.9369 53.6398 26.2926 55.3219 27.264L52.3436 28.9947C50.6611 28.0232 49.3009 25.6675 49.3064 23.7342C49.3095 22.7738 49.6487 22.0982 50.1957 21.7803Z" fill="#4D4BB7"/>
<path d="M48.5164 19.1133L51.4947 17.3823C51.5346 17.3589 51.5883 17.3655 51.6426 17.3968C51.6846 17.4209 51.7269 17.4601 51.7634 17.512L48.785 19.243C48.7486 19.1911 48.7062 19.1522 48.6643 19.1278C48.6099 19.0965 48.5563 19.0899 48.5164 19.1133Z" fill="#9996FF"/>
<path d="M59.1678 30.1419L56.1895 31.8729C56.1967 31.8688 56.2039 31.8633 56.2101 31.8571L59.1884 30.1261C59.1819 30.1323 59.175 30.1375 59.1678 30.1419Z" fill="#4D4BB7"/>
<path d="M48.7849 19.243L51.7633 17.512L52.3842 18.3919L49.4058 20.1226L48.7849 19.243Z" fill="#4D4BB7"/>
<path d="M49.4058 20.1226L52.3841 18.3919C52.6394 18.2684 52.9214 18.1941 53.2245 18.1738L50.2462 19.9048C49.9431 19.9248 49.661 19.9994 49.4058 20.1226Z" fill="#4D4BB7"/>
<path d="M56.9589 31.1072L59.9376 29.3762L59.1884 30.1258L56.2097 31.8568L56.9589 31.1072Z" fill="#4D4BB7"/>
<path d="M59.8922 29.0195L59.2713 28.1395L56.293 29.8705L56.9142 30.7505C57.0064 30.8815 57.0271 31.0419 56.9596 31.1072L59.938 29.3762C60.0054 29.3112 59.9844 29.1505 59.8922 29.0195Z" fill="#9996FF"/>
<path d="M56.616 28.9214L59.5943 27.1904C59.5259 27.5503 59.4168 27.8664 59.2713 28.1395L56.293 29.8705C56.4381 29.5974 56.5472 29.2813 56.616 28.9214Z" fill="#4D4BB7"/>
<path d="M51.613 19.2543L54.5914 17.5233L54.826 18.5017L51.8476 20.2327L51.613 19.2543Z" fill="#4D4BB7"/>
<path d="M54.3966 17.2454C54.3749 17.233 54.3533 17.2244 54.3316 17.2203L53.1238 16.9733C53.0918 16.9675 53.0639 16.9716 53.0416 16.9847L50.0632 18.7153C50.0856 18.7022 50.1135 18.6978 50.1454 18.704L51.3532 18.951C51.3749 18.9551 51.3966 18.9637 51.4182 18.9761C51.5049 19.0259 51.5854 19.1367 51.6129 19.254L54.5913 17.5234C54.5638 17.4061 54.4829 17.2953 54.3966 17.2454Z" fill="#9996FF"/>
<path d="M60.5123 27.6497L57.5339 29.3807C57.5711 29.359 57.5938 29.3136 57.5938 29.249L60.5721 27.5179C60.5721 27.5823 60.5491 27.628 60.5123 27.6497Z" fill="#4D4BB7"/>
<path d="M51.8477 20.2327L54.826 18.5017C54.9977 18.5784 55.1693 18.662 55.3465 18.7645C55.5219 18.8657 55.6932 18.9802 55.8649 19.1013L52.8865 20.8323C52.7152 20.7112 52.5436 20.5967 52.3681 20.4955C52.1906 20.393 52.019 20.3094 51.8477 20.2327Z" fill="#4D4BB7"/>
<path d="M56.3047 25.6717L59.283 23.9407C59.4265 24.3806 59.5335 24.8217 59.5999 25.2592L56.6215 26.9902C56.5551 26.5527 56.4481 26.112 56.3047 25.6717Z" fill="#4D4BB7"/>
<path d="M57.5979 27.7914L60.5762 26.0604L60.5721 27.5176L57.5938 29.2486L57.5979 27.7914Z" fill="#4D4BB7"/>
<path d="M60.3688 25.7033L59.5999 25.2595L56.6216 26.9905L57.3904 27.4343C57.506 27.501 57.5982 27.6586 57.5979 27.7914L60.5762 26.0604C60.5765 25.9276 60.4844 25.7704 60.3688 25.7033Z" fill="#9996FF"/>
<path d="M54.4839 22.3514L57.4622 20.6204C57.7643 20.9898 58.045 21.3892 58.2985 21.8065L55.3202 23.5375C55.067 23.1206 54.7859 22.7212 54.4839 22.3514Z" fill="#4D4BB7"/>
<path d="M54.7233 21.649L57.702 19.9183L57.4626 20.6208L54.4839 22.3514L54.7233 21.649Z" fill="#4D4BB7"/>
<path d="M57.57 19.5403L56.3647 18.3941C56.343 18.3731 56.3213 18.3566 56.2996 18.3442C56.245 18.3125 56.1927 18.3081 56.1541 18.3301L53.1758 20.0607C53.214 20.0384 53.2666 20.0432 53.3213 20.0748C53.343 20.0872 53.365 20.1037 53.3863 20.1247L54.5913 21.2709C54.699 21.3752 54.7585 21.5427 54.7234 21.649L57.7018 19.918C57.7372 19.812 57.6777 19.6445 57.57 19.5403Z" fill="#9996FF"/>
<path d="M55.3206 23.5375L58.2989 21.8065L58.9229 21.6455L55.9446 23.3765L55.3206 23.5375Z" fill="#4D4BB7"/>
<path d="M57.3904 27.4343C57.506 27.501 57.5982 27.6586 57.5978 27.7914L57.5937 29.2485C57.5934 29.3793 57.5005 29.4322 57.3849 29.3652L56.6161 28.9211C56.5476 29.2809 56.4386 29.597 56.2931 29.8701L56.914 30.7501C57.0062 30.8812 57.0272 31.0415 56.9594 31.1068L56.2101 31.8564C56.1692 31.897 56.1059 31.8949 56.0416 31.8578C55.9996 31.8337 55.9573 31.7945 55.9208 31.7425L55.2999 30.8629C55.0447 30.9861 54.7626 31.0607 54.4595 31.081L54.6941 32.0573C54.7285 32.2035 54.6683 32.3019 54.5603 32.2795L53.3525 32.0346C53.3316 32.0301 53.3106 32.0219 53.2896 32.0098C53.2022 31.9593 53.1203 31.8478 53.0928 31.7319L52.8582 30.7535C52.6866 30.6768 52.5152 30.5908 52.3398 30.4897C52.1623 30.3872 51.991 30.275 51.8197 30.1539L51.5803 30.8588C51.552 30.9427 51.4698 30.9596 51.3825 30.909C51.3615 30.897 51.3405 30.8812 51.3195 30.8616L50.1141 29.7133C50.0065 29.6111 49.9469 29.4439 49.982 29.3376L50.2215 28.6352C49.9194 28.2657 49.6387 27.8663 49.3852 27.4491L48.7612 27.6101C48.7247 27.6197 48.6821 27.6097 48.6401 27.5856C48.5761 27.5488 48.5128 27.478 48.4722 27.3899L47.7295 25.779C47.6624 25.6359 47.6841 25.4996 47.7766 25.4755L48.4007 25.3146C48.2572 24.8746 48.1502 24.4336 48.0842 23.996L47.3153 23.5522C47.1998 23.4855 47.1076 23.3259 47.1079 23.1952L47.112 21.738C47.1124 21.6052 47.2053 21.5546 47.3208 21.6214L48.0897 22.0655C48.1581 21.706 48.2672 21.3895 48.4127 21.1164L47.7918 20.2364C47.6996 20.1054 47.679 19.9451 47.7464 19.8776L48.4956 19.1301C48.5365 19.0895 48.5998 19.0916 48.6642 19.1287C48.7061 19.1528 48.7484 19.192 48.7849 19.244L49.4058 20.1236C49.6611 20.0004 49.9432 19.9258 50.2462 19.9058L50.0116 18.9296C49.9772 18.7834 50.0374 18.685 50.1454 18.7053L51.3532 18.9523C51.3749 18.9564 51.3966 18.965 51.4182 18.9774C51.5049 19.0273 51.5854 19.138 51.6129 19.2553L51.8475 20.2337C52.0192 20.3104 52.1905 20.394 52.368 20.4965C52.5435 20.5976 52.7148 20.7122 52.8864 20.8333L53.1258 20.1284C53.1537 20.0434 53.2349 20.0259 53.3216 20.0758C53.3433 20.0882 53.3653 20.1047 53.3866 20.1257L54.5916 21.2719C54.6993 21.3761 54.7588 21.5436 54.7237 21.6499L54.4843 22.3524C54.7863 22.7218 55.067 23.1212 55.3206 23.5385L55.9446 23.3775C55.9814 23.3679 56.0237 23.3778 56.0657 23.4019C56.1297 23.4391 56.193 23.5096 56.2335 23.5977L56.9762 25.2065C57.0433 25.3517 57.0216 25.4879 56.9291 25.512L56.3051 25.673C56.4485 26.113 56.5555 26.554 56.6219 26.9916L57.3904 27.4343ZM52.3439 28.9947C54.0244 29.9651 55.3935 29.1849 55.399 27.2516C55.4045 25.3183 54.0443 22.9626 52.3639 21.9922C50.6814 21.0207 49.3126 21.8009 49.3071 23.7342C49.3013 25.6675 50.6614 28.0232 52.3439 28.9947Z" fill="#6865F7"/>
<path d="M59.9542 23.4745L59.2119 21.8656C59.1713 21.7779 59.108 21.7071 59.044 21.6699C59.002 21.6458 58.9597 21.6358 58.9229 21.6455L55.9446 23.3765C55.9814 23.3669 56.0237 23.3768 56.0657 23.4009C56.1296 23.4381 56.1929 23.5086 56.2335 23.5966L56.9762 25.2055C57.0368 25.3363 57.0251 25.4598 56.9546 25.5003L59.9329 23.7693C60.0031 23.7284 60.0148 23.6052 59.9542 23.4745Z" fill="#9996FF"/>
</svg>
