<svg width="232" height="189" viewBox="0 0 232 189" fill="none" xmlns="http://www.w3.org/2000/svg">
<path d="M27.4708 137.233C29.9717 140.095 32.6758 142.672 35.5394 145.012C36.3824 145.701 40.3093 145.012 41.3137 145.012C54.7532 145.012 68.1928 145.012 81.6328 145.012C101.171 145.012 120.709 145.012 140.247 145.012C157.847 145.012 175.446 145.012 193.045 145.012C198.606 145.012 204.167 145.012 209.728 145.012C211.152 145.012 213.832 145.533 215.153 144.923C217.937 143.64 216.667 137.754 216.414 135.07C216.021 130.909 215.101 126.748 212.998 123.159C207.256 113.361 197.213 109.862 189.306 102.61C181.58 95.524 176.225 86.0582 169.876 77.5762C164.919 70.954 159.308 64.8811 153.164 59.4885C149.248 56.0518 145.011 52.8342 140.138 51.2897C135.875 49.9384 131.324 49.9376 126.903 50.4736C113.948 52.0446 101.535 58.2657 92.1738 67.8798C81.6049 78.734 72.8314 94.8402 58.8853 101.188C51.2472 104.665 42.6296 105.132 34.974 108.565C27.3184 111.998 20.3405 120.308 22.4899 128.813C23.3065 132.045 25.3246 134.778 27.4708 137.233Z" fill="#E3EFFF"/>
<path d="M209.9 110.742C211.378 111.005 212.96 110.997 214.299 110.283C214.969 109.926 215.601 109.313 215.666 108.521C215.695 108.166 215.605 107.812 215.495 107.474C214.573 104.634 212.272 102.573 209.978 100.807C208.265 99.4888 206.399 98.2111 204.291 98.001C199.843 97.5576 198.549 101.277 200.837 104.669C202.965 107.825 206.277 110.099 209.9 110.742Z" fill="#E3EFFF"/>
<path d="M84.9054 85.953C71.771 82.4198 68.0793 75.0726 68.0793 75.0726H66.562H54.4395H49.6278C49.6278 75.0726 45.9358 82.4202 32.8017 85.953C32.8017 85.953 24.0964 122.609 57.6472 144.776H60.06C93.6107 122.609 84.9054 85.953 84.9054 85.953Z" fill="#6D89C9"/>
<path d="M80.7705 89.7575C69.7208 86.7853 66.6149 80.6039 66.6149 80.6039H65.3385H55.1398H51.0919C51.0919 80.6039 47.986 86.7853 36.9364 89.7575C36.9364 89.7575 29.6127 120.596 57.8385 139.245H59.8683C88.0945 120.596 80.7705 89.7575 80.7705 89.7575Z" fill="#5872B4"/>
<path d="M78.9979 91.3886C68.8421 88.6568 65.987 82.9755 65.987 82.9755H64.8138H55.4403H51.7197C51.7197 82.9755 48.8651 88.6568 38.7088 91.3886C38.7088 91.3886 31.9773 119.733 57.9206 136.874H59.7862C85.7295 119.733 78.9979 91.3886 78.9979 91.3886Z" fill="#BED1F9"/>
<path d="M75.8652 111.38C78.0542 101.43 72.2121 91.4842 62.8165 89.1659C53.4209 86.8477 44.0297 93.0348 41.8407 102.985C39.6517 112.936 45.4938 122.881 54.8894 125.2C64.2851 127.518 73.6762 121.331 75.8652 111.38Z" fill="#A1BAF0"/>
<path d="M60.6529 122.64C68.7181 121.588 74.4513 113.811 73.4583 105.27C72.4653 96.7283 65.1221 90.6566 57.0568 91.7082C48.9916 92.7599 43.2584 100.537 44.2514 109.078C45.2444 117.62 52.5876 123.691 60.6529 122.64Z" fill="#DDE8FA"/>
<path d="M51.7084 108.178L58.042 112.31L66.0985 97.6483L67.5461 98.6806L59.1816 116.704L50.1611 111.453L51.7084 108.178Z" fill="#6D89C9"/>
<path d="M196.887 83.6136L199.927 82.2948L200.745 79.5596L198.977 76.627L202.017 75.3082L202.835 72.573L201.068 69.6408L204.107 68.322L205.403 63.9916L204.457 55.9988L199.74 54.4161L194.846 60.449L179.443 111.931L190.001 115.474L198.655 86.5461L196.887 83.6136Z" fill="#6D89C9"/>
<path d="M181.279 105.796L179.443 111.931L190.001 115.474L192.012 108.751C188.933 106.87 185.363 105.789 181.552 105.789C181.46 105.789 181.37 105.795 181.279 105.796Z" fill="#5672B3"/>
<path d="M198.037 60.9061L182.47 112.945L183.818 113.397L199.384 61.3583L198.037 60.9061Z" fill="#5672B3"/>
<path d="M183.824 113.402L185.952 106.287C185.489 106.182 185.022 106.093 184.549 106.021L182.476 112.949L183.824 113.402Z" fill="#486096"/>
<path d="M181.552 108.319C171.372 108.319 163.119 117.059 163.119 127.84C163.119 135.214 166.98 141.631 172.677 144.952H190.427C196.123 141.631 199.985 135.214 199.985 127.84C199.985 117.059 191.732 108.319 181.552 108.319ZM181.552 138.26C176.119 138.26 171.714 133.595 171.714 127.84C171.714 122.086 176.119 117.421 181.552 117.421C186.986 117.421 191.39 122.086 191.39 127.84C191.39 133.595 186.986 138.26 181.552 138.26Z" fill="#BED1F9"/>
<path d="M181.552 144.169C190.067 144.169 196.97 136.858 196.97 127.84C196.97 118.822 190.067 111.512 181.552 111.512C173.037 111.512 166.135 118.822 166.135 127.84C166.135 136.858 173.037 144.169 181.552 144.169ZM181.552 116.458C187.488 116.458 192.299 121.554 192.299 127.84C192.299 134.127 187.488 139.222 181.552 139.222C175.617 139.222 170.805 134.127 170.805 127.84C170.805 121.554 175.617 116.458 181.552 116.458Z" fill="#A1BAF0"/>
<path d="M181.552 142.787C189.347 142.787 195.665 136.096 195.665 127.841C195.665 119.586 189.347 112.894 181.552 112.894C173.758 112.894 167.439 119.586 167.439 127.841C167.439 136.096 173.758 142.787 181.552 142.787ZM181.552 117.421C186.986 117.421 191.39 122.086 191.39 127.84C191.39 133.595 186.986 138.26 181.552 138.26C176.119 138.26 171.714 133.595 171.714 127.84C171.714 122.086 176.119 117.421 181.552 117.421Z" fill="#6D89C9"/>
<path d="M220.506 127.102C220.506 126.868 220.491 126.638 220.473 126.409L222.571 125.338L221.696 122.487L219.402 122.927C219.175 122.53 218.919 122.155 218.633 121.806L219.737 119.632L217.447 117.87L215.843 119.647C215.443 119.467 215.023 119.33 214.592 119.224L214.278 116.78H211.448L211.134 119.224C210.703 119.33 210.283 119.467 209.883 119.647L208.278 117.87L205.988 119.632L207.092 121.806C206.806 122.155 206.551 122.53 206.324 122.927L204.03 122.487L203.155 125.338L205.253 126.409C205.234 126.638 205.22 126.868 205.22 127.102C205.22 127.337 205.234 127.567 205.253 127.796L203.155 128.867L204.03 131.718L206.324 131.277C206.551 131.675 206.806 132.05 207.092 132.399L205.988 134.572L208.278 136.335L209.883 134.558C210.283 134.738 210.703 134.875 211.134 134.981L211.448 137.425H214.278L214.592 134.981C215.023 134.875 215.443 134.738 215.843 134.558L217.447 136.335L219.737 134.572L218.633 132.399C218.919 132.05 219.175 131.675 219.402 131.277L221.696 131.718L222.571 128.867L220.473 127.796C220.491 127.567 220.506 127.337 220.506 127.102ZM212.863 131.626C210.504 131.626 208.592 129.601 208.592 127.102C208.592 124.604 210.504 122.579 212.863 122.579C215.222 122.579 217.134 124.604 217.134 127.102C217.134 129.601 215.222 131.626 212.863 131.626Z" fill="#BED1F9"/>
<path d="M212.863 133.717C216.312 133.717 219.109 130.755 219.109 127.102C219.109 123.449 216.312 120.488 212.863 120.488C209.414 120.488 206.618 123.449 206.618 127.102C206.618 130.755 209.414 133.717 212.863 133.717ZM212.863 122.579C215.222 122.579 217.134 124.604 217.134 127.102C217.134 129.601 215.222 131.626 212.863 131.626C210.504 131.626 208.592 129.601 208.592 127.102C208.592 124.604 210.504 122.579 212.863 122.579Z" fill="#A1BAF0"/>
<path d="M209.421 98.1735H193.271V101.457H209.421V98.1735Z" fill="#FFBA53"/>
<path d="M208.499 91.6068H192.349V94.8901H208.499V91.6068Z" fill="#FFBA53"/>
<path d="M209.992 88.3235H193.842V91.6068H209.992V88.3235Z" fill="#FFD353"/>
<path d="M206.877 94.8901H190.727V98.1734H206.877V94.8901Z" fill="#FFD353"/>
<path d="M156.541 60.8534L142.919 57.3074C142.171 57.1131 141.715 56.314 141.898 55.5232L143.735 47.6109C143.918 46.8198 144.673 46.3363 145.419 46.5306L159.041 50.0766C159.789 50.2709 160.245 51.07 160.062 51.8608L158.225 59.7731C158.042 60.5642 157.288 61.0477 156.541 60.8534Z" fill="#6D89C9"/>
<path d="M150.98 58.7287C153.606 58.7287 155.736 56.4738 155.736 53.6922C155.736 50.9107 153.606 48.6558 150.98 48.6558C148.354 48.6558 146.224 50.9107 146.224 53.6922C146.224 56.4738 148.354 58.7287 150.98 58.7287Z" fill="#B1C9F1"/>
<path d="M148.403 55.397L149.419 51.0193C149.506 50.6417 149.936 50.4901 150.22 50.7362L153.985 53.998C154.308 54.2777 154.184 54.8288 153.776 54.9237L148.995 56.0396C148.634 56.1242 148.314 55.7776 148.403 55.397Z" fill="white"/>
<path d="M137.995 53.904L130.777 52.0249C130.401 51.927 130.172 51.5252 130.264 51.1276L131.258 46.846C131.35 46.4483 131.729 46.2049 132.105 46.3028L139.323 48.1818C139.699 48.2797 139.928 48.6815 139.836 49.0792L138.843 53.3608C138.751 53.7584 138.371 54.0015 137.995 53.904Z" fill="#B1C9F1"/>
<path d="M156.489 44.562L150.565 43.0198C150.189 42.9219 149.96 42.5201 150.052 42.1224L150.845 38.7038C150.938 38.3057 151.317 38.0627 151.693 38.1606L157.617 39.7028C157.993 39.8007 158.222 40.2025 158.13 40.6002L157.337 44.0188C157.245 44.4165 156.865 44.6595 156.489 44.562Z" fill="#BED1F9"/>
<path d="M143.185 100.526L109.816 91.8397C108.702 91.5494 108.02 90.3576 108.294 89.1774L115.833 56.6951C116.106 55.515 117.232 54.7934 118.347 55.0833L151.716 63.7694C152.83 64.0597 153.511 65.2515 153.238 66.4317L145.699 98.914C145.425 100.094 144.3 100.816 143.185 100.526Z" fill="#6D89C9"/>
<path d="M142.516 98.9102L111.117 90.7371C110.222 90.5042 109.675 89.5471 109.895 88.5999L116.999 57.9932C117.219 57.0455 118.122 56.4665 119.017 56.6993L150.415 64.8724C151.31 65.1053 151.857 66.0624 151.637 67.0096L144.534 97.6163C144.314 98.5636 143.41 99.143 142.516 98.9102Z" fill="#5672B3"/>
<path d="M141.953 98.0045L112.012 90.2105C111.117 89.9776 110.57 89.0205 110.79 88.0733L117.561 58.8985C117.781 57.9508 118.684 57.3717 119.579 57.6046L149.521 65.3986C150.415 65.6314 150.962 66.5885 150.742 67.5358L143.971 96.7106C143.751 97.6582 142.848 98.2373 141.953 98.0045Z" fill="#E3EDF7"/>
<path d="M146.639 71.3396C146.639 73.7369 144.804 75.6802 142.54 75.6802C140.277 75.6802 138.442 73.7369 138.442 71.3396C138.442 68.9423 140.277 66.999 142.54 66.999C144.804 66.999 146.639 68.9423 146.639 71.3396Z" fill="white"/>
<path d="M125.773 71.0932C122.376 69.701 112.806 78.77 112.806 78.77L110.748 87.6356C110.536 88.5496 111.064 89.4727 111.927 89.6972L133.468 95.3045L136.864 93.3963L131.183 84.3107C131.183 84.3107 128.427 72.1811 125.773 71.0932Z" fill="#A7BDE3"/>
<path d="M138.647 78.9004C135.614 79.0573 123.891 88.4146 120.948 92.5367L142.14 98.0529C142.931 98.2589 143.731 97.7463 143.925 96.9079L146.428 86.1251C144.694 83.6144 141.035 78.7772 138.647 78.9004Z" fill="#B1C9F1"/>
<path d="M115.947 91.2349C115.947 91.2349 126.84 80.483 129.989 79.6998C133.137 78.9166 137.97 96.9676 137.97 96.9676L115.947 91.2349Z" fill="#BED1F1"/>
<path d="M120.067 78.8981C119.412 78.3927 115.563 81.1412 111.696 84.1708L110.79 88.0733C110.57 89.021 111.117 89.9777 112.012 90.2105L122.698 92.9922C122.698 92.9922 121.446 79.9645 120.067 78.8981Z" fill="#C9D9F5"/>
<path d="M142.297 87.6529C140.613 87.4813 130.422 95.0027 130.422 95.0027L141.953 98.0044C142.848 98.2373 143.751 97.6582 143.971 96.7106L145.201 91.4114C144.334 89.4817 143.478 87.7735 142.297 87.6529Z" fill="#C9D9F5"/>
<path d="M95.9018 94.7915C107.59 94.7915 117.066 84.7566 117.066 72.378C117.066 59.9993 107.59 49.9645 95.9018 49.9645C84.2134 49.9645 74.738 59.9993 74.738 72.378C74.738 84.7566 84.2134 94.7915 95.9018 94.7915Z" fill="#FFD353"/>
<path d="M116.791 75.9739L100.264 72.2536L116.647 67.9278C116.516 67.2436 116.355 66.5719 116.167 65.9119L99.7887 70.2366L112.705 58.7583C112.307 58.2075 111.886 57.6768 111.442 57.168L98.5274 68.6445L105.382 52.3402C104.799 52.0302 104.2 51.749 103.588 51.4958L96.8834 67.4447V49.9909C96.5579 49.9751 96.2313 49.9645 95.9019 49.9645C95.5724 49.9645 95.2458 49.9751 94.9203 49.9909V67.8325L87.532 51.7895C86.9288 52.065 86.3395 52.3674 85.767 52.6986L93.1564 68.7439L79.8724 57.7524C79.4452 58.2771 79.0412 58.8225 78.6607 59.3876L91.9479 70.3818L75.4345 66.6645C75.2692 67.3305 75.1346 68.0091 75.0269 68.6978L91.5395 72.415L75.1425 76.7446C75.2703 77.4292 75.4291 78.1017 75.614 78.7624L92.0143 74.432L79.0587 85.9452C79.4556 86.497 79.8753 87.0296 80.3179 87.5396L93.276 76.0242L86.3916 92.3999C86.9741 92.711 87.572 92.9933 88.1838 93.2474L94.92 77.2239V94.765C95.2455 94.7809 95.5721 94.7915 95.9015 94.7915C96.2309 94.7915 96.5575 94.7809 96.883 94.765V76.8361L104.305 92.951C104.907 92.6747 105.496 92.3708 106.068 92.0385L98.6473 75.9251L111.974 86.9518C112.4 86.426 112.802 85.879 113.181 85.3124L99.8555 74.2869L116.391 78.0091C116.554 77.3426 116.686 76.663 116.791 75.9739Z" fill="#FFE692"/>
<path d="M95.9019 91.2348C105.736 91.2348 113.707 82.7923 113.707 72.3779C113.707 61.9635 105.736 53.521 95.9019 53.521C86.0682 53.521 78.0964 61.9635 78.0964 72.3779C78.0964 82.7923 86.0682 91.2348 95.9019 91.2348Z" fill="#EE9F53"/>
<path d="M102.105 88.7764C110.658 85.1463 114.813 74.8607 111.385 65.8029C107.957 56.7451 98.2451 52.3451 89.6924 55.9753C81.1397 59.6054 76.985 69.891 80.4128 78.9488C83.8405 88.0066 93.5526 92.4066 102.105 88.7764Z" fill="#FFBA53"/>
<path d="M159.421 136.908L158.738 142.421L155.979 142.21L156.406 136.728L159.421 136.908Z" fill="#E38F6F"/>
<path d="M162.79 67.394C162.202 66.4539 162.027 65.2375 162.323 64.1546C162.619 63.072 163.381 62.1425 164.352 61.6802C164.803 61.4647 165.327 61.349 165.795 61.5241C166.216 61.6821 166.537 62.0536 166.943 62.2525C167.616 62.5825 168.457 62.4101 169.084 62.8297C169.568 63.1544 169.811 63.7637 169.94 64.3557C170.068 64.9476 170.112 65.5656 170.332 66.1262C170.622 66.8641 171.191 67.4348 171.77 67.9482C172.034 68.1821 172.307 68.4139 172.5 68.7147C172.827 69.2216 172.888 69.9081 172.657 70.4709C172.238 71.4889 172.253 72.6531 172.453 73.7433C172.824 75.7735 173.565 77.704 174.302 79.6193C174.52 80.1863 174.588 80.7612 174.653 81.3694C174.691 81.7172 174.685 82.1175 174.442 82.3545C174.213 82.5775 173.847 82.5756 173.611 82.7903C173.314 83.0598 173.336 83.5399 173.25 83.9436C173.122 84.5405 172.691 85.0549 172.147 85.2598C171.602 85.4647 170.961 85.3535 170.507 84.9755C169.903 84.4728 169.689 83.6227 169.479 82.8402C168.94 80.8297 168.205 78.8856 167.47 76.9461C166.891 75.419 166.607 73.755 166.177 72.1734C165.911 71.1959 165.64 70.2048 165.139 69.3373C164.636 68.4706 163.728 67.6099 162.79 67.394Z" fill="#5A4868"/>
<path d="M186.292 113.229L191.532 113.259L191.521 116.189L186.327 116.112L186.292 113.229Z" fill="#E38F6F"/>
<path d="M194.615 123.937L193.867 112.336C193.867 112.336 192.906 112.013 191.909 112.478C190.913 112.942 190.423 112.857 190.579 113.51C190.735 114.163 191.397 114.266 191.15 114.858C190.903 115.449 190.677 115.918 190.906 116.385C191.136 116.852 192.089 117.369 192.628 119.34C193.236 121.561 193.47 122.56 193.552 122.927C193.793 123.997 194.615 123.937 194.615 123.937Z" fill="#58B9D6"/>
<path d="M193.724 123.374C194.054 123.968 194.615 123.937 194.615 123.937L193.867 112.336C193.867 112.336 193.509 112.218 193.005 112.229L193.724 123.374Z" fill="#B7E6F1"/>
<path d="M170.06 90.7256C170.06 90.7256 171.214 93.6203 170.06 101.028C169.15 106.873 170.06 113.319 170.06 113.319C170.06 113.319 183.771 112.295 188.208 113.018V116.709C188.208 116.709 176.887 117.356 173.189 117.537C169.491 117.718 167.045 117.597 166.305 115.85C165.565 114.103 164.712 105.728 164.712 105.728C164.712 105.728 163.233 110.307 162.721 111.693C162.209 113.079 162.209 112.958 162.152 113.38C162.095 113.802 162.55 120.188 161.014 128.985C159.478 137.782 159.592 138.926 159.592 138.926C159.592 138.926 157.031 139.529 155.723 138.324C155.723 138.324 156.804 121.152 157.316 116.814C157.828 112.476 158.568 105.125 159.193 101.932C159.819 98.7388 160.606 91.087 160.582 90.3639C160.559 89.6411 170.06 90.7256 170.06 90.7256Z" fill="#4E4C71"/>
<path d="M166.373 71.4246C166.373 71.4246 169.889 74.0063 170.742 75.4072C171.596 76.808 171.34 78.5026 170.849 80.4909C170.358 82.4792 170.231 87.6079 170.316 89.3251C170.401 91.0424 170.401 91.0424 170.401 91.0424C170.401 91.0424 170.461 91.2231 168.426 91.5395C166.391 91.8558 164.811 90.952 163.66 91.0424C162.508 91.1327 160.033 90.952 160.033 90.952C160.033 90.952 160.289 86.8398 160.033 86.6591C159.777 86.4784 154.913 87.0658 150.774 86.0717L151.115 83.8124C151.115 83.8124 154.913 84.1288 156.235 83.9027C157.558 83.6767 160.204 83.4506 160.204 83.4506C160.204 83.4506 160.075 82.0044 159.99 80.9203C159.905 79.8358 160.033 77.7572 160.033 77.7572C160.033 77.7572 156.748 80.8753 155.937 81.1913C155.126 81.5077 149.864 80.9388 149.864 80.9388L150.388 78.6833C150.388 78.6833 153.505 78.5253 154.828 78.3896C154.828 78.3896 158.796 74.0335 159.905 73.4007C161.015 72.768 164.001 71.4246 164.001 71.4246H166.373Z" fill="#58B9D6"/>
<path d="M166.483 69.0855C166.483 69.0855 166.305 71.1819 166.326 71.3399C166.348 71.4979 166.839 71.7239 166.817 72.0857C166.796 72.4471 165.686 75.3845 164.534 75.0454C163.382 74.7064 163.126 72.0857 163.404 71.7466C163.681 71.4076 163.98 71.1592 163.916 69.826C163.851 68.4932 166.483 69.0855 166.483 69.0855Z" fill="#C8776F"/>
<path d="M162.764 66.7911C162.764 66.7911 162.721 69.879 164.399 70.4063C166.077 70.9336 167.13 67.6949 167.201 67.4689C167.272 67.2428 167.386 67.5894 167.699 67.0621C168.012 66.5348 167.912 65.6012 167.613 65.5709C167.315 65.5407 167.073 65.526 166.959 65.9777C166.845 66.4294 166.831 67.3184 166.547 67.1827C166.262 67.047 166.376 65.6915 166.277 65.6314C165.985 65.4549 165.588 65.6295 165.276 65.498C165.095 65.4216 164.962 65.2387 164.772 65.1941C164.542 65.14 164.324 65.3037 164.103 65.3906C163.759 65.5267 163.352 65.4689 163.053 65.2417C162.923 65.3649 162.883 65.5596 162.853 65.7414C162.795 66.0941 162.796 66.4347 162.764 66.7911Z" fill="#E38F6F"/>
<path d="M166.818 85.7099C165.026 86.3877 159.648 86.6217 159.648 86.6217L159.648 86.6224C159.857 86.6239 159.996 86.633 160.033 86.6587C160.159 86.7483 160.16 87.801 160.129 88.8417C162.081 88.2395 165.207 87.375 166.817 86.6217C169.151 85.5304 170.785 79.519 170.785 79.519C170.785 79.519 168.609 85.0322 166.818 85.7099Z" fill="#59A5CE"/>
<path d="M163.688 82.2305C163.162 82.4225 161.358 82.4429 160.115 82.4327C160.164 83.0096 160.203 83.4503 160.203 83.4503C160.203 83.4503 163.02 83.0519 164.172 83.0704C164.172 83.0704 166.476 80.7393 167.671 77.5758C167.671 77.5758 164.513 81.9292 163.688 82.2305Z" fill="#59A5CE"/>
<path d="M163.46 97.1725C163.46 97.1725 164.257 106.21 162.721 111.693C163.233 110.307 164.712 105.728 164.712 105.728C164.712 105.728 164.769 100.848 163.46 97.1725Z" fill="#383752"/>
<path d="M151.115 83.812C151.115 83.812 150.077 83.4507 149.948 83.2246C149.82 82.9986 149.544 82.3155 149.544 82.3155L149.354 83.135C149.354 83.135 148.469 82.9536 147.332 82.5166C146.194 82.0797 145.44 81.5236 145.212 81.5157C144.985 81.5077 144.828 81.7637 144.871 81.9292C144.913 82.0948 144.913 82.0948 144.913 82.0948C144.913 82.0948 144.043 81.5799 143.838 81.7017C143.633 81.8234 143.548 82.0041 143.676 82.1851C143.804 82.3658 146.137 83.5709 146.279 83.6313C146.421 83.6915 143.932 82.7124 143.718 82.7729C143.505 82.8334 143.356 83.1645 143.615 83.3002C143.875 83.4359 146.117 84.204 146.117 84.204C146.117 84.204 145.141 83.9629 144.97 84.0233C144.799 84.0838 144.728 84.2494 144.87 84.4603C145.012 84.6712 146.406 85.3187 146.961 85.3943C147.516 85.4696 148.952 85.349 149.165 85.3943C149.379 85.4397 150.814 85.7984 150.814 85.7984L151.115 83.812Z" fill="#E38F6F"/>
<path d="M148.469 144.952H159.45C159.45 144.952 159.819 143.957 159.45 142.873C159.08 141.789 159.194 141.276 158.568 141.397C157.942 141.518 157.799 142.21 157.259 141.909C156.719 141.608 156.292 141.337 155.837 141.548C155.382 141.759 154.829 142.73 152.935 143.166C150.802 143.657 149.845 143.835 149.493 143.898C148.469 144.078 148.469 144.952 148.469 144.952Z" fill="#58B9D6"/>
<path d="M149.061 144.048C148.479 144.356 148.469 144.952 148.469 144.952H159.45C159.45 144.952 159.585 144.581 159.609 144.048H149.061Z" fill="#B7E6F1"/>
<path d="M142.688 43.9992L130.624 40.8588C129.877 40.6645 129.421 39.8654 129.604 39.0746L131.059 32.8059C131.243 32.0147 131.997 31.5313 132.744 31.7255L144.808 34.866C145.554 35.0603 146.011 35.8594 145.827 36.6501L144.373 42.9189C144.19 43.71 143.435 44.1935 142.688 43.9992Z" fill="#18D5E4"/>
<path d="M141.472 35.3264L136.613 33.9838L136.146 33.8545L136.009 34.4083L134.832 39.1869C134.634 38.9613 134.353 38.7764 134.015 38.6831C133.27 38.4771 132.551 38.7802 132.408 39.3597C132.265 39.9392 132.753 40.5757 133.498 40.7817C134.243 40.9877 134.962 40.6846 135.105 40.1051L136.477 34.5375L141.335 35.8802L140.465 39.4115C140.268 39.1858 139.987 39.001 139.648 38.9076C138.904 38.7016 138.184 39.0047 138.041 39.5842C137.898 40.1637 138.386 40.8006 139.131 41.0063C139.876 41.2119 140.596 40.9091 140.738 40.3296C140.752 40.276 140.754 40.2215 140.757 40.1675L140.776 40.1781L141.802 36.0095L141.939 35.4557L141.472 35.3264Z" fill="white"/>
<path d="M183.346 60.4525L178.273 56.8936L183.346 53.3347L188.419 56.8936L183.346 60.4525Z" fill="#D7EAFF"/>
<path d="M178.273 62.5783L183.346 66.1372V60.4524L178.273 56.8936V62.5783Z" fill="#CEE1F5"/>
<path d="M188.419 62.5783L183.346 66.1372V60.4524L188.419 56.8936V62.5783Z" fill="#B9D3F0"/>
<path d="M49.9369 60.9283L43.7725 56.6036L49.9369 52.2793L56.1013 56.6036L49.9369 60.9283Z" fill="#D7EAFF"/>
<path d="M43.7725 63.5112L49.9369 67.8359V60.9283L43.7725 56.6036V63.5112Z" fill="#CEE1F5"/>
<path d="M56.1012 63.5112L49.9368 67.8359V60.9283L56.1012 56.6036V63.5112Z" fill="#B9D3F0"/>
<path d="M105.099 74.015C104.866 72.3783 103.966 71.3921 102.466 70.9876C102.295 70.9415 102.095 70.9808 101.944 70.8092C101.977 70.7657 102.002 70.7102 102.043 70.6795C102.982 69.9851 103.366 69.0175 103.369 67.823C103.374 65.9965 102.396 64.6009 100.745 64.1035C99.9011 63.8491 99.043 63.7606 98.1732 63.7693C97.852 63.7727 97.7017 63.6877 97.6874 63.3044C97.6546 62.4025 97.5618 61.5032 97.5182 60.6017C97.5129 60.4932 97.4958 60.4104 97.4701 60.3397L95.3917 60.5007C95.3921 60.5265 95.3888 60.5469 95.3917 60.5764C95.4827 61.5183 95.5423 62.4641 95.6319 63.4061C95.6569 63.6688 95.5934 63.7973 95.3392 63.8211C95.0191 63.851 94.6978 63.882 94.382 63.9417C94.0425 64.0056 93.9494 63.8684 93.9358 63.5179C93.9001 62.6017 93.818 61.6873 93.7681 60.771C93.7648 60.7143 93.7563 60.6697 93.7452 60.6285L91.7579 60.7824C91.7454 60.8398 91.7414 60.9071 91.7486 60.9899C91.8221 61.8442 91.8696 62.7007 91.9378 63.5557C91.9895 64.2044 91.9706 64.2388 91.3806 64.3023C91.3249 64.3083 91.2689 64.3095 91.2128 64.3144C90.211 64.4021 89.2091 64.4917 88.2068 64.5771C88.1879 64.5786 88.1704 64.5809 88.1526 64.5828L88.371 66.9585C88.7376 66.9162 89.1056 66.8837 89.4739 66.8583C90.1671 66.8107 90.5607 67.1301 90.6653 67.8649C90.736 68.362 90.7546 68.8678 90.7974 69.3694C91.0276 72.0687 91.2607 74.7676 91.4873 77.4669C91.5369 78.0581 91.3049 78.3476 90.7428 78.4149C90.4376 78.4516 90.1314 78.4837 89.8251 78.5022C89.7923 79.0144 89.7173 80.1586 89.6402 81.1906C90.7164 81.0968 91.7982 81.0821 92.8704 80.9358C93.1784 80.8939 93.2712 81.0054 93.2862 81.3414C93.3287 82.2966 93.4197 83.2488 93.4839 84.2029L95.6101 84.0762C95.6091 84.0607 95.6116 84.0513 95.6101 84.035C95.5227 83.1369 95.4827 82.2339 95.407 81.3342C95.3789 81.0004 95.4374 80.799 95.8057 80.7952C96.0838 80.7922 96.3643 80.7547 96.6384 80.7011C96.9611 80.6379 97.0871 80.7461 97.1042 81.1036C97.1485 82.0347 97.2299 82.9634 97.2855 83.8937C97.2873 83.9254 97.2937 83.9477 97.2973 83.9757L99.4406 83.8479C99.4403 83.8453 99.441 83.8438 99.4406 83.8411C99.3628 82.9139 99.3421 81.9814 99.2643 81.0541C99.2297 80.6413 99.3646 80.4796 99.7419 80.4202C100.63 80.28 101.495 80.0316 102.325 79.6672C103.565 79.1229 104.553 78.2898 104.961 76.8738C105.229 75.9402 105.236 74.9774 105.099 74.015ZM94.7996 71.0757C94.7011 69.7946 94.5915 68.5147 94.4783 67.2348C94.4562 66.9857 94.4969 66.8821 94.7753 66.8621C95.9032 66.7801 97.0328 66.6289 98.1414 66.9857C99.5359 67.4348 100.031 69.1154 99.0723 70.128C98.6997 70.5215 98.2349 70.7612 97.8423 70.8719C96.8719 71.2137 95.9796 71.2726 95.088 71.3376C94.8991 71.3516 94.8163 71.2938 94.7996 71.0757ZM100.012 77.4049C99.7322 77.575 99.4442 77.7239 99.1969 77.7942C97.9983 78.235 96.8083 78.2974 95.6294 78.4316C95.4295 78.4542 95.3507 78.3556 95.3335 78.1586C95.2097 76.7309 95.0847 75.3032 94.9563 73.8759C94.9395 73.6914 94.9498 73.5739 95.1743 73.5527C96.37 73.4408 97.5629 73.2688 98.7668 73.4348C99.1715 73.4903 99.5591 73.5951 99.9318 73.7795C100.65 74.1352 101.025 74.7332 101.044 75.561C101.063 76.3911 100.686 76.9963 100.012 77.4049Z" fill="#FFF3D3"/>
<path d="M112.843 37.4832C114.166 41.9614 111.81 46.7272 107.582 48.1277C103.353 49.5285 98.8532 47.0337 97.5308 42.5556C96.2081 38.0774 98.5638 33.3116 102.792 31.9111C107.021 30.5102 111.521 33.005 112.843 37.4832Z" fill="#6D89C9"/>
<path d="M111.597 37.896C112.704 41.645 110.732 45.6348 107.192 46.8077C103.652 47.9803 99.8848 45.8918 98.7772 42.1428C97.6701 38.3938 99.6421 34.404 103.182 33.2311C106.722 32.0585 110.49 34.147 111.597 37.896Z" fill="#A1BAF0"/>
<path d="M110.736 38.181C111.695 41.4265 109.987 44.8807 106.923 45.896C103.858 46.9113 100.597 45.1029 99.638 41.8574C98.6793 38.6119 100.387 35.1577 103.451 34.1424C106.516 33.1271 109.778 34.9355 110.736 38.181Z" fill="#BED1F9"/>
<path d="M108.14 41.7902C108.228 41.1113 107.995 40.6146 107.471 40.2812C107.411 40.243 107.331 40.2358 107.293 40.15C107.309 40.1364 107.325 40.1172 107.344 40.1096C107.774 39.941 108.024 39.5997 108.154 39.1245C108.353 38.3973 108.134 37.7289 107.563 37.3407C107.272 37.1423 106.957 37.0081 106.627 36.9117C106.505 36.8762 106.457 36.8248 106.493 36.6705C106.578 36.3077 106.64 35.9387 106.721 35.5743C106.731 35.5305 106.734 35.4953 106.731 35.4643L105.928 35.2893C105.925 35.2995 105.922 35.3075 105.92 35.3196C105.852 35.7055 105.773 36.0888 105.705 36.4744C105.686 36.5821 105.648 36.6256 105.549 36.6059C105.425 36.581 105.3 36.5564 105.174 36.5435C105.039 36.5299 105.018 36.4645 105.051 36.3235C105.137 35.9542 105.205 35.5808 105.285 35.21C105.29 35.1869 105.291 35.168 105.291 35.1506L104.523 34.9832C104.513 35.0047 104.504 35.0308 104.497 35.0648C104.433 35.4137 104.358 35.7603 104.291 36.1088C104.241 36.3734 104.23 36.3848 104 36.3421C103.978 36.3379 103.956 36.3322 103.935 36.3277C103.547 36.2472 103.158 36.1678 102.77 36.0862C102.763 36.0846 102.756 36.0835 102.749 36.082L102.575 37.0535C102.719 37.0788 102.861 37.1083 103.003 37.1404C103.271 37.2013 103.385 37.3736 103.345 37.6787C103.318 37.8847 103.27 38.0884 103.232 38.2933C103.028 39.3952 102.824 40.497 102.618 41.5985C102.573 41.8397 102.454 41.9285 102.234 41.8903C102.115 41.8699 101.995 41.8476 101.877 41.8193C101.81 42.0196 101.657 42.4668 101.517 42.869C101.934 42.9556 102.345 43.0742 102.766 43.1393C102.887 43.1578 102.91 43.213 102.88 43.3487C102.792 43.7339 102.724 44.124 102.645 44.5114L103.463 44.7057C103.464 44.6996 103.466 44.6959 103.467 44.6894C103.531 44.3216 103.613 43.9573 103.682 43.5902C103.708 43.4541 103.752 43.3804 103.891 43.4213C103.997 43.4519 104.107 43.4693 104.217 43.4795C104.345 43.4916 104.382 43.549 104.349 43.6934C104.266 44.0691 104.196 44.4487 104.116 44.8255C104.114 44.8384 104.113 44.8482 104.112 44.8595L104.937 45.0553C104.937 45.0542 104.937 45.0538 104.937 45.0527C105.008 44.6743 105.101 44.3005 105.172 43.9221C105.203 43.7539 105.272 43.7047 105.421 43.7244C105.772 43.7709 106.126 43.7717 106.48 43.7218C107.007 43.6477 107.471 43.4296 107.778 42.9125C107.98 42.5719 108.087 42.1893 108.14 41.7902ZM104.562 39.4333C104.663 38.9117 104.76 38.3893 104.856 37.8662C104.874 37.7645 104.9 37.7278 105.008 37.7516C105.444 37.8488 105.887 37.9187 106.268 38.1882C106.746 38.5277 106.753 39.2542 106.28 39.5471C106.097 39.6609 105.895 39.7029 105.735 39.7021C105.331 39.7267 104.987 39.6473 104.642 39.5706C104.57 39.5547 104.545 39.5226 104.562 39.4333ZM105.849 42.5549C105.725 42.5904 105.6 42.6165 105.499 42.6161C104.998 42.6535 104.541 42.5416 104.081 42.4592C104.002 42.4453 103.984 42.3969 103.998 42.3164C104.106 41.7335 104.213 41.1502 104.318 40.567C104.332 40.4914 104.349 40.446 104.436 40.4634C104.9 40.5564 105.37 40.6252 105.807 40.8297C105.954 40.8985 106.09 40.9847 106.211 41.1011C106.444 41.3252 106.521 41.6068 106.439 41.9387C106.356 42.2721 106.148 42.4698 105.849 42.5549Z" fill="white"/>
<path d="M71.901 136.953L71.5452 142.082L74.2335 142.376L74.3763 141.507L74.7171 137.292L71.901 136.953Z" fill="#E38F6F"/>
<path d="M89.0322 136.306L90.9239 141.378L93.2421 140.102L91.5924 134.709L89.0322 136.306Z" fill="#E38F6F"/>
<path d="M66.3512 63.7474C66.3512 63.7474 66.9512 62.6187 66.5671 61.3531C66.1831 60.088 65.2015 60.0426 64.6258 59.7262C64.0497 59.4098 62.3858 59.1161 61.6391 59.8842C60.8924 60.6523 60.5722 61.2174 60.2735 61.3981C59.9747 61.5788 59.7188 62.4149 59.9533 63.2284C60.1882 64.0418 60.8067 64.2225 60.892 64.8776C60.9773 65.5327 61.4253 66.0751 62.0014 66.3238C62.5774 66.5726 63.3669 66.2562 63.4094 66.1431C63.4526 66.0305 66.3512 63.7474 66.3512 63.7474Z" fill="#5A4868"/>
<path d="M68.1733 87.8649C68.1733 87.8649 68.5727 92.0361 70.2474 95.5606C71.9221 99.0851 73.5436 104.056 73.6289 104.689C73.7142 105.321 73.1167 112.099 73.4155 117.929C73.7142 123.758 72.1355 135.869 71.3674 137.541C71.3674 137.541 73.3302 138.761 75.2076 138.173C75.2076 138.173 76.9997 125.294 77.8103 120.685C78.6208 116.076 79.0902 103.559 79.0902 103.559C79.0902 103.559 80.2848 105.909 80.8395 107.852C81.3941 109.795 83.1862 119.285 85.7036 126.515C88.221 133.745 88.5626 136.772 88.5626 136.772C88.5626 136.772 91.4212 136.275 92.4455 135.372C92.4455 135.372 88.7617 125.49 85.7464 111.271C85.7464 111.271 84.1535 102.113 83.3569 100.004C82.5602 97.8951 76.3594 83.5553 75.8472 83.0133C75.3357 82.4712 68.1733 87.8649 68.1733 87.8649Z" fill="#4E4C71"/>
<path d="M63.6233 68.4478C63.6233 68.4478 61.5325 70.6621 60.9992 72.1534C60.466 73.6446 62.1938 76.4463 62.7913 77.9602C63.3888 79.4741 64.2847 81.7107 65.8634 81.6204C65.8634 81.6204 67.1647 85.0322 67.058 86.4104C66.9513 87.7886 66.9513 88.105 66.9513 88.105C66.9513 88.105 72.2423 87.1785 73.6714 86.0263C75.1009 84.8742 76.6367 82.8859 76.6367 82.8859C76.6367 82.8859 75.9754 82.5468 75.7619 82.1628C75.5485 81.7787 74.6312 79.4514 74.6312 79.4514C74.6312 79.4514 78.6848 78.0732 80.0286 77.2598C81.3727 76.4463 81.6501 76.2883 81.6501 76.2883L80.9034 74.5937C80.9034 74.5937 76.7645 76.1526 73.7349 76.9211L72.455 73.4643C72.455 73.4643 73.9698 74.3004 74.2896 74.3681C74.6098 74.4357 74.8657 74.4357 74.8657 74.4357C74.8657 74.4357 74.6737 71.7243 74.8018 70.9562C74.8018 70.9562 72.7595 69.9621 71.274 68.7873C69.7884 67.6124 69.7242 67.5671 69.3616 67.4994C68.9989 67.4318 65.7988 67.8608 65.7988 67.8608L63.6233 68.4478Z" fill="#FC736B"/>
<path d="M66.1728 67.677C66.1728 67.677 65.6927 66.6292 65.682 65.7028L63.3313 66.3401C63.3313 66.3401 63.7514 67.8831 63.6233 68.4482C63.4951 69.0129 65.8847 69.1826 66.2795 68.8322C66.6739 68.4818 66.1728 67.677 66.1728 67.677Z" fill="#C8776F"/>
<path d="M66.3326 63.4019C66.3326 63.4019 66.6595 67.1978 64.9245 67.1075C63.1895 67.0171 62.3075 64.8179 62.3075 64.8179C62.068 64.9351 61.7643 64.8005 61.5734 64.6077C61.3824 64.415 61.2792 64.1447 61.2082 63.8756C61.1654 63.713 61.1429 63.51 61.265 63.4019C61.3421 63.3335 61.4559 63.329 61.5512 63.3634C61.6465 63.3978 61.7275 63.465 61.8064 63.5312C61.931 63.6359 62.0559 63.7402 62.1808 63.8449C62.2297 63.8861 62.2883 63.9296 62.3493 63.9152C62.4271 63.8971 62.4585 63.7996 62.4728 63.7168C62.5445 63.3044 62.5299 62.8754 62.431 62.4694C63.0978 62.4516 63.7938 62.4501 64.3531 62.0653C64.5037 62.2509 64.7457 62.3295 64.9766 62.3284C65.2075 62.3273 65.4324 62.2558 65.6533 62.1851C65.7472 62.5053 65.8636 62.8183 66.0013 63.1203C66.0638 63.2583 66.1912 63.4386 66.3326 63.4019Z" fill="#E38F6F"/>
<path d="M66.6871 84.145C69.4725 82.4818 73.4179 80.3756 74.7239 79.6843C74.6668 79.5402 74.6318 79.4514 74.6318 79.4514C74.6318 79.4514 68.9924 81.4624 65.8633 81.6204C65.8633 81.6204 66.3348 82.8591 66.6871 84.145Z" fill="#D5616B"/>
<path d="M67.4563 77.5005C66.2331 74.7891 64.6401 73.042 64.6401 73.042C65.7213 74.6689 67.2011 78.3219 67.2011 78.3219C70.3584 77.9904 73.7356 76.9207 73.7356 76.9207L67.4563 77.5005Z" fill="#D5616B"/>
<path d="M80.9675 74.7173C80.9675 74.7173 81.6824 74.4466 81.9384 74.0063C82.1943 73.5659 82.6104 73.3622 82.7065 73.4302C82.8025 73.4979 82.685 73.8483 82.7811 73.8029C82.8771 73.7575 84.4986 72.5151 84.7866 72.4134C85.0746 72.3117 85.2028 72.4474 85.1068 72.5941C85.0108 72.7411 83.6027 73.7462 83.6027 73.7462C83.6027 73.7462 85.4269 72.6957 85.6293 72.639C85.832 72.5827 85.8959 72.8197 85.8959 72.9101C85.8959 73.0004 83.8051 74.2319 83.8051 74.2319C83.8051 74.2319 85.2024 73.6218 85.3306 73.6559C85.4587 73.6899 85.5226 73.7916 85.4159 73.9609C85.3091 74.1302 83.9011 74.763 83.9011 74.763C83.9011 74.763 84.5625 74.605 84.6263 74.6613C84.6902 74.7177 84.6263 74.9324 84.4557 75.0227C84.2851 75.1131 83.9757 75.3504 83.2611 75.4181C82.5466 75.4858 81.4522 75.8173 81.4522 75.8173L80.9675 74.7173Z" fill="#E38F6F"/>
<path d="M79.8744 105.245C80.2749 103.361 80.816 99.5659 79.2177 97.6479C77.0408 95.0356 75.1648 88.5563 75.1648 88.5563C75.9754 93.753 79.0428 99.4347 79.2134 100.203C79.384 100.971 79.0902 103.559 79.0902 103.559C79.0902 103.559 79.455 104.277 79.8744 105.245Z" fill="#383752"/>
<path d="M71.2722 144.952H81.3135C81.3135 144.952 81.5512 144.545 80.5697 144.048C79.5881 143.551 78.0705 143.596 75.5106 142.421C75.5106 142.421 75.1123 142.3 74.7425 141.758C74.3728 141.216 73.8324 141.668 73.6618 141.758C73.4912 141.849 73.0075 142.06 72.4672 141.728C71.9268 141.396 71.4717 141.517 71.2725 141.818C71.0734 142.12 71.0448 142.812 71.1019 142.993C71.1583 143.174 71.3289 144.53 71.2722 144.952Z" fill="#75ADD3"/>
<path d="M71.2723 144.952H81.3136C81.3136 144.952 81.5199 144.577 80.674 144.108H71.2505C71.2798 144.449 71.2955 144.779 71.2723 144.952Z" fill="#608EAD"/>
<path d="M90.7141 143.45L100.458 140.882C100.458 140.882 100.596 140.427 99.5308 140.196C98.465 139.964 97.0027 140.396 94.2504 139.91C94.2504 139.91 93.8364 139.895 93.3542 139.463C92.8717 139.032 92.4501 139.608 92.3052 139.74C92.1603 139.871 91.7388 140.199 91.1388 140.016C90.5388 139.833 90.1244 140.066 89.9999 140.409C89.8753 140.752 90.0056 141.432 90.1019 141.593C90.1983 141.754 90.673 143.026 90.7141 143.45Z" fill="#75ADD3"/>
<path d="M90.714 143.45L100.458 140.883C100.458 140.883 100.573 140.466 99.6453 140.228L90.5002 142.637C90.607 142.96 90.6973 143.276 90.714 143.45Z" fill="#608EAD"/>
<path d="M73.7356 53.7996C79.5807 53.7996 84.3191 48.7814 84.3191 42.5911C84.3191 36.4009 79.5807 31.3827 73.7356 31.3827C67.8905 31.3827 63.1521 36.4009 63.1521 42.5911C63.1521 48.7814 67.8905 53.7996 73.7356 53.7996Z" fill="#18D5E4"/>
<path d="M73.7355 51.9746C78.6289 51.9746 82.5958 47.7735 82.5958 42.5911C82.5958 37.4088 78.6289 33.2076 73.7355 33.2076C68.8421 33.2076 64.8752 37.4088 64.8752 42.5911C64.8752 47.7735 68.8421 51.9746 73.7355 51.9746Z" fill="#18BFD5"/>
<path d="M73.7356 50.9014C78.0694 50.9014 81.5826 47.1808 81.5826 42.5911C81.5826 38.0014 78.0694 34.2808 73.7356 34.2808C69.4019 34.2808 65.8887 38.0014 65.8887 42.5911C65.8887 47.1808 69.4019 50.9014 73.7356 50.9014Z" fill="#E9F3FF"/>
<path d="M73.7275 34.7416V46.0906L78.3429 42.7272L73.7275 34.7416Z" fill="#18BCD8"/>
<path d="M73.7275 40.8376V46.0907L78.3429 42.7273L73.7275 40.8376Z" fill="#18B0D8"/>
<path d="M73.7274 34.7416V46.0906L69.1121 42.7272L73.7274 34.7416Z" fill="#18D5E4"/>
<path d="M73.7274 40.8376V46.0907L69.1121 42.7273L73.7274 40.8376Z" fill="#18BCD8"/>
<path d="M73.7275 50.4403L78.5171 43.493L73.7275 47.0977V50.4403Z" fill="#18BCD8"/>
<path d="M73.7439 50.4403L68.9543 43.493L73.7439 47.0977V50.4403Z" fill="#18D5E4"/>
<path d="M133.172 131.5H111.263C110.692 131.5 110.228 131.009 110.228 130.404V107.201C110.228 106.596 110.692 106.105 111.263 106.105H133.172C133.744 106.105 134.208 106.596 134.208 107.201V130.404C134.208 131.009 133.744 131.5 133.172 131.5Z" fill="#6D89C9"/>
<path d="M131.905 108.544H112.531V129.061H131.905V108.544Z" fill="#EE9F53"/>
<path d="M130.602 109.923H113.834V127.682H130.602V109.923Z" fill="#FFBA53"/>
<path d="M114.025 101.179C113.656 101.179 113.357 101.496 113.357 101.887V106.105H114.694V101.887C114.694 101.496 114.395 101.179 114.025 101.179Z" fill="#556A9C"/>
<path d="M118.122 101.179C117.753 101.179 117.453 101.496 117.453 101.887V106.105H118.79V101.887C118.79 101.496 118.491 101.179 118.122 101.179Z" fill="#556A9C"/>
<path d="M122.218 101.179C121.849 101.179 121.549 101.496 121.549 101.887V106.105H122.886V101.887C122.886 101.496 122.587 101.179 122.218 101.179Z" fill="#556A9C"/>
<path d="M126.314 101.179C125.945 101.179 125.646 101.496 125.646 101.887V106.105H126.983V101.887C126.983 101.496 126.683 101.179 126.314 101.179Z" fill="#556A9C"/>
<path d="M130.41 101.179C130.041 101.179 129.742 101.496 129.742 101.887V106.105H131.079V101.887C131.079 101.496 130.78 101.179 130.41 101.179Z" fill="#556A9C"/>
<path d="M130.41 136.426C130.78 136.426 131.079 136.109 131.079 135.718V131.5H129.742V135.718C129.742 136.109 130.041 136.426 130.41 136.426Z" fill="#556A9C"/>
<path d="M126.314 136.426C126.683 136.426 126.983 136.109 126.983 135.718V131.5H125.646V135.718C125.646 136.109 125.945 136.426 126.314 136.426Z" fill="#556A9C"/>
<path d="M122.218 136.426C122.587 136.426 122.886 136.109 122.886 135.718V131.5H121.549V135.718C121.549 136.109 121.849 136.426 122.218 136.426Z" fill="#556A9C"/>
<path d="M118.122 136.426C118.491 136.426 118.79 136.109 118.79 135.718V131.5H117.453V135.718C117.453 136.109 117.752 136.426 118.122 136.426Z" fill="#556A9C"/>
<path d="M114.025 136.426C114.395 136.426 114.694 136.109 114.694 135.718V131.5H113.357V135.718C113.357 136.109 113.656 136.426 114.025 136.426Z" fill="#556A9C"/>
<path d="M138.859 110.126C138.859 109.736 138.559 109.418 138.19 109.418H134.208V110.834H138.19C138.559 110.834 138.859 110.518 138.859 110.126Z" fill="#556A9C"/>
<path d="M138.859 114.464C138.859 114.073 138.559 113.756 138.19 113.756H134.208V115.172H138.19C138.559 115.172 138.859 114.856 138.859 114.464Z" fill="#556A9C"/>
<path d="M138.859 118.803C138.859 118.412 138.559 118.095 138.19 118.095H134.208V119.511H138.19C138.559 119.511 138.859 119.194 138.859 118.803Z" fill="#556A9C"/>
<path d="M138.859 123.141C138.859 122.75 138.559 122.433 138.19 122.433H134.208V123.849H138.19C138.559 123.849 138.859 123.532 138.859 123.141Z" fill="#556A9C"/>
<path d="M138.859 127.479C138.859 127.088 138.559 126.771 138.19 126.771H134.208V128.187H138.19C138.559 128.187 138.859 127.87 138.859 127.479Z" fill="#556A9C"/>
<path d="M105.577 127.479C105.577 127.87 105.876 128.187 106.246 128.187H110.228V126.771H106.246C105.876 126.771 105.577 127.088 105.577 127.479Z" fill="#556A9C"/>
<path d="M105.577 123.141C105.577 123.531 105.876 123.849 106.246 123.849H110.228V122.433H106.246C105.876 122.433 105.577 122.75 105.577 123.141Z" fill="#556A9C"/>
<path d="M105.577 118.803C105.577 119.194 105.876 119.511 106.246 119.511H110.228V118.095H106.246C105.876 118.095 105.577 118.412 105.577 118.803Z" fill="#556A9C"/>
<path d="M105.577 114.464C105.577 114.855 105.876 115.172 106.246 115.172H110.228V113.756H106.246C105.876 113.757 105.577 114.073 105.577 114.464Z" fill="#556A9C"/>
<path d="M105.577 110.126C105.577 110.517 105.876 110.834 106.246 110.834H110.228V109.418H106.246C105.876 109.418 105.577 109.736 105.577 110.126Z" fill="#556A9C"/>
<path d="M126.983 105.084H125.646V106.105H126.983V105.084Z" fill="#3D4C70"/>
<path d="M122.886 105.084H121.549V106.105H122.886V105.084Z" fill="#3D4C70"/>
<path d="M114.694 105.084H113.357V106.105H114.694V105.084Z" fill="#3D4C70"/>
<path d="M118.79 105.084H117.453V106.105H118.79V105.084Z" fill="#3D4C70"/>
<path d="M135.171 109.418H134.208V110.834H135.171V109.418Z" fill="#3D4C70"/>
<path d="M135.171 126.771H134.208V128.187H135.171V126.771Z" fill="#3D4C70"/>
<path d="M135.171 113.757H134.208V115.173H135.171V113.757Z" fill="#3D4C70"/>
<path d="M135.171 118.095H134.208V119.511H135.171V118.095Z" fill="#3D4C70"/>
<path d="M135.171 122.433H134.208V123.849H135.171V122.433Z" fill="#3D4C70"/>
<path d="M114.694 131.5H113.357V132.521H114.694V131.5Z" fill="#3D4C70"/>
<path d="M110.228 118.095H109.265V119.511H110.228V118.095Z" fill="#3D4C70"/>
<path d="M110.228 113.757H109.265V115.173H110.228V113.757Z" fill="#3D4C70"/>
<path d="M110.228 109.418H109.265V110.834H110.228V109.418Z" fill="#3D4C70"/>
<path d="M110.228 122.433H109.265V123.849H110.228V122.433Z" fill="#3D4C70"/>
<path d="M110.228 126.771H109.265V128.187H110.228V126.771Z" fill="#3D4C70"/>
<path d="M131.079 105.084H129.742V106.105H131.079V105.084Z" fill="#3D4C70"/>
<path d="M122.886 131.5H121.549V132.521H122.886V131.5Z" fill="#3D4C70"/>
<path d="M126.983 131.5H125.646V132.521H126.983V131.5Z" fill="#3D4C70"/>
<path d="M118.79 131.5H117.453V132.521H118.79V131.5Z" fill="#3D4C70"/>
<path d="M131.079 131.5H129.742V132.521H131.079V131.5Z" fill="#3D4C70"/>
<path d="M152.143 107.107H146.567C146.524 107.107 146.484 107.129 146.458 107.165L143.484 111.444H139.626C139.552 111.444 139.491 111.508 139.491 111.587C139.491 111.666 139.552 111.731 139.626 111.731H143.552H147.733C147.808 111.731 147.869 111.666 147.869 111.587C147.869 111.508 147.808 111.444 147.733 111.444H143.819L146.635 107.393H152.143C152.217 107.393 152.278 107.329 152.278 107.25C152.278 107.171 152.218 107.107 152.143 107.107Z" fill="#6D89C9"/>
<path d="M149.896 116.25C149.97 116.25 150.031 116.186 150.031 116.107C150.031 116.028 149.97 115.963 149.896 115.963H139.627C139.552 115.963 139.491 116.028 139.491 116.107C139.491 116.185 139.552 116.25 139.627 116.25H149.896Z" fill="#6D89C9"/>
<path d="M150.863 123.314H145.905L144.352 120.523C144.328 120.479 144.283 120.452 144.235 120.452H139.115C139.041 120.452 138.98 120.517 138.98 120.596C138.98 120.675 139.04 120.739 139.115 120.739H144.158L145.712 123.53C145.736 123.574 145.78 123.601 145.828 123.601H150.863C150.937 123.601 150.998 123.536 150.998 123.457C150.998 123.378 150.937 123.314 150.863 123.314Z" fill="#6D89C9"/>
<path d="M148.331 126.99H140.765C140.69 126.99 140.629 127.054 140.629 127.133C140.629 127.212 140.69 127.276 140.765 127.276H148.331C148.406 127.276 148.466 127.212 148.466 127.133C148.466 127.054 148.406 126.99 148.331 126.99Z" fill="#6D89C9"/>
<path d="M104.382 112.051C104.419 112.051 104.449 112.019 104.449 111.979C104.449 111.94 104.419 111.908 104.382 111.908H99.1306L97.7846 109.384C97.7729 109.361 97.7504 109.347 97.7261 109.347H95.3369C95.2994 109.347 95.2694 109.379 95.2694 109.419C95.2694 109.459 95.2994 109.49 95.3369 109.49H97.6868L98.9764 111.908H92.9705L91.5806 110.777C91.551 110.753 91.5089 110.758 91.4857 110.79C91.4632 110.821 91.4689 110.866 91.4985 110.89L92.9066 112.037C92.9183 112.046 92.933 112.051 92.9476 112.051H104.382Z" fill="#6D89C9"/>
<path d="M104.382 117.014H95.9053C95.8679 117.014 95.8379 117.046 95.8379 117.085C95.8379 117.125 95.8679 117.157 95.9053 117.157H104.382C104.419 117.157 104.449 117.125 104.449 117.085C104.45 117.046 104.42 117.014 104.382 117.014Z" fill="#6D89C9"/>
<path d="M104.382 122.497H98.0319C97.9944 122.497 97.9644 122.529 97.9644 122.568V125.253H94.3052C94.2678 125.253 94.2378 125.285 94.2378 125.325C94.2378 125.364 94.2678 125.396 94.3052 125.396H98.0322C98.0697 125.396 98.0997 125.364 98.0997 125.325V122.64H104.382C104.42 122.64 104.45 122.608 104.45 122.569C104.45 122.529 104.42 122.497 104.382 122.497Z" fill="#6D89C9"/>
<path d="M103.785 128.99H97.3919C97.3544 128.99 97.3245 129.022 97.3245 129.061C97.3245 129.101 97.3544 129.133 97.3919 129.133H103.785C103.823 129.133 103.853 129.101 103.853 129.061C103.853 129.022 103.823 128.99 103.785 128.99Z" fill="#6D89C9"/>
<path d="M153.48 107.25C153.48 107.632 153.187 107.942 152.825 107.942C152.464 107.942 152.171 107.632 152.171 107.25C152.171 106.867 152.464 106.557 152.825 106.557C153.187 106.557 153.48 106.867 153.48 107.25Z" fill="#FFBA53"/>
<path d="M149.042 111.587C149.042 111.97 148.749 112.28 148.388 112.28C148.027 112.28 147.734 111.97 147.734 111.587C147.734 111.205 148.027 110.895 148.388 110.895C148.749 110.895 149.042 111.205 149.042 111.587Z" fill="#FFBA53"/>
<path d="M151.204 116.091C151.204 116.474 150.911 116.784 150.55 116.784C150.189 116.784 149.896 116.474 149.896 116.091C149.896 115.709 150.189 115.398 150.55 115.398C150.911 115.398 151.204 115.709 151.204 116.091Z" fill="#FFBA53"/>
<path d="M148.985 127.825C149.347 127.825 149.64 127.515 149.64 127.132C149.64 126.75 149.347 126.439 148.985 126.439C148.624 126.439 148.331 126.75 148.331 127.132C148.331 127.515 148.624 127.825 148.985 127.825Z" fill="#FFBA53"/>
<path d="M152.171 123.457C152.171 123.84 151.878 124.15 151.517 124.15C151.156 124.15 150.863 123.84 150.863 123.457C150.863 123.074 151.156 122.764 151.517 122.764C151.878 122.764 152.171 123.074 152.171 123.457Z" fill="#FFBA53"/>
<path d="M91.7167 110.358C91.7167 110.74 91.4236 111.051 91.0624 111.051C90.7009 111.051 90.4082 110.74 90.4082 110.358C90.4082 109.975 90.7009 109.665 91.0624 109.665C91.4236 109.665 91.7167 109.975 91.7167 110.358Z" fill="#FFBA53"/>
<path d="M95.3366 109.418C95.3366 109.801 95.0435 110.111 94.6823 110.111C94.3211 110.111 94.0281 109.801 94.0281 109.418C94.0281 109.036 94.3211 108.726 94.6823 108.726C95.0439 108.726 95.3366 109.036 95.3366 109.418Z" fill="#FFBA53"/>
<path d="M94.3056 125.325C94.3056 125.707 94.0125 126.018 93.6513 126.018C93.2901 126.018 92.9971 125.707 92.9971 125.325C92.9971 124.942 93.2901 124.632 93.6513 124.632C94.0125 124.632 94.3056 124.942 94.3056 125.325Z" fill="#FFBA53"/>
<path d="M97.3922 129.061C97.3922 129.444 97.0992 129.754 96.738 129.754C96.3768 129.754 96.0837 129.444 96.0837 129.061C96.0837 128.679 96.3768 128.368 96.738 128.368C97.0992 128.368 97.3922 128.679 97.3922 129.061Z" fill="#FFBA53"/>
<path d="M95.3227 117.778C95.684 117.778 95.9769 117.468 95.9769 117.085C95.9769 116.703 95.684 116.393 95.3227 116.393C94.9614 116.393 94.6685 116.703 94.6685 117.085C94.6685 117.468 94.9614 117.778 95.3227 117.778Z" fill="#FFBA53"/>
<path d="M116.244 132.495V119.775H119.206L126.22 128.243H124.82V119.775H128.346V132.495H125.384L118.37 124.027H119.769V132.495H116.244ZM119.587 147.354H125.456V150.134H119.587V147.354ZM119.842 154.495H116.244V141.775H126.22V144.555H119.842V154.495ZM118.951 176.495V166.628H115.044V163.775H126.438V166.628H122.549V176.495H118.951Z" fill="white"/>
</svg>
