<svg width="161" height="161" viewBox="0 0 161 161" fill="none" xmlns="http://www.w3.org/2000/svg">
<path d="M80.4999 146.532C116.968 146.532 146.532 116.968 146.532 80.5C146.532 44.0316 116.968 14.4681 80.4999 14.4681C44.0315 14.4681 14.468 44.0316 14.468 80.5C14.468 116.968 44.0315 146.532 80.4999 146.532Z" fill="#E3E3F7"/>
<path d="M27.0909 29.2653H36.6894C38.0399 29.2653 39.1344 30.3601 39.1344 31.7102V37.6631C39.1344 39.0135 38.0396 40.108 36.6894 40.108H27.0909C25.7405 40.108 24.646 39.0132 24.646 37.6631V31.7106C24.646 30.3601 25.7405 29.2653 27.0909 29.2653Z" fill="#2F2FA7"/>
<path d="M27.1091 36.6787H32.0814C32.2727 36.6787 32.4276 36.8336 32.4276 37.0248C32.4276 37.2161 32.2727 37.371 32.0814 37.371H27.1091C26.9178 37.371 26.7629 37.2161 26.7629 37.0248C26.7629 36.8339 26.9178 36.6787 27.1091 36.6787Z" fill="#D967A2"/>
<path d="M27.1091 34.0473H36.923C37.1143 34.0473 37.2692 34.2022 37.2692 34.3935C37.2692 34.5847 37.1143 34.7396 36.923 34.7396H27.1091C26.9178 34.7396 26.7629 34.5847 26.7629 34.3935C26.7629 34.2022 26.9178 34.0473 27.1091 34.0473Z" fill="#D967A2"/>
<path d="M27.1091 31.4153H36.923C37.1143 31.4153 37.2692 31.5702 37.2692 31.7614C37.2692 31.9527 37.1143 32.1076 36.923 32.1076H27.1091C26.9178 32.1076 26.7629 31.9527 26.7629 31.7614C26.7629 31.5705 26.9178 31.4153 27.1091 31.4153Z" fill="#D967A2"/>
<path d="M47.1435 38.5933C52.2027 38.5933 56.3041 34.492 56.3041 29.4327C56.3041 24.3735 52.2027 20.2722 47.1435 20.2722C42.0842 20.2722 37.9829 24.3735 37.9829 29.4327C37.9829 34.492 42.0842 38.5933 47.1435 38.5933Z" fill="white"/>
<mask id="mask0_205_371" style="mask-type:luminance" maskUnits="userSpaceOnUse" x="37" y="20" width="20" height="19">
<path d="M47.1435 38.5933C52.2027 38.5933 56.3041 34.492 56.3041 29.4327C56.3041 24.3735 52.2027 20.2722 47.1435 20.2722C42.0842 20.2722 37.9829 24.3735 37.9829 29.4327C37.9829 34.492 42.0842 38.5933 47.1435 38.5933Z" fill="white"/>
</mask>
<g mask="url(#mask0_205_371)">
<path fill-rule="evenodd" clip-rule="evenodd" d="M55.3011 38.963C49.2014 38.9111 45.0734 38.9073 38.9892 38.963C38.9451 36.6581 39.3978 35.2909 41.1128 34.5448C42.3657 34.0022 44.1241 34.0676 44.5112 33.0159C45.0599 31.5228 43.8108 30.0922 43.4061 28.7684C42.5335 25.902 44.051 22.5522 46.8054 22.3114C49.6864 22.0576 51.6155 25.3494 50.8829 28.3431C50.5055 29.8858 49.2549 31.3271 49.6941 32.8459C49.9533 33.7392 51.0194 33.9861 52.0727 34.2911C54.3509 34.9454 55.2866 35.8212 55.3011 38.963Z" fill="#A4A4E4"/>
</g>
<path d="M61.0035 13.0403H52.2925C51.4939 13.0403 50.8467 13.6876 50.8467 14.4861V18.4767V19.5505V24.243L54.4421 20.9963H61.0035C61.8021 20.9963 62.4493 20.3491 62.4493 19.5505V14.4861C62.4493 13.6876 61.8021 13.0403 61.0035 13.0403Z" fill="#1E1E77"/>
<path d="M54.2104 17.8974C54.6139 17.8974 54.941 17.5703 54.941 17.1668C54.941 16.7633 54.6139 16.4362 54.2104 16.4362C53.8068 16.4362 53.4797 16.7633 53.4797 17.1668C53.4797 17.5703 53.8068 17.8974 54.2104 17.8974Z" fill="white"/>
<path d="M56.6793 17.8974C57.0829 17.8974 57.41 17.5703 57.41 17.1668C57.41 16.7633 57.0829 16.4362 56.6793 16.4362C56.2758 16.4362 55.9487 16.7633 55.9487 17.1668C55.9487 17.5703 56.2758 17.8974 56.6793 17.8974Z" fill="white"/>
<path d="M59.1486 17.8974C59.5521 17.8974 59.8792 17.5703 59.8792 17.1668C59.8792 16.7633 59.5521 16.4362 59.1486 16.4362C58.7451 16.4362 58.418 16.7633 58.418 17.1668C58.418 17.5703 58.7451 17.8974 59.1486 17.8974Z" fill="white"/>
<path d="M15.6929 58.0189V54.0792C15.6929 53.4723 16.1868 52.978 16.7938 52.978H29.0813C29.6883 52.978 30.1825 53.4723 30.1825 54.0792V58.0189C30.1825 58.6262 29.6883 59.1205 29.0813 59.1205H16.7938C16.1868 59.1205 15.6929 58.6262 15.6929 58.0189Z" fill="#1E1E77"/>
<path d="M16.7938 53.6606C16.5633 53.6606 16.3752 53.8484 16.3752 54.0792V58.0189C16.3752 58.2501 16.5633 58.4378 16.7938 58.4378H29.0814C29.3126 58.4378 29.5 58.2498 29.5 58.0189V54.0792C29.5 53.8484 29.3122 53.6606 29.0814 53.6606H16.7938Z" fill="white"/>
<path d="M19.7331 55.4873H26.7678C26.9562 55.4873 27.1091 55.3347 27.1091 55.1463C27.1091 54.9577 26.9562 54.805 26.7678 54.805H19.7331C19.5444 54.805 19.3921 54.9577 19.3921 55.1463C19.3921 55.3347 19.5444 55.4873 19.7331 55.4873Z" fill="#1E1E77"/>
<path d="M19.7331 57.2348H23.2506C23.439 57.2348 23.5916 57.0822 23.5916 56.8938C23.5916 56.7055 23.439 56.5525 23.2506 56.5525H19.7331C19.5444 56.5525 19.3921 56.7055 19.3921 56.8938C19.3921 57.0822 19.5444 57.2348 19.7331 57.2348Z" fill="#1E1E77"/>
<path d="M102.868 28.26C102.868 28.26 96.0633 22.6079 94.0643 20.9129C92.0657 19.2166 91.5418 19.5454 89.9984 20.9339C88.1743 22.5741 81.2217 28.2648 81.2217 28.2648V28.412L102.869 28.4072L102.868 28.26Z" fill="#A4A4E4"/>
<path d="M81.2212 28.2652L81.2218 30.2548L92.0462 39.4943L102.869 30.2496L102.868 28.26L81.2212 28.2652Z" fill="#A4A4E4"/>
<path d="M100.365 23.7079H83.7759V38.9195H100.365V23.7079Z" fill="white"/>
<path d="M98.9163 26.1164H84.872C84.7065 26.1164 84.5725 25.9825 84.5725 25.817C84.5725 25.6515 84.7065 25.5175 84.872 25.5175H98.9163C99.0818 25.5175 99.2158 25.6515 99.2158 25.817C99.2158 25.9822 99.0815 26.1164 98.9163 26.1164Z" fill="#D967A2"/>
<path d="M98.9161 28.1029H84.8717C84.7062 28.1029 84.5723 27.9689 84.5723 27.8034C84.5723 27.6379 84.7062 27.5039 84.8717 27.5039H98.9161C99.0816 27.5039 99.2155 27.6379 99.2155 27.8034C99.2155 27.9689 99.0813 28.1029 98.9161 28.1029Z" fill="#D967A2"/>
<path d="M98.9161 30.0896H84.8717C84.7062 30.0896 84.5723 29.9556 84.5723 29.7901C84.5723 29.6246 84.7062 29.4907 84.8717 29.4907H98.9161C99.0816 29.4907 99.2155 29.6246 99.2155 29.7901C99.2155 29.9553 99.0813 30.0896 98.9161 30.0896Z" fill="#D967A2"/>
<path d="M94.0749 32.076H84.8715C84.706 32.076 84.572 31.942 84.572 31.7765C84.572 31.611 84.706 31.4771 84.8715 31.4771H94.0749C94.2404 31.4771 94.3744 31.611 94.3744 31.7765C94.3744 31.942 94.2404 32.076 94.0749 32.076Z" fill="#D967A2"/>
<path d="M102.871 42.941L81.2247 42.9458L81.2212 28.2652L92.0465 36.3107L102.868 28.26L102.871 42.941Z" fill="#BCBCEA"/>
<path d="M102.872 43.2015L81.2244 43.2053L81.2241 41.3377C81.2241 41.3377 88.1774 37.0287 90.0015 35.3881C91.5449 34 92.1573 33.7604 94.156 35.4557C96.1549 37.1514 102.872 41.3332 102.872 41.3332V43.2015Z" fill="#A4A4E4"/>
<path d="M112.325 34.0566H103.032C101.331 34.0566 99.9521 32.6778 99.9521 30.977V19.3628C99.9521 17.662 101.331 16.2832 103.032 16.2832H112.325C114.025 16.2832 115.404 17.662 115.404 19.3628V30.9767C115.404 32.6778 114.025 34.0566 112.325 34.0566Z" fill="#2F2FA7"/>
<path d="M110.883 32.4286H104.581C102.881 32.4286 101.502 31.0498 101.502 29.349V24.0589C101.502 22.3581 102.881 20.9792 104.581 20.9792H110.883C112.583 20.9792 113.962 22.3581 113.962 24.0589V29.349C113.962 31.0498 112.583 32.4286 110.883 32.4286Z" fill="white"/>
<path d="M104.183 23.3505C104.612 23.0098 105.161 22.8391 105.83 22.8391C106.289 22.8391 106.685 22.9213 107.02 23.0848C107.354 23.2487 107.606 23.4719 107.777 23.7533C107.947 24.035 108.032 24.3532 108.032 24.7071C108.032 25.1134 107.924 25.4609 107.708 25.7494C107.491 26.0379 107.232 26.2311 106.931 26.3293V26.3689C107.318 26.4868 107.619 26.7015 107.836 27.0129C108.052 27.3243 108.16 27.7226 108.16 28.2075C108.16 28.5946 108.072 28.9385 107.895 29.2402C107.718 29.5419 107.456 29.7795 107.108 29.9531C106.761 30.1266 106.344 30.2136 105.859 30.2136C105.151 30.2136 104.57 30.0317 104.114 29.6678C103.726 29.3574 103.491 28.9314 103.41 28.3895C103.387 28.2365 103.509 28.0993 103.664 28.0993H104.244C104.365 28.0993 104.467 28.1856 104.493 28.3041C104.549 28.5601 104.673 28.7752 104.866 28.9501C105.109 29.1697 105.437 29.2795 105.849 29.2795C106.249 29.2795 106.558 29.1697 106.774 28.9501C106.99 28.7305 107.098 28.4471 107.098 28.0993C107.098 27.6405 106.953 27.3146 106.661 27.1211C106.369 26.9279 105.922 26.831 105.319 26.831C105.177 26.831 105.063 26.7167 105.063 26.5753V26.1625C105.063 26.0215 105.177 25.9068 105.319 25.9068H105.328C105.859 25.9004 106.264 25.8118 106.543 25.6415C106.822 25.4712 106.961 25.2023 106.961 24.8352C106.961 24.5206 106.859 24.2698 106.656 24.083C106.453 23.8963 106.164 23.8026 105.791 23.8026C105.423 23.8026 105.138 23.8959 104.935 24.083C104.779 24.2263 104.672 24.3957 104.612 24.5911C104.579 24.7 104.482 24.7763 104.368 24.7763H103.769C103.606 24.7763 103.488 24.6262 103.519 24.4659C103.608 24.0029 103.829 23.6309 104.183 23.3505Z" fill="#1E1E77"/>
<path d="M109.193 23.7733V23.2619C109.193 23.1206 109.307 23.0063 109.449 23.0063H110.983C111.124 23.0063 111.238 23.1206 111.238 23.2619V29.9186C111.238 30.0597 111.124 30.1743 110.983 30.1743H110.363C110.222 30.1743 110.108 30.06 110.108 29.9186V24.2846C110.108 24.1436 109.993 24.0289 109.852 24.0289H109.449C109.307 24.0289 109.193 23.9143 109.193 23.7733Z" fill="#1E1E77"/>
<path d="M104.507 18.1518C104.507 18.7629 104.012 19.2585 103.401 19.2585C102.79 19.2585 102.294 18.7629 102.294 18.1518C102.294 17.5406 102.79 17.045 103.401 17.045C104.012 17.0454 104.507 17.5406 104.507 18.1518Z" fill="#B04470"/>
<path d="M103.397 18.639C103.094 18.639 102.846 18.391 102.846 18.088V15.995C102.846 15.692 103.094 15.4444 103.397 15.4444C103.7 15.4444 103.948 15.692 103.948 15.995V18.088C103.948 18.391 103.7 18.639 103.397 18.639Z" fill="white"/>
<path d="M113.302 18.1518C113.302 18.7629 112.806 19.2585 112.195 19.2585C111.584 19.2585 111.088 18.7629 111.088 18.1518C111.088 17.5406 111.584 17.045 112.195 17.045C112.806 17.045 113.302 17.5406 113.302 18.1518Z" fill="#B04470"/>
<path d="M112.192 18.639C111.889 18.639 111.641 18.391 111.641 18.088V15.995C111.641 15.692 111.889 15.4444 112.192 15.4444C112.494 15.4444 112.742 15.692 112.742 15.995V18.088C112.742 18.391 112.495 18.639 112.192 18.639Z" fill="white"/>
<path d="M68.6399 18.5994V14.66C68.6399 14.053 69.1335 13.5588 69.7408 13.5588H82.0283C82.6353 13.5588 83.1296 14.053 83.1296 14.66V18.5997C83.1296 19.207 82.6353 19.7012 82.0283 19.7012H69.7408C69.1335 19.7009 68.6399 19.207 68.6399 18.5994Z" fill="#2F2FA7"/>
<path d="M69.7409 14.2411C69.5103 14.2411 69.3223 14.4291 69.3223 14.6597V18.5994C69.3223 18.8306 69.5103 19.0183 69.7409 19.0183H82.0284C82.2596 19.0183 82.447 18.8302 82.447 18.5994V14.66C82.447 14.4291 82.2593 14.2414 82.0284 14.2414L69.7409 14.2411Z" fill="#A4A4E4"/>
<path d="M72.6801 16.0681H79.7148C79.9032 16.0681 80.0562 15.9155 80.0562 15.7275C80.0562 15.5388 79.9032 15.3861 79.7148 15.3861H72.6801C72.4917 15.3861 72.3391 15.5388 72.3391 15.7275C72.3388 15.9155 72.4914 16.0681 72.6801 16.0681Z" fill="#2F2FA7"/>
<path d="M72.6801 17.8156H76.1976C76.386 17.8156 76.5386 17.663 76.5386 17.4746C76.5386 17.2863 76.386 17.1333 76.1976 17.1333H72.6801C72.4917 17.1333 72.3391 17.2863 72.3391 17.4746C72.3391 17.663 72.4914 17.8156 72.6801 17.8156Z" fill="#2F2FA7"/>
<path d="M86.4298 44.4515C86.4298 45.2194 85.8077 45.8419 85.04 45.8419H78.4497C77.6826 45.8419 77.0605 45.2194 77.0605 44.4515V44.371C77.0605 43.603 77.683 42.9812 78.4497 42.9812H85.04C85.808 42.9812 86.4298 43.6033 86.4298 44.371V44.4515Z" fill="#1E1E77"/>
<path d="M79.993 44.4183C79.993 44.7149 79.7528 44.9551 79.4565 44.9551C79.1603 44.9551 78.9204 44.7149 78.9204 44.4183C78.9204 44.1224 79.1603 43.8822 79.4565 43.8822C79.7528 43.8818 79.993 44.1224 79.993 44.4183Z" fill="white"/>
<path d="M82.2814 44.4183C82.2814 44.7149 82.0412 44.9551 81.7453 44.9551C81.4484 44.9551 81.2085 44.7149 81.2085 44.4183C81.2085 44.1224 81.4484 43.8822 81.7453 43.8822C82.0412 43.8818 82.2814 44.1224 82.2814 44.4183Z" fill="white"/>
<path d="M84.5702 44.4183C84.5702 44.7149 84.33 44.9551 84.0338 44.9551C83.7375 44.9551 83.4973 44.7149 83.4973 44.4183C83.4973 44.1224 83.7375 43.8822 84.0338 43.8822C84.33 43.8822 84.5702 44.1224 84.5702 44.4183Z" fill="white"/>
<path fill-rule="evenodd" clip-rule="evenodd" d="M129.107 61.7808C129.107 62.5726 129.748 63.2137 130.54 63.2137C131.331 63.2137 131.973 62.5723 131.973 61.7808V42.3758C131.973 41.5843 131.331 40.9426 130.54 40.9426C129.748 40.9426 129.107 41.5843 129.107 42.3758V61.7808Z" fill="white"/>
<path fill-rule="evenodd" clip-rule="evenodd" d="M130.54 48.8844C131.331 48.8844 131.973 49.5261 131.973 50.3173V61.7808C131.973 62.5726 131.331 63.2137 130.54 63.2137C129.748 63.2137 129.107 62.5723 129.107 61.7808V50.3173C129.107 49.5261 129.748 48.8844 130.54 48.8844Z" fill="#D967A2"/>
<path fill-rule="evenodd" clip-rule="evenodd" d="M124.099 61.7808C124.099 62.5726 124.74 63.2137 125.532 63.2137C126.323 63.2137 126.965 62.5723 126.965 61.7808V42.3758C126.965 41.5843 126.323 40.9426 125.532 40.9426C124.74 40.9426 124.099 41.5843 124.099 42.3758V61.7808Z" fill="white"/>
<path fill-rule="evenodd" clip-rule="evenodd" d="M125.532 45.1157C126.323 45.1157 126.965 45.7575 126.965 46.5486V61.7808C126.965 62.5726 126.323 63.2137 125.532 63.2137C124.74 63.2137 124.099 62.5723 124.099 61.7808V46.5486C124.099 45.7575 124.74 45.1157 125.532 45.1157Z" fill="#D967A2"/>
<path fill-rule="evenodd" clip-rule="evenodd" d="M119.268 61.7808C119.268 62.5726 119.91 63.2137 120.701 63.2137C121.493 63.2137 122.134 62.5723 122.134 61.7808V42.3758C122.134 41.5843 121.493 40.9426 120.701 40.9426C119.91 40.9426 119.268 41.5843 119.268 42.3758V61.7808Z" fill="white"/>
<path fill-rule="evenodd" clip-rule="evenodd" d="M120.701 47.8282C121.493 47.8282 122.134 48.4697 122.134 49.2611V61.7808C122.134 62.5726 121.493 63.2137 120.701 63.2137C119.91 63.2137 119.268 62.5723 119.268 61.7808V49.2611C119.268 48.47 119.91 47.8282 120.701 47.8282Z" fill="#D967A2"/>
<path fill-rule="evenodd" clip-rule="evenodd" d="M114.513 61.7808C114.513 62.5726 115.154 63.2137 115.946 63.2137C116.737 63.2137 117.379 62.5723 117.379 61.7808V42.3758C117.379 41.5843 116.737 40.9426 115.946 40.9426C115.154 40.9426 114.513 41.5843 114.513 42.3758V61.7808Z" fill="white"/>
<path fill-rule="evenodd" clip-rule="evenodd" d="M115.946 42.5928C116.737 42.5928 117.379 43.2346 117.379 44.0257V61.7808C117.379 62.5726 116.737 63.2137 115.946 63.2137C115.154 63.2137 114.513 62.5723 114.513 61.7808V44.0257C114.513 43.2346 115.154 42.5928 115.946 42.5928Z" fill="#D967A2"/>
<path fill-rule="evenodd" clip-rule="evenodd" d="M109.757 61.7808C109.757 62.5726 110.399 63.2137 111.19 63.2137C111.982 63.2137 112.623 62.5723 112.623 61.7808V42.3758C112.623 41.5843 111.982 40.9426 111.19 40.9426C110.399 40.9426 109.757 41.5843 109.757 42.3758V61.7808Z" fill="white"/>
<path fill-rule="evenodd" clip-rule="evenodd" d="M111.19 46.9685C111.982 46.9685 112.624 47.6099 112.624 48.4014V61.7808C112.624 62.5726 111.982 63.2137 111.19 63.2137C110.399 63.2137 109.758 62.5723 109.758 61.7808V48.4014C109.757 47.6099 110.399 46.9685 111.19 46.9685Z" fill="#D967A2"/>
<path d="M133.02 26.2388H123.684C122.828 26.2388 122.134 26.9327 122.134 27.7886V32.0657V33.2165V38.2462L125.988 34.7663H133.02C133.876 34.7663 134.57 34.0724 134.57 33.2165V27.7886C134.57 26.9327 133.876 26.2388 133.02 26.2388Z" fill="#1E1E77"/>
<path d="M124.148 33.0578C124.052 33.0578 123.958 33.0156 123.894 32.9348C123.783 32.7944 123.807 32.5912 123.947 32.4805L126.453 30.4995C126.574 30.4045 126.745 30.4071 126.863 30.5066L128.389 31.7991L132.04 27.9828C132.163 27.8536 132.368 27.8491 132.497 27.9728C132.626 28.0964 132.631 28.3009 132.507 28.43L128.646 32.4663C128.528 32.5896 128.334 32.6002 128.203 32.4895L126.646 31.1712L124.348 32.9879C124.289 33.0349 124.218 33.0578 124.148 33.0578Z" fill="white"/>
<path d="M132.273 31.2588C132.095 31.2588 131.95 31.1139 131.95 30.9355V28.5301H129.545C129.366 28.5301 129.221 28.3853 129.221 28.2069C129.221 28.0282 129.366 27.8836 129.545 27.8836H132.274C132.452 27.8836 132.597 28.0285 132.597 28.2069V30.9358C132.597 31.1139 132.452 31.2588 132.273 31.2588Z" fill="white"/>
<path d="M147.239 67.1705C147.239 67.9385 146.617 68.5609 145.849 68.5609H139.259C138.492 68.5609 137.87 67.9385 137.87 67.1705V67.09C137.87 66.322 138.492 65.7002 139.259 65.7002H145.849C146.617 65.7002 147.239 66.3223 147.239 67.09V67.1705Z" fill="#1E1E77"/>
<path d="M140.802 67.1373C140.802 67.4339 140.562 67.6741 140.266 67.6741C139.969 67.6741 139.729 67.4339 139.729 67.1373C139.729 66.8414 139.969 66.6012 140.266 66.6012C140.562 66.6012 140.802 66.8414 140.802 67.1373Z" fill="white"/>
<path d="M143.09 67.1373C143.09 67.4339 142.85 67.6741 142.554 67.6741C142.257 67.6741 142.018 67.4339 142.018 67.1373C142.018 66.8414 142.257 66.6012 142.554 66.6012C142.85 66.6008 143.09 66.8414 143.09 67.1373Z" fill="white"/>
<path d="M145.379 67.1373C145.379 67.4339 145.139 67.6741 144.843 67.6741C144.547 67.6741 144.306 67.4339 144.306 67.1373C144.306 66.8414 144.547 66.6012 144.843 66.6012C145.139 66.6008 145.379 66.8414 145.379 67.1373Z" fill="white"/>
<path fill-rule="evenodd" clip-rule="evenodd" d="M87.1494 93.8117C86.6088 93.5896 86.2517 92.8454 85.6975 92.5489C85.2103 92.2884 83.5659 92.0871 82.4373 91.8846C82.0254 91.8105 81.5978 91.7538 81.1638 91.7017C80.5359 88.3094 79.7779 85.0434 79.1596 81.7406C78.9497 80.6191 78.7523 79.5462 78.4764 78.4903C78.2117 77.4789 77.8159 76.4981 77.4765 75.4974C76.7778 73.4378 75.8034 67.9497 75.237 65.7404C75.2361 65.7195 75.2341 65.6999 75.2055 65.7047L69.1982 66.9962C69.3811 68.1448 70.2605 71.9109 70.4776 73.1368C70.6965 74.3752 70.6724 75.7727 70.7158 77.0706C70.8111 79.9152 71.3263 82.0697 72.0116 84.3208C73.1663 88.1098 74.9923 91.4547 76.8345 94.6576C76.9481 94.8553 77.2882 95.5431 77.5464 95.8365V95.8368C77.7773 96.5459 85.1575 95.9502 86.045 96.2503C86.5672 96.4274 88.4319 97.3312 88.403 96.0249C88.573 96.1192 88.9072 96.0893 88.9391 95.898C89.1284 95.4346 87.9448 94.1386 87.1494 93.8117Z" fill="#E2B1CE"/>
<path fill-rule="evenodd" clip-rule="evenodd" d="M74.2649 76.8922L77.3303 76.0393C77.3303 76.0393 75.4257 74.9915 74.2649 76.8922Z" fill="#875633"/>
<path fill-rule="evenodd" clip-rule="evenodd" d="M88.8462 95.3841C88.9567 95.5518 89.0514 95.7795 88.9084 95.9437C88.5745 96.3272 88.0107 95.6977 87.5199 95.4014C87.2005 95.2086 86.8173 95.0186 86.523 94.8901C85.7399 94.5494 84.1328 94.2316 84.1328 94.2316C85.2234 94.1308 86.7729 94.6103 87.6681 95.0901C87.9636 95.2485 88.8491 95.5264 88.8462 95.3841Z" fill="#BB78A2"/>
<path fill-rule="evenodd" clip-rule="evenodd" d="M83.9377 92.9201C84.8323 92.9449 85.767 92.9703 86.4394 93.2202C86.4394 93.2202 86.8628 93.6472 87.3387 93.9035C86.4394 93.5831 85.1613 93.0647 83.9377 92.9201Z" fill="#BB78A2"/>
<path fill-rule="evenodd" clip-rule="evenodd" d="M81.0016 90.8423C77.8779 91.7912 77.1611 92.177 73.6703 92.6249C72.513 89.3025 64.8465 59.6678 65.0835 56.1249C65.192 54.5033 65.4722 52.8327 66.0006 51.3602C66.4984 49.9756 67.3468 48.3183 68.877 47.8891C69.4904 47.7175 69.8018 47.6611 70.2419 47.8189C71.3351 48.2117 72.5014 49.6337 73.0437 50.9548C73.6323 52.3871 74.0567 53.9707 74.4482 55.4967C75.2912 58.7852 80.3595 87.5559 81.0016 90.8423Z" fill="#BCBCEA"/>
<path d="M70.4635 47.4605C70.8302 48.0391 71.0888 48.6899 71.1445 49.4138C71.234 50.5649 70.8528 51.5676 70.4535 52.4583C70.0526 53.3528 69.6096 54.1749 69.1433 54.8871C68.2704 56.2202 67.2081 57.4077 66.2466 58.5518C75.2484 52.703 70.5997 47.4763 70.4635 47.4605Z" fill="#A4A4E4"/>
<path d="M53.6762 42.0767C55.1639 42.0777 56.4747 42.3082 57.7791 42.5842C59.7549 43.0024 61.6911 43.5695 63.6205 44.161C64.8573 44.5403 66.0941 44.919 67.2843 45.4323C68.0686 45.7707 68.834 46.1445 69.5598 46.6001C70.626 47.2693 71.1373 48.2214 71.1476 49.4804C71.1602 51.0035 70.8346 52.4329 70.0628 53.7495C69.4082 54.8662 68.6982 55.9475 67.8552 56.9338C67.0015 57.9323 66.0268 58.8043 64.9382 59.5346C62.6787 61.0502 60.5442 62.7275 58.4624 64.474C56.6776 65.9717 54.9777 67.5607 53.4032 69.2809C52.9578 69.7674 52.4948 70.2375 52.0511 70.7257C51.883 70.9105 51.7014 70.9981 51.4464 71.0084C49.8959 71.0718 48.3449 71.1089 46.7944 71.1655C44.4551 71.2512 42.1148 71.2782 39.7752 71.3281C37.9645 71.3668 36.1533 71.3336 34.344 71.3929C32.8972 71.4402 31.4486 71.4611 30.0057 71.5954C29.8643 71.6086 29.7213 71.617 29.5793 71.6125C29.3237 71.6044 29.2458 71.5265 29.3015 71.2721C29.3842 70.8938 29.4914 70.5196 29.6064 70.1496C30.0128 68.8394 30.4752 67.5492 31.0264 66.2921C31.4589 65.3061 31.9982 64.3784 32.5653 63.4659C34.2487 60.7572 36.1784 58.2301 38.2286 55.7923C39.5774 54.1884 40.8429 52.5172 42.1573 50.8856C43.1803 49.616 44.2645 48.4004 45.358 47.1923C46.0525 46.425 46.7584 45.6683 47.5102 44.9563C48.2544 44.2518 49.0565 43.6194 49.9365 43.0923C51.1318 42.3758 52.4269 42.0284 53.6762 42.0767Z" fill="#CECEF4"/>
<path d="M50.1477 42.9699C50.0769 43.0092 50.0064 43.0498 49.9365 43.0916C49.0565 43.6187 48.2544 44.2511 47.5102 44.9557C46.7584 45.6676 46.0525 46.4243 45.358 47.1916C44.2645 48.3998 43.1803 49.6153 42.1573 50.885C40.8426 52.5166 39.5774 54.1874 38.2286 55.7916C36.1784 58.2298 34.2487 60.7565 32.5653 63.4652C31.9982 64.3778 31.4589 65.3054 31.0264 66.2914C30.4752 67.5485 30.0128 68.8387 29.6064 70.149C29.4918 70.5193 29.3845 70.8931 29.3015 71.2715C29.2458 71.5262 29.3237 71.6038 29.5793 71.6118C29.721 71.6163 29.864 71.6079 30.0057 71.5947C31.0763 71.4949 32.1502 71.4579 33.2241 71.426C33.4459 70.234 33.7824 69.0677 34.2329 67.922C35.1683 65.544 36.4891 63.3863 37.9468 61.3068C39.3054 59.3687 40.6999 57.4564 42.0675 55.5244C43.8388 53.0221 45.6285 50.5366 47.6819 48.2497C48.8359 46.9646 50.0627 45.7697 51.4464 44.7361C52.2452 44.1394 53.0899 43.6191 53.9576 43.1373C52.687 43.1039 51.4171 43.0459 50.1477 42.9699Z" fill="#A4A4E4"/>
<path fill-rule="evenodd" clip-rule="evenodd" d="M63.4901 30.9145C64.4805 29.4272 65.6027 28.8576 67.0462 28.3324C68.6785 27.739 70.5676 27.6076 72.5534 28.8927C76.9149 31.7131 75.0045 34.8829 73.3455 37.9383C71.808 40.7694 70.9225 42.3993 68.7654 42.8578C68.266 42.9647 67.8084 42.9802 67.3641 43.0279C67.3641 43.0279 66.3369 45.0513 65.3348 47.0039C64.4483 48.7321 58.0515 45.1125 58.9479 43.5202C60.5274 40.7146 62.5373 37.2979 62.5975 37.0267C62.6809 36.6526 61.7519 33.9407 63.4901 30.9145Z" fill="#E2B1CE"/>
<path d="M67.364 43.0276C64.2336 42.249 63.6411 39.6144 63.6411 39.6144C63.6411 39.6144 62.7707 43.2887 66.5706 44.5941L67.364 43.0276Z" fill="#BB78A2"/>
<path fill-rule="evenodd" clip-rule="evenodd" d="M61.6039 32.3175C61.1821 33.1077 61.1277 35.3926 62.0734 35.75C62.785 36.0199 63.9423 34.5248 64.3657 33.7356C64.7875 32.9454 65.0461 32.2979 65.0461 32.2979C64.3316 32.1382 63.373 31.545 63.0201 31.5006C62.2221 31.4008 61.8979 31.7701 61.6039 32.3175Z" fill="#E2B1CE"/>
<path d="M63.401 34.7985C63.4181 34.8076 63.4339 34.813 63.4516 34.8188C63.5682 34.8472 63.6867 34.7763 63.7172 34.6598C63.9501 33.735 63.7646 32.8994 63.1962 32.3088C63.1125 32.2232 62.9725 32.2206 62.8874 32.3027C62.8002 32.3874 62.7979 32.5252 62.881 32.6122C63.3424 33.0887 63.4877 33.7791 63.2928 34.5535C63.269 34.6517 63.316 34.7528 63.401 34.7985Z" fill="#BB78A2"/>
<path d="M62.096 34.1333C62.1906 34.1851 62.3111 34.1568 62.3768 34.066C62.6109 33.733 63.0117 33.5656 63.507 33.5943C63.6252 33.6004 63.7295 33.5083 63.7362 33.3875C63.7437 33.2674 63.6519 33.1641 63.5302 33.1586C62.8804 33.1222 62.3436 33.3544 62.0193 33.8151C61.9501 33.914 61.9723 34.0505 62.0721 34.1201C62.0802 34.1243 62.0883 34.1291 62.096 34.1333Z" fill="#BB78A2"/>
<path d="M68.8775 38.7846C68.8875 38.79 68.9001 38.7942 68.911 38.7994C69.244 38.9008 69.5222 38.8905 69.7563 38.7646C70.2303 38.5073 70.4183 37.8485 70.6563 37.0165C70.8066 36.4855 70.9796 35.8859 71.2536 35.2925C71.3012 35.1827 71.2546 35.0516 71.146 35.0036C71.0366 34.9534 70.9042 35.0007 70.8562 35.1102C70.569 35.7342 70.3935 36.3515 70.2367 36.8976C70.0367 37.6025 69.8622 38.2127 69.5508 38.3827C69.4243 38.4484 69.2575 38.451 69.0443 38.384C68.9265 38.3486 68.809 38.411 68.7706 38.526C68.7372 38.6294 68.7855 38.7353 68.8775 38.7846Z" fill="#BB78A2"/>
<path fill-rule="evenodd" clip-rule="evenodd" d="M72.6788 37.6025C72.522 37.8952 72.2154 38.0404 72.0013 37.9207C71.7855 37.8051 71.7414 37.4702 71.9008 37.1765C72.0625 36.8835 72.3667 36.7392 72.5796 36.8561C72.7963 36.9717 72.8401 37.3072 72.6788 37.6025Z" fill="#1E1E77"/>
<path fill-rule="evenodd" clip-rule="evenodd" d="M72.38 34.341C72.2342 34.4607 72.9023 35.1115 73.3737 35.6699C73.838 36.2285 74.1124 36.7205 74.2563 36.5985C74.4028 36.4755 74.2116 35.8334 73.7434 35.2744C73.2716 34.7151 72.5256 34.218 72.38 34.341Z" fill="#5D382E"/>
<path fill-rule="evenodd" clip-rule="evenodd" d="M70.9747 33.5997C70.9402 33.7862 70.046 33.5221 69.3302 33.3859C68.6141 33.2526 67.6172 33.2413 67.651 33.0581C67.6874 32.8701 68.7748 32.7355 69.4925 32.8694C70.7138 33.1006 71.0152 33.3856 70.9747 33.5997Z" fill="#5D382E"/>
<path fill-rule="evenodd" clip-rule="evenodd" d="M68.9339 35.4802C68.7752 35.7764 68.4657 35.9252 68.2464 35.8051C68.0307 35.6863 67.9888 35.3475 68.1469 35.049C68.3108 34.7541 68.619 34.6098 68.8357 34.7283C69.0521 34.8462 69.0959 35.1836 68.9339 35.4802Z" fill="#1E1E77"/>
<path fill-rule="evenodd" clip-rule="evenodd" d="M69.0133 25.8888C68.4002 24.9205 67.1489 24.7383 66.3899 24.9547C65.373 25.2412 64.1704 26.2146 63.5151 27.6131C62.8573 29.016 63.0833 30.2751 63.1467 31.5132C63.1767 32.0712 63.1628 32.654 62.9754 33.4435C62.8811 33.8335 62.3231 35.1489 62.9922 35.3195C63.4575 35.438 64.0631 33.9182 64.2399 33.5643C64.9792 32.0786 66.0431 29.964 67.0771 29.5399C67.8293 29.2308 68.8239 29.5992 69.7342 30.2252C70.4323 30.7062 70.9095 31.4397 71.4196 32.0741C72.2693 33.1325 73.2012 34.6031 74.863 34.7087C74.6737 35.5501 73.9891 36.5711 73.4675 37.6853C73.2566 38.1338 72.1189 40.1109 72.1189 40.1109C73.0798 40.3092 74.0393 38.8148 74.3887 38.4931C74.7513 38.1589 75.0784 37.8504 75.4078 37.6228C76.1237 37.1308 76.9296 36.8117 77.5414 36.0968C78.3999 35.0951 78.5193 33.5975 78.0202 32.9515C77.7436 32.5922 77.1109 32.3095 76.5535 32.238C78.5271 30.0413 77.639 27.1803 75.5418 25.7526C73.1171 24.1026 70.7936 24.7396 69.0133 25.8888Z" fill="#5D382E"/>
<path d="M62.2268 31.604C62.2268 31.604 62.6535 31.376 63.1873 31.5392C64.0413 31.9556 65.4024 32.6225 66.9122 33.3924C66.5635 33.9536 65.9414 35.1334 66.3626 35.8334C66.4756 36.0234 66.7219 36.225 67.0942 36.433C67.5675 36.6977 68.2666 36.974 68.6253 36.9633C69.4696 36.9369 70.14 36.1294 70.6445 35.3643C70.84 35.4728 71.0338 35.581 71.2232 35.6879C70.8361 36.5174 70.498 37.512 70.9179 38.2449C71.0973 38.5569 71.6978 39.0077 72.1718 39.2727C72.5434 39.4804 72.8438 39.5847 73.0656 39.5822C73.928 39.5738 74.6393 38.2909 74.9062 37.7406C74.9522 37.6421 74.9291 37.5252 74.8482 37.4521C74.8383 37.4434 74.827 37.4347 74.816 37.4257L74.8167 37.4244C74.8119 37.4206 74.8051 37.4148 74.8003 37.4112C74.0593 36.7605 73.1452 36.197 72.4996 35.8357C72.2191 35.6789 71.93 35.5275 71.6414 35.3852C71.6073 35.3682 71.5709 35.3617 71.5336 35.3624C71.2808 35.2207 71.0238 35.0777 70.7605 34.9335C70.7415 34.9 70.7163 34.8697 70.6822 34.8488C70.4114 34.6784 70.1303 34.5107 69.8495 34.3535C69.3633 34.0818 68.6968 33.7382 67.9938 33.4619C66.0013 32.4283 64.1202 31.4987 63.1136 31.0018C62.514 30.8003 62.2268 31.604 62.2268 31.604ZM71.6476 35.9336C71.6794 35.9497 71.7104 35.9677 71.7426 35.9848C72.6348 36.4987 73.4334 36.9914 74.0477 37.4238C74.1646 37.5143 74.2793 37.6051 74.3839 37.6946C73.9437 38.5473 73.434 39.0918 73.0602 39.095C73.0125 39.0963 72.8245 39.0798 72.4097 38.848C71.9177 38.5727 71.4399 38.175 71.3413 38.0037C71.0354 37.4689 71.3165 36.6449 71.6476 35.9336ZM67.2809 33.7218C67.6448 33.8399 68.0399 33.9977 68.4546 34.1887C69.0139 34.4817 69.5739 34.7799 70.1242 35.0796C70.1541 35.0973 70.1847 35.1141 70.2137 35.1318C69.7803 35.7858 69.2255 36.4565 68.6111 36.4765C68.4127 36.4816 67.8248 36.2836 67.3324 36.0083C66.9177 35.7764 66.8044 35.6241 66.7805 35.5829C66.5877 35.2625 66.7844 34.5429 67.2809 33.7218Z" fill="#B04470"/>
<path d="M68.2044 40.1205V40.1196C68.207 40.0065 68.1175 39.9148 68.0048 39.9116C67.9983 39.9116 67.3588 39.8913 67.08 39.5132C66.9338 39.3159 66.908 39.0418 67.003 38.6992C67.0333 38.5901 66.9702 38.4774 66.861 38.4471C66.7525 38.4168 66.6395 38.4806 66.6099 38.5894C66.4788 39.0618 66.5268 39.4546 66.7525 39.7583C67.1534 40.2963 67.9613 40.3195 67.9957 40.3202C68.1084 40.3231 68.2018 40.2329 68.2044 40.1205Z" fill="#BB78A2"/>
<path fill-rule="evenodd" clip-rule="evenodd" d="M63.0769 45.8756C62.05 46.3744 62.8962 49.833 63.4027 50.0246C63.7341 50.1499 65.8213 48.6162 66.6466 48.0553C66.9927 47.8189 67.4561 47.5127 67.552 47.0519C67.6467 46.5988 67.1582 45.6982 66.965 45.3205C66.7728 44.9441 66.2669 45.0932 65.8058 45.1814C65.5064 45.2387 63.5483 45.6911 63.0769 45.8756Z" fill="white"/>
<path fill-rule="evenodd" clip-rule="evenodd" d="M62.8241 45.8083C63.3058 46.7985 60.7005 49.1143 60.2124 48.98C59.8939 48.8918 58.1097 45.3575 57.8138 44.4331C57.6902 44.0444 57.5179 43.5328 57.7101 43.1045C57.8982 42.683 58.7763 42.2332 59.1379 42.038C59.4953 41.8436 59.7877 42.2515 60.0807 42.5867C60.2723 42.8047 62.5759 45.3907 62.8241 45.8083Z" fill="white"/>
<path d="M59.6778 57.4309C59.3487 56.5113 58.8551 54.0841 58.9276 53.7978C59.0467 53.3238 61.9811 48.4413 61.9895 48.2501C61.9998 48.0021 61.6581 47.7783 61.6646 47.5565C61.6736 47.3063 62.5836 46.2958 62.7719 46.2311C62.8122 46.225 62.8473 46.2285 62.8808 46.2372L62.8804 46.2369C62.8843 46.2372 62.8888 46.2395 62.8927 46.2405C62.8969 46.2414 62.901 46.2421 62.9052 46.2434L62.9049 46.2443C62.9368 46.2537 62.97 46.2678 63.0018 46.293C63.1306 46.4436 63.413 47.7745 63.2936 47.9944C63.1883 48.1902 62.7797 48.2118 62.6647 48.4314C62.5758 48.6007 62.6608 54.2963 62.5262 54.7667C62.4451 55.0501 60.8003 56.9016 60.053 57.5317C59.9586 57.6125 59.719 57.5475 59.6778 57.4309Z" fill="#1E1E77"/>
<path fill-rule="evenodd" clip-rule="evenodd" d="M43.6764 134.896L49.6218 135.754L48.5994 142.821L42.1655 141.521L43.6764 134.896Z" fill="#E2B1CE"/>
<path fill-rule="evenodd" clip-rule="evenodd" d="M49.2464 138.175C46.1046 139.768 43.1296 137.292 43.1296 137.292L49.2464 138.175Z" fill="#BB78A2"/>
<path fill-rule="evenodd" clip-rule="evenodd" d="M49.4014 139.292C49.1312 139.255 48.1923 139.042 47.7734 139.316C47.3377 139.599 47.3145 140.203 47.1361 140.943C45.3677 140.498 45.2528 138.64 42.7969 138.53C42.1335 140.28 41.6969 142.372 41.2844 144.499C46.0426 145.563 51.0195 146.482 55.8636 147.489C55.8633 146.985 55.8198 146.517 55.6978 146.14C55.323 144.994 54.4581 144.296 53.4238 143.705C52.0318 142.91 50.3745 142.102 49.7788 140.687C49.6126 140.292 49.5325 139.84 49.4014 139.292Z" fill="#BCBCEA"/>
<path fill-rule="evenodd" clip-rule="evenodd" d="M48.0439 141.278C48.1102 141.58 48.8331 141.383 49.346 141.405C49.6474 141.417 50.3407 141.584 50.4466 141.326C50.6395 140.868 49.5872 140.677 49.1222 140.699C48.6717 140.723 47.9447 140.836 48.0439 141.278Z" fill="#282894"/>
<path fill-rule="evenodd" clip-rule="evenodd" d="M48.5349 142.498C48.7152 142.884 49.4893 142.628 50.0029 142.619C50.2721 142.615 50.5693 142.637 50.8285 142.654C51.0767 142.671 51.5166 142.789 51.5462 142.58C51.6087 142.131 50.8877 141.948 50.3661 141.903C49.706 141.844 48.2666 141.923 48.5349 142.498Z" fill="#282894"/>
<path d="M52.198 143.007C52.6076 143.25 53.0271 143.479 53.4238 143.705C54.4581 144.296 55.323 144.994 55.6978 146.14C55.8198 146.516 55.8633 146.985 55.8636 147.489C53.6882 147.036 51.4857 146.603 49.2871 146.163C49.8042 144.227 51.0787 143.375 52.198 143.007Z" fill="#282894"/>
<path d="M44.2178 145.132C43.2334 144.925 42.2526 144.716 41.2847 144.499C41.5445 143.15 41.8176 141.817 42.1505 140.575C43.0186 141.202 44.4142 142.616 44.2178 145.132Z" fill="#282894"/>
<path fill-rule="evenodd" clip-rule="evenodd" d="M32.7779 137.562L38.7751 137.228L39.1689 144.358L32.605 144.354L32.7779 137.562Z" fill="#E2B1CE"/>
<path fill-rule="evenodd" clip-rule="evenodd" d="M38.8856 139.676C36.1202 141.858 32.7151 140.019 32.7151 140.019L38.8856 139.676Z" fill="#BB78A2"/>
<path fill-rule="evenodd" clip-rule="evenodd" d="M39.2584 140.74C38.9863 140.758 38.0235 140.735 37.6671 141.085C37.2961 141.449 37.3924 142.045 37.3637 142.806C35.5425 142.719 35.0627 140.92 32.6332 141.297C32.3289 143.144 32.3138 145.281 32.3296 147.448C37.204 147.551 42.2643 147.469 47.2121 147.5C47.1123 147.006 46.977 146.555 46.7829 146.21C46.1894 145.161 45.2035 144.647 44.0729 144.272C42.5515 143.768 40.7673 143.304 39.904 142.034C39.6631 141.678 39.4951 141.251 39.2584 140.74Z" fill="#CECEF4"/>
<path fill-rule="evenodd" clip-rule="evenodd" d="M38.3196 142.955C38.4443 143.237 39.1143 142.902 39.6212 142.822C39.919 142.775 40.6316 142.801 40.6847 142.528C40.7833 142.04 39.7139 142.061 39.2625 142.175C38.8255 142.287 38.1355 142.542 38.3196 142.955Z" fill="#2F2FA7"/>
<path fill-rule="evenodd" clip-rule="evenodd" d="M39.0418 144.054C39.2949 144.397 40.0033 143.993 40.5047 143.883C40.7677 143.825 41.0633 143.788 41.3206 143.754C41.5673 143.722 42.0219 143.75 42.0097 143.54C41.9823 143.087 41.2391 143.051 40.7191 143.11C40.0609 143.181 38.6657 143.544 39.0418 144.054Z" fill="#2F2FA7"/>
<path d="M42.7336 143.83C43.1831 143.987 43.6397 144.129 44.0731 144.272C45.204 144.647 46.1896 145.161 46.7831 146.21C46.9772 146.555 47.1121 147.006 47.2123 147.499C44.9902 147.485 42.7455 147.495 40.5034 147.499C40.6277 145.498 41.709 144.412 42.7336 143.83Z" fill="#2F2FA7"/>
<path d="M35.3301 147.489C34.3242 147.481 33.3214 147.47 32.3297 147.448C32.3181 146.074 32.3226 144.714 32.4034 143.43C33.3784 143.873 35.0258 144.984 35.3301 147.489Z" fill="#2F2FA7"/>
<path d="M42.6904 85.1918C42.6856 85.2289 42.6769 85.2656 42.6765 85.3026C42.6498 88.3033 42.6965 91.3044 42.7654 94.3035C42.8301 97.1091 42.937 99.913 42.8952 102.72C42.8739 104.129 42.777 105.535 42.6836 106.941C42.5935 108.296 42.447 109.645 42.3397 110.999C42.2274 112.416 42.0928 113.831 41.982 115.249C41.9095 116.177 41.8638 117.107 41.8046 118.036C41.7353 119.119 41.6629 120.203 41.5943 121.286C41.5618 121.802 41.5428 122.319 41.5119 122.835C41.4346 124.126 41.3988 125.418 41.3267 126.709C41.2433 128.206 41.14 129.702 41.043 131.198C40.9905 132.011 41.1825 138.517 41.129 139.33C41.1029 139.725 41.0646 139.777 40.6673 139.781C39.6845 139.79 38.7024 139.831 37.7203 139.862C35.4586 139.931 33.1972 140.019 30.9338 140.022C30.3446 140.023 30.3333 140.018 30.3137 139.422C30.2483 137.445 29.8696 129.777 29.8046 127.8C29.7437 125.952 29.7038 124.103 29.6571 122.255C29.5911 119.63 29.5805 117.005 29.5892 114.379C29.5956 112.412 29.7199 110.452 29.8857 108.493C30.0374 106.702 30.2696 104.921 30.495 103.138C30.6605 101.83 30.7851 100.516 30.7497 99.1937C30.7165 97.9524 30.6299 96.714 30.4966 95.4804C30.3436 94.0668 30.1707 92.6555 29.9894 91.2451C29.8313 90.0144 29.6394 88.7879 29.481 87.5573C29.2846 86.0319 29.0894 84.5069 28.9539 82.9736C28.7687 80.8809 28.7861 78.7866 28.8412 76.693C28.8882 74.8972 29.0257 73.1046 29.291 71.3249C29.3081 71.21 29.3255 71.0944 29.3535 70.9813C29.4179 70.7196 29.5554 70.6587 29.7608 70.8229C29.8403 70.8863 29.8928 70.9214 29.9936 70.8983C30.6392 70.7495 31.3009 70.7266 31.9568 70.678C33.0909 70.594 34.2282 70.5521 35.3639 70.4925C38.5701 70.3245 41.7782 70.4166 44.985 70.45C46.9884 70.471 48.9913 70.5663 50.9954 70.5985C51.2408 70.6023 51.4855 70.6429 51.7305 70.6429C51.9575 70.6432 52.0905 70.7308 52.1575 70.9511C52.2441 71.2354 52.3446 71.5159 52.4502 71.7937C53.4001 74.2967 54.3674 76.7931 55.3005 79.3021C56.9553 83.7512 58.5186 88.2322 59.9882 92.7463C60.6329 94.7259 61.3203 96.6917 61.7995 98.722C62.1685 100.286 62.2316 101.869 62.0883 103.463C61.9044 105.509 61.3934 107.486 60.7923 109.442C59.7619 112.794 58.5611 116.086 57.3588 119.379C55.6502 124.056 52.9477 133.056 51.1245 137.689C50.8669 138.344 50.8962 138.406 50.2091 138.313C50.2091 138.313 43.3891 137.272 42.0573 137.292C41.5296 137.299 41.5115 137.284 41.5882 136.782C41.8764 134.89 42.8308 129.733 43.1341 127.844C43.7253 124.163 44.5792 120.538 45.4947 116.928C45.8827 115.397 46.4114 113.908 46.8252 112.386C47.4466 110.1 48.2352 107.868 48.9922 105.626C49.2859 104.756 49.5635 103.882 49.7245 102.974C49.9389 101.765 49.8182 100.614 49.2618 99.5031C48.4796 97.9417 47.608 96.4271 46.8542 94.8515C45.9223 92.9031 44.9618 90.9679 44.1416 88.9683C43.7295 87.963 43.3775 86.9348 43.0185 85.9093C42.9335 85.6665 42.8392 85.4266 42.749 85.1854C42.7297 85.1873 42.71 85.1896 42.6904 85.1918Z" fill="#2F2FA7"/>
<path d="M33.1267 124.694C33.0774 122.211 33.1466 119.729 33.2452 117.247C33.298 115.916 33.315 114.584 33.3485 113.253C33.354 113.033 33.3569 112.813 33.3688 112.594C33.4374 111.355 33.506 110.116 33.5791 108.877C33.6338 107.948 33.6853 107.018 33.7571 106.091C33.8528 104.854 33.9629 103.618 34.1204 102.386C34.3206 100.822 34.5183 99.2578 34.7093 97.6922C34.8548 96.4986 34.991 95.3036 34.9756 94.0981C34.953 92.3615 34.7386 90.642 34.4768 88.9293C34.0701 86.2715 33.5562 83.6305 33.2287 80.9601C33.0745 79.7024 32.9312 78.4427 32.8906 77.1763C32.8552 76.0783 32.8807 74.98 32.9347 73.8803C32.9901 72.7588 33.1495 71.664 33.4013 70.5888C32.9196 70.614 32.4382 70.6413 31.9575 70.6771C31.3016 70.7257 30.6399 70.7482 29.9942 70.8973C29.8935 70.9205 29.8407 70.8857 29.7614 70.822C29.556 70.6577 29.4185 70.7186 29.3541 70.9804C29.3264 71.0931 29.309 71.2087 29.2916 71.324C29.0266 73.1037 28.8891 74.8962 28.8418 76.692C28.7867 78.7857 28.7697 80.88 28.9545 82.9726C29.0901 84.506 29.2852 86.031 29.4816 87.5563C29.64 88.787 29.832 90.0135 29.9901 91.2442C30.1713 92.6545 30.3443 94.0659 30.4972 95.4794C30.6305 96.7133 30.7175 97.9514 30.7503 99.1927C30.7854 100.515 30.6611 101.829 30.4956 103.137C30.2699 104.92 30.038 106.701 29.8864 108.492C29.7205 110.451 29.5963 112.412 29.5898 114.378C29.5811 117.004 29.5917 119.629 29.6578 122.254C29.7041 124.103 29.7444 125.951 29.8052 127.799C29.8703 129.777 30.2493 137.445 30.3143 139.422C30.334 140.017 30.3452 140.023 30.9345 140.022C31.9111 140.02 32.9621 139.975 33.9381 139.951C33.8138 138.318 33.3714 131.018 33.2832 129.383C33.1988 127.822 33.1576 126.257 33.1267 124.694Z" fill="#1E1E77"/>
<path d="M50.7488 116.069C51.5731 113.683 52.3311 111.281 52.816 108.799C53.0447 107.63 53.2272 106.452 53.2095 105.259C53.1831 103.482 52.7797 101.776 52.1382 100.122C51.3918 98.1971 50.4075 96.3901 49.3561 94.6236C47.9513 92.263 46.7038 89.828 45.6313 87.2994C45.0043 85.8214 44.4405 84.3221 43.9427 82.7972C43.8503 82.5141 43.7569 82.2308 43.6036 81.9738C43.5003 81.8006 43.3657 81.6553 43.1386 81.6917C42.9165 81.7271 42.8199 81.893 42.7709 82.0939C42.7558 82.1567 42.7403 82.2205 42.7361 82.2842C42.713 82.6452 42.6585 83.0042 42.6717 83.3677C42.6936 83.9741 42.7117 84.5807 42.7323 85.1874C42.7381 85.1867 42.7439 85.1861 42.7497 85.1854C42.8398 85.4266 42.9342 85.6662 43.0192 85.9093C43.3782 86.9345 43.7302 87.963 44.1423 88.9683C44.9621 90.9679 45.9227 92.9031 46.8548 94.8512C47.6087 96.4268 48.4803 97.9415 49.2624 99.5028C49.8189 100.613 49.9396 101.764 49.7252 102.973C49.5642 103.882 49.2866 104.756 48.9929 105.626C48.2359 107.868 47.4473 110.099 46.8259 112.386C46.4121 113.908 45.8834 115.397 45.4954 116.928C44.5796 120.538 43.726 124.163 43.1348 127.844C42.8311 129.733 41.8767 134.891 41.5889 136.782C41.5126 137.284 41.5315 137.255 42.058 137.292C42.6241 137.331 43.7633 137.454 43.7633 137.454C44.7387 134.808 46.4079 128.717 47.2516 126.024C48.3022 122.666 49.5999 119.393 50.7488 116.069Z" fill="#1E1E77"/>
<path fill-rule="evenodd" clip-rule="evenodd" d="M53.4627 77.0501C50.9846 77.5163 48.9332 75.6909 48.8794 73.3384C49.5382 74.8573 51.8073 76.4215 53.4627 77.0501Z" fill="#1E1E77"/>
<path fill-rule="evenodd" clip-rule="evenodd" d="M33.6824 77.0501C36.1605 77.5163 38.2119 75.6909 38.2657 73.3384C37.6066 74.8573 35.3378 76.4215 33.6824 77.0501Z" fill="#1E1E77"/>
<path fill-rule="evenodd" clip-rule="evenodd" d="M43.0127 80.4266C42.8137 77.5205 42.8008 71.7065 42.8198 71.7458C43.2967 74.0626 44.0437 76.5812 44.0263 78.8562C44.0225 79.4248 44.0698 80.6459 43.0127 80.4266Z" fill="#1E1E77"/>
<path fill-rule="evenodd" clip-rule="evenodd" d="M29.2109 70.5328C29.1893 70.877 29.4743 71.1733 29.8462 71.1958L52.1898 72.543C52.562 72.5656 52.8804 72.3054 52.902 71.9612L52.9838 70.6465C53.0054 70.3019 52.7217 70.0054 52.3491 69.9828L30.0052 68.6356C29.6333 68.613 29.3139 68.8735 29.2927 69.2181L29.2109 70.5328Z" fill="#B04470"/>
<path fill-rule="evenodd" clip-rule="evenodd" d="M45.6711 72.0871C45.6605 72.3064 45.8337 72.4935 46.0575 72.5028C46.2807 72.5128 46.4703 72.3418 46.4806 72.1216L46.5885 69.7223C46.5982 69.5018 46.4259 69.3169 46.2024 69.3066C45.9786 69.2966 45.7896 69.4673 45.7793 69.6879L45.6711 72.0871Z" fill="white"/>
<path fill-rule="evenodd" clip-rule="evenodd" d="M40.6662 71.8495C40.6556 72.0684 40.8295 72.2555 41.0533 72.2661C41.2761 72.2761 41.4658 72.1045 41.4754 71.8855L41.583 69.4853C41.5936 69.2664 41.421 69.0793 41.1969 69.0703C40.9737 69.0606 40.7844 69.2306 40.7741 69.4499L40.6662 71.8495Z" fill="white"/>
<path fill-rule="evenodd" clip-rule="evenodd" d="M42.1818 69.4277C42.1815 69.4312 42.1802 69.4344 42.1802 69.4386C42.1802 69.4386 42.1806 69.4396 42.1812 69.4396C42.1812 69.4396 42.1799 69.4454 42.1796 69.448L42.0782 71.6624C42.0788 71.6765 42.0798 71.6897 42.0817 71.7023C42.0736 71.7274 42.0685 71.7548 42.0669 71.7825C42.0543 71.9844 42.2057 72.1599 42.4063 72.1718L44.601 72.3093C44.8023 72.3215 44.9771 72.1685 44.99 71.9654C44.99 71.9615 44.989 71.9599 44.9884 71.9554C44.9984 71.928 45.0051 71.8981 45.0058 71.8675L45.1059 69.6502C45.105 69.6447 45.1046 69.6389 45.105 69.6331C45.1053 69.6286 45.1066 69.6254 45.1066 69.6219C45.1185 69.4187 44.9675 69.2441 44.7656 69.2319L42.5689 69.0944C42.3902 69.0825 42.234 69.202 42.1918 69.3694C42.186 69.3878 42.1838 69.4068 42.1818 69.4277ZM42.8368 71.4608L42.858 70.9804L44.2922 71.0715L44.2707 71.5513L42.8368 71.4608ZM44.3431 69.9435L44.326 70.3357L42.8915 70.2465L42.9099 69.8537L44.3431 69.9435Z" fill="white"/>
<path fill-rule="evenodd" clip-rule="evenodd" d="M36.4311 78.2698C35.866 78.8845 35.0987 81.2409 34.2914 81.011C33.4149 80.7611 34.5642 78.6156 34.636 77.971C34.0969 78.7203 33.375 80.4227 32.8685 80.356C32.2973 80.2804 32.4184 79.2857 32.5649 78.6472C32.7214 77.9649 33.0588 77.3518 33.1374 76.9673C32.7027 77.5141 32.0799 78.7808 31.4375 78.51C30.8109 78.2463 31.5731 76.8549 31.737 76.2602C31.954 75.4755 32.2873 74.5185 32.2735 73.9762C32.2641 73.565 31.8751 73.0064 31.5113 72.4731C30.5556 71.0734 29.947 69.3204 30.2439 67.6615L35.3032 69.3459C35.6345 70.1931 36.227 70.8145 37.069 71.6086C37.6132 72.1231 38.5232 72.7919 38.7753 73.5029C39.1514 74.5658 38.7888 76.9058 38.1094 78.5036C37.8289 79.1633 36.9721 80.9633 36.4372 80.8448C35.5289 80.6423 36.3442 78.8777 36.4311 78.2698Z" fill="#E2B1CE"/>
<path fill-rule="evenodd" clip-rule="evenodd" d="M34.6436 80.9575C33.479 81.4766 34.0657 79.5037 34.3149 78.7125C34.7055 77.469 35.2793 76.16 35.4577 75.3602C35.743 76.5732 34.3216 78.9122 34.3278 80.234C34.3291 80.5003 34.3918 80.7875 34.6436 80.9575Z" fill="#BB78A2"/>
<path fill-rule="evenodd" clip-rule="evenodd" d="M36.7567 80.7363C36.4805 80.9389 36.343 80.8281 36.2222 80.7569C35.7589 80.4855 36.1591 79.1224 36.3542 78.5032C36.7458 77.2603 37.3927 75.9363 37.5724 75.1364C37.8567 76.3497 36.4357 78.6881 36.4415 80.0108C36.4428 80.2768 36.5046 80.5657 36.7567 80.7363Z" fill="#BB78A2"/>
<path fill-rule="evenodd" clip-rule="evenodd" d="M31.5382 78.5396C30.8929 78.4694 31.2529 77.1592 31.4287 76.4608C31.5285 76.0628 31.6709 75.65 31.8077 75.2333C31.9433 74.8189 32.1796 74.3591 32.187 74.0056C32.1996 73.424 31.2732 72.3965 30.9879 71.7941C30.3738 70.4974 30.0174 69.1073 30.2434 67.6606C31.9346 68.1703 33.5298 68.6616 35.3024 69.3446C35.066 69.5365 33.7156 69.5027 32.7718 69.1314C32.0199 68.8362 31.4281 68.5467 30.9895 68.1667C30.9779 69.6202 31.3054 71.1179 31.8502 72.5466C32.1233 73.264 32.4945 73.653 32.2936 74.4444C31.978 75.6973 31.0298 78.0071 31.5382 78.5396Z" fill="#BB78A2"/>
<path fill-rule="evenodd" clip-rule="evenodd" d="M33.3519 80.035C32.5772 80.9749 32.3628 79.8454 32.3782 79.4264C32.4346 77.9082 33.6746 76.4962 33.8797 74.3768C34.0275 74.7011 33.9798 74.9555 33.9209 75.3164C33.7641 76.2792 33.1108 77.8139 32.8554 78.8327C32.7385 79.2992 32.6873 79.8396 33.3519 80.035Z" fill="#BB78A2"/>
<path fill-rule="evenodd" clip-rule="evenodd" d="M34.942 56.5879C35.7805 60.9069 36.664 65.2182 37.0875 69.6157C34.5086 70.4861 31.8357 70.8722 29.1402 71.1456C28.0927 67.5868 27.0569 64.256 26.3414 60.5817C26.0207 58.9334 25.7086 57.1814 25.605 55.194C25.51 53.3776 25.5248 51.2901 26.6032 49.4811C28.1488 46.888 31.2947 45.6551 33.3416 44.9541C37.0865 43.6712 40.5084 43.101 44.3218 42.5474C46.7423 42.1958 49.156 41.9669 51.7935 41.9888C53.0332 41.9988 54.1258 42.1359 55.1848 42.7345C57.2398 43.896 57.5055 46.1616 55.9863 48.0704C54.668 49.7271 52.6246 50.7659 50.9583 51.547C45.9576 53.8902 39.8299 55.5163 34.942 56.5879Z" fill="#BCBCEA"/>
<path d="M34.9419 56.5879L34.3542 52.4019L36.0683 56.3358L34.9419 56.5879Z" fill="#A4A4E4"/>
<path d="M53.4089 97.4819H20.8711V101.906H53.4089V97.4819Z" fill="#A4A4E4"/>
<path d="M81.7451 100.288V146.634H79.8839L78.4648 99.7374L81.7451 100.288Z" fill="white"/>
<path d="M81.7451 99.7369V106.758H78.6864L78.4648 99.7369H81.7451Z" fill="#A4A4E4"/>
<path d="M105.579 100.288V147.305H103.719L102.3 99.7374L105.579 100.288Z" fill="white"/>
<path d="M105.579 99.7369V106.758H102.521L102.3 99.7369H105.579Z" fill="#6879B3"/>
<path d="M47.856 100.304L51.1339 99.7547L49.7136 147.284H47.856V100.304Z" fill="white"/>
<path d="M50.9098 106.77L51.1333 99.7536L47.855 100.304V106.77H50.9098Z" fill="#A4A4E4"/>
<path d="M20.8721 100.304L24.1487 99.7547L22.73 147.284H20.8721V100.304Z" fill="white"/>
<path d="M23.9259 106.77L24.1487 99.7536L20.8711 100.304V106.77H23.9259Z" fill="#A4A4E4"/>
<path d="M105.58 97.4819H53.4092V101.906H105.58V97.4819Z" fill="#A4A4E4"/>
<path d="M18.4148 96.8901C18.4148 97.2172 18.6811 97.4823 19.0092 97.4823H106.666C106.995 97.4823 107.261 97.2172 107.261 96.8901C107.261 96.5623 106.995 96.2979 106.666 96.2979H19.0089C18.6811 96.2976 18.4148 96.5623 18.4148 96.8901Z" fill="white"/>
<path fill-rule="evenodd" clip-rule="evenodd" d="M74.1128 87.4958C74.0678 88.8227 73.7751 90.9827 73.6125 92.6516C73.4878 93.9445 73.3037 94.6532 74.1547 95.0876C74.316 95.17 74.5991 95.1568 74.7098 95.3844C71.7706 95.3545 68.7123 95.37 65.6629 95.3825C64.808 95.3867 63.1378 95.5239 62.9301 94.9726C62.7746 94.5576 63.1629 93.5191 63.2614 93.0586C63.6842 91.0706 64.0388 89.1409 64.5015 87.2935C67.6748 87.3248 70.9003 87.4175 74.1128 87.4958Z" fill="#A4A4E4"/>
<path fill-rule="evenodd" clip-rule="evenodd" d="M67.3162 95.1726L63.3073 95.1738C63.1224 95.1687 63.0052 95.0676 63.0355 94.8699C63.0948 94.4706 64.101 89.222 64.5016 87.2935C64.5016 87.2633 64.5 87.2359 64.4578 87.2401C64.1886 87.3357 63.6531 87.2404 63.4367 87.2388C63.1192 88.8652 61.8905 94.2642 61.8683 94.8335C61.8454 95.4031 61.9726 95.8616 62.4276 96.1392C62.6037 96.2467 62.8075 96.2838 63.0233 96.2934C63.0403 96.2944 63.0564 96.2979 63.0735 96.2979L67.3171 96.296C67.6784 96.2957 67.9727 96.0445 67.9718 95.7344C67.9715 95.4234 67.6781 95.1726 67.3162 95.1726Z" fill="#8D8DD4"/>
<path fill-rule="evenodd" clip-rule="evenodd" d="M75.5462 95.8764C75.5462 96.1057 75.3736 96.2899 75.1605 96.2902L67.4924 96.2934C67.2792 96.2934 67.1069 96.1089 67.1069 95.88V95.586C67.1069 95.358 67.2789 95.1725 67.4924 95.1725L75.1605 95.169C75.3727 95.169 75.5456 95.3535 75.5456 95.5828L75.5462 95.8764Z" fill="#C7C7F2"/>
<path d="M50.7197 82.9668L50.711 63.8484C50.7103 61.1343 52.9086 58.9337 55.6234 58.9327L53.2438 58.934C50.5303 58.9353 48.3304 61.1362 48.332 63.8497L48.3401 82.9675C48.342 85.6816 50.5429 87.8805 53.2573 87.8796L55.636 87.8786C52.9218 87.8789 50.7203 85.68 50.7197 82.9668Z" fill="#A4A4E4"/>
<path d="M84.8015 58.9199L82.4222 58.9211L55.6234 58.9327C52.909 58.934 50.7107 61.1343 50.7107 63.8484L50.7207 82.9665C50.7213 85.6803 52.9222 87.8789 55.6363 87.8783L82.4341 87.866L84.8137 87.8648C87.5285 87.8638 89.7274 85.6626 89.7262 82.9491L89.7175 63.8313C89.7175 61.1178 87.5163 58.9183 84.8015 58.9199Z" fill="#8D8DD4"/>
<path d="M84.0389 59.6057L81.7917 59.6073L56.4883 59.6183C53.9251 59.6199 51.8492 61.6971 51.8499 64.2605L51.8579 82.3125C51.8595 84.875 53.9374 86.9509 56.5005 86.9506L81.8046 86.9387L84.0511 86.938C86.6136 86.9367 88.6905 84.8586 88.6892 82.2964L88.6812 64.2444C88.6802 61.6816 86.6023 59.6051 84.0389 59.6057Z" fill="white"/>
<path d="M86.4925 84.4029C86.4925 84.875 86.1097 85.2578 85.6376 85.2578H55.3451C54.8731 85.2578 54.4902 84.875 54.4902 84.4029V62.7082C54.4902 62.2361 54.8731 61.8533 55.3451 61.8533H85.6376C86.1097 61.8533 86.4925 62.2361 86.4925 62.7082V84.4029Z" fill="#CECEF4"/>
<path d="M83.8074 65.2288C83.2619 65.2288 82.8179 64.7848 82.8179 64.2393C82.8179 63.6938 83.2619 63.2498 83.8074 63.2498C84.3528 63.2498 84.7969 63.6935 84.7969 64.2393C84.7969 64.7848 84.3528 65.2288 83.8074 65.2288ZM83.8074 63.7982C83.5643 63.7982 83.3662 63.9959 83.3662 64.239C83.3662 64.4821 83.5639 64.6801 83.8074 64.6801C84.0505 64.6801 84.2485 64.4821 84.2485 64.239C84.2482 63.9959 84.0505 63.7982 83.8074 63.7982Z" fill="#A4A4E4"/>
<path d="M85.0718 65.6722C85.0093 65.6722 84.9465 65.651 84.895 65.6075L84.1296 64.9606C84.014 64.8627 83.9995 64.6898 84.0971 64.5742C84.1947 64.4586 84.3679 64.4441 84.4835 64.5417L85.2489 65.1886C85.3645 65.2865 85.379 65.4594 85.2814 65.575C85.2273 65.639 85.1497 65.6722 85.0718 65.6722Z" fill="#A4A4E4"/>
<path d="M60.7892 65.2288H59.3586C59.2072 65.2288 59.0842 65.1061 59.0842 64.9545V63.5241C59.0842 63.3728 59.2069 63.2498 59.3586 63.2498H60.7892C60.9406 63.2498 61.0636 63.3725 61.0636 63.5241V64.9545C61.0636 65.1058 60.9409 65.2288 60.7892 65.2288ZM59.6329 64.6801H60.5152V63.7982H59.6329V64.6801Z" fill="#A4A4E4"/>
<path d="M57.4901 65.2289C57.4199 65.2289 57.3497 65.2022 57.2962 65.1488L55.8656 63.7184C55.7583 63.6112 55.7583 63.4377 55.8656 63.3308C55.9728 63.2239 56.1464 63.2235 56.2533 63.3308L57.6839 64.7614C57.7911 64.8686 57.7911 65.0422 57.6839 65.1491C57.6305 65.2019 57.5603 65.2289 57.4901 65.2289Z" fill="#A4A4E4"/>
<path d="M56.0594 65.229C55.9892 65.229 55.919 65.2022 55.8656 65.1488C55.7583 65.0416 55.7583 64.868 55.8656 64.7611L57.2962 63.3305C57.4034 63.2232 57.577 63.2232 57.6839 63.3305C57.7911 63.4377 57.7911 63.6112 57.6839 63.7181L56.2533 65.1485C56.1998 65.2019 56.1296 65.229 56.0594 65.229Z" fill="#A4A4E4"/>
<path d="M84.6896 83.3083H78.8266C78.6753 83.3083 78.5522 83.1856 78.5522 83.0339V68.8733C78.5522 68.722 78.6749 68.599 78.8266 68.599H84.6896C84.8409 68.599 84.9639 68.7217 84.9639 68.8733V83.0339C84.9636 83.1853 84.8409 83.3083 84.6896 83.3083ZM79.1006 82.7596H84.4152V69.1477H79.1006V82.7596Z" fill="#A4A4E4"/>
<path d="M84.6896 83.3081C84.582 83.3081 84.4797 83.2444 84.4362 83.1384L78.5732 68.9778C78.5152 68.8378 78.5816 68.6774 78.7216 68.6194C78.8617 68.5612 79.0221 68.6281 79.08 68.7679L84.943 82.9285C85.001 83.0685 84.9346 83.2289 84.7946 83.2865C84.7601 83.3014 84.7247 83.3081 84.6896 83.3081Z" fill="#A4A4E4"/>
<path d="M78.8263 83.3084C78.7915 83.3084 78.7558 83.3016 78.7216 83.2874C78.5816 83.2295 78.5152 83.0691 78.5732 82.9294L84.4362 68.7688C84.4938 68.6287 84.6545 68.5621 84.7943 68.6203C84.9343 68.6783 85.0007 68.8387 84.9427 68.9787L79.0797 83.1393C79.0362 83.2446 78.9338 83.3084 78.8263 83.3084Z" fill="#A4A4E4"/>
<path d="M62.0765 83.3083H56.2135C56.0622 83.3083 55.9392 83.1856 55.9392 83.0339V68.8733C55.9392 68.722 56.0619 68.599 56.2135 68.599H62.0765C62.2279 68.599 62.3509 68.7217 62.3509 68.8733V83.0339C62.3509 83.1853 62.2279 83.3083 62.0765 83.3083ZM56.4879 82.7596H61.8022V69.1477H56.4879V82.7596Z" fill="#A4A4E4"/>
<path d="M62.0765 83.3081C61.969 83.3081 61.8666 83.2444 61.8231 83.1384L55.9601 68.9778C55.9022 68.8378 55.9688 68.6774 56.1086 68.6194C56.2486 68.5612 56.409 68.6281 56.467 68.7679L62.3299 82.9285C62.3879 83.0685 62.3212 83.2289 62.1815 83.2865C62.147 83.3014 62.1116 83.3081 62.0765 83.3081Z" fill="#A4A4E4"/>
<path d="M56.2138 83.3084C56.1787 83.3084 56.1432 83.3016 56.1091 83.2874C55.969 83.2295 55.9027 83.0691 55.9607 82.9294L61.8236 68.7688C61.8816 68.6287 62.0419 68.5621 62.1817 68.6203C62.3218 68.6783 62.3881 68.8387 62.3301 68.9787L56.4672 83.1393C56.4234 83.2446 56.3213 83.3084 56.2138 83.3084Z" fill="#A4A4E4"/>
<path d="M75.5146 69.7262H65.3117C65.1604 69.7262 65.0374 69.6035 65.0374 69.4518C65.0374 69.3002 65.16 69.1775 65.3117 69.1775H75.5146C75.6659 69.1775 75.7889 69.3002 75.7889 69.4518C75.7889 69.6035 75.6659 69.7262 75.5146 69.7262Z" fill="#A4A4E4"/>
<path d="M75.5146 74.2409H65.3117C65.1604 74.2409 65.0374 74.1183 65.0374 73.9666C65.0374 73.8153 65.16 73.6923 65.3117 73.6923H75.5146C75.6659 73.6923 75.7889 73.8149 75.7889 73.9666C75.7889 74.1183 75.6659 74.2409 75.5146 74.2409Z" fill="#A4A4E4"/>
<path d="M75.5146 78.7927H65.3117C65.1604 78.7927 65.0374 78.6701 65.0374 78.5184C65.0374 78.367 65.16 78.244 65.3117 78.244H75.5146C75.6659 78.244 75.7889 78.3667 75.7889 78.5184C75.7889 78.6697 75.6659 78.7927 75.5146 78.7927Z" fill="#A4A4E4"/>
<path d="M75.5146 83.3078H65.3117C65.1604 83.3078 65.0374 83.1851 65.0374 83.0335C65.0374 82.8821 65.16 82.7591 65.3117 82.7591H75.5146C75.6659 82.7591 75.7889 82.8818 75.7889 83.0335C75.7889 83.1848 75.6659 83.3078 75.5146 83.3078Z" fill="#A4A4E4"/>
<path d="M81.7526 64.9441C81.7526 65.7887 81.0674 66.4736 80.2231 66.4736H63.4288C62.5836 66.4736 61.8997 65.7884 61.8997 64.9441C61.8997 64.0995 62.5839 63.4146 63.4288 63.4146H80.2231C81.0674 63.4146 81.7526 64.0995 81.7526 64.9441Z" fill="white"/>
<path d="M103.725 142.907C103.725 141.56 104.822 140.464 106.168 140.464H134.84C136.187 140.464 137.283 141.56 137.283 142.907V144.95H138.649V142.907C138.649 140.807 136.94 139.098 134.84 139.098H106.168C104.068 139.098 102.36 140.807 102.36 142.907V144.95H103.725V142.907Z" fill="#171458"/>
<path d="M104.688 147.481C105.975 147.481 107.018 146.438 107.018 145.152H102.36C102.36 146.438 103.402 147.481 104.688 147.481Z" fill="#171458"/>
<path d="M104.688 142.823C103.403 142.823 102.36 143.866 102.36 145.152H107.018C107.018 143.866 105.975 142.823 104.688 142.823Z" fill="white"/>
<path d="M112.749 139.269H111.384V144.95H112.749V139.269Z" fill="#171458"/>
<path d="M113.712 147.481C114.998 147.481 116.041 146.438 116.041 145.152H111.384C111.384 146.438 112.426 147.481 113.712 147.481Z" fill="#171458"/>
<path d="M113.712 142.823C112.426 142.823 111.384 143.866 111.384 145.152H116.041C116.041 143.866 114.998 142.823 113.712 142.823Z" fill="#2F2FA7"/>
<path d="M129.596 139.269H128.23V144.95H129.596V139.269Z" fill="#171458"/>
<path d="M130.558 147.481C131.845 147.481 132.887 146.438 132.887 145.152H128.23C128.23 146.438 129.272 147.481 130.558 147.481Z" fill="#171458"/>
<path d="M130.558 142.823C129.272 142.823 128.229 143.866 128.229 145.152H132.887C132.887 143.866 131.845 142.823 130.558 142.823Z" fill="#2F2FA7"/>
<path d="M139.601 147.481C140.887 147.481 141.93 146.438 141.93 145.152H137.272C137.273 146.438 138.314 147.481 139.601 147.481Z" fill="#171458"/>
<path d="M139.601 142.823C138.314 142.823 137.272 143.866 137.272 145.152H141.93C141.93 143.866 140.887 142.823 139.601 142.823Z" fill="#2F2FA7"/>
<path fill-rule="evenodd" clip-rule="evenodd" d="M130.185 117.059C130.181 119.445 127.833 119.573 125.049 119.573C122.174 119.573 119.099 119.573 116.197 119.573C113.951 119.573 112.038 119.514 111.389 118.043C111.328 117.906 111.245 117.677 111.225 117.497C111.197 117.242 111.13 117.116 111.389 117.06C111.473 117.042 111.558 117.004 111.608 117.005C117.511 117.139 124.223 117.117 130.185 117.059Z" fill="#171458"/>
<path d="M123.001 140.961C123.001 141.69 122.409 142.281 121.68 142.281H119.634C118.906 142.281 118.315 141.69 118.315 140.961V129.423C118.315 128.694 118.906 128.104 119.634 128.104H121.68C122.409 128.104 123.001 128.694 123.001 129.423V140.961Z" fill="#171458"/>
<path d="M121.749 121.189H119.586V128.929H121.749V121.189Z" fill="#171458"/>
<path d="M123.077 119.573H118.315V121.606H123.077V119.573Z" fill="#171458"/>
<path d="M131.728 122.289H124.46L124.394 122.276C123.816 122.16 122.524 121.527 122.271 121.401L122.877 120.178C123.408 120.442 124.263 120.83 124.606 120.923H131.728V122.289Z" fill="#171458"/>
<path fill-rule="evenodd" clip-rule="evenodd" d="M115.8 76.0808C116.548 75.9826 117.909 76.0808 118.915 76.0808C124.918 76.0808 131.16 76.0808 137.273 76.0808C138.275 76.0808 139.188 75.9376 139.896 76.19C140.53 76.4167 141.114 76.9399 141.317 77.5012C141.555 78.1616 141.383 79.1579 141.317 79.96C140.55 89.2043 139.772 97.6674 139.022 106.897C138.758 110.139 137.582 112.563 135.853 114.327C134.949 115.251 133.91 116.011 132.629 116.458C131.322 116.915 129.669 116.92 127.875 117.005C124.828 117.151 121.026 117.333 117.604 117.333C112.648 117.333 106.577 117.365 102.032 117.278C101.169 117.262 100.225 117.278 99.3547 117.278C98.4456 117.278 97.6104 117.408 96.8952 117.223C96.0876 117.015 95.4797 116.454 95.2569 115.693C94.9207 114.555 95.4588 113.324 96.5127 112.852C97.1689 112.558 98.2328 112.615 99.2445 112.579C101.121 112.513 103.101 112.45 105.037 112.361C106.262 112.303 107.586 112.296 108.37 111.923C109.433 111.419 110.234 110.401 110.719 109.246C111.205 108.087 111.274 106.688 111.429 104.985C112.212 96.3968 112.824 88.2917 113.615 79.6872C113.686 78.9109 113.724 78.1491 113.943 77.5559C114.183 76.9048 114.648 76.2325 115.8 76.0808Z" fill="#A4A4E4"/>
<path fill-rule="evenodd" clip-rule="evenodd" d="M138.802 76.0809C139.783 75.9514 140.973 76.5526 141.317 77.5012C141.663 78.4624 141.3 79.9735 141.207 81.0535C140.493 89.3878 139.755 97.6632 139.076 105.859C138.971 107.126 138.896 108.257 138.639 109.301C137.932 112.174 136.12 114.723 133.775 115.967C132.955 116.402 131.95 116.689 130.771 116.841C128.519 117.133 125.953 117.12 123.504 117.224C122.32 117.274 120.923 117.488 119.898 117.224C118.901 116.966 118.113 116.117 118.149 114.929C118.179 113.921 118.748 113.196 119.515 112.853C120.187 112.552 121.348 112.61 122.247 112.58C124.216 112.511 126.059 112.454 128.039 112.361C129.154 112.309 130.312 112.297 131.044 112.033C132.097 111.654 132.956 110.726 133.393 109.957C134.481 108.046 134.491 104.782 134.704 102.199C135.357 94.3299 136.01 87.1821 136.671 79.251C136.816 77.526 137.142 76.2995 138.802 76.0809Z" fill="white"/>
<path fill-rule="evenodd" clip-rule="evenodd" d="M100.829 71.6762C100.646 70.1657 99.6401 69.2438 98.4169 69.3758C97.2715 69.4988 96.4974 70.1425 95.7897 70.7089C95.1038 71.2579 94.3928 72.0069 93.9011 72.5553C91.4668 75.2678 89.5255 77.8782 87.5722 80.7163C86.7202 81.9538 85.9329 83.2846 85.143 84.5227C85.0378 84.6876 84.9328 84.892 84.7438 84.9767C82.9315 82.1125 80.827 79.3965 78.8322 76.6852C78.3247 75.9955 77.3046 74.7072 76.5347 73.9473C74.5676 74.6953 73.3128 76.0789 71.3569 76.8572C72.3725 77.8605 72.8127 79.0973 73.2622 79.9896C75.2448 83.9238 76.8538 87.4571 79.075 91.1192C79.8487 92.395 80.6717 93.7812 81.5878 94.9742C81.9317 95.4218 82.2412 95.8977 82.5516 96.0757C83.8509 96.8199 86.0083 95.3622 86.9491 94.6651C88.0713 93.8349 89.0312 92.9108 89.8922 92.0234C92.6002 89.2323 94.8687 86.0541 96.7888 82.8023C97.4241 81.7258 97.9976 80.5737 98.5695 79.3694C99.0998 78.2527 99.6292 77.0881 100.049 75.7666C100.231 75.1931 100.445 74.5143 100.596 73.8388C100.752 73.1397 100.911 72.3576 100.829 71.6762Z" fill="#935E45"/>
<path d="M100.829 71.6762C100.665 70.319 99.8349 69.4396 98.7807 69.3704C98.714 69.8788 98.6252 70.3766 98.5456 70.8149C98.2964 72.1949 97.9168 73.4317 97.5301 74.6202C97.1131 75.9025 96.6874 77.1322 96.1902 78.2939C94.6878 81.8047 92.8263 85.2865 90.4734 88.4376C89.7254 89.4393 88.8827 90.4907 87.8655 91.4692C87.0126 92.2903 85.0384 94.0327 83.639 93.4556C83.3047 93.3175 82.9322 92.8809 82.5294 92.4761C81.4558 91.399 80.4502 90.1165 79.5084 88.9373C77.2788 86.1466 75.3884 83.1655 73.3582 80.1809C75.2483 83.9325 76.9468 87.6113 79.0749 91.1195C79.8487 92.3953 80.6717 93.7812 81.5878 94.9742C81.9317 95.4218 82.2412 95.8977 82.5516 96.0758C83.8508 96.8199 86.0082 95.3619 86.9491 94.6651C88.0713 93.835 89.0309 92.9108 89.8922 92.0234C92.6002 89.2323 94.8687 86.0541 96.7888 82.8019C97.4241 81.7255 97.9976 80.5734 98.5695 79.3691C99.0998 78.2524 99.6292 77.0877 100.049 75.7662C100.232 75.1928 100.446 74.514 100.597 73.8381C100.752 73.1397 100.911 72.3576 100.829 71.6762Z" fill="#5D382E"/>
<path fill-rule="evenodd" clip-rule="evenodd" d="M66.9692 73.2373C66.5531 73.3361 65.1012 73.4024 64.453 73.6707C64.2016 73.7744 63.9349 73.9714 63.9762 74.21C64.0628 74.713 65.2033 74.5562 65.6084 74.5568C66.3094 74.5578 66.7975 74.6016 67.3955 74.5842C66.9334 74.7623 65.5259 74.8183 64.7123 75.1061C64.3735 75.2263 64.0051 75.4285 64.0715 75.7331C64.1549 76.1204 65.1064 76.0986 65.4265 76.1014C66.9666 76.1153 68.6857 76.1433 69.9051 76.4012C71.3052 76.6984 71.8674 76.9776 72.9458 78.3996C73.1509 78.67 76.8697 74.3079 76.7634 74.1923C74.5155 71.7422 72.1633 70.4658 71.6118 70.0295C71.0895 69.6151 69.3842 68.2456 68.7717 68.8516C68.2678 69.3504 70.0777 70.479 70.3853 70.9411C69.4682 70.6667 67.9197 70.4597 66.3255 70.631C65.9069 70.6764 65.0233 70.7276 64.9892 71.1018C64.9415 71.6144 65.6467 71.5996 65.969 71.6566C66.4176 71.7355 66.7418 71.8382 67.1382 71.8362C66.5753 72.0001 65.2683 72.0272 64.6324 72.3144C64.425 72.4084 64.2093 72.6 64.2341 72.7877C64.2914 73.2205 64.9818 73.1223 65.4461 73.1445C66.0798 73.1741 66.4878 73.2369 66.925 73.2482C66.9389 73.2443 66.9543 73.2408 66.9692 73.2373Z" fill="#935E45"/>
<path fill-rule="evenodd" clip-rule="evenodd" d="M67.885 75.1947C67.7494 75.1313 67.5189 74.8952 67.403 74.7191C66.7271 73.6874 66.8826 71.9241 67.4187 71.2109C67.1869 71.9947 66.9753 73.4018 67.885 75.1947Z" fill="#5D382E"/>
<path fill-rule="evenodd" clip-rule="evenodd" d="M70.3781 70.8499C70.4068 72.1862 70.8421 73.1435 71.441 73.9476C70.4377 73.7006 69.8529 71.672 70.3781 70.8499Z" fill="#5D382E"/>
<path fill-rule="evenodd" clip-rule="evenodd" d="M85.2117 84.2445L90.5865 91.6016C91.7856 90.614 105.121 74.258 98.9685 70.356C93.4407 66.8504 85.2117 84.2445 85.2117 84.2445Z" fill="#E488BD"/>
<path fill-rule="evenodd" clip-rule="evenodd" d="M88.5061 93.4679L84.7532 84.9919L85.3057 84.0668L90.5865 91.6016C90.5865 91.6016 89.5065 92.9347 88.5061 93.4679Z" fill="#DB62A1"/>
<path d="M100.582 73.6794C99.8604 74.9274 99.1285 76.1797 98.4606 77.2977C97.1961 79.4138 95.5198 81.7216 94.1973 83.5061C93.4123 84.5662 92.6392 85.6088 91.9308 86.503C90.5926 88.1916 89.2801 89.8515 87.521 91.2428L88.506 93.4679C88.8943 93.2167 89.2669 92.9391 89.613 92.6345C90.0809 92.1989 90.4477 91.7683 90.5533 91.6418C90.5629 91.6292 90.5736 91.6177 90.5829 91.6051L90.5864 91.6015C90.5864 91.6015 90.5881 91.5999 90.5903 91.5974C90.806 91.3749 91.0173 91.153 91.2269 90.9308C93.5337 88.312 100.552 79.1305 100.582 73.6794Z" fill="#B04470"/>
<path fill-rule="evenodd" clip-rule="evenodd" d="M86.0519 134.632L80.4713 133.498L78.0386 143.202L84.4911 144.407L86.0519 134.632Z" fill="#935E45"/>
<path fill-rule="evenodd" clip-rule="evenodd" d="M79.9824 135.448C82.3797 137.88 85.8567 136.253 85.8567 136.253L79.9824 135.448Z" fill="#5D382E"/>
<path fill-rule="evenodd" clip-rule="evenodd" d="M78.6171 139.63C78.8815 139.697 79.8317 139.852 80.1177 140.262C80.4152 140.688 80.2107 141.256 80.099 142.009C81.9051 142.259 82.7078 140.579 85.0262 141.398C84.9853 143.269 84.6067 145.372 84.1916 147.499C79.3816 146.702 74.4231 145.689 69.5544 144.808C69.7438 144.341 69.9595 143.923 70.2139 143.619C70.9906 142.698 72.0541 142.375 73.2346 142.214C74.823 141.998 76.6623 141.871 77.7445 140.782C78.0465 140.478 78.2903 140.089 78.6171 139.63Z" fill="#E488BD"/>
<path fill-rule="evenodd" clip-rule="evenodd" d="M79.1317 141.98C78.9572 142.235 78.3605 141.782 77.8769 141.61C77.5929 141.508 76.8877 141.403 76.8858 141.125C76.8787 140.627 77.9258 140.844 78.3486 141.039C78.7576 141.23 79.389 141.608 79.1317 141.98Z" fill="#B04470"/>
<path fill-rule="evenodd" clip-rule="evenodd" d="M78.2194 142.926C77.9074 143.217 77.2856 142.69 76.8129 142.489C76.565 142.384 76.2813 142.293 76.0347 142.212C75.7983 142.135 75.3459 142.08 75.3968 141.875C75.5072 141.435 76.244 141.536 76.7444 141.69C77.3784 141.882 78.6831 142.495 78.2194 142.926Z" fill="#B04470"/>
<path d="M74.6324 142.026C74.1616 142.098 73.6867 142.154 73.2346 142.214C72.0541 142.375 70.9906 142.698 70.2139 143.62C69.9595 143.923 69.7438 144.342 69.5544 144.809C71.7411 145.204 73.9459 145.627 76.1487 146.043C76.3947 144.054 75.5324 142.787 74.6324 142.026Z" fill="#B04470"/>
<path d="M81.2346 146.987C82.2248 147.164 83.2127 147.338 84.1912 147.499C84.4556 146.151 84.7019 144.813 84.8591 143.536C83.819 143.792 81.9955 144.581 81.2346 146.987Z" fill="#B04470"/>
<path fill-rule="evenodd" clip-rule="evenodd" d="M78.1001 135.193L86.9252 136.391C88.3642 132.092 89.0983 130.373 90.1864 125.651C91.266 120.956 92.2494 115.785 91.6473 110.029C98.3107 110.79 106.987 111.22 113.668 110.231C117.15 109.715 119.975 108.869 121.579 106.452C122.328 105.322 122.806 103.804 123.091 102.118C123.344 100.613 123.212 98.9158 123.091 97.432C123.085 97.3496 122.979 97.2382 122.99 97.1796C123.012 97.0714 123.267 97.1619 123.141 96.9783C120.431 96.9046 117.704 96.7021 114.978 96.5755C112.251 96.4483 109.565 96.0426 106.965 95.9202C106.532 95.8999 105.816 95.8391 105.303 95.869C104.806 95.899 104.464 95.9969 104.044 96.0204C102.584 96.1041 101.215 96.1186 99.8605 96.2219C98.4953 96.3269 97.1808 96.466 95.8806 96.6254C90.6942 97.2627 85.548 97.9224 83.3329 101.614C82.2658 103.393 81.8678 105.864 81.4682 108.517L78.1001 135.193Z" fill="#1E1E77"/>
<path d="M90.8913 100.959C91.1849 100.561 91.7323 100.095 92.1004 99.8502C92.1822 99.7955 92.2694 99.7446 92.3573 99.6944C86.2619 99.6944 89.5936 111.44 89.3296 116.782C89.0533 122.37 88.0731 127.131 86.7587 131.646C86.428 132.787 85.7425 136.045 85.7528 136.231L86.9252 136.391C86.9883 136.313 89.1183 130.283 90.1864 125.651C91.0732 121.798 91.8924 117.622 91.8251 113.067C91.8103 112.073 91.7552 111.061 91.6473 110.029C91.7117 110.037 91.7794 110.044 91.8425 110.051C91.8119 109.992 91.7823 109.933 91.7484 109.879C91.4989 109.475 90.9905 108.975 90.5239 108.87C89.8374 106.2 89.3904 102.986 90.8913 100.959Z" fill="#171458"/>
<path fill-rule="evenodd" clip-rule="evenodd" d="M107.7 132.091L102.083 133.031L103.289 142.962L109.745 141.777L107.7 132.091Z" fill="#935E45"/>
<path fill-rule="evenodd" clip-rule="evenodd" d="M102.391 135.879C105.504 137.527 108.351 135.126 108.351 135.126L102.391 135.879Z" fill="#5D382E"/>
<path fill-rule="evenodd" clip-rule="evenodd" d="M102.549 139.42C102.82 139.389 103.763 139.193 104.177 139.473C104.607 139.764 104.62 140.368 104.785 141.111C106.561 140.698 106.709 138.842 109.166 138.776C109.798 140.537 110.198 142.637 110.573 144.771C105.797 145.75 100.804 146.581 95.9431 147.502C95.9525 146.998 96.0043 146.531 96.1328 146.156C96.5279 145.017 97.4047 144.334 98.4496 143.761C99.8554 142.991 101.527 142.213 102.147 140.809C102.32 140.416 102.409 139.966 102.549 139.42Z" fill="#E488BD"/>
<path fill-rule="evenodd" clip-rule="evenodd" d="M103.871 141.43C103.8 141.731 103.08 141.521 102.567 141.534C102.266 141.541 101.569 141.695 101.468 141.436C101.283 140.974 102.339 140.802 102.804 140.833C103.253 140.864 103.978 140.99 103.871 141.43Z" fill="#B04470"/>
<path fill-rule="evenodd" clip-rule="evenodd" d="M103.359 142.64C103.172 143.024 102.402 142.754 101.889 142.736C101.62 142.727 101.323 142.744 101.063 142.756C100.815 142.769 100.372 142.879 100.347 142.67C100.292 142.219 101.016 142.05 101.539 142.014C102.199 141.966 103.637 142.071 103.359 142.64Z" fill="#B04470"/>
<path d="M99.6872 143.085C99.2734 143.321 98.85 143.543 98.4491 143.761C97.4045 144.334 96.5274 145.017 96.1323 146.156C96.0035 146.53 95.952 146.998 95.9426 147.502C98.1258 147.088 100.336 146.693 102.542 146.293C102.059 144.347 100.8 143.473 99.6872 143.085Z" fill="#B04470"/>
<path d="M107.628 145.351C108.616 145.162 109.601 144.97 110.572 144.77C110.336 143.417 110.087 142.08 109.776 140.831C108.897 141.443 107.477 142.832 107.628 145.351Z" fill="#B04470"/>
<path fill-rule="evenodd" clip-rule="evenodd" d="M125.006 103.479C124.614 101.114 123.758 99.0137 123.141 96.978C122.944 96.8985 123.038 97.0627 122.94 97.0836C120.43 97.3654 117.746 97.2507 114.928 97.28C112.188 97.309 109.405 97.4317 106.714 97.5322C104.106 97.6297 101.287 97.6941 98.7012 97.9865C97.4956 98.1218 96.2894 98.4025 95.1743 98.6914C94.0158 98.9915 92.9055 99.3132 92.1002 99.8502C91.7321 100.095 91.1844 100.561 90.8911 100.959C88.9146 103.628 90.3157 108.357 91.1934 111.189C92.2026 114.444 93.5637 117.392 94.6198 120.41C96.7808 126.579 98.6043 130.505 100.705 136.158C101.246 136.07 101.792 136.009 102.335 135.944C103.683 135.78 105.037 135.655 106.381 135.455C107.482 135.291 108.576 135.099 109.665 134.888C109.352 130.763 109.127 128.022 108.075 124.188C106.861 119.764 105.064 115.887 103.136 112.297C106.475 113.102 110.602 113.254 114.675 113.254C118.675 113.254 122.394 112.722 124.2 110.281C125.425 108.624 125.409 105.913 125.006 103.479Z" fill="#2F2FA7"/>
<path d="M125.006 103.479C124.815 102.328 124.514 101.241 124.185 100.192C124.322 101.039 124.401 101.95 124.401 102.823C124.401 104.796 124.183 106.379 123.343 107.61C122.794 108.414 122.063 109.18 121.276 109.676C119.091 111.056 114.543 110.782 111.048 110.684C108.509 110.613 105.64 110.378 102.733 110.533C101.821 110.581 100.759 110.751 100.566 111.188C100.323 111.74 100.728 112.524 100.969 113.053C102.68 116.789 104.414 120.692 105.656 124.944C106.794 128.843 107.432 131.292 107.978 135.196C108.541 135.098 109.104 134.996 109.665 134.887C109.352 130.763 109.126 128.021 108.075 124.188C106.861 119.764 105.063 115.886 103.136 112.296C106.474 113.101 110.601 113.254 114.675 113.254C118.675 113.254 122.394 112.721 124.2 110.28C125.424 108.624 125.408 105.913 125.006 103.479Z" fill="#1E1E77"/>
<path fill-rule="evenodd" clip-rule="evenodd" d="M106.687 97.5322C105.818 92.7402 102.808 87.838 101.075 85.5618C100.869 85.2907 100.509 84.7362 100.28 84.6712C100.042 84.6042 99.7617 84.685 99.5479 84.6712C98.8994 84.6283 98.3855 84.4229 97.9257 84.1621C97.3361 83.8275 96.7983 83.3838 96.5259 82.7301C96.1547 81.8408 96.4187 80.0231 96.3669 78.881C96.307 77.5685 96.1827 76.2512 96.1759 74.9677C96.1647 72.8905 96.8186 71.5377 97.6713 70.2594C98.3874 69.1852 99.1074 68.3925 100.344 67.7774C101.063 67.4194 101.914 67.1895 102.825 67.1412C104.346 67.0603 105.678 67.4332 106.866 67.9043C108.064 68.3799 109.089 68.9221 110.015 69.5587C111.958 70.8944 113.63 72.3514 114.978 74.2039C123.547 85.9791 122.738 95.9074 123.114 96.9777C123.17 97.1396 108.548 97.8274 106.687 97.5322Z" fill="#D967A2"/>
<path d="M114.851 74.826C120.957 85.4623 120.591 94.0797 120.478 97.1947C122.069 97.1039 123.129 97.0218 123.113 96.978C122.737 95.9077 123.547 85.9795 114.978 74.2042C113.984 72.8393 112.814 71.6888 111.49 70.6432C112.812 71.9013 113.946 73.2508 114.851 74.826Z" fill="#B04470"/>
<path d="M93.2795 60.952L93.2554 60.9491L93.2409 60.9691C93.2186 61 93.1926 61.0302 93.1613 61.0618C93.1298 61.0933 93.1001 61.1268 93.0712 61.1603L92.9839 61.2582L93.0689 61.2634C94.3772 61.3429 95.4108 62.4313 95.4221 63.7405C95.4337 65.1222 94.3192 66.2557 92.9375 66.2672C91.5562 66.2788 90.4224 65.1644 90.4108 63.7827C90.4015 62.6824 91.1025 61.7167 92.1622 61.377C92.2968 61.3039 92.317 61.2083 92.2932 61.1484C92.2681 61.0834 92.1818 61.0328 92.045 61.0689C90.8594 61.4527 90.0698 62.5446 90.0804 63.7856C90.0936 65.3495 91.3765 66.6108 92.9404 66.5976C94.5044 66.5844 95.766 65.3012 95.7528 63.7376C95.7405 62.3298 94.6776 61.1323 93.2795 60.952Z" fill="white"/>
<path d="M103.087 61.4711C103.087 61.4711 104.033 60.2497 104.206 58.2472C103.709 56.1452 103.529 52.4138 101.84 51.5737C99.3547 50.3385 95.7941 51.3219 94.2755 53.0726C92.9727 54.578 91.914 57.7986 92.028 60.9301C92.1429 64.095 93.4679 66.2057 97.2469 65.2391C97.625 66.4794 98.2178 68.5283 98.372 68.9743C98.6975 69.9245 102.959 71.2138 104.874 67.3707C104.882 67.5189 103.163 62.2667 103.087 61.4711Z" fill="#935E45"/>
<path fill-rule="evenodd" clip-rule="evenodd" d="M111.137 57.1801C111.843 57.0239 112.369 56.3925 112.363 55.6403C112.355 54.7764 111.649 54.0818 110.785 54.0892C110.652 54.0902 110.525 54.1134 110.401 54.1456C110.324 53.8007 110.107 53.4813 109.77 53.3151C109.783 53.2694 109.793 53.2147 109.799 53.157C110.251 52.8002 110.541 52.2467 110.536 51.6256C110.527 50.5598 109.656 49.7032 108.59 49.7123C108.12 49.7161 107.69 49.8887 107.357 50.1718C107.129 49.6005 106.571 49.1974 105.918 49.2032C105.907 47.9129 104.853 46.8754 103.562 46.8864C102.453 46.8957 101.533 47.6772 101.303 48.7157C101.246 48.7179 101.19 48.7221 101.135 48.7292C101.037 48.1547 100.537 47.7184 99.9359 47.7236C99.9014 47.7239 99.8693 47.7313 99.8358 47.7345C99.6352 46.6381 98.6727 45.8106 97.5203 45.8202C96.591 45.828 95.7953 46.3786 95.4256 47.1675C95.2543 46.7012 94.8087 46.3686 94.2835 46.3731C93.615 46.3789 93.0776 46.9253 93.0834 47.5935C93.086 47.9029 93.208 48.1811 93.4006 48.3933C93.4061 48.4722 93.418 48.5518 93.4431 48.6323C93.0912 48.5015 92.5937 48.3231 92.0865 48.6828C91.7806 48.9002 91.6393 49.3201 91.7107 49.757C91.477 49.6179 91.2065 49.5345 90.9144 49.5368C90.0643 49.5439 89.3811 50.2387 89.3885 51.0888C89.3917 51.4575 89.5292 51.7901 89.7478 52.0532C88.9129 52.0777 88.2463 52.7626 88.2534 53.6017C88.2544 53.7038 88.2663 53.8033 88.2859 53.8995C87.2514 53.9433 86.4296 54.7983 86.4383 55.8415C86.447 56.8842 87.2816 57.7243 88.3159 57.752C88.2885 57.884 88.274 58.0202 88.2753 58.1606C88.2843 59.2264 89.1557 60.0829 90.2212 60.0739C90.8207 60.0687 91.7227 59.7616 92.073 59.3298C92.073 59.3298 92.2224 58.1355 92.3277 57.5494C92.545 56.547 92.7608 55.8293 93.0242 55.3112C93.455 55.0829 93.7448 54.7516 93.8124 54.444C93.9277 54.5191 94.062 54.5709 94.2117 54.5841C94.5566 54.6144 94.8724 54.4457 95.0299 54.1787C95.1484 54.3355 95.3297 54.4489 95.5503 54.4682C95.7847 54.4888 95.9949 54.3957 96.1447 54.2463C96.43 54.482 96.969 54.6884 97.612 54.7773C98.353 54.8797 99.0156 54.7976 99.3267 54.5928C99.4513 54.844 99.6883 55.0372 99.9858 55.1099C99.8261 55.2603 99.716 55.458 99.6928 55.6854C99.6397 56.207 100.048 56.6694 100.606 56.7187C100.666 56.7238 100.724 56.7219 100.781 56.7177C100.701 56.8159 100.638 56.928 100.625 57.0603C100.588 57.4184 100.857 57.7297 101.23 57.7903C101.043 59.3713 100.365 60.9298 100.628 60.9584C101.323 60.7862 101.926 58.687 102.438 58.7022C102.721 58.7105 102.956 58.8751 103.061 59.0145C103.85 60.0568 103.378 61.3377 102.153 61.6185C101.347 62.3878 101.81 63.2897 102.17 63.4613C102.428 63.5843 102.702 63.5019 102.992 63.394C103.356 63.7164 103.862 64.0023 104.382 63.7888C104.412 63.7766 104.438 63.7589 104.467 63.7444C104.723 64.2937 105.28 64.674 105.925 64.6685C106.808 64.6611 107.517 63.9395 107.51 63.0572C107.509 62.9642 107.496 62.8743 107.48 62.7858C107.732 62.9548 108.036 63.053 108.363 63.0501C109.189 63.0431 109.853 62.3952 109.904 61.5831C109.914 61.5831 109.925 61.5844 109.936 61.5844C111.246 61.5734 112.299 60.5018 112.288 59.1913C112.281 58.3357 111.82 57.5916 111.137 57.1801Z" fill="#171458"/>
<path d="M97.2205 49.2718C97.3941 49.311 97.548 49.3877 97.6807 49.4888C97.5239 49.2322 97.2727 49.0332 96.9581 48.9514C96.3112 48.7836 95.6311 49.1671 95.4824 49.8188C95.3397 50.4442 95.5571 50.8315 95.5603 50.9152C95.2544 50.6979 94.82 50.3962 94.2372 50.6122C93.8856 50.7427 93.6402 51.1117 93.5958 51.5522C93.4061 51.3574 93.1666 51.2063 92.8839 51.1329C92.0611 50.9194 91.221 51.4134 91.0076 52.2361C90.9219 52.5661 91.0278 53.1 91.3875 53.4339C91.3341 53.2153 91.3267 52.9828 91.3795 52.7481C91.5662 51.9189 92.3899 51.3979 93.2191 51.5847C93.5037 51.6488 93.7481 51.7917 93.9439 51.9804C93.9738 51.5386 94.2073 51.1619 94.5544 51.0202C95.1301 50.7855 95.5738 51.0727 95.8868 51.2801C95.8807 51.1964 95.7319 50.8686 95.7732 50.1866C95.8144 49.5194 96.5685 49.1246 97.2205 49.2718Z" fill="#2B2BAB"/>
<path d="M103.283 50.2329C104.513 50.6219 105.195 51.9347 104.806 53.1651C105.429 53.3618 105.834 53.9176 105.875 54.5316C106.279 54.3655 106.741 54.3342 107.19 54.4762C108.206 54.7976 108.769 55.8818 108.448 56.898C108.385 57.0983 108.29 57.2792 108.173 57.4409C108.524 57.2062 108.801 56.8571 108.938 56.4234C109.26 55.4071 108.696 54.323 107.68 54.0016C107.231 53.8596 106.769 53.8908 106.366 54.057C106.325 53.4429 105.919 52.8872 105.297 52.6904C105.686 51.4601 105.004 50.1473 103.773 49.7583C102.813 49.4546 101.805 49.8063 101.223 50.5601C101.8 50.1482 102.555 50.0027 103.283 50.2329Z" fill="#2B2BAB"/>
<path fill-rule="evenodd" clip-rule="evenodd" d="M97.2471 65.2391L97.7574 66.947C99.4409 66.0025 100.229 63.5328 100.229 63.5328C100.229 63.5328 97.9751 64.8817 97.2471 65.2391Z" fill="#5D382E"/>
<path fill-rule="evenodd" clip-rule="evenodd" d="M104.138 60.1502C103.896 60.8663 102.836 61.9096 102.208 61.6974C101.579 61.4852 101.619 60.0984 101.862 59.3803C102.104 58.6642 102.81 58.2555 103.439 58.4671C104.066 58.6803 104.38 59.4321 104.138 60.1502Z" fill="#935E45"/>
<path d="M103.685 60.8641L103.661 60.8612L103.646 60.8811C103.624 60.9121 103.598 60.9423 103.567 60.9739C103.535 61.0054 103.505 61.0389 103.476 61.0724L103.389 61.1703L103.474 61.1754C104.782 61.255 105.816 62.3433 105.827 63.6526C105.839 65.0343 104.725 66.1677 103.343 66.1793C101.961 66.1909 100.828 65.0765 100.816 63.6948C100.807 62.5945 101.508 61.6288 102.567 61.2891C102.702 61.216 102.722 61.1204 102.698 61.0605C102.673 60.9955 102.587 60.9449 102.45 60.981C101.265 61.3648 100.475 62.4567 100.486 63.6977C100.499 65.2613 101.782 66.5229 103.346 66.5097C104.909 66.4965 106.171 65.2133 106.158 63.6497C106.146 62.2419 105.083 61.0444 103.685 60.8641Z" fill="white"/>
<path d="M94.3247 60.8238C94.3138 60.8232 94.3022 60.8177 94.2916 60.8151C93.9976 60.6986 93.8083 60.5337 93.7133 60.3106C93.5239 59.8594 93.7651 59.2863 94.0704 58.5628C94.2649 58.1029 94.4838 57.5794 94.6274 57.0043C94.6567 56.8993 94.7633 56.8333 94.868 56.8607C94.9729 56.8884 95.0396 56.9949 95.0132 57.1002C94.8609 57.7053 94.6348 58.243 94.4352 58.716C94.1757 59.3301 93.9528 59.8601 94.0771 60.1576C94.129 60.2764 94.2452 60.3718 94.4336 60.4452C94.5363 60.487 94.5852 60.5994 94.5469 60.7018C94.5115 60.7929 94.4178 60.8435 94.3247 60.8238Z" fill="#5D382E"/>
<path d="M94.2626 63.1139C93.4937 62.999 93.4483 61.8842 93.4979 61.7876C93.5445 61.6913 93.6643 61.6491 93.7625 61.6978C94.8026 62.2107 95.2821 61.6424 95.3036 61.6179C95.3713 61.5335 95.5174 61.4997 95.5793 61.587C95.8449 61.9473 95.1748 63.292 94.2626 63.1139Z" fill="#5D382E"/>
<path fill-rule="evenodd" clip-rule="evenodd" d="M92.2692 56.4108C92.2763 56.5696 92.7815 56.6745 93.3984 56.6436C94.0148 56.6118 94.5074 56.4569 94.5006 56.2972C94.4913 56.1365 93.9858 56.0302 93.3691 56.0631C92.7538 56.094 92.2595 56.2482 92.2692 56.4108Z" fill="#171458"/>
<path fill-rule="evenodd" clip-rule="evenodd" d="M92.742 58.0144C92.7014 58.2858 92.8328 58.5318 93.0324 58.5583C93.2324 58.5876 93.4259 58.3879 93.4652 58.1152C93.5025 57.8415 93.3718 57.5977 93.1738 57.5707C92.9732 57.5414 92.7797 57.7401 92.742 58.0144Z" fill="#171458"/>
<path fill-rule="evenodd" clip-rule="evenodd" d="M95.5794 56.3822C95.524 56.5371 95.962 56.8362 96.5602 57.0494C97.1547 57.2654 97.6866 57.3115 97.7407 57.1572C97.7961 57.0011 97.3588 56.7009 96.7609 56.4859C96.1635 56.2724 95.6355 56.2263 95.5794 56.3822Z" fill="#171458"/>
<path fill-rule="evenodd" clip-rule="evenodd" d="M95.9641 58.3344C95.922 58.6236 96.0598 58.8876 96.2742 58.9173C96.4877 58.9469 96.6925 58.7337 96.735 58.4433C96.7756 58.1522 96.6358 57.8911 96.4227 57.8614C96.2101 57.8312 96.0034 58.043 95.9641 58.3344Z" fill="#171458"/>
<path d="M100.656 71.2138C99.4825 71.2138 98.4347 71.1101 97.5073 70.5054L98.17 68.463C99.1444 69.2757 100.713 69.5236 102.087 69.058C102.856 68.7975 104.168 68.093 104.488 66.274L106.163 67.6763C105.62 69.2982 104.402 70.3032 102.703 70.8777C102.035 71.1047 101.34 71.2138 100.656 71.2138Z" fill="#B04470"/>
<path fill-rule="evenodd" clip-rule="evenodd" d="M110.616 72.2185C110.311 70.1866 109.051 67.5337 106.596 69.2039C105.871 69.6975 105.366 70.4069 104.99 71.132C103.885 73.2604 103.037 75.4954 102.401 77.7011C101.643 80.3312 100.999 83.0499 100.599 85.736C100.543 86.1156 100.515 86.5085 100.378 86.8678C99.1659 84.969 97.977 82.7517 96.9714 80.5792C96.4756 79.4226 94.6666 74.9419 94.0998 73.3046C93.642 71.9818 92.8772 69.4998 91.4588 68.9965C91.055 68.8535 90.317 68.7863 89.8002 68.7518C88.7949 68.6861 87.0004 68.4965 86.7898 68.9302C86.2685 70.005 88.3625 70.234 89.0013 70.4413C88.668 70.6571 88.4101 70.9485 88.3328 71.3207C88.2935 71.5091 88.3257 71.7573 88.2504 71.9425C88.2076 72.0465 88.0124 72.1254 87.9023 72.3382C87.6949 72.7372 87.6244 73.6224 87.7944 74.1015C87.9677 74.5871 88.7076 74.8614 88.9144 75.2327C89.0873 75.545 88.9978 75.933 89.0947 76.2C89.2772 76.7071 89.5854 77.2371 89.984 77.5665C90.1789 77.7279 90.5121 77.7652 90.6644 77.9616C90.7684 78.0946 92.0152 84.3089 92.3285 85.3667C93.0224 87.7089 93.7733 89.7964 94.6933 92.0053C95.6764 94.3656 97.088 96.8453 98.7383 97.68C99.4624 98.0457 100.596 98.2135 101.674 97.83C103.284 97.2575 104.208 96.2232 105.019 95.1262C107.332 91.9957 108.304 88.614 109.183 85.0756C109.746 82.8052 110.239 80.4848 110.552 77.9108C110.78 76.0332 110.912 74.1926 110.616 72.2185Z" fill="#935E45"/>
<path fill-rule="evenodd" clip-rule="evenodd" d="M86.7148 69.3401C86.8697 69.438 87.06 69.5275 87.2626 69.6167C88.102 69.986 89.2158 69.8901 90.4198 70.035C89.901 70.0742 89.3456 70.1924 89.0014 70.4417C88.1571 70.3161 86.8205 70.0366 86.7148 69.3401Z" fill="#5D382E"/>
<path fill-rule="evenodd" clip-rule="evenodd" d="M90.0707 70.9301C89.4728 70.915 88.8835 70.9098 88.4192 71.0554C88.6237 70.4861 89.5835 70.6873 90.0707 70.9301Z" fill="#5D382E"/>
<path fill-rule="evenodd" clip-rule="evenodd" d="M89.8022 71.7158C89.297 71.7715 88.7789 71.8111 88.311 71.9119C88.4875 71.4585 89.2593 71.5484 89.8022 71.7158Z" fill="#5D382E"/>
<path fill-rule="evenodd" clip-rule="evenodd" d="M91.1811 77.9133C91.4107 78.074 91.7642 78.2907 91.8544 78.3596C90.7068 78.4955 89.9623 77.9333 89.5222 77.2474C88.9519 76.3578 89.0185 75.0778 88.8179 74.0587C88.7964 73.9498 89.8915 77.0095 91.1811 77.9133Z" fill="#5D382E"/>
<path fill-rule="evenodd" clip-rule="evenodd" d="M100.562 86.0155L107.189 91.3491C107.938 90.0392 114.776 70.3599 108.444 68.5528C102.755 66.929 100.562 86.0155 100.562 86.0155Z" fill="#E488BD"/>
<path fill-rule="evenodd" clip-rule="evenodd" d="M105.933 93.7673L100.378 86.8682L100.592 85.8175L107.189 91.3491C107.189 91.3491 106.638 92.9507 105.933 93.7673Z" fill="#DB62A1"/>
<path d="M103.825 92.9556C103.247 93.768 101.981 95.4559 100.435 95.6865C99.4724 95.8307 98.4324 94.8158 97.7407 94.0159C95.4954 91.4219 93.6423 87.6226 92.06 84.2377C92.0555 84.2274 92.051 84.2171 92.0461 84.2072C92.1662 84.7394 92.2661 85.1554 92.3285 85.367C93.0224 87.7092 93.7734 89.7967 94.6933 92.0057C95.6764 94.3659 97.088 96.8457 98.7383 97.6803C99.1849 97.9063 99.7873 98.0561 100.436 98.048C100.615 98.0451 100.796 98.0293 100.979 98.0032C101.21 97.9681 101.443 97.9128 101.674 97.8303C103.284 97.2578 104.208 96.2236 105.019 95.1265C105.35 94.6789 105.653 94.2255 105.932 93.7677L104.474 91.9567C104.273 92.2932 104.059 92.6268 103.825 92.9556Z" fill="#5D382E"/>
<path d="M110.743 71.2138C110.474 72.6238 110.197 74.0413 109.938 75.3109C109.446 77.7147 108.657 80.4275 108.023 82.5337C107.648 83.7847 107.278 85.0154 106.921 86.0847C106.248 88.1043 105.589 90.0891 104.474 91.9561L105.932 93.767C106.194 93.408 106.435 93.0287 106.646 92.632C106.924 92.073 107.117 91.55 107.172 91.3971C107.177 91.3823 107.183 91.3681 107.187 91.353L107.189 91.3485C107.189 91.3485 107.19 91.3465 107.191 91.3433C107.314 91.0648 107.433 90.7885 107.549 90.5126C108.791 87.309 112.231 76.4067 110.743 71.2138Z" fill="#B04470"/>
</svg>
