<svg width="162" height="139" viewBox="0 0 162 139" fill="none" xmlns="http://www.w3.org/2000/svg">
<g opacity="0.45">
<path d="M125.917 138.345C142.761 138.345 156.416 125.144 156.416 108.861C156.416 92.5769 142.761 79.3764 125.917 79.3764C109.073 79.3764 95.418 92.5769 95.418 108.861C95.418 125.144 109.073 138.345 125.917 138.345Z" fill="#DED7FF"/>
<path d="M58.6343 100.462C87.3204 100.462 110.575 77.9812 110.575 50.2496C110.575 22.5181 87.3204 0.0372009 58.6343 0.0372009C29.9483 0.0372009 6.6936 22.5181 6.6936 50.2496C6.6936 77.9812 29.9483 100.462 58.6343 100.462Z" fill="#DED7FF"/>
</g>
<path d="M153.426 45.218L151.876 46.5904C151.824 46.6361 151.779 46.6858 151.737 46.7376C150.753 46.0739 149.67 45.5972 148.543 45.3095C148.558 45.2441 148.569 45.1773 148.571 45.1086L148.654 43.078C148.679 42.4461 148.168 41.9118 147.515 41.8872L145.414 41.8075C144.761 41.7828 144.208 42.2767 144.183 42.9086L144.1 44.9392C144.097 45.0075 144.103 45.0747 144.112 45.1408C142.997 45.3367 141.907 45.7148 140.894 46.2766C140.858 46.2215 140.817 46.1683 140.77 46.1183L139.35 44.6194C138.909 44.153 138.157 44.1208 137.674 44.5479L136.124 45.9203C135.641 46.3473 135.608 47.0743 136.05 47.5406L137.47 49.0395C137.517 49.0892 137.568 49.1331 137.622 49.1732C136.936 50.1252 136.442 51.172 136.145 52.2613C136.077 52.247 136.008 52.2363 135.937 52.2338L133.837 52.1541C133.522 52.142 133.221 52.2485 132.989 52.454C132.988 52.455 132.986 52.4565 132.985 52.4579C132.753 52.6659 132.617 52.9489 132.605 53.2552L132.523 55.2859C132.497 55.9177 133.008 56.452 133.662 56.4767L135.762 56.5564C135.833 56.5592 135.902 56.5531 135.971 56.5439C136.173 57.6228 136.564 58.676 137.146 59.6552C137.089 59.6903 137.034 59.7296 136.982 59.7753L135.431 61.1477C134.949 61.5747 134.916 62.3017 135.358 62.768L136.777 64.2669C137.219 64.7333 137.971 64.7655 138.453 64.338L140.004 62.9657C140.056 62.9199 140.101 62.8703 140.142 62.8184C141.127 63.4825 142.21 63.9592 143.337 64.2469C143.323 64.3119 143.311 64.3784 143.308 64.4474L143.226 66.478C143.213 66.7843 143.325 67.0767 143.54 67.3015C143.755 67.5266 144.048 67.6571 144.364 67.6688L146.465 67.7485C146.79 67.7607 147.089 67.6449 147.312 67.448C147.538 67.2486 147.684 66.9655 147.697 66.6474L147.78 64.6168C147.782 64.5482 147.776 64.481 147.767 64.4152C148.883 64.2194 149.972 63.8413 150.985 63.2795C151.022 63.3345 151.062 63.3881 151.11 63.4378L152.529 64.9366C152.971 65.403 153.723 65.4352 154.205 65.0081L155.756 63.6358C156.238 63.2087 156.272 62.4818 155.829 62.0154L154.41 60.5165C154.363 60.4665 154.311 60.4229 154.258 60.3829C154.944 59.4308 155.438 58.3837 155.735 57.294C155.802 57.3083 155.871 57.3194 155.943 57.3222L158.043 57.4019C158.368 57.4141 158.668 57.2983 158.89 57.1014C159.116 56.9019 159.262 56.6189 159.275 56.3008L159.358 54.2702C159.383 53.6383 158.872 53.104 158.219 53.0794L156.118 52.9997C156.048 52.9968 155.978 53.0022 155.909 53.0111C155.707 51.9325 155.316 50.8797 154.734 49.9004C154.791 49.8654 154.847 49.8261 154.898 49.7804L156.449 48.408C156.931 47.9809 156.964 47.254 156.522 46.7876L155.103 45.2888C154.66 44.8227 153.909 44.7909 153.426 45.218ZM149.702 58.7507C147.436 60.7563 143.905 60.6062 141.83 58.4158C139.755 56.2254 139.91 52.8117 142.176 50.8057C144.442 48.8001 147.973 48.9502 150.048 51.1406C152.123 53.3313 151.968 56.7451 149.702 58.7507Z" stroke="#0F1B63" stroke-miterlimit="10"/>
<path d="M30.8662 123.962H30.0492C29.8984 123.962 29.776 123.844 29.776 123.698C29.776 123.552 29.8984 123.434 30.0492 123.434H30.8662C31.017 123.434 31.1394 123.552 31.1394 123.698C31.1394 123.844 31.017 123.962 30.8662 123.962ZM28.2289 123.962H26.4082C26.2574 123.962 26.135 123.844 26.135 123.698C26.135 123.552 26.2574 123.434 26.4082 123.434H28.2289C28.3797 123.434 28.5021 123.552 28.5021 123.698C28.5021 123.844 28.3797 123.962 28.2289 123.962ZM24.5875 123.962H22.7668C22.616 123.962 22.4936 123.844 22.4936 123.698C22.4936 123.552 22.616 123.434 22.7668 123.434H24.5875C24.7383 123.434 24.8607 123.552 24.8607 123.698C24.8607 123.844 24.7383 123.962 24.5875 123.962ZM20.9461 123.962H19.1254C18.9746 123.962 18.8522 123.844 18.8522 123.698C18.8522 123.552 18.9746 123.434 19.1254 123.434H20.9461C21.0969 123.434 21.2193 123.552 21.2193 123.698C21.2193 123.844 21.0969 123.962 20.9461 123.962ZM17.3047 123.962H15.484C15.3332 123.962 15.2108 123.844 15.2108 123.698C15.2108 123.552 15.3332 123.434 15.484 123.434H17.3047C17.4555 123.434 17.5779 123.552 17.5779 123.698C17.5779 123.844 17.4555 123.962 17.3047 123.962ZM13.6633 123.962H11.8426C11.6918 123.962 11.5694 123.844 11.5694 123.698C11.5694 123.552 11.6918 123.434 11.8426 123.434H13.6633C13.8141 123.434 13.9365 123.552 13.9365 123.698C13.9365 123.844 13.8141 123.962 13.6633 123.962ZM10.0219 123.96C10.0193 123.96 10.0171 123.96 10.0145 123.959C9.37977 123.942 8.75278 123.842 8.15093 123.661C8.00676 123.618 7.92653 123.47 7.97127 123.331C8.016 123.192 8.16757 123.114 8.31286 123.157C8.86738 123.323 9.44483 123.416 10.0297 123.432C10.1801 123.436 10.2992 123.557 10.2951 123.703C10.291 123.846 10.1698 123.96 10.0219 123.96ZM6.58901 122.928C6.538 122.928 6.48661 122.914 6.44077 122.885C5.91138 122.553 5.42968 122.152 5.01009 121.693C4.91065 121.584 4.92137 121.417 5.03412 121.32C5.14651 121.224 5.31915 121.234 5.4197 121.343C5.80639 121.766 6.24964 122.136 6.738 122.442C6.86443 122.521 6.90066 122.685 6.81822 122.807C6.76609 122.885 6.67885 122.928 6.58901 122.928ZM4.20935 120.322C4.10769 120.322 4.01009 120.267 3.96277 120.173C3.68773 119.621 3.4918 119.036 3.38089 118.435C3.35464 118.292 3.45335 118.155 3.60196 118.129C3.74947 118.105 3.89216 118.199 3.91841 118.343C4.02044 118.897 4.20085 119.435 4.45482 119.943C4.52026 120.074 4.46333 120.232 4.32765 120.295C4.28957 120.314 4.24928 120.322 4.20935 120.322ZM3.54688 116.899C3.39605 116.899 3.27368 116.781 3.27368 116.635V114.875C3.27368 114.729 3.39605 114.611 3.54688 114.611C3.69771 114.611 3.82008 114.729 3.82008 114.875V116.635C3.82008 116.781 3.69771 116.899 3.54688 116.899ZM3.54688 113.379C3.39605 113.379 3.27368 113.261 3.27368 113.115V111.355C3.27368 111.209 3.39605 111.091 3.54688 111.091C3.69771 111.091 3.82008 111.209 3.82008 111.355V113.115C3.82008 113.261 3.69771 113.379 3.54688 113.379ZM3.54688 109.859C3.39605 109.859 3.27368 109.74 3.27368 109.595V107.834C3.27368 107.689 3.39605 107.57 3.54688 107.57C3.69771 107.57 3.82008 107.689 3.82008 107.834V109.595C3.82008 109.74 3.69771 109.859 3.54688 109.859ZM3.54688 106.338C3.39605 106.338 3.27368 106.22 3.27368 106.074V104.314C3.27368 104.168 3.39605 104.05 3.54688 104.05C3.69771 104.05 3.82008 104.168 3.82008 104.314V106.074C3.82008 106.22 3.69771 106.338 3.54688 106.338ZM3.54688 102.818C3.39605 102.818 3.27368 102.7 3.27368 102.554V100.794C3.27368 100.648 3.39605 100.53 3.54688 100.53C3.69771 100.53 3.82008 100.648 3.82008 100.794V102.554C3.82008 102.7 3.69771 102.818 3.54688 102.818ZM3.54688 99.298C3.39605 99.298 3.27368 99.1797 3.27368 99.0339V97.2738C3.27368 97.128 3.39605 97.0097 3.54688 97.0097C3.69771 97.0097 3.82008 97.128 3.82008 97.2738V99.0339C3.82008 99.1801 3.69771 99.298 3.54688 99.298ZM3.54688 95.7778C3.39605 95.7778 3.27368 95.6595 3.27368 95.5137V93.7536C3.27368 93.6078 3.39605 93.4895 3.54688 93.4895C3.69771 93.4895 3.82008 93.6078 3.82008 93.7536V95.5137C3.82008 95.6599 3.69771 95.7778 3.54688 95.7778ZM3.54688 92.2579C3.39605 92.2579 3.27368 92.1396 3.27368 91.9938V90.2337C3.27368 90.0879 3.39605 89.9696 3.54688 89.9696C3.69771 89.9696 3.82008 90.0879 3.82008 90.2337V91.9938C3.82008 92.1396 3.69771 92.2579 3.54688 92.2579ZM3.54688 88.7377C3.39605 88.7377 3.27368 88.6194 3.27368 88.4736V86.7135C3.27368 86.5677 3.39605 86.4494 3.54688 86.4494C3.69771 86.4494 3.82008 86.5677 3.82008 86.7135V88.4736C3.82008 88.6194 3.69771 88.7377 3.54688 88.7377ZM3.54688 85.2175C3.39605 85.2175 3.27368 85.0992 3.27368 84.9534V83.1932C3.27368 83.0474 3.39605 82.9291 3.54688 82.9291C3.69771 82.9291 3.82008 83.0474 3.82008 83.1932V84.9534C3.82008 85.0992 3.69771 85.2175 3.54688 85.2175ZM3.54688 81.6972C3.39605 81.6972 3.27368 81.5789 3.27368 81.4331V79.673C3.27368 79.5272 3.39605 79.4089 3.54688 79.4089C3.69771 79.4089 3.82008 79.5272 3.82008 79.673V81.4331C3.82008 81.5789 3.69771 81.6972 3.54688 81.6972ZM3.54688 78.177C3.39605 78.177 3.27368 78.0587 3.27368 77.9129V76.1528C3.27368 76.007 3.39605 75.8887 3.54688 75.8887C3.69771 75.8887 3.82008 76.007 3.82008 76.1528V77.9129C3.82008 78.0587 3.69771 78.177 3.54688 78.177ZM3.54688 74.6568C3.39605 74.6568 3.27368 74.5385 3.27368 74.3927V74.2147C3.27368 73.6632 3.34318 73.1147 3.47997 72.585C3.51656 72.4435 3.66777 72.3577 3.8112 72.3928C3.9576 72.4281 4.04669 72.5714 4.01009 72.7126C3.8844 73.2004 3.82008 73.7058 3.82008 74.2143V74.3923C3.82008 74.5385 3.69771 74.6568 3.54688 74.6568ZM4.42155 71.2856C4.37571 71.2856 4.32913 71.2745 4.28625 71.2509C4.15538 71.1787 4.10991 71.0172 4.18459 70.8907C4.49771 70.3607 4.88514 69.8735 5.33578 69.4429C5.44336 69.3407 5.616 69.3414 5.7221 69.445C5.8282 69.5487 5.82746 69.7159 5.71989 69.8185C5.30473 70.2152 4.94761 70.6641 4.65926 71.1523C4.60861 71.2377 4.51656 71.2856 4.42155 71.2856ZM6.9794 68.8421C6.88328 68.8421 6.79012 68.7932 6.74058 68.7063C6.66739 68.5788 6.71471 68.4183 6.84669 68.3472C7.40047 68.0498 7.99308 67.8279 8.6086 67.6867C8.75685 67.6538 8.90213 67.7407 8.93725 67.8829C8.972 68.0248 8.88143 68.167 8.73466 68.2006C8.16794 68.3304 7.62191 68.5348 7.11212 68.8089C7.06997 68.8314 7.0245 68.8421 6.9794 68.8421ZM52.3534 68.0348H50.5327C50.3819 68.0348 50.2595 67.9165 50.2595 67.7707C50.2595 67.6249 50.3819 67.5066 50.5327 67.5066H52.3534C52.5042 67.5066 52.6266 67.6249 52.6266 67.7707C52.6266 67.9165 52.5042 68.0348 52.3534 68.0348ZM48.7124 68.0348H46.8917C46.7408 68.0348 46.6185 67.9165 46.6185 67.7707C46.6185 67.6249 46.7408 67.5066 46.8917 67.5066H48.7124C48.8632 67.5066 48.9856 67.6249 48.9856 67.7707C48.9852 67.9165 48.8628 68.0348 48.7124 68.0348ZM45.071 68.0348H43.2503C43.0995 68.0348 42.9771 67.9165 42.9771 67.7707C42.9771 67.6249 43.0995 67.5066 43.2503 67.5066H45.071C45.2218 67.5066 45.3442 67.6249 45.3442 67.7707C45.3438 67.9165 45.2218 68.0348 45.071 68.0348ZM41.4296 68.0348H39.6089C39.4581 68.0348 39.3357 67.9165 39.3357 67.7707C39.3357 67.6249 39.4581 67.5066 39.6089 67.5066H41.4296C41.5804 67.5066 41.7028 67.6249 41.7028 67.7707C41.7028 67.9165 41.5804 68.0348 41.4296 68.0348ZM37.7882 68.0348H35.9675C35.8167 68.0348 35.6943 67.9165 35.6943 67.7707C35.6943 67.6249 35.8167 67.5066 35.9675 67.5066H37.7882C37.939 67.5066 38.0614 67.6249 38.0614 67.7707C38.0614 67.9165 37.939 68.0348 37.7882 68.0348ZM34.1468 68.0348H32.3261C32.1753 68.0348 32.0529 67.9165 32.0529 67.7707C32.0529 67.6249 32.1753 67.5066 32.3261 67.5066H34.1468C34.2976 67.5066 34.42 67.6249 34.42 67.7707C34.42 67.9165 34.2976 68.0348 34.1468 68.0348ZM30.5054 68.0348H28.6847C28.5339 68.0348 28.4115 67.9165 28.4115 67.7707C28.4115 67.6249 28.5339 67.5066 28.6847 67.5066H30.5054C30.6562 67.5066 30.7786 67.6249 30.7786 67.7707C30.7786 67.9165 30.6562 68.0348 30.5054 68.0348ZM26.864 68.0348H25.0433C24.8925 68.0348 24.7701 67.9165 24.7701 67.7707C24.7701 67.6249 24.8925 67.5066 25.0433 67.5066H26.864C27.0148 67.5066 27.1372 67.6249 27.1372 67.7707C27.1372 67.9165 27.0148 68.0348 26.864 68.0348ZM23.2226 68.0348H21.4019C21.2511 68.0348 21.1287 67.9165 21.1287 67.7707C21.1287 67.6249 21.2511 67.5066 21.4019 67.5066H23.2226C23.3734 67.5066 23.4958 67.6249 23.4958 67.7707C23.4958 67.9165 23.3734 68.0348 23.2226 68.0348ZM19.5812 68.0348H17.7605C17.6097 68.0348 17.4873 67.9165 17.4873 67.7707C17.4873 67.6249 17.6097 67.5066 17.7605 67.5066H19.5812C19.732 67.5066 19.8544 67.6249 19.8544 67.7707C19.8544 67.9165 19.732 68.0348 19.5812 68.0348ZM15.9398 68.0348H14.1191C13.9683 68.0348 13.8459 67.9165 13.8459 67.7707C13.8459 67.6249 13.9683 67.5066 14.1191 67.5066H15.9398C16.0907 67.5066 16.213 67.6249 16.213 67.7707C16.213 67.9165 16.0907 68.0348 15.9398 68.0348ZM12.2984 68.0348H10.4777C10.3269 68.0348 10.2045 67.9165 10.2045 67.7707C10.2045 67.6249 10.3269 67.5066 10.4777 67.5066H12.2984C12.4493 67.5066 12.5716 67.6249 12.5716 67.7707C12.5716 67.9165 12.4493 68.0348 12.2984 68.0348Z" fill="#B19CFE"/>
<path d="M3.54695 96.9629C4.20418 96.9629 4.73696 96.4478 4.73696 95.8124C4.73696 95.1771 4.20418 94.662 3.54695 94.662C2.88972 94.662 2.35693 95.1771 2.35693 95.8124C2.35693 96.4478 2.88972 96.9629 3.54695 96.9629Z" fill="#B19CFE"/>
<path d="M3.54671 97.9689C2.31714 97.9689 1.31641 97.0018 1.31641 95.8128C1.31641 94.6238 2.31714 93.6567 3.54671 93.6567C4.77629 93.6567 5.77702 94.6238 5.77702 95.8128C5.77702 97.0015 4.77629 97.9689 3.54671 97.9689ZM3.54671 93.9205C2.4676 93.9205 1.5896 94.7692 1.5896 95.8124C1.5896 96.8556 2.4676 97.7044 3.54671 97.7044C4.62582 97.7044 5.50383 96.8556 5.50383 95.8124C5.50383 94.7692 4.62619 93.9205 3.54671 93.9205Z" fill="#B19CFE"/>
<path d="M64.8436 59.9894C64.6602 59.9894 64.5112 59.8454 64.5112 59.6681V57.5266C64.5112 57.3494 64.6602 57.2054 64.8436 57.2054C65.0269 57.2054 65.1759 57.3494 65.1759 57.5266V59.6681C65.1759 59.8454 65.0269 59.9894 64.8436 59.9894ZM64.8436 55.7065C64.6602 55.7065 64.5112 55.5625 64.5112 55.3852V53.2438C64.5112 53.0665 64.6602 52.9225 64.8436 52.9225C65.0269 52.9225 65.1759 53.0665 65.1759 53.2438V55.3852C65.1759 55.5625 65.0269 55.7065 64.8436 55.7065ZM64.8436 51.4232C64.6602 51.4232 64.5112 51.2792 64.5112 51.102V48.9605C64.5112 48.7833 64.6602 48.6392 64.8436 48.6392C65.0269 48.6392 65.1759 48.7833 65.1759 48.9605V51.102C65.1759 51.2796 65.0269 51.4232 64.8436 51.4232ZM64.8436 47.1404C64.6602 47.1404 64.5112 46.9963 64.5112 46.8191V44.6776C64.5112 44.5004 64.6602 44.3563 64.8436 44.3563C65.0269 44.3563 65.1759 44.5004 65.1759 44.6776V46.8191C65.1759 46.9967 65.0269 47.1404 64.8436 47.1404ZM64.8436 42.8575C64.6602 42.8575 64.5112 42.7135 64.5112 42.5362V40.3947C64.5112 40.2175 64.6602 40.0735 64.8436 40.0735C65.0269 40.0735 65.1759 40.2175 65.1759 40.3947V42.5362C65.1759 42.7135 65.0269 42.8575 64.8436 42.8575ZM64.8436 38.5746C64.6602 38.5746 64.5112 38.4306 64.5112 38.2533V36.1119C64.5112 35.9346 64.6602 35.7906 64.8436 35.7906C65.0269 35.7906 65.1759 35.9346 65.1759 36.1119V38.2533C65.1759 38.4306 65.0269 38.5746 64.8436 38.5746ZM100.024 34.7166C99.8402 34.7166 99.6912 34.5726 99.6912 34.3953V33.2067C99.6912 33.0294 99.8402 32.8854 100.024 32.8854C100.207 32.8854 100.356 33.0294 100.356 33.2067V34.3953C100.356 34.5726 100.207 34.7166 100.024 34.7166ZM64.8436 34.2917C64.6602 34.2917 64.5112 34.148 64.5112 33.9704V31.829C64.5112 31.6517 64.6602 31.5077 64.8436 31.5077C65.0269 31.5077 65.1759 31.6517 65.1759 31.829V33.9704C65.1759 34.1477 65.0269 34.2917 64.8436 34.2917ZM100.024 31.3865C99.8402 31.3865 99.6912 31.2429 99.6912 31.0652V28.9238C99.6912 28.7465 99.8402 28.6025 100.024 28.6025C100.207 28.6025 100.356 28.7465 100.356 28.9238V31.0652C100.356 31.2425 100.207 31.3865 100.024 31.3865ZM64.8436 30.0088C64.6602 30.0088 64.5112 29.8648 64.5112 29.6875V27.5461C64.5112 27.3688 64.6602 27.2248 64.8436 27.2248C65.0269 27.2248 65.1759 27.3688 65.1759 27.5461V29.6875C65.1759 29.8648 65.0269 30.0088 64.8436 30.0088ZM100.024 27.1033C99.8402 27.1033 99.6912 26.9593 99.6912 26.782V24.6406C99.6912 24.4633 99.8402 24.3193 100.024 24.3193C100.207 24.3193 100.356 24.4633 100.356 24.6406V26.782C100.356 26.9596 100.207 27.1033 100.024 27.1033ZM64.8436 25.7256C64.6602 25.7256 64.5112 25.5815 64.5112 25.4043V23.2628C64.5112 23.0856 64.6602 22.9416 64.8436 22.9416C65.0269 22.9416 65.1759 23.0856 65.1759 23.2628V25.4043C65.1759 25.5819 65.0269 25.7256 64.8436 25.7256ZM100.024 22.8204C99.8402 22.8204 99.6912 22.6764 99.6912 22.4991V20.3577C99.6912 20.1804 99.8402 20.0364 100.024 20.0364C100.207 20.0364 100.356 20.1804 100.356 20.3577V22.4991C100.356 22.6767 100.207 22.8204 100.024 22.8204ZM64.8436 21.4427C64.6602 21.4427 64.5112 21.2987 64.5112 21.1214V18.98C64.5112 18.8027 64.6602 18.6587 64.8436 18.6587C65.0269 18.6587 65.1759 18.8027 65.1759 18.98V21.1214C65.1759 21.299 65.0269 21.4427 64.8436 21.4427ZM100.024 18.5375C99.8402 18.5375 99.6912 18.3935 99.6912 18.2162V16.0748C99.6912 15.8975 99.8402 15.7535 100.024 15.7535C100.207 15.7535 100.356 15.8975 100.356 16.0748V18.2162C100.356 18.3938 100.207 18.5375 100.024 18.5375ZM64.8436 17.1598C64.6602 17.1598 64.5112 17.0158 64.5112 16.8385V14.6971C64.5112 14.5198 64.6602 14.3758 64.8436 14.3758C65.0269 14.3758 65.1759 14.5198 65.1759 14.6971V16.8385C65.1759 17.0158 65.0269 17.1598 64.8436 17.1598ZM100.024 14.2546C99.8402 14.2546 99.6912 14.1106 99.6912 13.9333V11.7919C99.6912 11.6146 99.8402 11.4706 100.024 11.4706C100.207 11.4706 100.356 11.6146 100.356 11.7919V13.9333C100.356 14.1106 100.207 14.2546 100.024 14.2546ZM64.8436 12.8769C64.6602 12.8769 64.5112 12.7329 64.5112 12.5556V10.4142C64.5112 10.2369 64.6602 10.0929 64.8436 10.0929C65.0269 10.0929 65.1759 10.2369 65.1759 10.4142V12.5556C65.1759 12.7329 65.0269 12.8769 64.8436 12.8769ZM100.009 9.9721C99.8342 9.9721 99.6879 9.83986 99.6779 9.66904C99.6376 8.9825 99.5008 8.30705 99.2716 7.66054C99.2124 7.49293 99.3049 7.30995 99.4782 7.25241C99.6501 7.19523 99.8413 7.28422 99.9 7.45219C100.149 8.15409 100.298 8.8878 100.341 9.63258C100.352 9.80985 100.212 9.96138 100.029 9.97174C100.022 9.97174 100.016 9.9721 100.009 9.9721ZM65.0621 8.61082C65.0365 8.61082 65.011 8.60797 64.9852 8.60225C64.8066 8.56115 64.6961 8.38817 64.7386 8.21556C64.916 7.49078 65.1959 6.79353 65.57 6.14309C65.6587 5.98798 65.8617 5.93223 66.0218 6.01872C66.1822 6.10485 66.2399 6.30069 66.1508 6.4558C65.8059 7.05442 65.5486 7.69664 65.3852 8.36387C65.3489 8.51147 65.2125 8.61082 65.0621 8.61082ZM98.5921 5.97333C98.4864 5.97333 98.3829 5.92508 98.3182 5.83502C97.9145 5.27036 97.4339 4.7618 96.889 4.32329C96.7485 4.20964 96.7289 4.00701 96.8465 3.87084C96.964 3.73396 97.1733 3.71645 97.3145 3.82974C97.9052 4.30542 98.4265 4.85722 98.8646 5.46942C98.9688 5.61559 98.9311 5.81537 98.7803 5.91651C98.7233 5.9551 98.6572 5.97333 98.5921 5.97333ZM67.1848 4.91297C67.1005 4.91297 67.0162 4.88188 66.9511 4.82006C66.8206 4.69533 66.8195 4.49198 66.9486 4.36582C67.4905 3.83582 68.1035 3.38015 68.77 3.01169C68.9286 2.92378 69.1323 2.97738 69.2236 3.13142C69.3145 3.28545 69.2591 3.48165 69.0998 3.56993C68.4853 3.90908 67.9208 4.32901 67.421 4.81791C67.356 4.88117 67.2702 4.91297 67.1848 4.91297ZM95.2302 3.26615C95.1847 3.26615 95.1385 3.25722 95.0945 3.23827C94.4472 2.95773 93.7633 2.76474 93.062 2.66432C92.8801 2.63858 92.7548 2.4749 92.7818 2.29943C92.8087 2.12395 92.9759 1.99887 93.1592 2.02889C93.9211 2.13753 94.6635 2.34732 95.3666 2.65181C95.5341 2.72436 95.6087 2.91448 95.5341 3.07638C95.4782 3.19539 95.357 3.26615 95.2302 3.26615ZM70.9826 2.8162C70.8336 2.8162 70.6983 2.71864 70.6606 2.57283C70.6162 2.40057 70.7242 2.22616 70.9023 2.18328C71.5689 2.02245 72.2591 1.94061 72.9534 1.94061H73.1774C73.3607 1.94061 73.5097 2.08464 73.5097 2.2619C73.5097 2.43916 73.3607 2.58319 73.1774 2.58319H72.9534C72.3134 2.58319 71.6776 2.65824 71.0632 2.80655C71.0365 2.81299 71.0092 2.8162 70.9826 2.8162ZM90.8993 2.58319H88.6842C88.5008 2.58319 88.3518 2.43916 88.3518 2.2619C88.3518 2.08464 88.5008 1.94061 88.6842 1.94061H90.8993C91.0827 1.94061 91.2317 2.08464 91.2317 2.2619C91.2317 2.43916 91.0827 2.58319 90.8993 2.58319ZM86.469 2.58319H84.2539C84.0705 2.58319 83.9215 2.43916 83.9215 2.2619C83.9215 2.08464 84.0705 1.94061 84.2539 1.94061H86.469C86.6524 1.94061 86.8014 2.08464 86.8014 2.2619C86.801 2.43916 86.6524 2.58319 86.469 2.58319ZM82.0384 2.58319H79.8232C79.6398 2.58319 79.4909 2.43916 79.4909 2.2619C79.4909 2.08464 79.6398 1.94061 79.8232 1.94061H82.0384C82.2217 1.94061 82.3707 2.08464 82.3707 2.2619C82.3707 2.43916 82.2221 2.58319 82.0384 2.58319ZM77.6081 2.58319H75.3929C75.2095 2.58319 75.0606 2.43916 75.0606 2.2619C75.0606 2.08464 75.2095 1.94061 75.3929 1.94061H77.6081C77.7914 1.94061 77.9404 2.08464 77.9404 2.2619C77.9404 2.43916 77.7918 2.58319 77.6081 2.58319Z" fill="#B19CFE"/>
<path d="M82.4332 3.46879C83.1227 3.46879 83.6817 2.92845 83.6817 2.26191C83.6817 1.59536 83.1227 1.05502 82.4332 1.05502C81.7438 1.05502 81.1848 1.59536 81.1848 2.26191C81.1848 2.92845 81.7438 3.46879 82.4332 3.46879Z" fill="#B19CFE"/>
<path d="M82.4335 4.52376C81.1433 4.52376 80.0938 3.50915 80.0938 2.26188C80.0938 1.01461 81.1437 0 82.4335 0C83.7237 0 84.7732 1.01461 84.7732 2.26188C84.7732 3.50915 83.7237 4.52376 82.4335 4.52376ZM82.4335 0.27697C81.3011 0.27697 80.3803 1.16757 80.3803 2.26188C80.3803 3.35655 81.3015 4.24679 82.4335 4.24679C83.5658 4.24679 84.4867 3.35619 84.4867 2.26188C84.4867 1.16757 83.5658 0.27697 82.4335 0.27697Z" fill="#B19CFE"/>
<path d="M83.925 19.6625H62.5002V23.2035H83.925V19.6625Z" fill="#C1C1C1"/>
<path d="M101.234 18.3299H85.9192C84.8046 18.3299 83.7473 18.6915 83.0308 19.318L78.8704 22.3276H62.4804C61.7954 22.3276 61.2397 22.8647 61.2397 23.5269V45.4571C61.2397 46.1193 61.7954 46.6565 62.4804 46.6565H102.416C103.101 46.6565 103.656 46.1197 103.656 45.4571V24.2692V23.5269V20.9952C103.656 19.5864 102.572 18.3299 101.234 18.3299Z" fill="#FFC655"/>
<path d="M37.9378 84.5999L35.6664 86.7284C35.591 86.7992 35.5248 86.8761 35.4649 86.9557C33.954 85.998 32.3041 85.3257 30.5965 84.9397C30.6158 84.8404 30.6295 84.7396 30.6306 84.6367L30.6646 81.5785C30.6749 80.6272 29.8831 79.8445 28.8986 79.8345L25.7352 79.8016C24.7515 79.7916 23.9415 80.5572 23.9311 81.5089L23.8971 84.567C23.896 84.6699 23.9075 84.7707 23.9241 84.8701C22.2542 85.211 20.6328 85.8246 19.1341 86.7117C19.0768 86.6302 19.0132 86.5515 18.94 86.4786L16.7382 84.2829C16.0528 83.5996 14.9204 83.5824 14.2136 84.245L11.9423 86.3736C11.2354 87.0362 11.218 88.1308 11.9031 88.8141L14.1049 91.0099C14.1781 91.0828 14.2576 91.1468 14.3397 91.2047C13.3489 92.6653 12.6535 94.2603 12.2543 95.9111C12.1519 95.8925 12.0476 95.8793 11.9408 95.8782L8.77738 95.8453C8.30345 95.8403 7.85576 96.0129 7.51565 96.3317C7.51343 96.3335 7.51158 96.3356 7.50973 96.3378C7.16888 96.6601 6.9785 97.0919 6.97332 97.5525L6.93931 100.611C6.92896 101.562 7.72082 102.345 8.70529 102.355L11.8687 102.388C11.9759 102.389 12.0794 102.377 12.1818 102.36C12.5345 103.975 13.1692 105.543 14.0872 106.992C14.0029 107.047 13.9215 107.109 13.8461 107.179L11.5748 109.308C10.8679 109.971 10.8506 111.065 11.5356 111.748L13.7374 113.944C14.4228 114.627 15.5552 114.644 16.262 113.982L18.5334 111.853C18.6088 111.782 18.675 111.706 18.7348 111.626C20.2461 112.584 21.8964 113.256 23.6043 113.642C23.5851 113.741 23.5703 113.841 23.5692 113.945L23.5352 117.003C23.53 117.464 23.7108 117.899 24.0446 118.229C24.3781 118.558 24.8247 118.743 25.3012 118.748L28.4646 118.78C28.9537 118.785 29.3995 118.599 29.7256 118.293C30.0557 117.984 30.2635 117.552 30.2686 117.074L30.3026 114.015C30.3038 113.912 30.2916 113.812 30.2746 113.713C31.9448 113.372 33.5666 112.758 35.0657 111.871C35.123 111.952 35.1866 112.031 35.2598 112.104L37.4616 114.3C38.147 114.983 39.2793 115 39.9862 114.337L42.2575 112.209C42.9644 111.546 42.9817 110.452 42.2967 109.768L40.0949 107.572C40.0217 107.5 39.9422 107.436 39.8597 107.378C40.8505 105.917 41.5459 104.322 41.9451 102.67C42.0472 102.689 42.1511 102.703 42.2583 102.704L45.4216 102.737C45.9107 102.742 46.3566 102.556 46.683 102.25C47.0131 101.94 47.2209 101.509 47.2261 101.03L47.2605 97.9721C47.2708 97.0204 46.4786 96.2381 45.4945 96.2277L42.3311 96.1948C42.2246 96.1938 42.1204 96.2045 42.0176 96.2209C41.6649 94.6066 41.0302 93.0391 40.1126 91.5903C40.1969 91.5349 40.2782 91.4734 40.3536 91.4027L42.625 89.2741C43.3318 88.6115 43.3492 87.5168 42.6642 86.8339L40.4623 84.6381C39.7766 83.9544 38.6442 83.9373 37.9378 84.5999ZM32.9359 105.11C29.6165 108.221 24.2982 108.141 21.0801 104.933C17.862 101.724 17.9445 96.5826 21.2639 93.4716C24.5833 90.3605 29.9015 90.4402 33.1197 93.6492C36.3374 96.8578 36.2549 101.999 32.9359 105.11Z" stroke="#0F1B63" stroke-miterlimit="10"/>
<path d="M98.1841 109.667H64.1838V125.423H98.1841V109.667Z" fill="#C60C88"/>
<path d="M137.665 35.2766V107.054C137.665 109.36 135.732 111.229 133.344 111.229H29.0244C26.6395 111.229 24.7031 109.36 24.7031 107.054V35.2766C24.7031 32.9712 26.6395 31.0992 29.0244 31.0992H133.344C135.732 31.0992 137.665 32.9712 137.665 35.2766Z" fill="#D42190"/>
<path opacity="0.5" d="M83.2182 106.18C83.2182 107.364 82.2252 108.324 81.0001 108.324C79.775 108.324 78.782 107.364 78.782 106.18C78.782 104.996 79.775 104.036 81.0001 104.036C82.2252 104.036 83.2182 104.996 83.2182 106.18Z" fill="white"/>
<path d="M136.308 101.45V36.0807C136.308 34.0994 134.703 32.4933 132.724 32.4933H29.6434C27.6645 32.4933 26.0601 34.0994 26.0601 36.0807V101.45H136.308Z" fill="#DED7FF"/>
<path d="M104.874 127.121H57.4941V127.011C57.4941 125.197 59.0161 123.726 60.893 123.726H101.475C103.352 123.726 104.874 125.197 104.874 127.011V127.121H104.874Z" fill="#D42190"/>
<path d="M34.9493 31.8225C34.9493 28.6586 32.482 26.0551 29.3068 25.7034C29.3312 25.4965 29.3467 25.287 29.3467 25.074C29.3467 22.0406 26.8029 19.5818 23.6654 19.5818C22.8247 19.5818 22.0295 19.763 21.3116 20.0796C19.7988 17.7998 17.1563 16.2881 14.1464 16.2881C9.44693 16.2881 5.63732 19.971 5.63732 24.514C5.63732 24.9139 5.66838 25.307 5.72568 25.6916C2.50979 26.0061 0 28.6311 0 31.8229C0 35.2266 2.85434 37.986 6.37522 37.986H28.8901V37.9706C32.2631 37.8098 34.9493 35.1229 34.9493 31.8225Z" fill="#B19CFE"/>
<path d="M21.5579 42.6884V33.1127H13.3915V42.6884H10.8389L17.4747 48.6985L24.1109 42.6884H21.5579Z" fill="#FFC655"/>
<path d="M111.771 36.3506H91.7201C89.8662 36.3506 88.363 34.8975 88.363 33.1052V26.6587C88.363 24.8664 89.8662 23.4133 91.7201 23.4133H111.771C113.625 23.4133 115.128 24.8664 115.128 26.6587V33.1048C115.128 34.8975 113.625 36.3506 111.771 36.3506Z" fill="#542FD0"/>
<path d="M36.9249 129.447H16.8747C15.0207 129.447 13.5176 127.994 13.5176 126.202V119.756C13.5176 117.963 15.0207 116.51 16.8747 116.51H36.9253C38.7792 116.51 40.2824 117.963 40.2824 119.756V126.202C40.2824 127.994 38.7792 129.447 36.9249 129.447Z" fill="#542FD0"/>
<path d="M46.5666 74.7179H26.516C24.6621 74.7179 23.1589 73.2648 23.1589 71.4725V65.0263C23.1589 63.2341 24.6621 61.7809 26.516 61.7809H46.5666C48.4206 61.7809 49.9237 63.2341 49.9237 65.0263V71.4725C49.9237 73.2648 48.4206 74.7179 46.5666 74.7179Z" fill="#542FD0"/>
<path d="M117.217 116.139H116.262C116.104 116.139 115.976 116.015 115.976 115.862C115.976 115.709 116.104 115.585 116.262 115.585H117.217C117.375 115.585 117.503 115.709 117.503 115.862C117.503 116.015 117.375 116.139 117.217 116.139Z" fill="#B19CFE"/>
<path d="M140.143 116.139H138.232C138.074 116.139 137.946 116.015 137.946 115.862C137.946 115.709 138.074 115.585 138.232 115.585H140.143C140.301 115.585 140.429 115.709 140.429 115.862C140.429 116.015 140.301 116.139 140.143 116.139ZM136.321 116.139H134.411C134.253 116.139 134.125 116.015 134.125 115.862C134.125 115.709 134.253 115.585 134.411 115.585H136.321C136.48 115.585 136.608 115.709 136.608 115.862C136.608 116.015 136.48 116.139 136.321 116.139ZM132.501 116.139H130.59C130.432 116.139 130.304 116.015 130.304 115.862C130.304 115.709 130.432 115.585 130.59 115.585H132.501C132.659 115.585 132.787 115.709 132.787 115.862C132.787 116.015 132.659 116.139 132.501 116.139ZM128.68 116.139H126.769C126.611 116.139 126.483 116.015 126.483 115.862C126.483 115.709 126.611 115.585 126.769 115.585H128.68C128.838 115.585 128.966 115.709 128.966 115.862C128.967 116.015 128.838 116.139 128.68 116.139ZM124.859 116.139H122.949C122.791 116.139 122.662 116.015 122.662 115.862C122.662 115.709 122.791 115.585 122.949 115.585H124.859C125.017 115.585 125.146 115.709 125.146 115.862C125.146 116.015 125.017 116.139 124.859 116.139ZM121.038 116.139H119.128C118.97 116.139 118.841 116.015 118.841 115.862C118.841 115.709 118.97 115.585 119.128 115.585H121.038C121.197 115.585 121.325 115.709 121.325 115.862C121.325 116.015 121.197 116.139 121.038 116.139ZM142.034 115.925C141.905 115.925 141.788 115.839 141.756 115.713C141.719 115.564 141.813 115.414 141.967 115.378C142.564 115.238 143.142 115.029 143.686 114.754C143.826 114.683 143.999 114.736 144.072 114.872C144.145 115.007 144.091 115.174 143.951 115.245C143.365 115.54 142.743 115.766 142.102 115.916C142.079 115.922 142.057 115.925 142.034 115.925ZM145.39 114.236C145.311 114.236 145.232 114.204 145.175 114.142C145.07 114.027 145.082 113.852 145.201 113.751C145.663 113.359 146.075 112.913 146.426 112.427C146.517 112.302 146.695 112.271 146.825 112.359C146.955 112.446 146.987 112.619 146.896 112.745C146.518 113.267 146.076 113.745 145.58 114.167C145.525 114.213 145.458 114.236 145.39 114.236ZM147.556 111.238C147.522 111.238 147.487 111.232 147.453 111.219C147.306 111.164 147.232 111.004 147.289 110.861C147.51 110.308 147.661 109.729 147.738 109.14C147.757 108.988 147.896 108.881 148.058 108.9C148.215 108.919 148.326 109.058 148.306 109.21C148.224 109.843 148.062 110.466 147.823 111.061C147.78 111.171 147.671 111.238 147.556 111.238ZM148.085 107.608C147.927 107.608 147.798 107.484 147.798 107.331V105.484C147.798 105.331 147.927 105.207 148.085 105.207C148.243 105.207 148.371 105.331 148.371 105.484V107.331C148.372 107.484 148.243 107.608 148.085 107.608ZM148.085 103.914C147.927 103.914 147.798 103.79 147.798 103.637V101.791C147.798 101.638 147.927 101.514 148.085 101.514C148.243 101.514 148.371 101.638 148.371 101.791V103.637C148.372 103.79 148.243 103.914 148.085 103.914ZM148.085 100.221C147.927 100.221 147.798 100.097 147.798 99.9438V98.0972C147.798 97.9442 147.927 97.8202 148.085 97.8202C148.243 97.8202 148.371 97.9442 148.371 98.0972V99.9438C148.372 100.097 148.243 100.221 148.085 100.221ZM148.085 96.5272C147.927 96.5272 147.798 96.4032 147.798 96.2502V94.4033C147.798 94.2503 147.927 94.1263 148.085 94.1263C148.243 94.1263 148.371 94.2503 148.371 94.4033V96.2502C148.372 96.4028 148.243 96.5272 148.085 96.5272ZM148.085 92.8336C147.927 92.8336 147.798 92.7096 147.798 92.5567V90.7097C147.798 90.5567 147.927 90.4327 148.085 90.4327C148.243 90.4327 148.371 90.5567 148.371 90.7097V92.5567C148.372 92.7093 148.243 92.8336 148.085 92.8336ZM148.085 89.1397C147.927 89.1397 147.798 89.0157 147.798 88.8627V87.0161C147.798 86.8632 147.927 86.7392 148.085 86.7392C148.243 86.7392 148.371 86.8632 148.371 87.0161V88.8627C148.372 89.0157 148.243 89.1397 148.085 89.1397ZM148.085 85.4458C147.927 85.4458 147.798 85.3218 147.798 85.1688V83.3219C147.798 83.1689 147.927 83.0449 148.085 83.0449C148.243 83.0449 148.371 83.1689 148.371 83.3219V85.1688C148.372 85.3218 148.243 85.4458 148.085 85.4458Z" fill="#B19CFE"/>
<path d="M148.085 81.744C147.926 81.744 147.798 81.62 147.798 81.467V80.8209H147.558C147.4 80.8209 147.271 80.6969 147.271 80.5439C147.271 80.3909 147.4 80.2669 147.558 80.2669H148.085C148.243 80.2669 148.371 80.3909 148.371 80.5439V81.467C148.371 81.62 148.243 81.744 148.085 81.744Z" fill="#B19CFE"/>
<path d="M139.192 52.5708H114.126C112.619 52.5708 111.398 53.7516 111.398 55.2083V105.567C111.398 107.024 112.619 108.204 114.126 108.204H139.192C140.699 108.204 141.921 107.024 141.921 105.567V55.2083C141.921 53.7516 140.699 52.5708 139.192 52.5708Z" fill="#B19CFE"/>
<path d="M132.264 55.473H118.476C118.237 55.473 118.043 55.2854 118.043 55.0542V55.0002C118.043 54.769 118.237 54.5814 118.476 54.5814H132.264C132.504 54.5814 132.698 54.769 132.698 55.0002V55.0542C132.698 55.2854 132.504 55.473 132.264 55.473Z" fill="#0F1B63"/>
<path d="M135.276 55.0268C135.276 55.273 135.069 55.4728 134.815 55.4728C134.56 55.4728 134.353 55.273 134.353 55.0268C134.353 54.7805 134.56 54.5807 134.815 54.5807C135.069 54.5807 135.276 54.7805 135.276 55.0268Z" fill="#0F1B63"/>
<path d="M140.241 57.6228H113.078V73.7583H140.241V57.6228Z" fill="white"/>
<path d="M131.813 64.3652L129.821 66.6682L124.668 60.7088L116.052 70.6723H126.359H133.283H137.267L131.813 64.3652Z" fill="#FFC655"/>
<path d="M125.902 95.1309H113.078V102.402H125.902V95.1309Z" fill="white"/>
<path d="M121.923 97.9567L120.983 99.0439L118.55 96.2302L114.482 100.934H119.348H122.617H124.498L121.923 97.9567Z" fill="#FFC655"/>
<path d="M125.902 77.9086H113.078V78.6051H125.902V77.9086Z" fill="#B19CFE"/>
<path d="M125.902 76.449H113.078V77.1456H125.902V76.449Z" fill="#B19CFE"/>
<path d="M121.187 79.3345H113.078V80.0311H121.187V79.3345Z" fill="#B19CFE"/>
<path d="M125.902 79.3345H121.763V80.0311H125.902V79.3345Z" fill="#B19CFE"/>
<path d="M124.424 80.7587H113.078V81.4553H124.424V80.7587Z" fill="#B19CFE"/>
<path d="M117.019 82.2219H113.078V82.9184H117.019V82.2219Z" fill="#B19CFE"/>
<path d="M120.537 82.2219H117.698V82.9184H120.537V82.2219Z" fill="#B19CFE"/>
<path d="M140.241 87.6634H127.417V88.3599H140.241V87.6634Z" fill="#B19CFE"/>
<path d="M140.241 86.2035H127.417V86.9H140.241V86.2035Z" fill="#B19CFE"/>
<path d="M135.525 89.089H127.417V89.7855H135.525V89.089Z" fill="#B19CFE"/>
<path d="M140.24 89.089H136.102V89.7855H140.24V89.089Z" fill="#B19CFE"/>
<path d="M138.762 90.5132H127.417V91.2097H138.762V90.5132Z" fill="#B19CFE"/>
<path d="M131.357 91.9763H127.417V92.6729H131.357V91.9763Z" fill="#B19CFE"/>
<path d="M134.875 91.9763H132.037V92.6729H134.875V91.9763Z" fill="#B19CFE"/>
<path d="M140.241 77.9086H127.417V78.6051H140.241V77.9086Z" fill="#B19CFE"/>
<path d="M140.241 76.449H127.417V77.1456H140.241V76.449Z" fill="#B19CFE"/>
<path d="M135.525 79.3345H127.417V80.0311H135.525V79.3345Z" fill="#B19CFE"/>
<path d="M140.24 79.3345H136.102V80.0311H140.24V79.3345Z" fill="#B19CFE"/>
<path d="M140.241 80.7587H127.417V81.4553H140.241V80.7587Z" fill="#B19CFE"/>
<path d="M131.357 82.2219H127.417V82.9184H131.357V82.2219Z" fill="#B19CFE"/>
<path d="M140.241 82.2219H132.037V82.9184H140.241V82.2219Z" fill="#B19CFE"/>
<path d="M125.902 87.6634H113.078V88.3599H125.902V87.6634Z" fill="#B19CFE"/>
<path d="M125.902 86.2035H113.078V86.9H125.902V86.2035Z" fill="#B19CFE"/>
<path d="M125.902 89.089H113.078V89.7855H125.902V89.089Z" fill="#B19CFE"/>
<path d="M125.902 90.5132H113.078V91.2097H125.902V90.5132Z" fill="#B19CFE"/>
<path d="M125.902 91.9763H113.078V92.6729H125.902V91.9763Z" fill="#B19CFE"/>
<path d="M140.241 96.8286H127.417V97.5251H140.241V96.8286Z" fill="#B19CFE"/>
<path d="M140.241 95.369H127.417V96.0655H140.241V95.369Z" fill="#B19CFE"/>
<path d="M140.24 98.2542H132.132V98.9507H140.24V98.2542Z" fill="#B19CFE"/>
<path d="M131.555 98.2542H127.417V98.9507H131.555V98.2542Z" fill="#B19CFE"/>
<path d="M137.264 99.6783H127.417V100.375H137.264V99.6783Z" fill="#B19CFE"/>
<path d="M140.24 99.6783H137.948V100.375H140.24V99.6783Z" fill="#B19CFE"/>
<path d="M140.241 101.141H130.781V101.838H140.241V101.141Z" fill="#B19CFE"/>
<path d="M130.255 101.141H127.417V101.838H130.255V101.141Z" fill="#B19CFE"/>
<path d="M117.471 121.142H97.4201C95.5661 121.142 94.063 119.689 94.063 117.896V111.45C94.063 109.658 95.5661 108.205 97.4201 108.205H117.471C119.325 108.205 120.828 109.658 120.828 111.45V117.896C120.828 119.689 119.325 121.142 117.471 121.142Z" fill="#542FD0"/>
<path d="M149.117 99.6847C149.117 100.351 148.558 100.892 147.869 100.892C147.18 100.892 146.621 100.351 146.621 99.6847C146.621 99.0182 147.18 98.4778 147.869 98.4778C148.558 98.4778 149.117 99.0182 149.117 99.6847Z" fill="#B19CFE"/>
<path d="M147.869 101.947C146.579 101.947 145.529 100.932 145.529 99.6847C145.529 98.4374 146.579 97.4228 147.869 97.4228C149.159 97.4228 150.209 98.4374 150.209 99.6847C150.209 100.932 149.159 101.947 147.869 101.947ZM147.869 97.6994C146.736 97.6994 145.816 98.59 145.816 99.6843C145.816 100.779 146.737 101.669 147.869 101.669C149.001 101.669 149.922 100.779 149.922 99.6843C149.922 98.59 149.001 97.6994 147.869 97.6994Z" fill="#B19CFE"/>
<path d="M158.643 81.976H138.592C136.738 81.976 135.235 80.5229 135.235 78.7306V72.2845C135.235 70.4922 136.738 69.0391 138.592 69.0391H158.643C160.497 69.0391 162 70.4922 162 72.2845V78.7306C162 80.5229 160.497 81.976 158.643 81.976Z" fill="#542FD0"/>
<path d="M86.6591 84.3444H78.2373V85.0831H86.6591V84.3444Z" fill="#0F1B63"/>
<path d="M108.323 84.3444H88.8193V85.0831H108.323V84.3444Z" fill="#0F1B63"/>
<path d="M98.3268 90.7005C94.9789 90.7005 91.6237 90.6965 88.2839 90.6887L88.2854 89.95C94.9641 89.9653 101.705 89.9653 108.322 89.95L108.323 90.6887C105.015 90.6965 101.675 90.7005 98.3268 90.7005Z" fill="#0F1B63"/>
<path d="M108.323 87.1473H85.2156V87.8861H108.323V87.1473Z" fill="#0F1B63"/>
<path d="M108.323 92.7647H83.9587V93.5034H108.323V92.7647Z" fill="#0F1B63"/>
<path d="M108.323 95.5677H80.5796V96.3064H108.323V95.5677Z" fill="#0F1B63"/>
<path d="M45.7648 42.1073H32.7205V42.846H45.7648V42.1073Z" fill="#B19CFE"/>
<path d="M76.0823 42.1073H62.6213V42.846H76.0823V42.1073Z" fill="#B19CFE"/>
<path d="M76.0824 44.9103H66.7449V45.649H76.0824V44.9103Z" fill="#FFC655"/>
<path d="M76.0823 50.528H62.9038V51.2667H76.0823V50.528Z" fill="#FFC655"/>
<path d="M76.0822 53.3306H60.3225V54.0693H76.0822V53.3306Z" fill="#FFC655"/>
<path d="M76.0822 56.6078H55.8105V57.3465H76.0822V56.6078Z" fill="#FFC655"/>
<path d="M60.9232 42.1073H47.8789V42.846H60.9232V42.1073Z" fill="#FFC655"/>
<path d="M65.5519 48.4634C63.5593 48.4634 61.5597 48.4605 57.5604 48.4552L54.9604 48.4516L54.9612 47.7129L57.5616 47.7165C65.5586 47.7272 65.5593 47.7272 73.4998 47.7165L76.0824 47.7129V48.4516L73.5009 48.4552C69.5301 48.4609 67.5445 48.4634 65.5519 48.4634Z" fill="#FFC655"/>
<path d="M42.7164 48.4634C39.3685 48.4634 36.0284 48.4595 32.7197 48.452L32.7212 47.7133C39.3378 47.7286 46.0794 47.7286 52.7581 47.7133L52.7596 48.452C49.4195 48.4598 46.0639 48.4634 42.7164 48.4634Z" fill="#B19CFE"/>
<path d="M64.8923 44.9103H32.7205V45.649H64.8923V44.9103Z" fill="#B19CFE"/>
<path d="M54.0247 56.6078H32.7205V57.3465H54.0247V56.6078Z" fill="#B19CFE"/>
<path d="M61.2402 50.528H32.7205V51.2667H61.2402V50.528Z" fill="#B19CFE"/>
<path d="M58.5677 53.3306H32.7205V54.0693H58.5677V53.3306Z" fill="#B19CFE"/>
<path d="M29.9899 42.9861C30.2809 42.9861 30.5167 42.7581 30.5167 42.4769C30.5167 42.1956 30.2809 41.9676 29.9899 41.9676C29.699 41.9676 29.4631 42.1956 29.4631 42.4769C29.4631 42.7581 29.699 42.9861 29.9899 42.9861Z" fill="#D42190"/>
<path d="M30.5167 45.2798C30.5167 45.561 30.2809 45.789 29.9899 45.789C29.699 45.789 29.4631 45.561 29.4631 45.2798C29.4631 44.9985 29.699 44.7705 29.9899 44.7705C30.2809 44.7702 30.5167 44.9982 30.5167 45.2798Z" fill="#D42190"/>
<path d="M29.9899 48.5917C30.2809 48.5917 30.5167 48.3637 30.5167 48.0824C30.5167 47.8011 30.2809 47.5731 29.9899 47.5731C29.699 47.5731 29.4631 47.8011 29.4631 48.0824C29.4631 48.3637 29.699 48.5917 29.9899 48.5917Z" fill="#D42190"/>
<path d="M30.5167 50.8853C30.5167 51.1666 30.2809 51.3946 29.9899 51.3946C29.699 51.3946 29.4631 51.1666 29.4631 50.8853C29.4631 50.6041 29.699 50.3761 29.9899 50.3761C30.2809 50.3761 30.5167 50.6041 30.5167 50.8853Z" fill="#D42190"/>
<path d="M29.9899 54.2094C30.2809 54.2094 30.5167 53.9814 30.5167 53.7001C30.5167 53.4188 30.2809 53.1908 29.9899 53.1908C29.699 53.1908 29.4631 53.4188 29.4631 53.7001C29.4631 53.9814 29.699 54.2094 29.9899 54.2094Z" fill="#D42190"/>
<path d="M30.5167 56.977C30.5167 57.2582 30.2809 57.4862 29.9899 57.4862C29.699 57.4862 29.4631 57.2582 29.4631 56.977C29.4631 56.6957 29.699 56.4677 29.9899 56.4677C30.2809 56.4677 30.5167 56.6957 30.5167 56.977Z" fill="#D42190"/>
<path d="M79.5595 58.647C79.4538 58.647 79.3684 58.5645 79.3684 58.4623V42.0619C79.3684 41.9597 79.4538 41.8772 79.5595 41.8772C79.6653 41.8772 79.7507 41.9597 79.7507 42.0619V58.4626C79.7503 58.5645 79.6649 58.647 79.5595 58.647Z" fill="#D42190"/>
<path d="M47.04 94.0241H45.8655C45.7572 94.0241 45.6699 93.9394 45.6699 93.835C45.6699 93.7303 45.7576 93.646 45.8655 93.646H47.04C47.1483 93.646 47.2356 93.7307 47.2356 93.835C47.2359 93.9394 47.1483 94.0241 47.04 94.0241ZM44.6914 94.0241H43.5173C43.4089 94.0241 43.3217 93.9394 43.3217 93.835C43.3217 93.7303 43.4093 93.646 43.5173 93.646H44.6914C44.7997 93.646 44.8869 93.7307 44.8869 93.835C44.8873 93.9394 44.7997 94.0241 44.6914 94.0241ZM42.3428 94.0241H41.8674C41.6001 94.0241 41.3358 93.958 41.1032 93.8333C41.0082 93.7825 40.9746 93.6674 41.0267 93.5759C41.0796 93.4841 41.1997 93.4519 41.2929 93.5023C41.4677 93.596 41.6663 93.6456 41.8674 93.6456H42.3428C42.4511 93.6456 42.5383 93.7303 42.5383 93.8347C42.5387 93.9394 42.4511 94.0241 42.3428 94.0241ZM40.5173 92.9741C40.4274 92.9741 40.3465 92.9137 40.3265 92.8251C40.3025 92.7182 40.2903 92.6085 40.2903 92.4995V91.6521C40.2903 91.5474 40.3779 91.4631 40.4858 91.4631C40.5938 91.4631 40.6814 91.5478 40.6814 91.6521V92.4995C40.6814 92.5813 40.6907 92.6643 40.7088 92.745C40.7317 92.8472 40.6648 92.948 40.5594 92.9702C40.545 92.9727 40.5309 92.9741 40.5173 92.9741ZM40.4858 90.7062C40.3775 90.7062 40.2903 90.6215 40.2903 90.5171V89.3817C40.2903 89.277 40.3779 89.1926 40.4858 89.1926C40.5938 89.1926 40.6814 89.2773 40.6814 89.3817V90.5171C40.6814 90.6215 40.5942 90.7062 40.4858 90.7062ZM40.4858 88.4357C40.3775 88.4357 40.2903 88.351 40.2903 88.2463V87.1109C40.2903 87.0062 40.3779 86.9218 40.4858 86.9218C40.5938 86.9218 40.6814 87.0065 40.6814 87.1109V88.2463C40.6814 88.351 40.5942 88.4357 40.4858 88.4357ZM40.4858 86.1649C40.3775 86.1649 40.2903 86.0802 40.2903 85.9758V84.8404C40.2903 84.7357 40.3779 84.6514 40.4858 84.6514C40.5938 84.6514 40.6814 84.7361 40.6814 84.8404V85.9758C40.6814 86.0805 40.5942 86.1649 40.4858 86.1649ZM40.4858 83.8944C40.3775 83.8944 40.2903 83.8097 40.2903 83.7054V83.5671C40.2903 83.1822 40.4389 82.8144 40.7091 82.5321C40.7827 82.4556 40.9062 82.4506 40.986 82.5217C41.0651 82.5925 41.0703 82.7126 40.9967 82.789C40.7938 83.0013 40.6818 83.2776 40.6818 83.5674V83.7057C40.6814 83.8101 40.5942 83.8944 40.4858 83.8944ZM47.7734 82.4209H46.5993C46.491 82.4209 46.4038 82.3362 46.4038 82.2319C46.4038 82.1275 46.4914 82.0428 46.5993 82.0428H47.7734C47.8818 82.0428 47.9694 82.1275 47.9694 82.2319C47.9694 82.3362 47.8818 82.4209 47.7734 82.4209ZM45.4248 82.4209H44.2507C44.1424 82.4209 44.0552 82.3362 44.0552 82.2319C44.0552 82.1275 44.1428 82.0428 44.2507 82.0428H45.4248C45.5332 82.0428 45.6204 82.1275 45.6204 82.2319C45.6204 82.3362 45.5332 82.4209 45.4248 82.4209ZM43.0762 82.4209H41.9021C41.7938 82.4209 41.7065 82.3362 41.7065 82.2319C41.7065 82.1275 41.7942 82.0428 41.9021 82.0428H43.0762C43.1845 82.0428 43.2718 82.1275 43.2718 82.2319C43.2718 82.3362 43.1845 82.4209 43.0762 82.4209Z" fill="#0F1B63"/>
<path d="M51.2997 89.1108H45.0132V89.8678H51.2997V89.1108Z" fill="#0F1B63"/>
<path d="M63.101 89.1108H52.9451V89.8678H63.101V89.1108Z" fill="#0F1B63"/>
<path d="M63.1008 95.5494H56.8147V96.3064H63.1008V95.5494Z" fill="#0F1B63"/>
<path d="M55.1695 95.5494H45.0132V96.3064H55.1695V95.5494Z" fill="#0F1B63"/>
<path d="M56.0701 91.3037H45.0132V92.0607H56.0701V91.3037Z" fill="#0F1B63"/>
<path d="M63.1009 91.3037H57.7153V92.0607H63.1009V91.3037Z" fill="#0F1B63"/>
<path d="M54.1122 93.4566H45.0132V94.2135H54.1122V93.4566Z" fill="#0F1B63"/>
<path d="M63.1009 93.4566H56.9268V94.2135H63.1009V93.4566Z" fill="#0F1B63"/>
<path d="M48.3041 79.9675H45.0132V85.8915H48.3041V79.9675Z" fill="#FFC655"/>
<path d="M53.4672 77.7185H50.1763V85.8911H53.4672V77.7185Z" fill="#D42190"/>
<path d="M58.4601 73.0561H55.1692V85.8911H58.4601V73.0561Z" fill="#542FD0"/>
<path d="M56.1631 93.4566H54.9819V94.2135H56.1631V93.4566Z" fill="#0F1B63"/>
<path d="M108.027 52.9486H83.3914V79.5201H108.027V52.9486Z" fill="#B19CFE"/>
<path d="M102.558 57.671H85.3804V58.225H102.558V57.671Z" fill="white"/>
<path d="M93.951 62.257C91.001 62.257 88.0564 62.2541 85.3799 62.2477L85.3814 61.6938C90.7337 61.7066 97.1555 61.7066 102.558 61.6938L102.559 62.2477C99.8571 62.2541 96.9011 62.257 93.951 62.257Z" fill="white"/>
<path d="M102.558 59.6824H85.3801V60.2363H102.558V59.6824Z" fill="white"/>
<path d="M97.9028 63.7144H85.3801V64.2683H97.9028V63.7144Z" fill="white"/>
<path d="M102.558 77.2539H85.3801V77.8078H102.558V77.2539Z" fill="white"/>
<path d="M102.558 73.7855C97.1547 73.773 90.7333 73.773 85.3814 73.7855L85.3799 73.2315C90.7333 73.2194 97.1558 73.2194 102.559 73.2315L102.558 73.7855Z" fill="white"/>
<path d="M102.558 75.2429H85.3801V75.7968H102.558V75.2429Z" fill="white"/>
<path d="M97.9028 71.2109H85.3801V71.7648H97.9028V71.2109Z" fill="white"/>
<path d="M108.409 79.8892H83.009V52.5708H108.409V79.8892ZM83.3913 79.52H108.027V52.94H83.3913V79.52Z" fill="#542FD0"/>
<path d="M108.218 52.7552H83.2002V55.9381H108.218V52.7552Z" fill="#542FD0"/>
<path d="M101.073 69.7956C101.006 69.7956 100.938 69.7728 100.883 69.7263L98.9583 68.082C98.8966 68.0295 98.8618 67.9537 98.8618 67.8744C98.8618 67.795 98.8969 67.7192 98.9583 67.6667L100.883 66.0224C101.002 65.9213 101.183 65.9313 101.288 66.0467C101.393 66.1614 101.381 66.3362 101.263 66.4377L99.5808 67.8744L101.263 69.311C101.381 69.4125 101.392 69.5873 101.288 69.702C101.231 69.7642 101.152 69.7956 101.073 69.7956Z" fill="white"/>
<path d="M104.043 69.7957C103.964 69.7957 103.885 69.7642 103.828 69.702C103.724 69.5873 103.735 69.4125 103.853 69.311L105.535 67.8744L103.853 66.4377C103.735 66.3362 103.724 66.1614 103.828 66.0467C103.933 65.932 104.114 65.9216 104.233 66.0224L106.158 67.6667C106.22 67.7193 106.254 67.795 106.254 67.8744C106.254 67.9537 106.219 68.0291 106.158 68.082L104.233 69.7263C104.178 69.7728 104.111 69.7957 104.043 69.7957Z" fill="white"/>
<path d="M85.5693 54.347L86.2366 53.7019C86.2998 53.6408 86.2998 53.5422 86.2366 53.4811C86.1734 53.42 86.0714 53.42 86.0081 53.4811L85.3409 54.1262L84.6736 53.4811C84.6104 53.42 84.5083 53.42 84.4451 53.4811C84.3819 53.5422 84.3819 53.6408 84.4451 53.7019L85.1124 54.347L84.4451 54.9921C84.3819 55.0532 84.3819 55.1518 84.4451 55.213C84.4765 55.2433 84.5179 55.2587 84.5593 55.2587C84.6008 55.2587 84.6422 55.2433 84.6736 55.213L85.3409 54.5679L86.0081 55.213C86.0396 55.2433 86.081 55.2587 86.1224 55.2587C86.1638 55.2587 86.2052 55.2433 86.2366 55.213C86.2998 55.1518 86.2998 55.0532 86.2366 54.9921L85.5693 54.347Z" fill="white"/>
<path d="M88.4322 55.2587C87.9121 55.2587 87.4888 54.8495 87.4888 54.347C87.4888 53.8441 87.9121 53.4353 88.4322 53.4353C88.9524 53.4353 89.3753 53.8445 89.3753 54.347C89.3753 54.8498 88.9524 55.2587 88.4322 55.2587ZM88.4322 53.7269C88.0788 53.7269 87.7912 54.005 87.7912 54.3466C87.7912 54.6883 88.0788 54.9663 88.4322 54.9663C88.7856 54.9663 89.0732 54.6883 89.0732 54.3466C89.0732 54.005 88.7856 53.7269 88.4322 53.7269Z" fill="white"/>
<path d="M92.081 55.2587H90.5439C90.4544 55.2587 90.3823 55.1886 90.3823 55.1025C90.3823 55.0164 90.4544 54.9463 90.5439 54.9463H92.081C92.1705 54.9463 92.2426 55.0164 92.2426 55.1025C92.2426 55.1886 92.1701 55.2587 92.081 55.2587Z" fill="white"/>
<path d="M75.5184 17.1759L73.2937 17.8564C73.2197 17.8789 73.1499 17.9085 73.0833 17.9421C72.4131 16.8285 71.5539 15.8589 70.5591 15.0598C70.6057 15.0005 70.6489 14.9383 70.6848 14.8708L71.7506 12.8641C72.0822 12.2397 71.8264 11.471 71.1805 11.1501L69.1048 10.1197C68.4589 9.7995 67.6634 10.0465 67.3317 10.6708L66.2659 12.6775C66.2301 12.7451 66.2031 12.8151 66.1805 12.8859C64.9624 12.5782 63.6833 12.4663 62.3917 12.5739C62.3817 12.502 62.3665 12.4298 62.3432 12.3584L61.6393 10.2076C61.4205 9.53825 60.6789 9.16586 59.9865 9.37779L57.7617 10.0582C57.0693 10.2698 56.6845 10.9867 56.9033 11.6561L57.6072 13.8068C57.6305 13.8783 57.6612 13.9459 57.6959 14.0102C56.544 14.6581 55.541 15.4887 54.7144 16.4504C54.653 16.4054 54.5887 16.3636 54.5188 16.3289L52.4431 15.2986C52.1322 15.1442 51.7776 15.1152 51.4445 15.2171C51.4427 15.2178 51.4405 15.2182 51.4386 15.2192C51.1037 15.3232 50.8309 15.5473 50.6701 15.8496L49.6043 17.8564C49.2726 18.4807 49.5285 19.2494 50.1743 19.5704L52.2501 20.6007C52.3203 20.6357 52.3928 20.6607 52.466 20.6825C52.1477 21.8601 52.0316 23.097 52.1429 24.3457C52.0686 24.3554 51.9939 24.37 51.92 24.3925L49.6952 25.073C49.0028 25.2846 48.6179 26.0015 48.8368 26.6709L49.5407 28.8216C49.7595 29.491 50.5011 29.863 51.1935 29.6514L53.4183 28.971C53.4922 28.9485 53.5621 28.9188 53.6286 28.8852C54.2989 29.9992 55.1584 30.9688 56.1536 31.7682C56.1074 31.8272 56.0634 31.8887 56.0272 31.9566L54.9614 33.9633C54.8005 34.2656 54.7713 34.6109 54.8789 34.9343C54.9865 35.2581 55.2183 35.5218 55.531 35.6769L57.6068 36.7073C57.9277 36.8667 58.2856 36.8856 58.605 36.7877C58.9284 36.6887 59.2127 36.47 59.3795 36.1558L60.4453 34.1491C60.4815 34.0812 60.5074 34.0112 60.5299 33.9404C61.748 34.2481 63.0275 34.36 64.3196 34.2528C64.3295 34.3246 64.3447 34.3968 64.368 34.4686L65.0719 36.6194C65.2907 37.2887 66.0323 37.6608 66.7247 37.4492L68.9495 36.7687C69.6419 36.5572 70.0268 35.8403 69.8079 35.1709L69.104 33.0201C69.0807 32.9487 69.05 32.8811 69.0153 32.8168C70.1676 32.1689 71.1706 31.3379 71.9975 30.3759C72.0585 30.4209 72.1221 30.4631 72.1927 30.4981L74.2685 31.5284C74.5894 31.6878 74.9473 31.7068 75.267 31.6092C75.5905 31.5102 75.8748 31.2915 76.0415 30.9773L77.1077 28.9706C77.4393 28.3463 77.1835 27.5772 76.5376 27.2566L74.4619 26.2263C74.392 26.1916 74.3195 26.1655 74.246 26.1434C74.5639 24.9658 74.68 23.7292 74.5687 22.4809C74.643 22.4713 74.7177 22.4566 74.792 22.4341L77.0168 21.7536C77.7092 21.5421 78.094 20.8251 77.8752 20.1561L77.1713 18.0054C76.9521 17.3367 76.2108 16.9643 75.5184 17.1759ZM65.2208 29.1136C61.9695 30.1078 58.4874 28.3595 57.4589 25.2163C56.4305 22.0731 58.239 18.7069 61.4904 17.7127C64.7417 16.7184 68.2234 18.4668 69.2519 21.61C70.2804 24.7535 68.4719 28.1193 65.2208 29.1136Z" fill="#0F1B63"/>
<path d="M72.7091 67.1092L72.1682 68.3893C72.1501 68.4318 72.1372 68.4751 72.1276 68.5187C71.322 68.3872 70.5124 68.3986 69.7328 68.5383C69.722 68.494 69.7087 68.4497 69.6899 68.4068L69.1294 67.1345C68.9549 66.7386 68.4803 66.5538 68.0707 66.7221L66.7546 67.2636C66.3453 67.4319 66.1538 67.8915 66.328 68.2871L66.8884 69.5594C66.9073 69.6023 66.9309 69.6419 66.9564 69.6802C66.3291 70.1144 65.7727 70.6533 65.3187 71.2838C65.2799 71.2602 65.2389 71.2387 65.1945 71.2212L63.8703 70.6984C63.4581 70.5358 62.986 70.7273 62.8178 71.1258L62.277 72.406C62.1087 72.8044 62.3069 73.2608 62.7191 73.4234L64.0433 73.9463C64.0873 73.9638 64.132 73.9763 64.1771 73.9856C64.0411 74.7643 64.0529 75.547 64.1975 76.3007C64.1516 76.3111 64.1058 76.324 64.0614 76.3422L62.7453 76.884C62.5479 76.9651 62.3953 77.1152 62.3143 77.3068C62.3139 77.3078 62.3132 77.3093 62.3128 77.3103C62.2322 77.5037 62.2344 77.716 62.3187 77.9075L62.8792 79.1798C63.0537 79.5754 63.5287 79.7606 63.9379 79.5922L65.254 79.0504C65.2984 79.0322 65.3394 79.009 65.3786 78.9843C65.8278 79.5912 66.3853 80.129 67.0377 80.5679C67.0134 80.6054 66.9912 80.6454 66.9731 80.688L66.4322 81.9681C66.264 82.3666 66.4621 82.823 66.8743 82.9856L68.1986 83.5084C68.6108 83.671 69.0828 83.4795 69.2511 83.081L69.7919 81.8009C69.81 81.7583 69.823 81.7151 69.8326 81.6715C70.6381 81.803 71.4481 81.7916 72.2278 81.6515C72.2385 81.6958 72.251 81.7397 72.2703 81.783L72.8307 83.0553C72.915 83.2472 73.0717 83.3955 73.2717 83.4734C73.4717 83.5513 73.6913 83.5492 73.8895 83.4677L75.2056 82.9259C75.4089 82.8423 75.5586 82.6868 75.6362 82.5027C75.715 82.3166 75.7198 82.1014 75.6322 81.9023L75.0721 80.6301C75.0533 80.5868 75.0292 80.5475 75.0034 80.5096C75.6311 80.0754 76.1875 79.5365 76.6414 78.9057C76.6806 78.9293 76.7216 78.9507 76.7656 78.9682L78.0899 79.4911C78.5021 79.6537 78.9741 79.4621 79.1423 79.0637L79.6832 77.7835C79.8514 77.385 79.6532 76.9286 79.241 76.766L77.9168 76.2432C77.8728 76.2257 77.8281 76.2132 77.783 76.2039C77.9191 75.4251 77.9072 74.6421 77.7623 73.8884C77.8082 73.878 77.8536 73.8659 77.8984 73.8473L79.2144 73.3055C79.4178 73.2219 79.5675 73.066 79.6451 72.8823C79.7239 72.6961 79.7287 72.481 79.6407 72.2819L79.0806 71.0093C78.9061 70.6133 78.4311 70.4285 78.0218 70.5969L76.7057 71.1387C76.6614 71.1569 76.6204 71.1798 76.5808 71.2044C76.1316 70.5979 75.5741 70.0601 74.922 69.6212C74.9464 69.5837 74.9686 69.5437 74.9867 69.5011L75.5276 68.221C75.6958 67.8225 75.4976 67.3661 75.0854 67.2035L73.7612 66.6807C73.3494 66.5188 72.8773 66.7107 72.7091 67.1092ZM74.4902 76.4808C73.6998 78.3517 71.4825 79.2523 69.5472 78.4886C67.6119 77.7245 66.6803 75.5809 67.4703 73.71C68.2607 71.8391 70.478 70.9385 72.4133 71.7026C74.3486 72.4664 75.2802 74.6099 74.4902 76.4808Z" fill="#B19CFE"/>
<path d="M63.9385 60.6098L63.2346 61.2992C63.2113 61.3221 63.191 61.3467 63.1725 61.3724C62.6871 61.0794 62.1599 60.8775 61.6161 60.767C61.6216 60.7356 61.625 60.7034 61.6246 60.6709L61.6135 59.7024C61.6098 59.4011 61.3532 59.1585 61.0416 59.162L60.0394 59.1731C59.7277 59.1767 59.4767 59.4243 59.4804 59.726L59.4919 60.6945C59.4923 60.727 59.4967 60.7588 59.5026 60.7903C58.9762 60.9096 58.4671 61.1148 57.9991 61.406C57.9802 61.3807 57.9599 61.3564 57.9359 61.3335L57.2228 60.653C57.001 60.4415 56.642 60.4436 56.4231 60.658L55.7193 61.3474C55.5004 61.5619 55.5026 61.9089 55.7244 62.1204L56.4375 62.8009C56.4612 62.8234 56.4867 62.8431 56.5133 62.8609C56.2102 63.3302 56.0013 63.8402 55.8871 64.3655C55.8546 64.3602 55.8213 64.357 55.7876 64.3573L54.7858 64.3684C54.6357 64.3702 54.4952 64.4277 54.3899 64.531C54.3891 64.5317 54.3884 64.5321 54.388 64.5328C54.2823 64.6371 54.2254 64.7751 54.2268 64.9213L54.2383 65.8898C54.242 66.191 54.4986 66.4337 54.8102 66.4301L55.8124 66.4191C55.8464 66.4187 55.879 66.4144 55.9115 66.4083C56.035 66.9173 56.2472 67.4094 56.5485 67.8622C56.5222 67.8804 56.4971 67.9004 56.4734 67.9233L55.7695 68.6127C55.5507 68.8271 55.5529 69.1741 55.7747 69.3857L56.4878 70.0662C56.7096 70.2777 57.0686 70.2756 57.2875 70.0612L57.9913 69.3718C58.0146 69.3489 58.035 69.3242 58.0534 69.2985C58.5388 69.5916 59.0664 69.7935 59.6102 69.9039C59.6046 69.9354 59.6009 69.9672 59.6013 70L59.6128 70.9686C59.6146 71.1147 59.6749 71.2512 59.7828 71.3535C59.8908 71.4557 60.0335 71.5107 60.1847 71.5093L61.1869 71.4986C61.3418 71.4968 61.4815 71.4346 61.5828 71.3356C61.6852 71.2355 61.7477 71.0972 61.7459 70.9457L61.7344 69.9772C61.734 69.9443 61.7292 69.9128 61.7233 69.8814C62.2497 69.762 62.7588 69.5569 63.2272 69.2656C63.246 69.291 63.2667 69.3156 63.2904 69.3382L64.0035 70.0186C64.2253 70.2306 64.5843 70.2281 64.8031 70.0136L65.507 69.3242C65.7259 69.1098 65.7237 68.7628 65.5018 68.5512L64.7887 67.8708C64.7651 67.8482 64.7396 67.8286 64.7129 67.8107C65.0161 67.3415 65.225 66.8315 65.3396 66.3058C65.3721 66.3111 65.405 66.3147 65.439 66.3143L66.4409 66.3033C66.5957 66.3015 66.7359 66.2397 66.8368 66.1403C66.9392 66.0399 67.0017 65.9019 66.9998 65.7504L66.9887 64.7815C66.985 64.4803 66.7285 64.2376 66.4168 64.2412L65.415 64.2522C65.3813 64.2526 65.3484 64.2569 65.3159 64.2626C65.1924 63.7537 64.9802 63.2616 64.6789 62.8091C64.7052 62.7909 64.7307 62.7709 64.754 62.748L65.4579 62.0586C65.6767 61.8442 65.6745 61.4972 65.4527 61.2856L64.7396 60.6051C64.5163 60.3932 64.1577 60.3954 63.9385 60.6098ZM62.503 67.1388C61.4741 68.1466 59.7895 68.1574 58.747 67.1628C57.7045 66.1682 57.6934 64.5396 58.7222 63.5318C59.7507 62.5243 61.4357 62.5136 62.4782 63.5078C63.5203 64.5028 63.5314 66.1314 62.503 67.1388Z" stroke="#B19CFE" stroke-width="0.5" stroke-miterlimit="10"/>
<path d="M7.65608 51.6041H3.08862V52.3428H7.65608V51.6041Z" fill="#0F1B63"/>
<path d="M21.1939 51.604H9.5437V52.3427H21.1939V51.604Z" fill="#0F1B63"/>
<path d="M21.1941 59.5341H13.9827V60.2728H21.1941V59.5341Z" fill="#0F1B63"/>
<path d="M12.0953 59.5341H3.08862V60.2728H12.0953V59.5341Z" fill="#0F1B63"/>
<path d="M13.1285 54.3044H3.08862V55.0432H13.1285V54.3044Z" fill="#0F1B63"/>
<path d="M21.194 54.3044H15.0159V55.0432H21.194V54.3044Z" fill="#0F1B63"/>
<path d="M10.8823 56.9562H3.08862V57.6949H10.8823V56.9562Z" fill="#0F1B63"/>
<path d="M21.1941 56.9562H14.1113V57.6949H21.1941V56.9562Z" fill="#0F1B63"/>
<path d="M13.2348 56.9562H11.8799V57.6949H13.2348V56.9562Z" fill="#0F1B63"/>
<path d="M128.036 120.779H123.468V121.517H128.036V120.779Z" fill="#0F1B63"/>
<path d="M141.573 120.779H129.923V121.517H141.573V120.779Z" fill="#0F1B63"/>
<path d="M141.573 128.709H134.362V129.447H141.573V128.709Z" fill="#0F1B63"/>
<path d="M132.475 128.709H123.468V129.447H132.475V128.709Z" fill="#0F1B63"/>
<path d="M133.508 123.479H123.468V124.218H133.508V123.479Z" fill="#0F1B63"/>
<path d="M141.573 123.479H135.395V124.218H141.573V123.479Z" fill="#0F1B63"/>
<path d="M131.262 126.131H123.468V126.869H131.262V126.131Z" fill="#0F1B63"/>
<path d="M141.573 126.131H134.49V126.869H141.573V126.131Z" fill="#0F1B63"/>
<path d="M133.614 126.131H132.259V126.869H133.614V126.131Z" fill="#0F1B63"/>
<path d="M138.649 29.6253L136.855 29.9967C136.796 30.0092 136.739 30.027 136.684 30.0485C136.246 29.1286 135.648 28.3077 134.932 27.6101C134.973 27.5672 135.011 27.5214 135.045 27.471L136.034 25.9779C136.342 25.5133 136.202 24.8932 135.721 24.5955L134.177 23.6388C133.696 23.3415 133.055 23.4769 132.747 23.9419L131.757 25.435C131.724 25.485 131.697 25.5379 131.674 25.5919C130.745 25.2631 129.752 25.0826 128.733 25.0733C128.731 25.0162 128.725 24.959 128.712 24.9011L128.328 23.1671C128.208 22.6274 127.657 22.2825 127.099 22.398L125.305 22.7693C124.747 22.8847 124.39 23.4179 124.51 23.9576L124.894 25.6916C124.907 25.7492 124.925 25.8042 124.947 25.8571C123.996 26.2806 123.147 26.8581 122.425 27.5507C122.381 27.5111 122.333 27.4735 122.282 27.4414L120.737 26.4847C120.506 26.3413 120.231 26.2931 119.962 26.3485C119.961 26.3488 119.959 26.3492 119.957 26.3496C119.687 26.4067 119.457 26.5622 119.307 26.7874L118.318 28.2805C118.01 28.7451 118.15 29.3652 118.631 29.6629L120.176 30.6196C120.228 30.6521 120.283 30.6771 120.338 30.6993C119.998 31.5977 119.811 32.5573 119.801 33.5426C119.743 33.5448 119.683 33.5508 119.623 33.563L117.83 33.9343C117.271 34.0498 116.915 34.5826 117.034 35.1226L117.418 36.8566C117.538 37.3963 118.089 37.7412 118.647 37.6257L120.441 37.2544C120.5 37.2419 120.557 37.224 120.612 37.2026C121.05 38.1229 121.647 38.9438 122.365 39.6414C122.323 39.6843 122.285 39.7289 122.251 39.7797L121.261 41.2728C121.112 41.498 121.062 41.7657 121.122 42.0269C121.181 42.2882 121.342 42.5112 121.574 42.6552L123.119 43.6119C123.358 43.7599 123.636 43.8006 123.894 43.7474C124.155 43.6934 124.394 43.5429 124.549 43.3092L125.539 41.8161C125.572 41.7657 125.598 41.7124 125.621 41.6588C126.55 41.9876 127.543 42.1681 128.562 42.1777C128.564 42.2349 128.571 42.2924 128.584 42.35L128.968 44.084C129.087 44.6237 129.638 44.9685 130.197 44.8531L131.99 44.4818C132.549 44.3663 132.905 43.8335 132.786 43.2938L132.402 41.5598C132.389 41.5023 132.37 41.4472 132.348 41.3943C133.3 40.9708 134.149 40.3933 134.871 39.7C134.915 39.7397 134.962 39.7772 135.014 39.8097L136.559 40.7664C136.797 40.9144 137.076 40.9551 137.334 40.9019C137.594 40.8479 137.834 40.6974 137.989 40.4637L138.979 38.9706C139.286 38.506 139.146 37.8859 138.665 37.5882L137.121 36.6315C137.069 36.5993 137.014 36.5736 136.959 36.5511C137.299 35.6526 137.485 34.6934 137.495 33.7085C137.554 33.7063 137.614 33.7002 137.673 33.6881L139.467 33.3168C140.025 33.2013 140.382 32.6685 140.262 32.1288L139.878 30.3948C139.758 29.8548 139.207 29.5099 138.649 29.6253ZM129.666 38.2215C127.044 38.764 124.455 37.144 123.894 34.6098C123.333 32.0756 125.008 29.5724 127.63 29.0299C130.251 28.4874 132.841 30.1075 133.402 32.6417C133.963 35.1759 132.287 37.679 129.666 38.2215Z" fill="#0F1B63"/>
</svg>
