<svg width="190" height="190" viewBox="0 0 190 190" fill="none" xmlns="http://www.w3.org/2000/svg">
<g clip-path="url(#clip0_205_741)">
<path d="M190 0H0V190H190V0Z" fill="white"/>
<path d="M168.076 82.2671C164.111 56.3123 147.853 24.4251 115.734 21.088C115.734 21.088 91.3476 18.1218 67.3082 22.6174C53.0408 25.2855 40.5303 33.228 32.6142 44.6432C24.6981 56.0585 22.0538 69.9779 25.2629 83.2483C27.3472 91.8675 28.7557 100.788 28.3691 109.645C27.6964 125.059 28.0835 139.448 43.0428 148.64C56.3997 156.848 73.2097 164.088 89.2466 165.355C100.145 166.217 112.367 164.823 122.871 161.985C176.403 147.525 172.041 108.222 168.076 82.2671Z" fill="#F4F7FA"/>
<path d="M138.177 116.432C138.855 110.572 138.956 101.902 134.932 93.1662C129.655 81.7092 121.919 80.2056 109.055 64.1313C100.921 53.9676 95.3467 46.7927 97.2207 38.8489C98.6894 32.6238 104.556 26.6718 110.691 26.1031C115.791 25.6303 121.674 28.8239 125.115 31.7447C127.919 34.1252 129.25 36.4502 132.081 36.5592C134.975 36.6704 136.023 34.336 138.483 34.1502C143.473 33.7732 147.956 42.7099 148.681 44.1543C156.742 60.221 152.058 79.6153 149.912 88.0506C148.139 95.0251 144.816 105.13 138.177 116.432Z" fill="url(#paint0_linear_205_741)"/>
<mask id="mask0_205_741" style="mask-type:luminance" maskUnits="userSpaceOnUse" x="96" y="26" width="58" height="91">
<path d="M138.177 116.432C138.855 110.572 138.956 101.902 134.932 93.1662C129.655 81.7092 121.919 80.2056 109.055 64.1313C100.921 53.9676 95.3467 46.7927 97.2207 38.8489C98.6894 32.6238 104.556 26.6718 110.691 26.1031C115.791 25.6303 121.674 28.8239 125.115 31.7447C127.919 34.1252 129.25 36.4502 132.081 36.5592C134.975 36.6704 136.023 34.336 138.483 34.1502C143.473 33.7732 147.956 42.7099 148.681 44.1543C156.742 60.221 152.058 79.6153 149.912 88.0506C148.139 95.0251 144.816 105.13 138.177 116.432Z" fill="white"/>
</mask>
<g mask="url(#mask0_205_741)">
<g opacity="0.5">
<path d="M136.473 122.051L136.232 121.917C140.104 114.924 142.827 108.187 144.326 101.893C146.536 92.609 145.994 84.5602 142.714 77.9702C140.145 72.8096 136.031 68.697 130.337 63.0049C125.792 58.4613 122.161 55.6513 118.958 53.1721C114.776 49.9354 111.472 47.3788 108.11 42.4631C104.697 37.474 102.351 31.6292 101.137 25.0913L101.408 25.0409C102.615 31.5408 104.947 37.3501 108.338 42.3073C111.676 47.1871 114.964 49.7319 119.127 52.9537C122.337 55.438 125.975 58.2537 130.532 62.8096C136.03 68.3053 140.372 72.6462 142.961 77.8472C146.271 84.4965 146.82 92.6083 144.594 101.957C143.09 108.275 140.358 115.036 136.473 122.051Z" fill="white"/>
<path d="M127.168 59.6994L127.019 59.744C126.974 59.7573 122.51 61.065 116.437 60.4692C112.871 60.1193 109.453 59.1916 106.28 57.7118C102.313 55.8624 98.7202 53.1409 95.5996 49.623L95.8061 49.4398C98.9015 52.9293 102.465 55.6282 106.396 57.4617C109.541 58.9282 112.929 59.8476 116.464 60.1945C121.861 60.724 125.967 59.7397 126.789 59.5211C121.963 48.4067 122.02 38.8365 122.921 32.7543C123.903 26.131 126.074 22.0943 126.096 22.0543L126.338 22.1865C126.316 22.2262 124.165 26.229 123.192 32.8079C122.295 38.878 122.245 48.4461 127.106 59.5565L127.168 59.6994Z" fill="white"/>
<path d="M139.353 71.9585C139.299 72.0442 139.246 72.1281 139.191 72.2111L139.135 72.2948L139.039 72.2682C138.967 72.2483 131.786 70.282 124.2 69.72C116.644 69.1604 105.793 75.9248 105.684 75.9931L105.537 75.7595C105.647 75.6906 116.575 68.8784 124.22 69.4447C131.352 69.973 138.127 71.7383 139.015 71.9757C142.939 65.9085 142.258 54.0741 140.987 45.1955C139.601 35.5134 137.236 27.159 137.213 27.0758L137.478 27.0001C137.502 27.0835 139.871 35.4532 141.26 45.1533C142.076 50.8535 142.399 55.892 142.22 60.1291C142.003 65.2773 141.038 69.2551 139.353 71.9585Z" fill="white"/>
<path d="M153.196 88.6046C149.131 95.1244 145.454 99.0956 145.414 99.1384L145.227 99.3397L145.178 99.069C144.508 95.3812 142.839 92.3451 140.218 90.0449C138.118 88.2021 135.404 86.8228 132.152 85.9455C126.603 84.4487 121.349 84.9414 121.297 84.9466L121.27 84.6718C121.323 84.6666 126.627 84.1693 132.224 85.679C135.517 86.5674 138.268 87.9665 140.4 89.8375C143.004 92.1225 144.684 95.1185 145.397 98.746C146.272 97.7685 150.109 93.3414 154.04 86.6813C158.148 79.7226 163.202 68.833 163.955 56.4717L165.416 32.4839L165.692 32.5007L164.231 56.4885C163.474 68.9073 158.399 79.8418 154.274 86.8279C153.913 87.4389 153.553 88.0319 153.196 88.6046Z" fill="white"/>
</g>
</g>
<path d="M139.972 109.919C147.645 106.725 156.85 101.446 163.95 92.7989C165.763 90.5922 176.957 76.9606 171.671 70.2747C169.809 67.9195 167.475 68.4152 164.938 65.3056C161.932 61.621 163.285 58.5668 162.449 52.7371C161.951 49.2586 160.491 39.0785 153.262 36.1726C148.941 34.4361 142.756 35.3758 139.077 38.2458C133.681 42.4555 134.736 49.9935 136.729 62.7419C138.496 74.043 140.447 76.1721 141.585 84.3161C142.43 90.3604 142.734 99.0476 139.972 109.919Z" fill="url(#paint1_linear_205_741)"/>
<mask id="mask1_205_741" style="mask-type:luminance" maskUnits="userSpaceOnUse" x="135" y="35" width="39" height="75">
<path d="M139.972 109.919C147.645 106.725 156.85 101.446 163.95 92.7989C165.763 90.5922 176.957 76.9606 171.671 70.2747C169.809 67.9195 167.475 68.4152 164.938 65.3056C161.932 61.621 163.285 58.5668 162.449 52.7371C161.951 49.2586 160.491 39.0785 153.262 36.1726C148.941 34.4361 142.756 35.3758 139.077 38.2458C133.681 42.4555 134.736 49.9935 136.729 62.7419C138.496 74.043 140.447 76.1721 141.585 84.3161C142.43 90.3604 142.734 99.0476 139.972 109.919Z" fill="white"/>
</mask>
<g mask="url(#mask1_205_741)">
<g opacity="0.5">
<path d="M142.515 105.998C139.941 110.127 136.79 113.677 133.07 116.63C126.316 121.991 118.021 125.266 108.416 126.363L108.384 126.088C117.937 124.998 126.185 121.743 132.898 116.414C141.842 109.314 147.485 98.7286 149.67 84.9507C151.947 70.6004 149.902 56.3832 147.787 46.9836C146.32 40.4678 142.917 34.0106 137.674 27.7914L137.885 27.6134C143.157 33.8669 146.58 40.3636 148.056 46.9229C150.177 56.3462 152.226 70.6005 149.943 84.994C148.654 93.1175 146.167 100.14 142.515 105.998Z" fill="white"/>
<path d="M150.682 66.172L150.563 66.1039C150.527 66.0837 146.974 64.039 143.087 60.2612C139.498 56.7725 134.878 51.0482 133.255 43.59L133.524 43.5313C135.133 50.9196 139.714 56.5965 143.274 60.0579C146.739 63.4265 149.934 65.4075 150.581 65.7943C161.241 47.1862 154.678 33.8642 152.408 30.2182C152.344 30.114 152.317 30.0707 152.304 30.0435L152.554 29.9264C152.562 29.9419 152.601 30.0052 152.643 30.0722C154.938 33.759 161.584 47.2494 150.751 66.053L150.682 66.172Z" fill="white"/>
<path d="M168.953 72.5361C168.861 72.6843 168.766 72.8326 168.667 72.9823C167.004 75.5106 164.799 77.7391 162.113 79.6058C158.759 81.9364 154.642 83.7064 149.876 84.8664L149.806 84.8837L149.751 84.8348C149.658 84.7504 140.339 76.23 134.555 61.7123L128.715 47.0567L128.972 46.9545L134.811 61.6102C140.343 75.4934 149.115 83.8657 149.883 84.5807C155.789 83.1331 163.773 79.9205 168.437 72.8306C171.231 68.5826 171.504 64.9092 171.506 64.8726L171.782 64.8909C171.779 64.9268 171.521 68.4178 168.953 72.5361Z" fill="white"/>
</g>
</g>
<path d="M114.634 140.328C112.655 139.672 111.176 137.992 110.759 135.927L107.878 121.67L83.2354 122.545L80.2026 137.398C79.7779 139.478 81.4781 141.565 83.4363 142.331L93.7462 146.365C95.6638 147.116 97.725 147.414 99.7737 147.239L121.562 145.375C122.199 145.321 122.71 144.82 122.784 144.178C122.858 143.535 123.304 142.814 122.697 142.613L114.634 140.328Z" fill="#97A6B7"/>
<path d="M114.878 139.461C112.901 138.813 111.423 137.154 111.006 135.116L108.129 121.037L84.0867 121.902L81.057 136.569C80.6327 138.623 81.7553 140.683 83.7116 141.439L94.0111 145.422C95.9267 146.163 97.9858 146.458 100.032 146.285L121.799 144.445C122.435 144.391 122.946 143.896 123.02 143.262C123.094 142.628 122.711 142.029 122.104 141.83L114.878 139.461Z" fill="url(#paint2_linear_205_741)"/>
<path d="M32.882 131.146C30.2097 131.305 28.0234 129.572 28.0234 127.281V44.7065C28.0234 42.4155 30.2097 40.6463 32.882 40.7621L157.001 49.3547C158.963 49.4398 160.016 47.856 160.016 49.8045V120.033C160.016 121.982 158.427 123.662 156.465 123.779L32.882 131.146Z" fill="#97A6B7"/>
<path d="M33.9926 131.146C31.3203 131.305 29.134 129.572 29.134 127.281V44.7065C29.134 42.4155 31.3202 40.6463 33.9926 40.7621L157.576 46.1169C159.538 46.2019 161.127 47.856 161.127 49.8045V120.033C161.127 121.982 159.538 123.662 157.576 123.779L33.9926 131.146Z" fill="white"/>
<path opacity="0.3" d="M157.576 47.7696L33.9925 42.6856C32.5639 42.6268 31.4023 43.5708 31.4023 44.7941V109.015V127.156C31.4023 128.38 32.5639 129.304 33.9925 129.222L157.576 122.126C158.627 122.065 159.478 121.169 159.478 120.124V104.07V49.7408C159.478 48.6954 158.627 47.8129 157.576 47.7696Z" fill="#D8DEE8"/>
<path d="M156.658 116.183L35.3321 122.172C34.0586 122.235 33.0237 121.393 33.0237 120.292V45.8758C33.0237 44.7744 34.0586 43.9199 35.3321 43.9672L156.658 48.4707C157.61 48.506 158.38 49.304 158.38 50.2531V114.38C158.38 115.329 157.61 116.136 156.658 116.183Z" fill="#D8DEE8"/>
<path opacity="0.6" d="M144.674 118.667C117.772 119.23 111.722 123.071 104.078 118.469C93.5738 112.144 98.3575 100.894 88.1234 94.9928C75.257 87.5736 60.4226 101.161 53.7074 94.5369C47.02 87.94 59.6528 72.4137 52.3398 55.1066C49.4051 48.1612 44.408 43.6502 40.956 41.0638L33.9926 40.7621C31.3202 40.6463 29.134 42.4155 29.134 44.7065V127.281C29.134 129.572 31.3202 131.305 33.9926 131.146L157.576 123.779C159.538 123.662 161.127 121.982 161.127 120.033V118.785C157.423 118.653 151.685 118.521 144.674 118.667Z" fill="white"/>
<path d="M125.992 101.711C125.8 103.386 125.37 105.413 124.517 107.75C122.789 112.479 116.61 113.316 112.523 113.323C110.344 113.327 108.758 113.096 108.758 113.096C108.758 113.096 108.758 113.096 108.246 111.283C108.432 111.098 116.056 109.517 118.459 103.182C120.859 96.8463 125.737 96.2234 125.737 96.2234C125.737 96.2234 126.393 98.187 125.992 101.711Z" fill="url(#paint3_linear_205_741)"/>
<path opacity="0.3" d="M125.991 101.711C125.8 103.386 125.347 105.413 124.494 107.75C122.766 112.479 116.567 113.316 112.477 113.323V113.284C112.477 113.284 117.939 112.632 118.869 110.261C119.798 107.89 119.81 106.914 122.088 105.844C123.51 105.177 124.974 102.789 125.991 101.711Z" fill="url(#paint4_linear_205_741)"/>
<path d="M131.3 152.727C131.508 152.896 131.547 153.32 131.572 153.596C131.583 153.72 131.588 153.782 131.575 153.825C131.474 154.143 130.856 154.177 129.888 154.276C128.358 154.432 127.903 154.553 127.783 154.325C127.671 154.112 127.943 153.762 127.973 153.724C128.138 153.517 128.339 153.441 128.73 153.313C129.451 153.075 129.939 152.945 130.087 152.906C131.009 152.66 131.163 152.616 131.3 152.727Z" fill="url(#paint5_linear_205_741)"/>
<path d="M130.39 151.329L130.237 153.073C130.28 153.157 130.798 153.41 131.21 153.193L131.603 151.479L130.39 151.329Z" fill="url(#paint6_linear_205_741)"/>
<path d="M119.166 152.503C119.416 152.779 119.473 153.287 119.256 153.537C119.042 153.783 118.721 153.599 117.81 153.626C116.835 153.655 116.58 153.886 115.917 153.703C115.649 153.629 115.176 153.449 115.185 153.258C115.192 153.123 115.433 153.054 116.237 152.784C117.378 152.402 117.373 152.381 117.616 152.341C118.225 152.24 118.836 152.139 119.166 152.503Z" fill="url(#paint7_linear_205_741)"/>
<path d="M118.541 150.912L118.052 152.539C118.089 152.627 118.586 152.918 119.013 152.733L119.74 151.154L118.541 150.912Z" fill="url(#paint8_linear_205_741)"/>
<path d="M122.889 115.266C122.819 120.736 122.445 126.886 121.55 133.568C120.665 140.172 119.424 146.139 118.071 151.386C118.695 151.554 119.32 151.722 119.944 151.89C121.528 150.413 123.526 148.088 124.49 144.803C125.088 142.764 124.889 141.716 125.268 139.208C125.872 135.215 127.096 133.123 128.362 129.903C129.498 127.009 130.842 122.763 131.563 117.086C128.671 116.48 125.78 115.873 122.889 115.266Z" fill="#26264F"/>
<path d="M128.524 114.744C128.906 121.701 129.22 128.787 129.458 135.999C129.637 141.41 129.768 146.753 129.856 152.026C130.493 152.105 131.131 152.183 131.769 152.262C132.385 151.115 133.203 149.361 133.764 147.113C134.445 144.383 134.287 142.761 134.586 139.932C134.921 136.758 135.407 136.067 136.27 132.063C138.019 123.938 138.894 119.875 136.942 117.348C136.309 116.528 134.322 114.469 128.524 114.744Z" fill="#26264F"/>
<path d="M137.817 97.2597C136.324 96.8398 134.135 96.3487 131.455 96.1972C127.632 95.9811 125.721 95.8731 124.366 96.7835C121.238 98.8862 123.66 103.739 122.379 115.769C122.196 117.487 122.155 119.218 122.023 120.94C121.803 123.792 121.753 123.947 121.952 124.236C123.196 126.048 127.839 123.315 134.645 124.395C138.452 125 140.179 126.393 141.222 125.388C142.439 124.217 141.395 121.065 140.497 118.352C139.466 115.238 138.829 115.198 138.244 112.853C137.632 110.402 138.002 109.14 138.097 105.275C138.143 103.425 138.133 100.673 137.817 97.2597Z" fill="url(#paint9_linear_205_741)"/>
<g opacity="0.3">
<path d="M128.563 119.845C130.342 119.706 131.496 120.711 133.031 119.927C135.137 118.853 135.813 115.509 135.679 113.143C135.475 109.547 133.422 108.6 133.776 106.275C133.967 105.019 134.865 103.35 138.086 101.645C138.129 103.08 138.121 104.303 138.097 105.275C138.002 109.14 137.632 110.402 138.244 112.853C138.829 115.198 139.466 115.238 140.497 118.352C141.395 121.065 142.439 124.217 141.222 125.388C140.179 126.393 138.452 125 134.645 124.395C128.781 123.464 124.525 125.363 122.663 124.747C124.913 121.029 126.954 119.971 128.563 119.845Z" fill="url(#paint10_linear_205_741)"/>
</g>
<path d="M135.391 97.5066C136.662 96.4628 139.216 97.6444 139.899 97.9601C143.706 99.7214 147.125 104.467 146.278 109.483C146.151 110.235 145.562 113.754 142.582 115.459C139.894 116.997 136.264 116.601 133.356 114.422C132.959 114.07 132.561 113.717 132.164 113.364C131.773 112.942 131.381 112.519 130.99 112.096C131.605 111.585 132.65 110.848 134.116 110.374C136.05 109.75 137.458 110.87 138.355 110.019C138.974 109.431 138.976 108.394 138.823 107.765C138.515 106.497 137.397 106.141 136.465 105.241C134.274 103.128 133.87 98.7564 135.391 97.5066Z" fill="url(#paint11_linear_205_741)"/>
<path d="M132.142 113.071C132.246 113.048 131.633 111.825 131.151 111.966C130.669 112.108 128.313 113.473 128.099 114.035C127.885 114.597 127.885 114.597 127.885 114.597C127.885 114.597 128.913 114.678 129.55 114.463C130.187 114.249 131.292 113.261 132.142 113.071Z" fill="url(#paint12_linear_205_741)"/>
<path d="M131.169 92.0205C131.16 93.1539 131.286 94.0527 131.406 94.6683C131.543 95.3736 131.642 95.5557 131.768 95.7036C131.957 95.9262 132.245 96.1128 133.869 96.5156C134.753 96.7347 134.866 96.7287 134.886 96.8164C134.981 97.2442 132.571 98.7024 130.081 98.3509C128.558 98.1359 127.171 97.2666 127.256 96.81C127.342 96.3506 128.864 96.5971 129.318 95.7659C129.633 95.1877 129.28 94.3668 128.861 93.687C129.267 92.9282 130.764 92.7793 131.169 92.0205Z" fill="url(#paint13_linear_205_741)"/>
<path d="M132.236 91.2625C131.964 90.6926 131.443 90.3216 130.7 90.1554C130.7 90.1552 130.7 90.1551 130.7 90.155C130.7 90.155 130.714 90.1537 130.709 90.1527C130.649 90.1377 130.6 90.1242 130.54 90.1126C130.119 90.0128 129.134 89.7373 128.951 89.3181C128.719 88.7835 126.211 91.8052 128.373 92.6187C128.438 92.6434 128.504 92.6649 128.566 92.684C128.86 92.8813 129.2 92.8757 129.6 93.3635C129.854 93.6721 130.021 94.0443 130.063 94.1397C130.171 94.3873 130.24 94.6157 130.284 94.8003C130.861 94.1749 131.215 93.801 131.44 93.5659C131.603 93.3962 131.769 93.3194 131.866 93.0951C131.952 92.8967 132.489 91.7934 132.236 91.2625Z" fill="#26264F"/>
<path d="M131.107 94.2745C131.107 94.2745 130.467 95.3244 129.193 95.2415C128.052 95.1672 127.885 92.6089 128.614 92.066C128.857 91.8849 129.344 91.8097 129.74 91.9206C129.973 91.9861 130.053 92.0833 130.437 92.1828C130.791 92.2748 130.891 92.2355 130.998 92.3255C131.132 92.4381 131.23 92.7141 131.006 93.462C131.224 93.2417 131.485 93.1571 131.67 93.2445C131.7 93.2585 131.778 93.3117 131.822 93.3925C131.982 93.6847 131.715 94.0579 131.107 94.2745Z" fill="url(#paint14_linear_205_741)"/>
<path d="M80.2321 153.319C84.9359 153.319 88.749 151.762 88.749 149.843C88.749 147.923 84.9359 146.367 80.2321 146.367C75.5284 146.367 71.7153 147.923 71.7153 149.843C71.7153 151.762 75.5284 153.319 80.2321 153.319Z" fill="#B7C0CE"/>
<path d="M71.7153 149.435C71.7153 151.247 75.5284 152.716 80.2321 152.716C84.9358 152.716 88.749 151.247 88.749 149.435C88.749 147.623 84.9358 144.658 80.2321 144.658C75.5284 144.658 71.7153 147.623 71.7153 149.435Z" fill="#97A6B7"/>
<path opacity="0.3" d="M71.7153 149.435C71.7153 147.623 75.5284 144.658 80.2321 144.658C82.404 144.658 84.3848 145.291 85.8892 146.15C85.9946 146.37 86.0436 146.59 86.0237 146.798C85.926 147.817 84.2631 148.444 83.3087 148.651C80.905 149.172 79.7312 147.734 77.7493 147.789C76.5241 147.823 74.8261 148.438 72.8122 151.045C72.115 150.57 71.7153 150.02 71.7153 149.435Z" fill="#97A6B7"/>
<path d="M79.7656 146.929C80.1058 147.014 80.4233 147.01 80.7221 146.934C80.993 146.866 81.179 146.615 81.179 146.335V138.164H79.2852V146.324C79.2852 146.612 79.486 146.859 79.7656 146.929Z" fill="#97A6B7"/>
<path d="M90.2389 135.776L87.3457 133.947C87.2254 133.264 87.187 109.166 81.6505 106.922C80.5121 106.46 78.9291 104.649 77.0627 103.665C76.637 103.441 76.1957 103.262 75.7607 103.119C75.4349 102.974 75.0795 102.828 74.6862 102.683C74.1994 102.504 71.6783 102.749 71.305 102.978C70.192 103.18 69.1384 104.981 68.3237 106.684C67.6642 107.858 67.1424 108.952 66.795 109.435C65.9196 110.652 67.9575 120.282 68.8668 126.998C68.9636 127.853 69.0288 128.547 69.0474 129.006C69.1351 131.172 68.8828 132.388 69.1052 133.524C68.9371 134.66 68.7844 135.381 69.186 136.343C69.8144 137.848 71.2717 138.682 72.4047 139.152C73.7591 139.938 76.1174 141.059 79.2323 141.332C84.4788 141.792 88.3956 139.541 89.7426 138.68C90.3416 138.491 90.7915 137.993 90.919 137.378C91.0481 136.755 90.7771 136.116 90.2389 135.776Z" fill="url(#paint15_linear_205_741)"/>
<path d="M72.3346 103.361C70.3873 103.617 68.6105 108.849 67.9648 109.982C67.3896 110.99 69.8869 126.126 70.0196 129.402C70.1406 132.388 69.614 133.569 70.5792 135.224C70.5792 135.224 71.0696 136.065 71.8438 136.697C74.5799 138.93 81.6388 138.902 84.6099 134.242C86.9801 130.523 83.6964 108.297 80.9115 106.484C79.8415 105.787 79.2612 104.405 75.6584 103.078C74.7042 102.727 74.01 103.14 72.3346 103.361Z" fill="url(#paint16_linear_205_741)"/>
<path d="M90.4492 134.134L87.556 132.305C87.556 132.305 79.8066 129.757 72.6365 133.349C71.8336 133.751 71.334 134.582 71.334 135.48C71.334 136.169 71.7479 136.791 72.3836 137.057C73.6344 137.911 76.0764 139.321 79.4426 139.69C84.7941 140.276 88.7758 137.826 89.953 137.038C90.5519 136.849 91.002 136.351 91.1293 135.736C91.2584 135.112 90.9874 134.474 90.4492 134.134Z" fill="url(#paint17_linear_205_741)"/>
<path d="M72.708 105.68C72.1748 105.051 70.018 110.222 70.018 110.222C69.9561 110.85 73.0862 109.811 73.4581 109.625C73.8299 109.439 73.2411 106.309 72.708 105.68Z" fill="url(#paint18_linear_205_741)"/>
<path d="M75.5257 105.021C75.8099 104.247 79.6142 108.361 79.6142 108.361C79.8884 108.929 76.5919 109.03 76.1787 108.984C75.7655 108.937 75.2415 105.795 75.5257 105.021Z" fill="url(#paint19_linear_205_741)"/>
<path d="M103.06 156.839L100.59 155.355H99.4753C99.4753 155.355 99.0955 156.768 99.1387 156.839C99.6354 157.653 101.948 158.272 103.391 158.323C103.631 158.332 103.965 158.333 104.052 158.16C104.198 157.865 103.544 157.248 103.06 156.839Z" fill="url(#paint20_linear_205_741)"/>
<path d="M100.546 153.735C100.542 154.6 100.579 155.21 100.796 155.478C100.948 155.667 99.4834 156.092 99.4753 155.355C99.4701 154.869 99.3937 154.037 99.3162 153.792C99.7262 153.773 100.136 153.754 100.546 153.735Z" fill="url(#paint21_linear_205_741)"/>
<path d="M93.8731 158.926L91.4029 157.441H90.2881C90.2881 157.441 89.9083 158.855 89.9514 158.926C90.4481 159.74 92.7609 160.359 94.204 160.41C94.4436 160.419 94.7779 160.42 94.8643 160.246C95.0106 159.952 94.357 159.335 93.8731 158.926Z" fill="url(#paint22_linear_205_741)"/>
<path d="M91.3592 155.822C91.3551 156.687 91.3921 157.297 91.6085 157.565C91.7609 157.754 90.2961 158.179 90.2881 157.442C90.2828 156.956 90.2065 156.123 90.1289 155.879C90.539 155.86 90.9491 155.841 91.3592 155.822Z" fill="url(#paint23_linear_205_741)"/>
<path d="M100.647 154.453C101.346 150.235 100.663 145.73 100.504 143.307C100.251 139.453 100.124 137.526 99.0094 135.908C97.5496 133.788 94.5616 131.669 92.0367 129.877C91.8184 129.723 91.3798 129.417 90.8346 128.932C89.4763 127.721 88.6131 126.448 88.0922 125.551C82.3754 123.874 77.1024 124.554 74.7756 127.62C74.5067 127.974 73.8336 128.743 73.7034 129.876C73.4096 132.432 75.9216 135.51 78.7404 136.153C82.3228 136.97 84.4011 133.291 87.5751 134.515C87.8914 134.637 88.8262 135.578 90.7211 137.403C92.0971 138.728 92.7851 139.39 93.0042 139.653C95.0324 142.09 96.2411 145.841 96.3868 148.745C96.4126 149.26 96.435 150.339 97.0562 151.495C97.5318 152.38 98.8365 153.988 99.3161 154.353C99.7597 154.386 100.203 154.42 100.647 154.453Z" fill="url(#paint24_linear_205_741)"/>
<path d="M89.9479 156.536C89.9479 156.536 91.1709 157.114 92.0785 156.536C92.0486 155.007 92.0463 152.613 92.2418 149.686C92.6699 143.28 93.5764 141.343 92.7718 138.607C92.1912 136.633 90.6313 133.943 86.0281 131.428L74.3384 130.282C74.3384 130.282 73.7873 131.179 73.9214 132.421C74.167 134.695 76.7807 136.089 78.9663 137.228C83.2822 139.479 84.1936 138.443 85.5993 139.96C87.4994 142.011 86.3161 144.422 87.3542 149.493C87.9814 152.556 89.0836 154.952 89.9479 156.536Z" fill="url(#paint25_linear_205_741)"/>
<path d="M91.4645 126.739C93.0652 126.601 95.4896 119.023 92.1285 114.129C89.6532 110.525 84.4941 109.038 83.5938 110.131C83.0714 110.765 84.1451 112.071 86.1353 115.817C90.2184 123.504 90.3862 126.833 91.4645 126.739Z" fill="url(#paint26_linear_205_741)"/>
<path d="M73.6831 110.484C75.1268 110.021 77.3266 109.478 80.025 109.446C83.0487 109.41 85.4661 109.381 87.1295 110.656C91.1477 113.734 86.6486 121.331 88.9576 126.843C89.2099 127.446 89.9436 129.356 89.3055 131.457C89.1878 131.844 88.9454 132.185 88.5306 132.761C86.0893 136.153 79.1783 136.663 75.9857 133.875C74.2915 132.395 72.7643 132.724 72.7234 130.973C72.5619 124.059 73.7493 117.137 73.6831 110.484Z" fill="url(#paint27_linear_205_741)"/>
<path d="M76.7276 119.245C76.1463 117.814 76.7486 116.152 75.4518 115.454C74.9759 115.198 73.8097 114.477 73.7384 115.119C73.2664 119.369 72.8433 123.754 72.9799 129.05C73.025 130.8 74.35 132.394 76.2227 133.867C78.3854 135.569 82.0943 136.021 85.2573 135.337C81.1115 133.149 78.1358 130.827 78.5629 128.744C79.0599 126.32 83.9016 125.485 83.7076 123.783C83.5018 121.979 77.9964 122.367 76.7276 119.245Z" fill="url(#paint28_linear_205_741)"/>
<path d="M80.308 105.68C80.3174 106.701 80.1921 107.512 80.0735 108.068C79.9377 108.705 79.8397 108.87 79.7147 109.005C79.5266 109.208 79.2412 109.379 77.6266 109.762C76.7462 109.971 76.6328 109.967 76.6133 110.046C76.5184 110.434 78.9171 111.718 81.3853 111.368C82.891 111.154 84.2575 110.356 84.1738 109.947C84.0894 109.535 82.5885 109.775 82.1404 109.033C81.8285 108.516 82.1781 107.774 82.5912 107.158C82.1911 106.48 80.7092 106.36 80.308 105.68Z" fill="url(#paint29_linear_205_741)"/>
<path d="M83.4689 106.947C83.9306 106.609 84.1587 105.887 83.8946 105.337C83.6672 104.864 83.1479 104.685 82.8368 104.578C81.9343 104.266 80.6569 104.351 80.0234 105.041C79.6477 105.449 79.8975 106.533 79.9303 106.726C79.9674 106.943 80.1171 107.048 80.231 107.232C80.3887 107.487 80.6342 107.89 81.0308 108.562C81.1198 108.41 81.242 108.225 81.4074 108.032C81.471 107.958 81.724 107.669 82.0431 107.455C82.6821 107.025 83.031 107.268 83.4689 106.947Z" fill="url(#paint30_linear_205_741)"/>
<path d="M80.3734 107.924C80.3734 107.924 80.7247 108.98 81.9654 109.183C83.074 109.363 83.8691 107.168 83.3089 106.537C83.1219 106.326 82.6756 106.154 82.2697 106.165C82.0298 106.171 81.9299 106.239 81.5375 106.242C81.1753 106.245 81.0893 106.189 80.9644 106.244C80.8082 106.313 80.6454 106.533 80.6728 107.236C80.5191 106.996 80.2897 106.865 80.0903 106.901C80.0584 106.907 79.97 106.936 79.9075 106.997C79.6814 107.218 79.8443 107.603 80.3734 107.924Z" fill="url(#paint31_linear_205_741)"/>
<path d="M80.9532 106.1C80.9957 106.147 80.7834 106.29 80.6988 106.541C80.5346 107.029 80.9127 107.744 81.4561 107.921C81.7771 108.025 81.9194 107.864 82.4785 107.935C82.8243 107.978 83.0933 108.081 83.2594 108.156C83.2763 108.734 82.9624 109.236 82.4963 109.397C81.9941 109.57 81.4967 109.284 81.2886 109.165C81.1494 109.085 80.7027 108.829 80.5641 108.363C80.4197 107.877 80.754 107.68 80.531 107.323C80.4186 107.143 80.2343 107.034 80.1177 106.708C80.086 106.62 80.0696 106.544 80.0608 106.494C80.421 106.285 80.8917 106.03 80.9532 106.1Z" fill="url(#paint32_linear_205_741)"/>
<path d="M82.807 108.266C82.807 108.266 82.5396 108.326 82.1386 108.213C82.1191 108.207 82.0957 108.207 82.0906 108.216C82.0712 108.249 82.2872 108.467 82.5453 108.459C82.7286 108.454 82.9035 108.336 82.8912 108.294C82.8859 108.276 82.8467 108.269 82.807 108.266Z" fill="url(#paint33_linear_205_741)"/>
<path d="M112.241 157.151C112.235 157.151 112.23 157.151 112.224 157.15C112.113 157.142 112.027 157.049 112.027 156.937V125.273C112.027 125.155 112.123 125.06 112.241 125.06C112.358 125.06 112.454 125.155 112.454 125.273V154.164L116.828 125.926C116.846 125.809 116.955 125.73 117.072 125.748C117.188 125.766 117.268 125.875 117.25 125.991L112.452 156.97C112.435 157.075 112.345 157.151 112.241 157.151Z" fill="#B7C0CE"/>
<path opacity="0.81" d="M58.731 129.26L111.375 125.206L153.21 128.437L100.24 132.895L58.731 129.26Z" fill="#F4F7FA"/>
<path d="M100.24 132.895L58.731 129.26V131.016L100.24 134.651L153.21 130.193V128.437L100.24 132.895Z" fill="#B7C0CE"/>
<path d="M99.882 167.955C99.7761 167.955 99.6851 167.877 99.6707 167.771L95.1072 134.08C95.0913 133.963 95.1732 133.855 95.2901 133.839C95.4071 133.823 95.5144 133.906 95.5303 134.022L99.6688 164.575V134.051C99.6688 133.933 99.7643 133.838 99.8822 133.838C100 133.838 100.096 133.933 100.096 134.051V167.742C100.096 167.854 100.009 167.947 99.8966 167.955C99.8918 167.955 99.8868 167.955 99.882 167.955Z" fill="#B7C0CE"/>
<path d="M152.631 161.762C152.525 161.762 152.434 161.684 152.42 161.578L148.19 130.626C148.174 130.51 148.256 130.402 148.373 130.386C148.49 130.369 148.598 130.452 148.614 130.569L152.418 158.41V129.372C152.418 129.254 152.514 129.159 152.632 129.159C152.749 129.159 152.845 129.254 152.845 129.372V161.549C152.845 161.661 152.758 161.754 152.646 161.762C152.641 161.762 152.636 161.762 152.631 161.762Z" fill="#B7C0CE"/>
<path d="M59.2297 161.762C59.2244 161.762 59.2193 161.762 59.2139 161.762C59.1025 161.754 59.0161 161.661 59.0161 161.549V131.016C59.0161 130.898 59.1116 130.802 59.2296 130.802C59.3475 130.802 59.443 130.898 59.443 131.016V158.63L63.5092 130.985C63.5264 130.868 63.6354 130.787 63.7515 130.805C63.8681 130.822 63.9488 130.93 63.9316 131.047L59.4407 161.58C59.4253 161.685 59.3347 161.762 59.2297 161.762Z" fill="#B7C0CE"/>
<path d="M77.9895 128.662C78.3152 128.298 78.6408 127.934 78.9664 127.571C76.4296 124.242 74.4161 122.799 72.9904 122.112C72.0139 121.641 72.0538 121.336 72.0136 121.221C71.7719 120.529 74.4308 117.489 75.1253 116.567C76.4036 114.87 77.6135 111.974 76.6724 110.812C75.6926 109.601 72.5713 110.504 70.9171 111.307C69.4538 112.017 68.4873 112.962 67.9851 113.528C66.4288 115.279 63.4336 119.993 65.3475 124.24C67.1255 128.186 72.5762 130.478 77.9895 128.662Z" fill="url(#paint34_linear_205_741)"/>
<path d="M85.1467 128.633V128.182L104.537 127.137V127.583L90.8347 128.932L85.1467 128.633Z" fill="url(#paint35_linear_205_741)"/>
<path d="M85.1467 128.182L91.1613 128.258L104.537 127.137L100.797 126.908L85.1467 128.182Z" fill="url(#paint36_linear_205_741)"/>
<path d="M87.7178 126.629L93.1709 109.566C93.2569 109.297 93.5637 109.102 93.9111 109.096L117.788 108.658C117.992 108.654 118.345 108.803 118.469 108.931C118.592 109.059 118.761 109.083 118.715 109.249L114.263 124.264C114.189 124.514 113.923 124.707 113.614 124.736L88.1553 127.069L87.7178 126.629Z" fill="url(#paint37_linear_205_741)"/>
<path d="M88.1553 127.069L93.6853 109.891C93.7716 109.623 94.0775 109.428 94.4236 109.422L118.25 108.968C118.453 108.965 118.643 109.037 118.766 109.165C118.89 109.293 118.935 109.464 118.888 109.63L114.726 124.542C114.654 124.799 114.38 124.998 114.064 125.023L88.1553 127.069Z" fill="url(#paint38_linear_205_741)"/>
<path opacity="0.3" d="M88.1553 127.069L114.064 125.023C114.38 124.998 114.654 124.799 114.725 124.542L115.982 120.04C108.086 122.801 98.7038 122.498 89.4013 123.198L88.1553 127.069Z" fill="url(#paint39_linear_205_741)"/>
<path d="M103.383 129.943L102.4 130.282C102.4 130.282 97.2332 129.311 97.0082 129.153C96.9724 129.128 96.8485 128.888 97.0795 128.848C98.299 128.638 102.751 128.484 102.751 128.484L103.158 128.507L103.383 129.943Z" fill="url(#paint40_linear_205_741)"/>
<path d="M103.453 129.641L102.471 129.979C102.471 129.979 97.3046 129.006 97.0797 128.848C96.8545 128.689 102.821 128.182 102.821 128.182L103.229 128.206L103.453 129.641Z" fill="url(#paint41_linear_205_741)"/>
<path d="M107.726 117.774C107.726 117.774 110.233 128.561 110.307 129.192C110.376 129.775 104.212 130.346 102.735 130.396C102.612 130.401 102.45 130.316 102.4 130.282C101.992 130.235 103.904 117.929 103.904 117.929L104.044 117.934L107.726 117.774Z" fill="url(#paint42_linear_205_741)"/>
<path d="M107.726 117.774C107.726 117.774 110.577 128.67 110.651 129.301C110.725 129.931 103.396 130.413 102.755 130.391C102.347 130.345 104.044 117.934 104.044 117.934L107.726 117.774Z" fill="url(#paint43_linear_205_741)"/>
<path d="M78.9661 128.182C78.9661 128.182 80.5928 127.438 81.532 127.504C82.4712 127.571 83.7929 128.425 84.0227 128.932C84.2526 129.438 80.8447 129.383 80.8447 129.383C80.8447 129.383 76.7826 129.225 78.9661 128.182Z" fill="url(#paint44_linear_205_741)"/>
<path d="M78.123 127.312C79.0308 126.158 81.1952 126.863 81.3175 126.905C81.8349 127.08 82.5282 127.437 82.4799 127.665C82.433 127.885 81.7356 127.77 80.585 127.965C78.9011 128.249 78.1544 128.874 77.8566 128.556C77.6287 128.313 77.825 127.691 78.123 127.312Z" fill="url(#paint45_linear_205_741)"/>
<path d="M137.258 88.1158C136.119 86.6898 135.463 85.0155 135.463 83.2247C135.463 78.0171 141.008 73.7955 147.848 73.7955C154.687 73.7955 160.232 78.0171 160.232 83.2247C160.232 88.4322 154.687 92.6538 147.848 92.6538C145.284 92.6538 142.903 92.0608 140.927 91.0451C139.621 91.268 137.593 91.6423 136.524 91.8414C136.209 91.9 135.95 91.592 136.063 91.2921L137.258 88.1158Z" fill="url(#paint46_linear_205_741)"/>
<g opacity="0.3">
<path d="M141.07 85.22C143.847 84.0528 146.901 86.5166 148.81 84.7979C150.735 83.0653 148.656 79.6398 150.499 77.1986C151.378 76.0347 152.854 75.484 154.544 75.2915C157.966 76.9693 160.232 79.8954 160.232 83.2246C160.232 88.4321 154.687 92.6537 147.848 92.6537C145.284 92.6537 142.903 92.0607 140.927 91.0451C139.896 91.2209 138.417 91.491 137.313 91.6949C138.127 87.4729 139.625 85.8274 141.07 85.22Z" fill="url(#paint47_linear_205_741)"/>
</g>
<path d="M139.635 79.7787C139.635 80.0412 139.847 80.2541 140.11 80.2541H155.166C155.428 80.2541 155.641 80.0413 155.641 79.7787C155.641 79.5161 155.428 79.3032 155.166 79.3032H140.11C139.847 79.3032 139.635 79.5161 139.635 79.7787Z" fill="white"/>
<path d="M139.635 82.6313C139.635 82.8939 139.847 83.1068 140.11 83.1068H155.166C155.428 83.1068 155.641 82.894 155.641 82.6313C155.641 82.3688 155.428 82.1559 155.166 82.1559H140.11C139.847 82.1559 139.635 82.3687 139.635 82.6313Z" fill="white"/>
<path d="M146.766 85.484C146.766 85.7466 146.979 85.9595 147.242 85.9595H155.166C155.428 85.9595 155.641 85.7466 155.641 85.484C155.641 85.2214 155.428 85.0085 155.166 85.0085H147.242C146.979 85.0085 146.766 85.2214 146.766 85.484Z" fill="white"/>
<path d="M122.704 79.5103C122.704 92.9074 111.726 103.955 97.8523 104.191C83.5985 104.434 71.7537 93.2302 71.7537 79.1608C71.7537 65.0913 83.5985 54.05 97.8523 54.4883C111.726 54.915 122.704 66.1131 122.704 79.5103Z" fill="url(#paint48_linear_205_741)"/>
<path d="M114.994 78.2877C114.157 72.8082 112.326 69.9849 111.018 68.564C110.306 67.7896 109.302 67.3985 108.248 67.3789L108.055 67.3753C106.513 67.3468 104.993 67.6531 103.645 68.3824L103.171 68.6846C101.688 69.4869 100.006 69.9414 98.2892 69.9141L97.7954 69.9062L97.4149 69.9001C95.6892 69.8726 93.9876 69.3298 92.4782 68.4698L91.9941 68.2173C90.612 67.4298 89.0445 67.0227 87.445 66.9931L87.2438 66.9893C86.1446 66.969 85.0931 67.3312 84.3439 68.0987C82.9638 69.5127 81.0192 72.397 80.1257 78.0399C79.2802 83.3792 79.522 86.7052 79.8798 88.5785C80.1022 89.7428 80.9016 90.7257 82.0179 91.2189L82.0574 91.2325C83.309 91.7857 84.774 91.6364 85.8815 90.8484L90.2764 87.7989C91.9458 86.611 93.9548 86.0499 96.0094 86.0507L97.7955 86.0515L99.6886 86.0522C101.721 86.053 103.692 86.6084 105.319 87.7789L109.554 90.7867C110.61 91.5463 112 91.6567 113.182 91.1077L113.219 91.0808C114.268 90.5935 115.016 89.6247 115.224 88.4979C115.558 86.6871 115.784 83.4557 114.994 78.2877ZM85.4277 76.896C84.5768 76.8882 83.8859 76.2162 83.8859 75.3948C83.8859 74.5735 84.5768 73.9158 85.4277 73.9259C86.2772 73.9361 86.965 74.6082 86.965 75.4271C86.965 76.2461 86.2772 76.9037 85.4277 76.896ZM88.4127 82.6819C87.096 82.6771 86.0261 81.6396 86.0261 80.3645C86.0261 79.0895 87.096 78.0644 88.4127 78.0749C89.7262 78.0854 90.7886 79.123 90.7886 80.3922C90.7886 81.6615 89.7262 82.6866 88.4127 82.6819ZM95.5083 82.3806C95.1143 82.3791 94.7947 82.0667 94.7947 81.6828C94.7947 81.299 95.1143 80.9895 95.5083 80.9916C95.902 80.9937 96.2209 81.3061 96.2209 81.6894C96.2209 82.0727 95.902 82.3822 95.5083 82.3806ZM99.2701 82.3954C98.879 82.3939 98.5617 82.0827 98.5617 81.7001C98.5617 81.3177 98.879 81.0093 99.2701 81.0114C99.661 81.0134 99.9777 81.3248 99.9777 81.7067C99.9777 82.0887 99.661 82.397 99.2701 82.3954ZM111.547 77.9366C111.547 78.3365 111.214 78.714 110.809 78.7109L108.757 78.6958V80.5765C108.757 80.9775 108.459 81.3872 108.053 81.3852L107.307 81.3816C106.9 81.3796 106.526 80.9661 106.526 80.5642V78.6795L104.317 78.6631C103.907 78.6599 103.551 78.275 103.551 77.8721V77.1018C103.551 76.7212 103.889 76.4957 104.276 76.4995L106.526 76.5209V74.5006C106.526 74.0988 106.886 73.8271 107.293 73.8321L108.056 73.841C108.463 73.846 108.757 74.1248 108.757 74.5258V76.5417L110.809 76.561C111.214 76.5649 111.547 76.8124 111.547 77.2123L111.547 77.9366Z" fill="url(#paint49_linear_205_741)"/>
<path d="M124.377 79.5102C124.377 89.0011 118.868 97.3131 110.721 101.437C107.369 103.135 103.57 104.123 99.5253 104.191C85.2723 104.435 73.4272 93.2296 73.4272 79.1607C73.4272 69.8186 78.6487 61.8135 86.3303 57.6148C90.2184 55.4912 94.7352 54.3421 99.5253 54.489C113.399 54.9147 124.377 66.1126 124.377 79.5102Z" fill="url(#paint50_linear_205_741)"/>
<path d="M116.668 78.2867C115.831 72.8086 114 69.984 112.692 68.5634C111.98 67.7899 110.976 67.3975 109.922 67.3789L109.728 67.3752C108.187 67.3473 106.668 67.6522 105.319 68.383L104.845 68.6842C103.361 69.4876 101.68 69.9413 99.9623 69.9134L99.4695 69.906L99.0883 69.9004C98.6551 69.893 98.2218 69.8539 97.7941 69.7833C96.5186 69.5787 95.282 69.1138 94.1514 68.4705L93.6679 68.2176C92.2863 67.4292 90.7188 67.022 89.1196 66.9922L88.9168 66.9885C87.8179 66.9698 86.7673 67.3306 86.0179 68.0986C84.6382 69.5137 82.6932 72.3977 81.7987 78.0394C80.9545 83.3798 81.1963 86.7046 81.5533 88.579C81.7764 89.743 82.5761 90.7249 83.6917 91.2195L83.7307 91.2325C84.9822 91.7848 86.4474 91.636 87.5557 90.8476L91.9497 87.798C93.6195 86.6117 95.6278 86.0446 97.6825 86.0446L98.8447 86.0408H101.362C103.395 86.0408 105.366 86.6024 106.993 87.7739L111.227 90.7834C112.283 91.544 113.674 91.6551 114.855 91.1065L114.892 91.0794C115.941 90.5922 116.69 89.6237 116.898 88.4968C117.231 86.6875 117.458 83.4561 116.668 78.2867ZM87.102 76.8958C86.2504 76.8884 85.5605 76.2152 85.5605 75.3951C85.5605 74.5733 86.2504 73.915 87.102 73.9261C87.9518 73.9354 88.6379 74.6086 88.6379 75.4267C88.6379 76.2468 87.9518 76.9032 87.102 76.8958ZM90.0865 82.6825C88.7699 82.6769 87.6989 81.6393 87.6989 80.3637C87.6989 79.09 88.7699 78.0635 90.0865 78.0746C91.3993 78.0858 92.463 79.1234 92.463 80.3916C92.463 81.6617 91.3993 82.6862 90.0865 82.6825ZM97.1823 82.3813C96.7881 82.3794 96.4683 82.067 96.4683 81.6821C96.4683 81.2991 96.7881 80.9886 97.1823 80.9922C97.5766 80.994 97.8946 81.3065 97.8946 81.6896C97.8946 82.0726 97.5766 82.3813 97.1823 82.3813ZM100.944 82.3961C100.554 82.3943 100.236 82.0819 100.236 81.7007C100.236 81.3176 100.554 81.0089 100.944 81.0108C101.335 81.0127 101.651 81.3251 101.651 81.7063C101.651 82.0893 101.335 82.3961 100.944 82.3961ZM113.22 77.9371C113.22 78.3369 112.888 78.7144 112.482 78.7107L110.431 78.6958V80.5757C110.431 80.9773 110.134 81.3864 109.726 81.3846L108.981 81.3808C108.574 81.379 108.2 80.9662 108.2 80.5646V78.679L105.991 78.6623C105.582 78.6605 105.225 78.2756 105.225 77.872V77.1022C105.225 76.721 105.563 76.496 105.95 76.4997L108.2 76.5202V74.5008C108.2 74.0992 108.559 73.8277 108.968 73.8313L109.73 73.8407C110.136 73.8462 110.431 74.1252 110.431 74.525V76.5425L112.482 76.5611C112.888 76.5648 113.22 76.8121 113.22 77.2119V77.9371Z" fill="white"/>
<path opacity="0.2" d="M110.721 101.438C107.369 103.135 103.57 104.123 99.5253 104.191C85.2723 104.435 73.4272 93.2297 73.4272 79.1608C73.4272 69.8187 78.6487 61.8136 86.3303 57.6149C91.1519 59.5134 97.0651 63.1655 97.7941 69.7834C97.8647 70.4119 97.887 71.0683 97.8572 71.7507C97.6471 76.5873 97.9539 81.5838 98.8446 86.0521C100.353 93.6425 103.545 99.7137 108.743 100.896C109.47 101.062 110.126 101.242 110.721 101.438Z" fill="url(#paint51_linear_205_741)"/>
<path d="M69.4276 60.479C71.0373 61.2963 73.0597 60.5458 73.9446 58.8029C74.8296 57.0599 74.242 54.9843 72.6323 54.1671C72.549 54.1246 72.4638 54.0891 72.3785 54.0551C72.6775 53.0906 72.903 52.1186 73.0542 51.1462C73.1465 51.146 73.239 51.1444 73.3332 51.136C75.1697 50.9723 76.6273 49.2847 76.5889 47.3665C76.5504 45.4484 75.0304 44.0261 73.1939 44.1898C73.0979 44.1984 73.0036 44.2136 72.9098 44.2302C72.718 43.2796 72.4551 42.3511 72.1235 41.4524C72.208 41.4029 72.2921 41.3518 72.3742 41.2943C73.9454 40.1936 74.4478 38.0208 73.4962 36.4416C72.5447 34.8623 70.4995 34.4745 68.9282 35.5752C68.8477 35.6317 68.772 35.6926 68.6971 35.7544C68.0766 35.0684 67.3959 34.4326 66.6594 33.8523C66.7112 33.7674 66.7619 33.6814 66.8077 33.5911C67.6927 31.8482 68.8491 29.9442 67.2268 29.1522C63.4739 27.3201 61.8634 28.8885 60.9784 30.6314C60.9326 30.7217 60.893 30.8134 60.855 30.9053C59.952 30.6531 59.0371 30.4788 58.117 30.3826C58.1228 30.2857 58.1272 30.1886 58.1253 30.0903C58.0868 28.1722 58.656 27.1342 56.8124 27.0984C52.7925 27.0202 51.4361 28.765 51.4746 30.6831C51.4766 30.7834 51.485 30.8814 51.4949 30.9788C50.5737 31.2413 49.669 31.5771 48.7883 31.9831C48.7465 31.8976 48.703 31.8126 48.6533 31.7299C47.7017 30.1507 45.6566 29.7629 44.0853 30.8637C42.514 31.9646 42.0116 34.1372 42.9632 35.7165C43.0119 35.7974 43.0654 35.873 43.1196 35.9477C42.4238 36.6436 41.7721 37.3992 41.17 38.2098C41.0921 38.161 41.0131 38.1132 40.9297 38.0709C39.32 37.2536 37.2976 38.004 36.4127 39.747C35.5278 41.49 36.1153 43.5656 37.725 44.3828C37.8084 44.4252 37.8936 44.4608 37.9789 44.4948C37.6799 45.4593 37.4544 46.4313 37.3032 47.4037C37.2109 47.404 37.1183 47.4055 37.0243 47.4138C35.1877 47.5776 33.7301 49.2652 33.7686 51.1834C33.807 53.1015 35.3271 54.5237 37.1636 54.36C37.2595 54.3515 37.3538 54.3364 37.4476 54.3197C37.6394 55.2703 37.9022 56.1988 38.2338 57.0975C38.1494 57.1469 38.0653 57.198 37.9832 57.2556C36.4119 58.3563 35.9096 60.529 36.8612 62.1083C37.8128 63.6876 40.9631 64.4214 42.5343 63.3205C42.6148 63.2641 41.5854 62.8573 41.6603 62.7955C42.2809 63.4816 42.9615 64.1174 43.6979 64.6976C43.6462 64.7825 43.5955 64.8685 43.5497 64.9588C42.6647 66.7018 43.2522 68.7773 44.862 69.5946C46.4717 70.4119 48.494 69.6615 49.379 67.9185C49.4248 67.8282 49.4644 67.7365 49.5023 67.6446C50.4053 67.8967 51.3203 68.0711 52.2404 68.1673C52.2346 68.2642 52.2302 68.3613 52.2321 68.4596C52.2706 70.3777 53.7906 71.7999 55.6271 71.6362C57.4637 71.4725 58.9213 69.7848 58.8828 67.8668C58.8808 67.7665 58.8724 67.6685 58.8624 67.5712C59.7837 67.3086 60.6885 66.9728 61.5691 66.5668C61.6109 66.6523 61.6544 66.7374 61.7041 66.8199C62.6557 68.3991 64.7008 68.7871 66.2721 67.6862C67.8434 66.5853 68.3457 64.4127 67.3942 62.8334C67.3454 62.7525 67.292 62.6769 67.2378 62.6022C67.9336 61.9064 68.5852 61.1507 69.1874 60.3401C69.2652 60.389 69.3441 60.4367 69.4276 60.479ZM49.3609 60.7336C43.5163 57.7662 41.3831 50.2305 44.5962 43.902C47.8093 37.5736 55.1519 34.8489 60.9964 37.8164C66.841 40.7837 68.9742 48.3195 65.7611 54.6479C62.548 60.9764 55.2054 63.7011 49.3609 60.7336Z" fill="url(#paint52_linear_205_741)"/>
<path d="M73.3332 51.1361C75.1697 50.9723 76.6273 49.2847 76.5889 47.3665C76.5504 45.4484 75.0304 44.0261 73.1939 44.1898C73.0979 44.1984 73.0036 44.2136 72.9098 44.2302C72.7181 43.2796 72.4551 42.3511 72.1235 41.4524C72.208 41.403 72.2921 41.3519 72.3742 41.2943C73.9454 40.1935 75.8894 37.5337 74.7808 36.0603C72.6768 33.2641 70.4995 34.4745 68.9282 35.5753C68.8477 35.6317 68.772 35.6926 68.6971 35.7544C68.0765 35.0683 67.3959 34.4326 66.6594 33.8523C66.7111 33.7674 66.7619 33.6815 66.8077 33.5912C67.2893 32.6425 67.3318 31.5967 67.0137 30.7075C65.4961 33.3786 63.9989 36.061 62.5285 38.7579C67.1911 42.1746 68.6755 48.9077 65.7611 54.6479C63.2914 59.5122 58.3821 62.2436 53.5885 61.9014C53.3747 62.4559 53.1648 63.0135 52.9357 63.5627C52.3144 65.0531 51.6085 66.5128 50.9016 67.9706C51.3461 68.0544 51.7926 68.1204 52.2404 68.1672C52.2346 68.2642 52.2302 68.3613 52.2321 68.4595C52.2706 70.3777 53.4352 72.0074 56.7636 71.8308C58.6049 71.7332 58.9213 69.7849 58.8828 67.8667C58.8808 67.7665 58.8724 67.6685 58.8625 67.5711C59.7838 67.3085 60.6885 66.9727 61.5691 66.5667C61.611 66.6522 61.6544 66.7373 61.7042 66.8198C62.6557 68.3991 65.9568 69.0702 67.5281 67.9692C69.0994 66.8684 68.3458 64.4126 67.3942 62.8333C67.3454 62.7524 67.292 62.6767 67.2378 62.6021C67.9336 61.9062 68.5853 61.1505 69.1874 60.34C69.2653 60.3889 69.3443 60.4366 69.4276 60.4788C71.0374 61.2962 73.0598 60.5457 73.9447 58.8027C74.8296 57.0598 74.2421 54.9841 72.6324 54.1669C72.549 54.1245 72.4638 54.089 72.3785 54.055C72.6776 53.0905 72.903 52.1184 73.0543 51.1462C73.1465 51.146 73.2391 51.1444 73.3332 51.1361Z" fill="url(#paint53_linear_205_741)"/>
<path d="M71.1589 60.6758C72.7686 61.4931 74.791 60.7427 75.676 58.9997C76.5609 57.2567 75.9734 55.1812 74.3636 54.3639C74.2802 54.3215 74.1951 54.2859 74.1097 54.2519C74.4088 53.2874 74.6343 52.3154 74.7855 51.343C74.8778 51.3428 74.9703 51.3412 75.0644 51.3328C76.901 51.1691 78.3585 49.4815 78.3201 47.5634C78.2817 45.6452 76.7617 44.2229 74.9251 44.3867C74.8292 44.3953 74.7349 44.4104 74.641 44.4271C74.4493 43.4765 74.1864 42.5479 73.8548 41.6492C73.9393 41.5998 74.0233 41.5488 74.1055 41.4912C75.6767 40.3904 76.179 38.2177 75.2275 36.6384C74.2759 35.0591 72.2308 34.6713 70.6595 35.7721C70.579 35.8285 70.5032 35.8895 70.4284 35.9512C69.8078 35.2652 69.1272 34.6294 68.3907 34.0492C68.4424 33.9643 68.4931 33.8783 68.539 33.788C69.4239 32.045 68.8364 29.9695 67.2267 29.1522C65.617 28.3349 63.5946 29.0854 62.7097 30.8284C62.6638 30.9186 62.6243 31.0104 62.5863 31.1022C61.6833 30.8501 60.7684 30.6757 59.8483 30.5796C59.854 30.4826 59.8584 30.3856 59.8565 30.2872C59.818 28.3692 58.2981 26.9469 56.4615 27.1106C54.625 27.2743 53.1674 28.962 53.2058 30.88C53.2078 30.9803 53.2162 31.0783 53.2261 31.1756C52.3049 31.4382 51.4002 31.774 50.5195 32.1801C50.4777 32.0945 50.4342 32.0095 50.3845 31.9269C49.433 30.3476 47.3877 29.9597 45.8165 31.0606C44.2452 32.1615 43.7429 34.3341 44.6944 35.9134C44.7432 35.9943 44.7966 36.0699 44.8508 36.1446C44.155 36.8405 43.5033 37.5961 42.9012 38.4067C42.8233 38.3579 42.7444 38.3102 42.661 38.2679C41.0513 37.4505 39.029 38.201 38.144 39.9439C37.259 41.6869 37.8466 43.7625 39.4563 44.5797C39.5397 44.6221 39.6248 44.6576 39.7102 44.6917C39.4112 45.6562 39.1856 46.6282 39.0344 47.6006C38.9422 47.6008 38.8496 47.6024 38.7555 47.6107C36.919 47.7745 35.4613 49.4621 35.4998 51.3803C35.5382 53.2984 37.0582 54.7206 38.8948 54.5569C38.9907 54.5484 39.085 54.5332 39.1788 54.5165C39.3706 55.4671 39.6334 56.3957 39.965 57.2944C39.8806 57.3438 39.7965 57.3949 39.7144 57.4524C38.1431 58.5532 37.6408 60.7259 38.5924 62.3052C39.544 63.8845 41.5891 64.2723 43.1603 63.1715C43.2409 63.115 43.3166 63.0542 43.3914 62.9923C44.0121 63.6784 44.6927 64.3142 45.4291 64.8944C45.3774 64.9793 45.3267 65.0653 45.2808 65.1556C44.3959 66.8986 44.9834 68.9741 46.5932 69.7914C48.2029 70.6087 50.2252 69.8583 51.1102 68.1153C51.156 68.025 51.1955 67.9333 51.2335 67.8414C52.1365 68.0935 53.0515 68.2679 53.9716 68.3641C53.9658 68.461 53.9613 68.5581 53.9633 68.6564C54.0018 70.5745 55.5218 71.9968 57.3583 71.8331C59.1948 71.6693 60.6524 69.9817 60.614 68.0636C60.612 67.9634 60.6036 67.8653 60.5936 67.768C61.5149 67.5054 62.4196 67.1697 63.3003 66.7636C63.3421 66.8491 63.3856 66.9342 63.4353 67.0166C64.3869 68.5959 66.432 68.9839 68.0033 67.883C69.5746 66.7821 70.0769 64.6095 69.1254 63.0302C69.0766 62.9494 69.0232 62.8737 68.9689 62.7991C69.6647 62.1032 70.3164 61.3475 70.9185 60.5369C70.9965 60.5857 71.0755 60.6335 71.1589 60.6758ZM51.0922 60.9305C45.2476 57.963 43.1144 50.4273 46.3275 44.0989C49.5407 37.7704 56.8832 35.0458 62.7277 38.0132C68.5723 40.9806 70.7055 48.5163 67.4924 54.8448C64.2793 61.1732 56.9367 63.8978 51.0922 60.9305Z" fill="url(#paint54_linear_205_741)"/>
</g>
<defs>
<linearGradient id="paint0_linear_205_741" x1="104.03" y1="28.6306" x2="126.372" y2="57.6008" gradientUnits="userSpaceOnUse">
<stop offset="0.0036" stop-color="#E38DDD"/>
<stop offset="1" stop-color="#9571F6"/>
</linearGradient>
<linearGradient id="paint1_linear_205_741" x1="176.504" y1="58.3966" x2="146.824" y2="70.8014" gradientUnits="userSpaceOnUse">
<stop stop-color="#FF9085"/>
<stop offset="1" stop-color="#FB6FBB"/>
</linearGradient>
<linearGradient id="paint2_linear_205_741" x1="101.693" y1="166.229" x2="102.048" y2="136.071" gradientUnits="userSpaceOnUse">
<stop offset="0.494" stop-color="#EBEFF2"/>
<stop offset="1" stop-color="white"/>
</linearGradient>
<linearGradient id="paint3_linear_205_741" x1="122.753" y1="79.7189" x2="96.5022" y2="205.579" gradientUnits="userSpaceOnUse">
<stop stop-color="#FF9085"/>
<stop offset="1" stop-color="#FB6FBB"/>
</linearGradient>
<linearGradient id="paint4_linear_205_741" x1="122.96" y1="89.851" x2="104.403" y2="178.824" gradientUnits="userSpaceOnUse">
<stop stop-color="#FF9085"/>
<stop offset="1" stop-color="#FB6FBB"/>
</linearGradient>
<linearGradient id="paint5_linear_205_741" x1="127.776" y1="153.507" x2="131.587" y2="153.617" gradientUnits="userSpaceOnUse">
<stop stop-color="#444B8C"/>
<stop offset="0.9964" stop-color="#26264F"/>
</linearGradient>
<linearGradient id="paint6_linear_205_741" x1="130.237" y1="152.304" x2="131.603" y2="152.304" gradientUnits="userSpaceOnUse">
<stop stop-color="#FFC444"/>
<stop offset="0.9964" stop-color="#F36F56"/>
</linearGradient>
<linearGradient id="paint7_linear_205_741" x1="115.403" y1="152.458" x2="119.308" y2="153.531" gradientUnits="userSpaceOnUse">
<stop stop-color="#444B8C"/>
<stop offset="0.9964" stop-color="#26264F"/>
</linearGradient>
<linearGradient id="paint8_linear_205_741" x1="118.052" y1="151.853" x2="119.74" y2="151.853" gradientUnits="userSpaceOnUse">
<stop stop-color="#FFC444"/>
<stop offset="0.9964" stop-color="#F36F56"/>
</linearGradient>
<linearGradient id="paint9_linear_205_741" x1="125.252" y1="88.6668" x2="137.981" y2="149.695" gradientUnits="userSpaceOnUse">
<stop stop-color="#FF9085"/>
<stop offset="1" stop-color="#FB6FBB"/>
</linearGradient>
<linearGradient id="paint10_linear_205_741" x1="136.199" y1="140.86" x2="131.368" y2="117.914" gradientUnits="userSpaceOnUse">
<stop stop-color="#FF9085"/>
<stop offset="1" stop-color="#FB6FBB"/>
</linearGradient>
<linearGradient id="paint11_linear_205_741" x1="133.972" y1="86.8481" x2="146.7" y2="147.876" gradientUnits="userSpaceOnUse">
<stop stop-color="#FF9085"/>
<stop offset="1" stop-color="#FB6FBB"/>
</linearGradient>
<linearGradient id="paint12_linear_205_741" x1="127.885" y1="113.284" x2="132.153" y2="113.284" gradientUnits="userSpaceOnUse">
<stop stop-color="#FFC444"/>
<stop offset="0.9964" stop-color="#F36F56"/>
</linearGradient>
<linearGradient id="paint13_linear_205_741" x1="131.099" y1="94.8817" x2="130.948" y2="105.396" gradientUnits="userSpaceOnUse">
<stop stop-color="#FFC444"/>
<stop offset="0.9964" stop-color="#F36F56"/>
</linearGradient>
<linearGradient id="paint14_linear_205_741" x1="128.174" y1="93.5574" x2="131.868" y2="93.5574" gradientUnits="userSpaceOnUse">
<stop stop-color="#FFC444"/>
<stop offset="0.9964" stop-color="#F36F56"/>
</linearGradient>
<linearGradient id="paint15_linear_205_741" x1="82.6785" y1="114.328" x2="93.7027" y2="88.0734" gradientUnits="userSpaceOnUse">
<stop stop-color="#311944"/>
<stop offset="1" stop-color="#893976"/>
</linearGradient>
<linearGradient id="paint16_linear_205_741" x1="89.0907" y1="152.209" x2="78.073" y2="125.969" gradientUnits="userSpaceOnUse">
<stop stop-color="#311944"/>
<stop offset="1" stop-color="#893976"/>
</linearGradient>
<linearGradient id="paint17_linear_205_741" x1="87.8804" y1="151.268" x2="77.7338" y2="127.103" gradientUnits="userSpaceOnUse">
<stop stop-color="#311944"/>
<stop offset="1" stop-color="#893976"/>
</linearGradient>
<linearGradient id="paint18_linear_205_741" x1="68.9602" y1="116.576" x2="74.162" y2="104.187" gradientUnits="userSpaceOnUse">
<stop stop-color="#311944"/>
<stop offset="1" stop-color="#893976"/>
</linearGradient>
<linearGradient id="paint19_linear_205_741" x1="82.7929" y1="113.963" x2="73.6471" y2="104.12" gradientUnits="userSpaceOnUse">
<stop stop-color="#311944"/>
<stop offset="1" stop-color="#893976"/>
</linearGradient>
<linearGradient id="paint20_linear_205_741" x1="104.072" y1="156.841" x2="99.1352" y2="156.841" gradientUnits="userSpaceOnUse">
<stop stop-color="#311944"/>
<stop offset="1" stop-color="#6B3976"/>
</linearGradient>
<linearGradient id="paint21_linear_205_741" x1="100.671" y1="156.56" x2="96.5844" y2="144.301" gradientUnits="userSpaceOnUse">
<stop stop-color="#FFC444"/>
<stop offset="0.9964" stop-color="#F36F56"/>
</linearGradient>
<linearGradient id="paint22_linear_205_741" x1="94.8852" y1="158.927" x2="89.948" y2="158.927" gradientUnits="userSpaceOnUse">
<stop stop-color="#311944"/>
<stop offset="1" stop-color="#6B3976"/>
</linearGradient>
<linearGradient id="paint23_linear_205_741" x1="91.4833" y1="158.647" x2="87.3971" y2="146.388" gradientUnits="userSpaceOnUse">
<stop stop-color="#FFC444"/>
<stop offset="0.9964" stop-color="#F36F56"/>
</linearGradient>
<linearGradient id="paint24_linear_205_741" x1="80.0162" y1="138.298" x2="97.2405" y2="140.147" gradientUnits="userSpaceOnUse">
<stop offset="0.0036" stop-color="#26264F"/>
<stop offset="1" stop-color="#444B8C"/>
</linearGradient>
<linearGradient id="paint25_linear_205_741" x1="77.7821" y1="142.959" x2="89.8965" y2="144.259" gradientUnits="userSpaceOnUse">
<stop offset="0.0036" stop-color="#26264F"/>
<stop offset="1" stop-color="#444B8C"/>
</linearGradient>
<linearGradient id="paint26_linear_205_741" x1="85.9655" y1="120.627" x2="89.6235" y2="115.995" gradientUnits="userSpaceOnUse">
<stop offset="0.0036" stop-color="#E38DDD"/>
<stop offset="1" stop-color="#9571F6"/>
</linearGradient>
<linearGradient id="paint27_linear_205_741" x1="89.0649" y1="129.885" x2="70.1902" y2="111.877" gradientUnits="userSpaceOnUse">
<stop offset="0.0036" stop-color="#E38DDD"/>
<stop offset="1" stop-color="#9571F6"/>
</linearGradient>
<linearGradient id="paint28_linear_205_741" x1="76.1216" y1="129.459" x2="84.2995" y2="119.104" gradientUnits="userSpaceOnUse">
<stop stop-color="#AA80F9"/>
<stop offset="0.9964" stop-color="#6165D7"/>
</linearGradient>
<linearGradient id="paint29_linear_205_741" x1="78.5833" y1="113.813" x2="83.1134" y2="104.381" gradientUnits="userSpaceOnUse">
<stop stop-color="#FFC444"/>
<stop offset="0.9964" stop-color="#F36F56"/>
</linearGradient>
<linearGradient id="paint30_linear_205_741" x1="78.3334" y1="110.758" x2="82.6247" y2="104.825" gradientUnits="userSpaceOnUse">
<stop stop-color="#311944"/>
<stop offset="1" stop-color="#6B3976"/>
</linearGradient>
<linearGradient id="paint31_linear_205_741" x1="81.7965" y1="106.569" x2="79.8542" y2="116.04" gradientUnits="userSpaceOnUse">
<stop stop-color="#FFC444"/>
<stop offset="0.9964" stop-color="#F36F56"/>
</linearGradient>
<linearGradient id="paint32_linear_205_741" x1="79.0801" y1="111.144" x2="83.2172" y2="105.425" gradientUnits="userSpaceOnUse">
<stop stop-color="#311944"/>
<stop offset="1" stop-color="#6B3976"/>
</linearGradient>
<linearGradient id="paint33_linear_205_741" x1="82.6377" y1="107.873" x2="82.1776" y2="109.085" gradientUnits="userSpaceOnUse">
<stop stop-color="#FFC444"/>
<stop offset="1" stop-color="#F36F56"/>
</linearGradient>
<linearGradient id="paint34_linear_205_741" x1="86.4508" y1="132.625" x2="67.5763" y2="114.617" gradientUnits="userSpaceOnUse">
<stop offset="0.0036" stop-color="#E38DDD"/>
<stop offset="1" stop-color="#9571F6"/>
</linearGradient>
<linearGradient id="paint35_linear_205_741" x1="93.958" y1="131.908" x2="94.3293" y2="130.217" gradientUnits="userSpaceOnUse">
<stop offset="0.0036" stop-color="#26264F"/>
<stop offset="1" stop-color="#444B8C"/>
</linearGradient>
<linearGradient id="paint36_linear_205_741" x1="85.1467" y1="127.583" x2="104.537" y2="127.583" gradientUnits="userSpaceOnUse">
<stop offset="0.0036" stop-color="#26264F"/>
<stop offset="1" stop-color="#444B8C"/>
</linearGradient>
<linearGradient id="paint37_linear_205_741" x1="104.238" y1="120.323" x2="102.289" y2="115.682" gradientUnits="userSpaceOnUse">
<stop offset="0.0036" stop-color="#26264F"/>
<stop offset="1" stop-color="#444B8C"/>
</linearGradient>
<linearGradient id="paint38_linear_205_741" x1="88.1553" y1="118.018" x2="118.906" y2="118.018" gradientUnits="userSpaceOnUse">
<stop offset="0.0036" stop-color="#26264F"/>
<stop offset="1" stop-color="#444B8C"/>
</linearGradient>
<linearGradient id="paint39_linear_205_741" x1="88.1553" y1="123.554" x2="115.982" y2="123.554" gradientUnits="userSpaceOnUse">
<stop offset="0.0036" stop-color="#26264F"/>
<stop offset="1" stop-color="#444B8C"/>
</linearGradient>
<linearGradient id="paint40_linear_205_741" x1="99.966" y1="128.778" x2="101.699" y2="129.552" gradientUnits="userSpaceOnUse">
<stop stop-color="#444B8C"/>
<stop offset="0.9964" stop-color="#26264F"/>
</linearGradient>
<linearGradient id="paint41_linear_205_741" x1="97.0734" y1="129.081" x2="103.453" y2="129.081" gradientUnits="userSpaceOnUse">
<stop offset="0.0036" stop-color="#26264F"/>
<stop offset="1" stop-color="#444B8C"/>
</linearGradient>
<linearGradient id="paint42_linear_205_741" x1="102.343" y1="124.085" x2="110.308" y2="124.085" gradientUnits="userSpaceOnUse">
<stop stop-color="#444B8C"/>
<stop offset="0.9964" stop-color="#26264F"/>
</linearGradient>
<linearGradient id="paint43_linear_205_741" x1="102.692" y1="124.083" x2="110.651" y2="124.083" gradientUnits="userSpaceOnUse">
<stop offset="0.0036" stop-color="#26264F"/>
<stop offset="1" stop-color="#444B8C"/>
</linearGradient>
<linearGradient id="paint44_linear_205_741" x1="78.3213" y1="128.442" x2="84.0338" y2="128.442" gradientUnits="userSpaceOnUse">
<stop offset="0.0036" stop-color="#26264F"/>
<stop offset="1" stop-color="#444B8C"/>
</linearGradient>
<linearGradient id="paint45_linear_205_741" x1="79.7261" y1="126.624" x2="80.8258" y2="130.417" gradientUnits="userSpaceOnUse">
<stop stop-color="#FFC444"/>
<stop offset="0.9964" stop-color="#F36F56"/>
</linearGradient>
<linearGradient id="paint46_linear_205_741" x1="160.232" y1="83.2247" x2="135.463" y2="83.2247" gradientUnits="userSpaceOnUse">
<stop offset="0.0036" stop-color="#E38DDD"/>
<stop offset="1" stop-color="#9571F6"/>
</linearGradient>
<linearGradient id="paint47_linear_205_741" x1="156.963" y1="76.709" x2="135.469" y2="105.016" gradientUnits="userSpaceOnUse">
<stop offset="0.0036" stop-color="#E38DDD"/>
<stop offset="1" stop-color="#9571F6"/>
</linearGradient>
<linearGradient id="paint48_linear_205_741" x1="71.7537" y1="79.3354" x2="122.704" y2="79.3354" gradientUnits="userSpaceOnUse">
<stop stop-color="#444B8C"/>
<stop offset="0.9964" stop-color="#26264F"/>
</linearGradient>
<linearGradient id="paint49_linear_205_741" x1="79.5515" y1="79.2759" x2="115.531" y2="79.2759" gradientUnits="userSpaceOnUse">
<stop stop-color="#444B8C"/>
<stop offset="0.9964" stop-color="#26264F"/>
</linearGradient>
<linearGradient id="paint50_linear_205_741" x1="73.4273" y1="79.3358" x2="124.377" y2="79.3358" gradientUnits="userSpaceOnUse">
<stop stop-color="#AA80F9"/>
<stop offset="0.9964" stop-color="#6165D7"/>
</linearGradient>
<linearGradient id="paint51_linear_205_741" x1="73.4273" y1="80.9051" x2="110.721" y2="80.9051" gradientUnits="userSpaceOnUse">
<stop stop-color="#AA80F9"/>
<stop offset="0.9964" stop-color="#6165D7"/>
</linearGradient>
<linearGradient id="paint52_linear_205_741" x1="33.7678" y1="49.3725" x2="76.5896" y2="49.3725" gradientUnits="userSpaceOnUse">
<stop stop-color="#AB316D"/>
<stop offset="1" stop-color="#792D3D"/>
</linearGradient>
<linearGradient id="paint53_linear_205_741" x1="50.9017" y1="51.2758" x2="76.5896" y2="51.2758" gradientUnits="userSpaceOnUse">
<stop stop-color="#AB316D"/>
<stop offset="1" stop-color="#792D3D"/>
</linearGradient>
<linearGradient id="paint54_linear_205_741" x1="69.2341" y1="27.5941" x2="15.5138" y2="122.958" gradientUnits="userSpaceOnUse">
<stop stop-color="#FF9085"/>
<stop offset="1" stop-color="#FB6FBB"/>
</linearGradient>
<clipPath id="clip0_205_741">
<rect width="190" height="190" fill="white"/>
</clipPath>
</defs>
</svg>
