<svg width="87" height="87" viewBox="0 0 87 87" fill="none" xmlns="http://www.w3.org/2000/svg">
<path d="M73.589 43.0765C72.0933 43.0765 70.8225 42.5536 69.7767 41.5078C68.7309 40.462 68.2068 39.19 68.2044 37.6919V16.1536C68.2044 14.6579 68.7285 13.3871 69.7767 12.3413C70.8249 11.2955 72.0957 10.7714 73.589 10.7691C75.0823 10.7667 76.3543 11.2908 77.4049 12.3413C78.4555 13.3919 78.9784 14.6627 78.9736 16.1536V37.6919C78.9736 39.1876 78.4507 40.4596 77.4049 41.5078C76.3591 42.556 75.0871 43.0789 73.589 43.0765ZM35.897 43.0765C31.9483 43.0765 28.568 41.6705 25.7561 38.8586C22.9441 36.0466 21.5382 32.6663 21.5382 28.7176C21.5382 24.7689 22.9441 21.3886 25.7561 18.5767C28.568 15.7647 31.9483 14.3588 35.897 14.3588C39.8457 14.3588 43.226 15.7647 46.038 18.5767C48.8499 21.3886 50.2559 24.7689 50.2559 28.7176C50.2559 32.6663 48.8499 36.0466 46.038 38.8586C43.226 41.6705 39.8457 43.0765 35.897 43.0765ZM7.17932 71.7942V61.743C7.17932 59.7088 7.68786 57.8398 8.70495 56.1358C9.72203 54.4319 11.128 53.1301 12.9229 52.2302C16.5126 50.4354 20.2375 49.0593 24.0976 48.1021C27.9578 47.1448 31.8909 46.6662 35.897 46.6662C39.9031 46.6662 43.8375 47.1448 47.7 48.1021C51.5625 49.0593 55.2863 50.4354 58.8712 52.2302C60.666 53.1277 62.072 54.4295 63.0891 56.1358C64.1062 57.8421 64.6147 59.7112 64.6147 61.743V71.7942H7.17932Z" fill="#3D9865"/>
</svg>
