<svg width="74" height="74" viewBox="0 0 74 74" fill="none" xmlns="http://www.w3.org/2000/svg">
<g clip-path="url(#clip0_149_22)">
<path fill-rule="evenodd" clip-rule="evenodd" d="M37.8457 2.50999C37.5044 2.35474 37.1337 2.27441 36.7587 2.27441C36.3837 2.27441 36.0131 2.35474 35.6717 2.50999L21.8977 8.77997L36.7482 15.5436L51.6092 8.77472L37.8457 2.50999ZM19.4297 29.4593V13.4221L34.1331 20.1174V37.8403L20.9578 31.8487C20.4991 31.64 20.1101 31.3038 19.8373 30.8802C19.5644 30.4565 19.4193 29.9633 19.4192 29.4593M39.3739 64.7056V47.1665L53.3001 53.51V71.2329L40.1405 65.2413C39.8531 65.1106 39.5969 64.9291 39.3739 64.7056ZM58.5461 71.2434V53.51L73.2653 46.8094V62.852C73.2652 63.3559 73.1201 63.8491 72.8472 64.2728C72.5744 64.6964 72.1854 65.0326 71.7267 65.2413L58.5461 71.2434ZM34.1226 47.1665V64.7266C33.9042 64.9406 33.6501 65.1148 33.3717 65.2413L20.1911 71.2434V53.51L34.1226 47.1665ZM14.9398 53.51V71.2329L1.7855 65.2413C1.3268 65.0326 0.93782 64.6964 0.664996 64.2728C0.392172 63.8491 0.247027 63.3559 0.246887 62.852V46.8147L14.9398 53.51ZM39.3739 37.8508V20.1121L54.0931 13.4116V29.4593C54.0929 29.9633 53.9478 30.4565 53.675 30.8802C53.4021 31.3038 53.0132 31.64 52.5545 31.8487L39.3739 37.8508ZM54.8545 35.9079C55.1959 35.7526 55.5665 35.6723 55.9415 35.6723C56.3165 35.6723 56.6872 35.7526 57.0285 35.9079L70.7868 42.1673L55.9258 48.9362L41.091 42.1673L54.8545 35.9079ZM16.489 35.9079C16.8303 35.7526 17.201 35.6723 17.576 35.6723C17.951 35.6723 18.3216 35.7526 18.663 35.9079L32.4212 42.1673L17.5655 48.9414L2.72022 42.1673L16.489 35.9079Z" fill="#3D9865"/>
</g>
<defs>
<clipPath id="clip0_149_22">
<rect width="73.5173" height="73.5173" fill="white"/>
</clipPath>
</defs>
</svg>
