<svg width="74" height="74" viewBox="0 0 74 74" fill="none" xmlns="http://www.w3.org/2000/svg">
<path d="M60.125 69.375C65.2336 69.375 69.375 65.2336 69.375 60.125C69.375 55.0164 65.2336 50.875 60.125 50.875C55.0164 50.875 50.875 55.0164 50.875 60.125C50.875 65.2336 55.0164 69.375 60.125 69.375Z" fill="#3D9865"/>
<path d="M23.125 30.0625H27.75V34.6875H23.125V30.0625ZM23.125 41.625H27.75V46.25H23.125V41.625ZM23.125 53.1875H27.75V57.8125H23.125V53.1875ZM32.375 30.0625H50.875V34.6875H32.375V30.0625ZM32.375 41.625H50.875V46.25H32.375V41.625ZM32.375 53.1875H41.625V57.8125H32.375V53.1875Z" fill="#3D9865"/>
<path d="M16.1875 64.75V16.1875H23.125V23.125H50.875V16.1875H57.8125V41.625H62.4375V16.1875C62.4375 14.9609 61.9502 13.7845 61.0829 12.9171C60.2155 12.0498 59.0391 11.5625 57.8125 11.5625H50.875V9.25C50.875 8.02337 50.3877 6.84699 49.5204 5.97963C48.653 5.11228 47.4766 4.625 46.25 4.625H27.75C26.5234 4.625 25.347 5.11228 24.4796 5.97963C23.6123 6.84699 23.125 8.02337 23.125 9.25V11.5625H16.1875C14.9609 11.5625 13.7845 12.0498 12.9171 12.9171C12.0498 13.7845 11.5625 14.9609 11.5625 16.1875V64.75C11.5625 65.9766 12.0498 67.153 12.9171 68.0204C13.7845 68.8877 14.9609 69.375 16.1875 69.375H41.625V64.75H16.1875ZM27.75 9.25H46.25V18.5H27.75V9.25Z" fill="#3D9865"/>
</svg>
