<svg width="57" height="57" viewBox="0 0 57 57" fill="none" xmlns="http://www.w3.org/2000/svg">
<path d="M19 26.125C22.1494 26.125 25.1699 24.8739 27.3969 22.6469C29.6239 20.4199 30.875 17.3994 30.875 14.25C30.875 11.1006 29.6239 8.0801 27.3969 5.85311C25.1699 3.62611 22.1494 2.375 19 2.375C15.8506 2.375 12.8301 3.62611 10.6031 5.85311C8.37611 8.0801 7.125 11.1006 7.125 14.25C7.125 17.3994 8.37611 20.4199 10.6031 22.6469C12.8301 24.8739 15.8506 26.125 19 26.125ZM19 26.125C23.7809 26.125 27.9585 27.93 30.9296 30.9296C32.6911 32.7156 34.009 34.89 34.7771 37.278M19 26.125C9.5 26.125 2.375 33.25 2.375 42.75V54.625H26.125M28.5 44.707L38.4513 52.25L54.625 30.875" stroke="#3D9865" stroke-width="3"/>
</svg>
